<svg width="255" height="255" viewBox="0 0 255 255" fill="none" xmlns="http://www.w3.org/2000/svg">
<g id="app icon">
<path id="mid" d="M33.5091 116H222.647C222.861 116 223.074 116.005 223.286 116.015C223.498 116.024 223.709 116.039 223.919 116.058C224.13 116.078 224.339 116.102 224.547 116.131C224.755 116.16 224.962 116.194 225.167 116.233C225.373 116.271 225.577 116.315 225.779 116.363C225.981 116.411 226.181 116.464 226.379 116.522C226.578 116.579 226.775 116.642 226.97 116.709C227.164 116.776 227.357 116.847 227.547 116.923C227.737 116.999 227.925 117.08 228.11 117.165C228.296 117.25 228.479 117.34 228.66 117.434C228.84 117.528 229.017 117.626 229.192 117.729C229.368 117.831 229.54 117.938 229.709 118.049C229.878 118.16 230.044 118.276 230.207 118.395C230.37 118.514 230.529 118.637 230.685 118.765C230.842 118.892 230.995 119.023 231.145 119.158C231.294 119.293 231.44 119.432 231.583 119.574C231.725 119.716 231.863 119.862 231.998 120.012C232.134 120.162 232.265 120.314 232.392 120.471C232.519 120.627 232.642 120.787 232.762 120.95C232.881 121.113 232.996 121.279 233.107 121.448C233.218 121.617 233.326 121.789 233.428 121.964C233.53 122.139 233.628 122.317 233.722 122.497C233.817 122.677 233.906 122.86 233.992 123.046C234.076 123.232 234.157 123.419 234.233 123.61C234.309 123.8 234.381 123.993 234.448 124.187C234.515 124.382 234.577 124.578 234.635 124.777C234.693 124.976 234.745 125.176 234.793 125.378C234.841 125.58 234.885 125.784 234.923 125.989C234.962 126.195 234.996 126.401 235.025 126.609C235.055 126.817 235.079 127.026 235.098 127.237C235.118 127.447 235.132 127.658 235.142 127.87C235.152 128.083 235.157 128.295 235.157 128.509C235.157 128.723 235.152 128.936 235.142 129.148C235.132 129.36 235.118 129.571 235.098 129.782C235.079 129.992 235.055 130.201 235.025 130.409C234.996 130.617 234.962 130.824 234.923 131.029C234.885 131.234 234.842 131.438 234.793 131.64C234.745 131.842 234.693 132.043 234.635 132.241C234.577 132.44 234.515 132.637 234.448 132.831C234.381 133.026 234.309 133.218 234.233 133.409C234.157 133.599 234.076 133.787 233.992 133.972C233.906 134.158 233.817 134.341 233.722 134.521C233.628 134.702 233.53 134.879 233.428 135.054C233.326 135.229 233.218 135.401 233.107 135.57C232.996 135.74 232.881 135.906 232.762 136.069C232.642 136.231 232.519 136.391 232.392 136.547C232.265 136.704 232.134 136.857 231.998 137.006C231.863 137.156 231.725 137.302 231.583 137.444C231.44 137.587 231.294 137.725 231.145 137.86C230.995 137.995 230.842 138.126 230.685 138.254C230.529 138.381 230.37 138.504 230.207 138.623C230.044 138.743 229.878 138.858 229.709 138.969C229.54 139.08 229.368 139.187 229.192 139.289C229.017 139.392 228.84 139.49 228.66 139.584C228.479 139.678 228.296 139.768 228.11 139.853C227.925 139.938 227.737 140.019 227.547 140.095C227.357 140.171 227.164 140.243 226.97 140.31C226.775 140.377 226.578 140.439 226.379 140.496C226.181 140.554 225.981 140.607 225.779 140.655C225.577 140.703 225.373 140.747 225.167 140.785C224.962 140.824 224.755 140.858 224.547 140.887C224.339 140.916 224.13 140.94 223.919 140.96C223.709 140.979 223.498 140.994 223.286 141.004C223.074 141.013 222.861 141.018 222.647 141.018H33.5091C33.2955 141.018 33.0826 141.013 32.8705 141.004C32.6583 140.994 32.4471 140.979 32.2367 140.96C32.0264 140.94 31.8173 140.916 31.6093 140.887C31.4012 140.858 31.1946 140.824 30.9893 140.785C30.784 140.747 30.5803 140.703 30.3782 140.655C30.176 140.607 29.9756 140.554 29.777 140.496C29.5784 140.439 29.3818 140.377 29.1872 140.31C28.9925 140.243 28.8 140.171 28.6097 140.095C28.4194 140.019 28.2315 139.938 28.046 139.853C27.8604 139.768 27.6774 139.678 27.497 139.584C27.3166 139.49 27.1389 139.392 26.9639 139.289C26.789 139.187 26.617 139.08 26.4479 138.969C26.2788 138.858 26.1127 138.743 25.9498 138.623C25.7869 138.504 25.6273 138.381 25.4709 138.254C25.3145 138.126 25.1615 137.995 25.012 137.86C24.8624 137.725 24.7164 137.587 24.574 137.444C24.4316 137.302 24.2929 137.156 24.158 137.006C24.023 136.857 23.8919 136.704 23.7647 136.547C23.6374 136.391 23.5141 136.231 23.3949 136.069C23.2756 135.906 23.1604 135.74 23.0493 135.57C22.9382 135.401 22.8314 135.229 22.7288 135.054C22.6262 134.879 22.5278 134.702 22.4339 134.521C22.3399 134.341 22.2503 134.158 22.1652 133.972C22.0801 133.787 21.9994 133.599 21.9233 133.409C21.8472 133.218 21.7757 133.026 21.7087 132.831C21.6418 132.637 21.5795 132.44 21.5219 132.241C21.4642 132.043 21.4113 131.842 21.3631 131.64C21.3149 131.438 21.2714 131.234 21.2327 131.029C21.194 130.824 21.1601 130.617 21.1311 130.409C21.102 130.201 21.0777 129.992 21.0583 129.782C21.0389 129.571 21.0243 129.36 21.0146 129.148C21.0049 128.936 21 128.723 21 128.509C21 128.295 21.0049 128.083 21.0146 127.87C21.0243 127.658 21.0389 127.447 21.0583 127.237C21.0777 127.026 21.102 126.817 21.1311 126.609C21.1601 126.401 21.194 126.195 21.2327 125.989C21.2714 125.784 21.3149 125.58 21.3631 125.378C21.4113 125.176 21.4642 124.976 21.5219 124.777C21.5795 124.578 21.6418 124.382 21.7087 124.187C21.7757 123.993 21.8472 123.8 21.9233 123.61C21.9994 123.419 22.0801 123.232 22.1652 123.046C22.2503 122.86 22.3399 122.677 22.4339 122.497C22.5278 122.317 22.6262 122.139 22.7288 121.964C22.8314 121.789 22.9382 121.617 23.0493 121.448C23.1604 121.279 23.2756 121.113 23.3949 120.95C23.5141 120.787 23.6374 120.627 23.7647 120.471C23.8919 120.314 24.023 120.162 24.158 120.012C24.2929 119.862 24.4316 119.716 24.574 119.574C24.7164 119.432 24.8624 119.293 25.012 119.158C25.1615 119.023 25.3145 118.892 25.4709 118.765C25.6273 118.637 25.7869 118.514 25.9498 118.395C26.1127 118.276 26.2788 118.16 26.4479 118.049C26.617 117.938 26.789 117.831 26.9639 117.729C27.1389 117.626 27.3166 117.528 27.497 117.434C27.6774 117.34 27.8604 117.25 28.046 117.165C28.2315 117.08 28.4194 116.999 28.6097 116.923C28.8 116.847 28.9925 116.776 29.1872 116.709C29.3818 116.642 29.5784 116.579 29.777 116.522C29.9756 116.464 30.176 116.411 30.3782 116.363C30.5803 116.315 30.784 116.271 30.9893 116.233C31.1946 116.194 31.4012 116.16 31.6093 116.131C31.8173 116.102 32.0264 116.078 32.2367 116.058C32.4471 116.039 32.6583 116.024 32.8705 116.015C33.0826 116.005 33.2955 116 33.5091 116Z" fill="#6A9BD8"/>
<path id="upper 3" d="M179.591 71.7978L190.913 83.1197C191.052 83.2587 191.187 83.4003 191.319 83.5447C191.45 83.689 191.578 83.8359 191.703 83.9853C191.827 84.1348 191.947 84.2866 192.063 84.4409C192.18 84.5952 192.292 84.7516 192.401 84.9103C192.509 85.069 192.613 85.2299 192.713 85.3928C192.814 85.5556 192.91 85.7204 193.001 85.8871C193.093 86.0538 193.18 86.2222 193.263 86.3924C193.346 86.5625 193.425 86.7343 193.499 86.9076C193.574 87.081 193.644 87.2557 193.709 87.4317C193.774 87.6078 193.835 87.7851 193.891 87.9636C193.947 88.1421 193.999 88.3217 194.046 88.5022C194.093 88.6828 194.136 88.8643 194.173 89.0465C194.211 89.2288 194.244 89.4117 194.272 89.5953C194.301 89.7789 194.324 89.9628 194.343 90.1474C194.363 90.332 194.377 90.5168 194.386 90.7019C194.396 90.8869 194.4 91.0721 194.4 91.2573C194.4 91.4427 194.396 91.6279 194.386 91.8129C194.377 91.998 194.362 92.1828 194.344 92.3674C194.325 92.5519 194.301 92.7359 194.272 92.9195C194.244 93.103 194.211 93.286 194.173 93.4683C194.136 93.6505 194.093 93.832 194.046 94.0125C193.999 94.1931 193.947 94.3726 193.891 94.5511C193.835 94.7296 193.774 94.9069 193.709 95.0831C193.643 95.2592 193.574 95.4339 193.499 95.6072C193.425 95.7804 193.346 95.9522 193.263 96.1224C193.18 96.2926 193.093 96.461 193.001 96.6277C192.909 96.7943 192.814 96.9591 192.713 97.122C192.613 97.2849 192.509 97.4457 192.401 97.6044C192.292 97.7631 192.18 97.9196 192.063 98.0739C191.947 98.2281 191.827 98.38 191.703 98.5294C191.578 98.6789 191.45 98.8258 191.319 98.9701C191.187 99.1144 191.052 99.2561 190.913 99.395C190.774 99.534 190.632 99.6694 190.488 99.801C190.344 99.9327 190.197 100.061 190.047 100.185C189.898 100.309 189.746 100.429 189.592 100.546C189.437 100.662 189.281 100.774 189.122 100.883C188.963 100.991 188.803 101.096 188.64 101.196C188.477 101.296 188.312 101.392 188.145 101.483C187.979 101.575 187.81 101.663 187.64 101.746C187.47 101.829 187.298 101.907 187.125 101.982C186.952 102.056 186.777 102.126 186.601 102.191C186.425 102.256 186.247 102.317 186.069 102.373C185.89 102.43 185.711 102.481 185.53 102.528C185.35 102.575 185.168 102.618 184.986 102.656C184.804 102.693 184.621 102.726 184.437 102.755C184.254 102.783 184.07 102.807 183.885 102.826C183.701 102.845 183.516 102.859 183.331 102.868C183.146 102.878 182.96 102.883 182.775 102.883C182.59 102.883 182.405 102.878 182.22 102.868C182.034 102.859 181.85 102.845 181.665 102.826C181.481 102.807 181.297 102.783 181.113 102.755C180.929 102.726 180.747 102.693 180.564 102.655C180.382 102.618 180.201 102.575 180.02 102.528C179.839 102.481 179.66 102.43 179.481 102.373C179.303 102.317 179.126 102.256 178.949 102.191C178.773 102.126 178.599 102.056 178.425 101.982C178.252 101.907 178.08 101.829 177.91 101.746C177.74 101.663 177.572 101.575 177.405 101.483C177.238 101.392 177.073 101.296 176.911 101.196C176.748 101.096 176.587 100.991 176.428 100.883C176.269 100.775 176.113 100.662 175.959 100.546C175.804 100.429 175.653 100.309 175.503 100.185C175.354 100.061 175.207 99.9328 175.062 99.801C174.918 99.6694 174.776 99.534 174.638 99.3951L163.316 88.0731C163.177 87.9341 163.041 87.7925 162.91 87.6482C162.778 87.5038 162.65 87.3569 162.526 87.2075C162.402 87.058 162.281 86.9062 162.165 86.7519C162.048 86.5977 161.936 86.4412 161.828 86.2825C161.719 86.1237 161.615 85.9629 161.515 85.8001C161.415 85.6372 161.319 85.4724 161.227 85.3057C161.135 85.1391 161.048 84.9706 160.965 84.8004C160.882 84.6303 160.803 84.4585 160.729 84.2852C160.655 84.1119 160.585 83.9372 160.52 83.7611C160.454 83.585 160.393 83.4077 160.337 83.2292C160.281 83.0507 160.229 82.8712 160.182 82.6906C160.135 82.51 160.093 82.3286 160.055 82.1463C160.017 81.964 159.984 81.7811 159.956 81.5976C159.927 81.414 159.904 81.2299 159.885 81.0454C159.866 80.8609 159.852 80.6761 159.842 80.491C159.833 80.3059 159.828 80.1207 159.828 79.9354C159.828 79.7502 159.833 79.565 159.842 79.3799C159.852 79.1949 159.866 79.01 159.885 78.8255C159.904 78.6409 159.928 78.4569 159.956 78.2733C159.984 78.0898 160.017 77.9068 160.055 77.7246C160.093 77.5423 160.135 77.3609 160.182 77.1803C160.229 76.9998 160.281 76.8202 160.337 76.6417C160.393 76.4632 160.454 76.2858 160.52 76.1098C160.585 75.9337 160.655 75.759 160.729 75.5857C160.803 75.4124 160.882 75.2406 160.965 75.0704C161.048 74.9003 161.135 74.7319 161.227 74.5651C161.319 74.3985 161.415 74.2337 161.515 74.0708C161.615 73.9079 161.719 73.7471 161.828 73.5884C161.936 73.4296 162.048 73.2732 162.165 73.119C162.281 72.9647 162.402 72.8128 162.526 72.6634C162.65 72.514 162.778 72.367 162.91 72.2227C163.041 72.0784 163.177 71.9368 163.316 71.7978C163.454 71.6588 163.596 71.5235 163.74 71.3918C163.885 71.2601 164.032 71.1321 164.181 71.008C164.331 70.8838 164.482 70.7635 164.637 70.6471C164.791 70.5307 164.947 70.4183 165.106 70.3099C165.265 70.2016 165.426 70.0973 165.589 69.9971C165.751 69.897 165.916 69.8011 166.083 69.7094C166.25 69.6177 166.418 69.5303 166.588 69.4472C166.758 69.3641 166.93 69.2855 167.103 69.2112C167.277 69.1369 167.451 69.0671 167.628 69.0018C167.804 68.9364 167.981 68.8757 168.159 68.8194C168.338 68.7632 168.517 68.7115 168.698 68.6645C168.879 68.6174 169.06 68.575 169.242 68.5373C169.425 68.4995 169.608 68.4665 169.791 68.4381C169.975 68.4097 170.159 68.386 170.343 68.3671C170.528 68.3481 170.713 68.3339 170.898 68.3244C171.083 68.3149 171.268 68.3102 171.453 68.3102C171.638 68.3102 171.824 68.3149 172.009 68.3244C172.194 68.3339 172.379 68.3481 172.563 68.3671C172.748 68.386 172.932 68.4097 173.115 68.4381C173.299 68.4665 173.482 68.4995 173.664 68.5373C173.846 68.575 174.028 68.6174 174.208 68.6645C174.389 68.7115 174.568 68.7632 174.747 68.8194C174.925 68.8757 175.103 68.9364 175.279 69.0018C175.455 69.0671 175.63 69.1369 175.803 69.2112C175.976 69.2854 176.148 69.3641 176.318 69.4472C176.488 69.5303 176.657 69.6177 176.823 69.7094C176.99 69.8011 177.155 69.897 177.318 69.9971C177.481 70.0973 177.642 70.2015 177.8 70.3099C177.959 70.4183 178.115 70.5307 178.27 70.6471C178.424 70.7635 178.576 70.8838 178.725 71.008C178.875 71.1321 179.022 71.2601 179.166 71.3918C179.31 71.5235 179.452 71.6587 179.591 71.7978Z" fill="#E86135"/>
<path id="upper 2" d="M64.5864 82.4122L75.9084 71.0902C76.0473 70.9512 76.189 70.8159 76.3333 70.6842C76.4776 70.5525 76.6245 70.4246 76.774 70.3004C76.9234 70.1763 77.0753 70.056 77.2295 69.9396C77.3838 69.8231 77.5403 69.7108 77.699 69.6024C77.8577 69.494 78.0185 69.3897 78.1814 69.2896C78.3443 69.1894 78.509 69.0935 78.6757 69.0018C78.8424 68.9101 79.0108 68.8227 79.181 68.7396C79.3512 68.6566 79.5229 68.5779 79.6963 68.5036C79.8696 68.4293 80.0443 68.3595 80.2203 68.2943C80.3965 68.2289 80.5737 68.1681 80.7522 68.1119C80.9308 68.0556 81.1103 68.004 81.2909 67.9569C81.4715 67.9099 81.6529 67.8675 81.8351 67.8298C82.0174 67.792 82.2003 67.7589 82.3839 67.7305C82.5675 67.7022 82.7515 67.6785 82.9361 67.6595C83.1206 67.6405 83.3054 67.6263 83.4905 67.6168C83.6755 67.6074 83.8607 67.6027 84.0461 67.6026C84.2313 67.6026 84.4165 67.6074 84.6016 67.6169C84.7867 67.6263 84.9715 67.6406 85.156 67.6595C85.3405 67.6785 85.5246 67.7021 85.7081 67.7305C85.8917 67.7589 86.0746 67.792 86.2569 67.8297C86.4392 67.8675 86.6206 67.9099 86.8012 67.9569C86.9817 68.004 87.1612 68.0557 87.3398 68.1119C87.5183 68.1681 87.6956 68.2289 87.8717 68.2942C88.0478 68.3596 88.2225 68.4293 88.3958 68.5036C88.5691 68.5779 88.7408 68.6566 88.911 68.7397C89.0812 68.8227 89.2496 68.9101 89.4163 69.0019C89.583 69.0936 89.7478 69.1895 89.9107 69.2896C90.0736 69.3897 90.2343 69.494 90.393 69.6024C90.5518 69.7108 90.7082 69.8232 90.8625 69.9395C91.0167 70.056 91.1686 70.1763 91.3181 70.3005C91.4675 70.4246 91.6144 70.5526 91.7587 70.6843C91.9031 70.8159 92.0448 70.9512 92.1837 71.0902C92.3227 71.2292 92.458 71.3708 92.5896 71.5152C92.7213 71.6595 92.8493 71.8064 92.9735 71.9559C93.0976 72.1053 93.2179 72.2572 93.3344 72.4114C93.4507 72.5656 93.5631 72.7221 93.6715 72.8809C93.7799 73.0396 93.8842 73.2003 93.9843 73.3632C94.0844 73.5262 94.1803 73.6909 94.272 73.8576C94.3638 74.0243 94.4511 74.1927 94.5342 74.3629C94.6173 74.5331 94.696 74.7048 94.7703 74.8782C94.8446 75.0515 94.9144 75.2261 94.9797 75.4022C95.045 75.5783 95.1058 75.7556 95.162 75.9341C95.2183 76.1127 95.27 76.2922 95.317 76.4728C95.3641 76.6533 95.4064 76.8347 95.4442 77.017C95.4819 77.1992 95.515 77.3822 95.5434 77.5658C95.5717 77.7493 95.5954 77.9334 95.6144 78.1179C95.6333 78.3025 95.6476 78.4872 95.657 78.6723C95.6666 78.8574 95.6713 79.0426 95.6713 79.2279C95.6712 79.4132 95.6665 79.5984 95.6571 79.7834C95.6476 79.9685 95.6334 80.1533 95.6145 80.3379C95.5954 80.5224 95.5718 80.7065 95.5434 80.89C95.515 81.0736 95.4819 81.2565 95.4441 81.4388C95.4064 81.621 95.3641 81.8025 95.317 81.983C95.27 82.1636 95.2183 82.3431 95.1621 82.5217C95.1058 82.7002 95.045 82.8774 94.9796 83.0536C94.9144 83.2297 94.8446 83.4043 94.7703 83.5777C94.696 83.751 94.6173 83.9228 94.5342 84.0928C94.4512 84.2631 94.3638 84.4315 94.2721 84.5982C94.1804 84.7649 94.0845 84.9296 93.9844 85.0925C93.8842 85.2554 93.7799 85.4162 93.6715 85.5749C93.5631 85.7337 93.4508 85.8901 93.3343 86.0444C93.2179 86.1987 93.0977 86.3505 92.9735 86.5C92.8493 86.6494 92.7214 86.7963 92.5897 86.9406C92.458 87.0849 92.3227 87.2266 92.1837 87.3655L80.8617 98.6875C80.7227 98.8265 80.5811 98.9618 80.4368 99.0935C80.2925 99.2252 80.1456 99.3532 79.9961 99.4773C79.8467 99.6014 79.6948 99.7218 79.5405 99.8382C79.3863 99.9546 79.2298 100.067 79.0712 100.175C78.9124 100.284 78.7516 100.388 78.5887 100.488C78.4258 100.588 78.261 100.684 78.0944 100.776C77.9277 100.868 77.7593 100.955 77.589 101.038C77.4189 101.121 77.2472 101.2 77.0739 101.274C76.9005 101.348 76.7259 101.418 76.5497 101.483C76.3736 101.549 76.1963 101.61 76.0179 101.666C75.8393 101.722 75.6598 101.774 75.4792 101.821C75.2987 101.868 75.1172 101.91 74.9349 101.948C74.7526 101.986 74.5698 102.019 74.3862 102.047C74.2027 102.076 74.0186 102.099 73.8341 102.118C73.6495 102.137 73.4648 102.151 73.2796 102.161C73.0945 102.17 72.9093 102.175 72.7241 102.175C72.5388 102.175 72.3536 102.17 72.1685 102.161C71.9834 102.151 71.7986 102.137 71.6141 102.118C71.4296 102.099 71.2455 102.076 71.062 102.047C70.8784 102.019 70.6954 101.986 70.5132 101.948C70.3309 101.91 70.1496 101.868 69.9689 101.821C69.7884 101.774 69.6089 101.722 69.4303 101.666C69.2518 101.61 69.0745 101.549 68.8984 101.483C68.7223 101.418 68.5477 101.348 68.3743 101.274C68.201 101.2 68.0292 101.121 67.8591 101.038C67.6889 100.955 67.5205 100.868 67.3537 100.776C67.1871 100.684 67.0223 100.588 66.8594 100.488C66.6965 100.388 66.5358 100.284 66.377 100.175C66.2183 100.067 66.0618 99.9545 65.9076 99.8382C65.7534 99.7218 65.6015 99.6014 65.4521 99.4773C65.3026 99.3531 65.1557 99.2251 65.0113 99.0934C64.867 98.9618 64.7254 98.8265 64.5864 98.6875C64.4475 98.5486 64.3121 98.4069 64.1805 98.2626C64.0488 98.1182 63.9208 97.9713 63.7967 97.8219C63.6725 97.6724 63.5522 97.5206 63.4357 97.3663C63.3193 97.2121 63.207 97.0556 63.0986 96.8969C62.9902 96.7382 62.8859 96.5774 62.7858 96.4145C62.6856 96.2516 62.5897 96.0868 62.498 95.9201C62.4063 95.7535 62.3189 95.585 62.2358 95.4148C62.1528 95.2447 62.0741 95.0729 61.9998 94.8996C61.9255 94.7263 61.8557 94.5516 61.7904 94.3755C61.7251 94.1994 61.6643 94.0221 61.6081 93.8436C61.5518 93.6651 61.5002 93.4855 61.4531 93.305C61.4061 93.1244 61.3637 92.943 61.3259 92.7607C61.2882 92.5784 61.2551 92.3955 61.2267 92.212C61.1983 92.0284 61.1747 91.8443 61.1557 91.6598C61.1368 91.4753 61.1225 91.2905 61.1131 91.1054C61.1036 90.9203 61.0988 90.7351 61.0988 90.5498C61.0988 90.3646 61.1036 90.1794 61.113 89.9943C61.1225 89.8092 61.1368 89.6244 61.1557 89.4399C61.1747 89.2554 61.1983 89.0713 61.2267 88.8877C61.2551 88.7041 61.2882 88.5212 61.3259 88.339C61.3637 88.1567 61.4061 87.9753 61.4531 87.7947C61.5002 87.6141 61.5518 87.4346 61.6081 87.2561C61.6643 87.0776 61.7251 86.9003 61.7904 86.7242C61.8557 86.5481 61.9255 86.3734 61.9998 86.2001C62.0741 86.0268 62.1528 85.855 62.2358 85.6848C62.3189 85.5147 62.4063 85.3462 62.498 85.1795C62.5897 85.0128 62.6856 84.8481 62.7858 84.6852C62.8859 84.5223 62.9902 84.3615 63.0986 84.2028C63.2069 84.0441 63.3193 83.8876 63.4357 83.7334C63.5521 83.5791 63.6725 83.4272 63.7966 83.2778C63.9208 83.1284 64.0488 82.9814 64.1805 82.8371C64.3121 82.6928 64.4474 82.5512 64.5864 82.4122Z" fill="#24C981"/>
<path id="upper 4" d="M109.138 38.4597L120.46 27.1377C120.599 26.9987 120.74 26.8634 120.885 26.7317C121.029 26.6 121.176 26.4721 121.325 26.3479C121.475 26.2238 121.627 26.1035 121.781 25.9871C121.935 25.8706 122.092 25.7583 122.25 25.6499C122.409 25.5415 122.57 25.4372 122.733 25.3371C122.896 25.2369 123.06 25.141 123.227 25.0493C123.394 24.9576 123.562 24.8702 123.732 24.7871C123.902 24.7041 124.074 24.6254 124.248 24.5511C124.421 24.4768 124.596 24.407 124.772 24.3418C124.948 24.2765 125.125 24.2156 125.304 24.1594C125.482 24.1031 125.662 24.0515 125.842 24.0045C126.023 23.9574 126.204 23.915 126.386 23.8773C126.569 23.8395 126.752 23.8064 126.935 23.778C127.119 23.7497 127.303 23.726 127.487 23.7071C127.672 23.688 127.857 23.6738 128.042 23.6643C128.227 23.6549 128.412 23.6502 128.597 23.6502C128.783 23.6501 128.968 23.6548 129.153 23.6644C129.338 23.6738 129.523 23.6881 129.707 23.707C129.892 23.726 130.076 23.7496 130.259 23.778C130.443 23.8064 130.626 23.8395 130.808 23.8772C130.99 23.915 131.172 23.9574 131.352 24.0044C131.533 24.0515 131.712 24.1032 131.891 24.1594C132.07 24.2157 132.247 24.2764 132.423 24.3417C132.599 24.407 132.774 24.4768 132.947 24.5511C133.12 24.6254 133.292 24.7041 133.462 24.7872C133.632 24.8702 133.801 24.9576 133.968 25.0494C134.134 25.1411 134.299 25.237 134.462 25.3371C134.625 25.4372 134.786 25.5415 134.944 25.6499C135.103 25.7583 135.26 25.8707 135.414 25.987C135.568 26.1035 135.72 26.2238 135.869 26.3479C136.019 26.4721 136.166 26.6001 136.31 26.7318C136.454 26.8634 136.596 26.9988 136.735 27.1378C136.874 27.2767 137.009 27.4183 137.141 27.5627C137.273 27.707 137.401 27.8539 137.525 28.0034C137.649 28.1528 137.769 28.3047 137.886 28.4589C138.002 28.6131 138.114 28.7696 138.223 28.9284C138.331 29.0871 138.435 29.2478 138.536 29.4108C138.636 29.5737 138.732 29.7384 138.823 29.9051C138.915 30.0718 139.002 30.2402 139.085 30.4104C139.169 30.5806 139.247 30.7523 139.322 30.9257C139.396 31.0989 139.466 31.2736 139.531 31.4497C139.596 31.6258 139.657 31.8031 139.713 31.9816C139.77 32.1602 139.821 32.3397 139.868 32.5203C139.915 32.7008 139.958 32.8822 139.995 33.0644C140.033 33.2467 140.066 33.4297 140.095 33.6133C140.123 33.7968 140.147 33.9809 140.166 34.1654C140.185 34.35 140.199 34.5347 140.208 34.7199C140.218 34.9049 140.223 35.0901 140.223 35.2754C140.223 35.4607 140.218 35.6459 140.208 35.8309C140.199 36.016 140.185 36.2008 140.166 36.3854C140.147 36.5699 140.123 36.7539 140.095 36.9375C140.066 37.1211 140.033 37.304 139.995 37.4863C139.958 37.6685 139.915 37.8499 139.868 38.0305C139.821 38.211 139.77 38.3907 139.713 38.5691C139.657 38.7477 139.596 38.925 139.531 39.1011C139.466 39.2771 139.396 39.4518 139.322 39.6252C139.247 39.7985 139.168 39.9702 139.085 40.1403C139.002 40.3106 138.915 40.479 138.823 40.6456C138.732 40.8124 138.636 40.9771 138.536 41.14C138.435 41.3029 138.331 41.4637 138.223 41.6224C138.114 41.7812 138.002 41.9376 137.886 42.0919C137.769 42.2462 137.649 42.398 137.525 42.5475C137.401 42.6969 137.273 42.8437 137.141 42.9881C137.009 43.1324 136.874 43.2741 136.735 43.413L125.413 54.735C125.274 54.874 125.132 55.0093 124.988 55.141C124.844 55.2727 124.697 55.4006 124.547 55.5248C124.398 55.6489 124.246 55.7693 124.092 55.8857C123.938 56.0021 123.781 56.1145 123.622 56.2228C123.464 56.3312 123.303 56.4355 123.14 56.5357C122.977 56.6358 122.812 56.7317 122.646 56.8233C122.479 56.9151 122.311 57.0025 122.14 57.0855C121.97 57.1686 121.798 57.2473 121.625 57.3216C121.452 57.3959 121.277 57.4656 121.101 57.531C120.925 57.5963 120.748 57.6571 120.569 57.7133C120.391 57.7696 120.211 57.8212 120.03 57.8683C119.85 57.9153 119.668 57.9577 119.486 57.9955C119.304 58.0332 119.121 58.0663 118.937 58.0947C118.754 58.1231 118.57 58.1467 118.385 58.1657C118.201 58.1847 118.016 58.1988 117.831 58.2084C117.646 58.2178 117.461 58.2226 117.275 58.2226C117.09 58.2226 116.905 58.2179 116.72 58.2084C116.535 58.1989 116.35 58.1847 116.165 58.1657C115.981 58.1467 115.797 58.123 115.613 58.0947C115.43 58.0663 115.247 58.0332 115.064 57.9954C114.882 57.9577 114.701 57.9154 114.52 57.8683C114.34 57.8213 114.16 57.7696 113.982 57.7133C113.803 57.6571 113.626 57.5963 113.45 57.531C113.274 57.4657 113.099 57.3959 112.926 57.3216C112.752 57.2473 112.581 57.1686 112.41 57.0855C112.24 57.0025 112.072 56.9151 111.905 56.8234C111.738 56.7317 111.574 56.6358 111.411 56.5356C111.248 56.4355 111.087 56.3312 110.928 56.2228C110.77 56.1144 110.613 56.002 110.459 55.8857C110.305 55.7693 110.153 55.6489 110.003 55.5248C109.854 55.4006 109.707 55.2726 109.563 55.1409C109.418 55.0093 109.277 54.874 109.138 54.735C108.999 54.5961 108.863 54.4544 108.732 54.3101C108.6 54.1657 108.472 54.0188 108.348 53.8693C108.224 53.7199 108.103 53.5681 107.987 53.4138C107.871 53.2596 107.758 53.1031 107.65 52.9444C107.541 52.7857 107.437 52.6249 107.337 52.462C107.237 52.2991 107.141 52.1343 107.049 51.9676C106.958 51.8009 106.87 51.6325 106.787 51.4623C106.704 51.2922 106.625 51.1204 106.551 50.9471C106.477 50.7738 106.407 50.5991 106.342 50.423C106.276 50.2469 106.216 50.0696 106.159 49.8911C106.103 49.7126 106.051 49.533 106.004 49.3525C105.957 49.1719 105.915 48.9905 105.877 48.8082C105.839 48.6259 105.806 48.443 105.778 48.2594C105.75 48.0759 105.726 47.8918 105.707 47.7073C105.688 47.5228 105.674 47.338 105.664 47.1529C105.655 46.9678 105.65 46.7826 105.65 46.5973C105.65 46.4121 105.655 46.2269 105.664 46.0418C105.674 45.8567 105.688 45.6719 105.707 45.4874C105.726 45.3028 105.75 45.1188 105.778 44.9352C105.806 44.7517 105.839 44.5687 105.877 44.3865C105.915 44.2042 105.957 44.0228 106.004 43.8422C106.051 43.6616 106.103 43.4821 106.159 43.3036C106.216 43.1251 106.276 42.9478 106.342 42.7717C106.407 42.5956 106.477 42.4209 106.551 42.2476C106.625 42.0743 106.704 41.9025 106.787 41.7323C106.87 41.5622 106.958 41.3937 107.049 41.227C107.141 41.0603 107.237 40.8956 107.337 40.7327C107.437 40.5698 107.541 40.409 107.65 40.2503C107.758 40.0916 107.871 39.9351 107.987 39.7809C108.103 39.6266 108.224 39.4747 108.348 39.3253C108.472 39.1759 108.6 39.029 108.732 38.8846C108.863 38.7403 108.999 38.5987 109.138 38.4597Z" fill="#FF6584"/>
<path id="upper 5" d="M136.581 27.1377L147.902 38.4596C148.041 38.5986 148.177 38.7402 148.308 38.8846C148.44 39.0289 148.568 39.1758 148.692 39.3252C148.816 39.4747 148.937 39.6265 149.053 39.7808C149.17 39.9351 149.282 40.0915 149.39 40.2502C149.499 40.4089 149.603 40.5697 149.703 40.7326C149.803 40.8955 149.899 41.0603 149.991 41.2269C150.083 41.3937 150.17 41.5621 150.253 41.7322C150.336 41.9024 150.415 42.0742 150.489 42.2475C150.563 42.4209 150.633 42.5956 150.698 42.7716C150.764 42.9477 150.825 43.125 150.881 43.3035C150.937 43.482 150.989 43.6616 151.036 43.8421C151.083 44.0227 151.125 44.2042 151.163 44.3864C151.201 44.5687 151.234 44.7516 151.262 44.9352C151.291 45.1188 151.314 45.3027 151.333 45.4873C151.352 45.6718 151.366 45.8567 151.376 46.0417C151.385 46.2268 151.39 46.412 151.39 46.5973C151.39 46.7826 151.385 46.9678 151.376 47.1528C151.366 47.3379 151.352 47.5227 151.333 47.7073C151.314 47.8918 151.291 48.0759 151.262 48.2594C151.234 48.443 151.201 48.6258 151.163 48.8082C151.125 48.9904 151.083 49.1719 151.036 49.3524C150.989 49.533 150.937 49.7125 150.881 49.891C150.825 50.0695 150.764 50.2468 150.698 50.4229C150.633 50.599 150.563 50.7738 150.489 50.9471C150.415 51.1203 150.336 51.2921 150.253 51.4623C150.17 51.6325 150.083 51.8009 149.991 51.9676C149.899 52.1342 149.803 52.299 149.703 52.4619C149.603 52.6248 149.499 52.7856 149.39 52.9443C149.282 53.103 149.17 53.2595 149.053 53.4137C148.937 53.568 148.816 53.7199 148.692 53.8693C148.568 54.0188 148.44 54.1657 148.308 54.31C148.177 54.4543 148.041 54.596 147.902 54.7349C147.764 54.8739 147.622 55.0093 147.478 55.1409C147.333 55.2726 147.186 55.4006 147.037 55.5248C146.887 55.6489 146.736 55.7692 146.581 55.8856C146.427 56.002 146.271 56.1143 146.112 56.2227C145.953 56.3311 145.792 56.4354 145.629 56.5356C145.467 56.6357 145.302 56.7316 145.135 56.8233C144.968 56.915 144.8 57.0024 144.63 57.0855C144.46 57.1686 144.288 57.2473 144.115 57.3216C143.941 57.3959 143.767 57.4656 143.59 57.5309C143.414 57.5962 143.237 57.657 143.059 57.7133C142.88 57.7695 142.701 57.8212 142.52 57.8682C142.339 57.9153 142.158 57.9577 141.976 57.9954C141.793 58.0331 141.611 58.0662 141.427 58.0947C141.243 58.123 141.059 58.1467 140.875 58.1657C140.69 58.1846 140.506 58.1988 140.32 58.2083C140.135 58.2178 139.95 58.2226 139.765 58.2225C139.58 58.2225 139.394 58.2178 139.209 58.2083C139.024 58.1988 138.839 58.1846 138.655 58.1656C138.47 58.1466 138.286 58.123 138.103 58.0947C137.919 58.0662 137.736 58.0331 137.554 57.9954C137.372 57.9577 137.19 57.9153 137.01 57.8682C136.829 57.8212 136.65 57.7695 136.471 57.7133C136.293 57.657 136.115 57.5962 135.939 57.5309C135.763 57.4656 135.588 57.3958 135.415 57.3216C135.242 57.2473 135.07 57.1685 134.9 57.0854C134.73 57.0025 134.561 56.9151 134.394 56.8233C134.228 56.7316 134.063 56.6357 133.9 56.5356C133.737 56.4354 133.576 56.3311 133.418 56.2227C133.259 56.1144 133.103 56.0021 132.948 55.8856C132.794 55.7692 132.642 55.6489 132.493 55.5248C132.343 55.4005 132.196 55.2727 132.052 55.1409C131.908 55.0092 131.766 54.8739 131.627 54.7349L120.305 43.413C120.166 43.274 120.031 43.1324 119.899 42.9881C119.767 42.8437 119.64 42.6968 119.515 42.5474C119.391 42.398 119.271 42.2461 119.155 42.0918C119.038 41.9376 118.926 41.7811 118.817 41.6224C118.709 41.4637 118.605 41.3028 118.505 41.14C118.404 40.9771 118.309 40.8123 118.217 40.6456C118.125 40.479 118.038 40.3105 117.955 40.1403C117.872 39.9701 117.793 39.7984 117.719 39.6251C117.644 39.4518 117.575 39.2771 117.509 39.101C117.444 38.9249 117.383 38.7476 117.327 38.5691C117.271 38.3906 117.219 38.211 117.172 38.0304C117.125 37.8499 117.083 37.6685 117.045 37.4862C117.007 37.3039 116.974 37.121 116.946 36.9375C116.917 36.7539 116.893 36.5698 116.875 36.3853C116.856 36.2008 116.841 36.016 116.832 35.8309C116.822 35.6458 116.818 35.4606 116.818 35.2753C116.818 35.0901 116.822 34.9049 116.832 34.7198C116.841 34.5347 116.856 34.3499 116.875 34.1654C116.894 33.9808 116.917 33.7968 116.946 33.6132C116.974 33.4297 117.007 33.2467 117.045 33.0644C117.083 32.8822 117.125 32.7008 117.172 32.5202C117.219 32.3397 117.271 32.1601 117.327 31.9815C117.383 31.803 117.444 31.6257 117.509 31.4497C117.575 31.2736 117.644 31.0989 117.719 30.9256C117.793 30.7523 117.872 30.5805 117.955 30.4103C118.038 30.2401 118.125 30.0717 118.217 29.905C118.309 29.7383 118.404 29.5736 118.505 29.4107C118.605 29.2478 118.709 29.087 118.817 28.9283C118.926 28.7695 119.038 28.6131 119.155 28.4589C119.271 28.3046 119.391 28.1527 119.515 28.0033C119.64 27.8539 119.768 27.7069 119.899 27.5626C120.031 27.4183 120.166 27.2766 120.305 27.1377C120.444 26.9987 120.586 26.8634 120.73 26.7317C120.874 26.6 121.021 26.472 121.171 26.3479C121.32 26.2237 121.472 26.1034 121.626 25.987C121.781 25.8706 121.937 25.7582 122.096 25.6498C122.255 25.5415 122.415 25.4372 122.578 25.337C122.741 25.2369 122.906 25.141 123.073 25.0493C123.239 24.9576 123.408 24.8702 123.578 24.7871C123.748 24.704 123.92 24.6254 124.093 24.5511C124.266 24.4768 124.441 24.407 124.617 24.3417C124.793 24.2763 124.971 24.2156 125.149 24.1593C125.328 24.1031 125.507 24.0514 125.688 24.0044C125.868 23.9573 126.05 23.9149 126.232 23.8772C126.414 23.8394 126.597 23.8064 126.781 23.778C126.964 23.7496 127.148 23.7259 127.333 23.707C127.517 23.688 127.702 23.6738 127.887 23.6643C128.072 23.6548 128.258 23.6501 128.443 23.6501C128.628 23.6501 128.813 23.6548 128.998 23.6643C129.184 23.6738 129.368 23.688 129.553 23.707C129.737 23.7259 129.921 23.7496 130.105 23.778C130.289 23.8064 130.472 23.8394 130.654 23.8772C130.836 23.9149 131.017 23.9573 131.198 24.0044C131.379 24.0514 131.558 24.1031 131.737 24.1593C131.915 24.2156 132.092 24.2763 132.269 24.3417C132.445 24.407 132.619 24.4768 132.793 24.5511C132.966 24.6254 133.138 24.704 133.308 24.7871C133.478 24.8702 133.647 24.9576 133.813 25.0493C133.98 25.141 134.145 25.2369 134.308 25.337C134.47 25.4372 134.631 25.5414 134.79 25.6498C134.949 25.7582 135.105 25.8706 135.259 25.987C135.414 26.1034 135.566 26.2237 135.715 26.3479C135.864 26.472 136.011 26.6 136.156 26.7317C136.3 26.8634 136.442 26.9987 136.581 27.1377Z" fill="#FF6584"/>
<path id="upper 1" d="M119.572 80.8859H135.584C135.78 80.8859 135.976 80.8904 136.171 80.8993C136.366 80.9083 136.561 80.9217 136.754 80.9395C136.948 80.9574 137.14 80.9797 137.332 81.0065C137.523 81.0332 137.713 81.0644 137.902 81.1C138.091 81.1356 138.278 81.1756 138.464 81.2199C138.65 81.2643 138.835 81.313 139.017 81.366C139.2 81.419 139.381 81.4763 139.56 81.5379C139.739 81.5995 139.916 81.6653 140.091 81.7354C140.266 81.8054 140.439 81.8796 140.61 81.9579C140.78 82.0362 140.949 82.1186 141.115 82.2051C141.281 82.2915 141.444 82.382 141.605 82.4764C141.766 82.5708 141.924 82.6691 142.08 82.7713C142.236 82.8735 142.388 82.9794 142.538 83.0892C142.688 83.1989 142.835 83.3123 142.979 83.4294C143.123 83.5465 143.263 83.6671 143.401 83.7912C143.539 83.9154 143.673 84.043 143.804 84.174C143.935 84.305 144.063 84.4393 144.187 84.5769C144.311 84.7145 144.432 84.8552 144.549 84.9991C144.666 85.143 144.779 85.2899 144.889 85.4397C144.999 85.5896 145.104 85.7423 145.207 85.8979C145.309 86.0535 145.407 86.2117 145.502 86.3727C145.596 86.5337 145.686 86.6971 145.773 86.8631C145.859 87.0291 145.942 87.1975 146.02 87.3682C146.098 87.5389 146.173 87.7118 146.243 87.8869C146.313 88.0619 146.378 88.239 146.44 88.4181C146.502 88.5972 146.559 88.778 146.612 88.9608C146.665 89.1435 146.714 89.3278 146.758 89.5138C146.802 89.6998 146.842 89.8872 146.878 90.0761C146.914 90.2649 146.945 90.4551 146.971 90.6464C146.998 90.8378 147.021 91.0303 147.038 91.2237C147.056 91.4172 147.07 91.6116 147.079 91.8068C147.088 92.0019 147.092 92.1978 147.092 92.3943C147.092 92.5908 147.088 92.7867 147.079 92.9818C147.07 93.177 147.056 93.3714 147.038 93.5649C147.021 93.7583 146.998 93.9508 146.971 94.1422C146.945 94.3335 146.914 94.5236 146.878 94.7125C146.842 94.9014 146.802 95.0888 146.758 95.2748C146.714 95.4608 146.665 95.6451 146.612 95.8278C146.559 96.0105 146.502 96.1914 146.44 96.3705C146.378 96.5496 146.313 96.7267 146.243 96.9018C146.173 97.0769 146.098 97.2497 146.02 97.4204C145.942 97.5911 145.859 97.7594 145.773 97.9254C145.686 98.0915 145.596 98.255 145.502 98.4159C145.407 98.5769 145.309 98.7351 145.207 98.8906C145.104 99.0462 144.999 99.199 144.889 99.3489C144.779 99.4987 144.666 99.6456 144.549 99.7895C144.432 99.9334 144.311 100.074 144.187 100.212C144.063 100.349 143.935 100.484 143.804 100.615C143.673 100.746 143.539 100.873 143.401 100.997C143.263 101.121 143.123 101.242 142.979 101.359C142.835 101.476 142.688 101.59 142.538 101.699C142.388 101.809 142.236 101.915 142.08 102.017C141.924 102.119 141.766 102.218 141.605 102.312C141.444 102.407 141.281 102.497 141.115 102.583C140.949 102.67 140.78 102.752 140.61 102.831C140.439 102.909 140.266 102.983 140.091 103.053C139.916 103.123 139.739 103.189 139.56 103.251C139.381 103.312 139.2 103.37 139.017 103.423C138.835 103.476 138.65 103.524 138.464 103.569C138.278 103.613 138.091 103.653 137.902 103.688C137.713 103.724 137.523 103.755 137.332 103.782C137.14 103.809 136.948 103.831 136.754 103.849C136.561 103.867 136.366 103.88 136.171 103.889C135.976 103.898 135.78 103.903 135.584 103.903H119.572C119.375 103.903 119.18 103.898 118.984 103.889C118.789 103.88 118.595 103.867 118.401 103.849C118.208 103.831 118.016 103.809 117.824 103.782C117.633 103.755 117.443 103.724 117.254 103.689C117.065 103.653 116.878 103.613 116.692 103.569C116.506 103.524 116.321 103.476 116.139 103.423C115.956 103.37 115.775 103.312 115.596 103.251C115.417 103.189 115.24 103.123 115.065 103.053C114.89 102.983 114.717 102.909 114.546 102.831C114.375 102.752 114.207 102.67 114.041 102.583C113.875 102.497 113.711 102.407 113.55 102.312C113.39 102.218 113.231 102.119 113.076 102.017C112.92 101.915 112.767 101.809 112.618 101.699C112.468 101.59 112.321 101.476 112.177 101.359C112.033 101.242 111.892 101.121 111.755 100.997C111.617 100.873 111.483 100.746 111.352 100.615C111.221 100.484 111.093 100.349 110.969 100.212C110.845 100.074 110.724 99.9334 110.607 99.7895C110.49 99.6456 110.377 99.4987 110.267 99.3489C110.157 99.199 110.051 99.0462 109.949 98.8906C109.847 98.7351 109.749 98.5769 109.654 98.4159C109.56 98.255 109.469 98.0915 109.383 97.9254C109.296 97.7594 109.214 97.5911 109.136 97.4204C109.057 97.2497 108.983 97.0769 108.913 96.9018C108.843 96.7267 108.777 96.5496 108.716 96.3705C108.654 96.1914 108.597 96.0105 108.544 95.8278C108.491 95.6451 108.442 95.4608 108.398 95.2748C108.353 95.0888 108.313 94.9014 108.278 94.7125C108.242 94.5236 108.211 94.3335 108.184 94.1422C108.158 93.9508 108.135 93.7583 108.117 93.5649C108.099 93.3714 108.086 93.177 108.077 92.9818C108.068 92.7867 108.064 92.5908 108.064 92.3943C108.064 92.1978 108.068 92.0019 108.077 91.8068C108.086 91.6116 108.099 91.4172 108.117 91.2237C108.135 91.0303 108.158 90.8378 108.184 90.6464C108.211 90.4551 108.242 90.2649 108.278 90.0761C108.313 89.8872 108.353 89.6998 108.398 89.5138C108.442 89.3278 108.491 89.1435 108.544 88.9608C108.597 88.778 108.654 88.5972 108.716 88.4181C108.777 88.239 108.843 88.0619 108.913 87.8869C108.983 87.7118 109.057 87.5389 109.136 87.3682C109.214 87.1975 109.296 87.0291 109.383 86.8631C109.469 86.6971 109.56 86.5337 109.654 86.3727C109.749 86.2117 109.847 86.0535 109.949 85.8979C110.051 85.7423 110.157 85.5896 110.267 85.4397C110.377 85.2899 110.49 85.143 110.607 84.9991C110.724 84.8552 110.845 84.7145 110.969 84.5769C111.093 84.4393 111.221 84.305 111.352 84.174C111.483 84.043 111.617 83.9154 111.755 83.7912C111.892 83.6671 112.033 83.5465 112.177 83.4294C112.321 83.3123 112.468 83.1989 112.618 83.0892C112.767 82.9794 112.92 82.8735 113.076 82.7713C113.231 82.6691 113.39 82.5708 113.55 82.4764C113.711 82.382 113.875 82.2915 114.041 82.2051C114.207 82.1186 114.375 82.0362 114.546 81.9579C114.717 81.8796 114.89 81.8054 115.065 81.7354C115.24 81.6653 115.417 81.5995 115.596 81.5379C115.775 81.4763 115.956 81.419 116.139 81.366C116.321 81.313 116.506 81.2643 116.692 81.2199C116.878 81.1756 117.065 81.1356 117.254 81.1C117.443 81.0644 117.633 81.0332 117.824 81.0065C118.016 80.9797 118.208 80.9574 118.401 80.9395C118.595 80.9217 118.789 80.9083 118.984 80.8993C119.18 80.8904 119.375 80.8859 119.572 80.8859Z" fill="#66657A"/>
<path id="lower 3" d="M119.941 212.561L173.012 159.489C173.151 159.35 173.293 159.215 173.437 159.083C173.582 158.952 173.729 158.824 173.878 158.7C174.027 158.575 174.179 158.455 174.334 158.339C174.488 158.222 174.644 158.11 174.803 158.002C174.962 157.893 175.123 157.789 175.285 157.689C175.448 157.589 175.613 157.493 175.78 157.401C175.946 157.309 176.115 157.222 176.285 157.139C176.455 157.056 176.627 156.977 176.8 156.903C176.974 156.828 177.148 156.759 177.324 156.693C177.5 156.628 177.678 156.567 177.856 156.511C178.035 156.455 178.214 156.403 178.395 156.356C178.576 156.309 178.757 156.267 178.939 156.229C179.121 156.191 179.304 156.158 179.488 156.13C179.672 156.101 179.856 156.078 180.04 156.059C180.225 156.04 180.409 156.025 180.595 156.016C180.78 156.007 180.965 156.002 181.15 156.002C181.335 156.002 181.521 156.007 181.706 156.016C181.891 156.025 182.076 156.04 182.26 156.059C182.445 156.078 182.629 156.101 182.812 156.13C182.996 156.158 183.179 156.191 183.361 156.229C183.543 156.267 183.725 156.309 183.905 156.356C184.086 156.403 184.265 156.455 184.444 156.511C184.622 156.567 184.8 156.628 184.976 156.693C185.152 156.759 185.327 156.828 185.5 156.903C185.673 156.977 185.845 157.056 186.015 157.139C186.185 157.222 186.354 157.309 186.52 157.401C186.687 157.493 186.852 157.589 187.015 157.689C187.178 157.789 187.338 157.893 187.497 158.002C187.656 158.11 187.812 158.222 187.967 158.339C188.121 158.455 188.273 158.575 188.422 158.7C188.572 158.824 188.718 158.952 188.863 159.083C189.007 159.215 189.149 159.35 189.288 159.489C189.427 159.628 189.562 159.77 189.694 159.914C189.825 160.059 189.953 160.206 190.078 160.355C190.202 160.504 190.322 160.656 190.438 160.811C190.555 160.965 190.667 161.121 190.776 161.28C190.884 161.439 190.988 161.6 191.088 161.762C191.188 161.925 191.284 162.09 191.376 162.257C191.468 162.423 191.555 162.592 191.638 162.762C191.721 162.932 191.8 163.104 191.874 163.277C191.949 163.451 192.018 163.625 192.084 163.801C192.149 163.977 192.21 164.155 192.266 164.333C192.322 164.512 192.374 164.691 192.421 164.872C192.468 165.052 192.51 165.234 192.548 165.416C192.586 165.598 192.619 165.781 192.647 165.965C192.676 166.148 192.7 166.332 192.718 166.517C192.737 166.702 192.752 166.886 192.761 167.071C192.771 167.257 192.775 167.442 192.775 167.627C192.775 167.812 192.771 167.997 192.761 168.183C192.752 168.368 192.737 168.552 192.718 168.737C192.7 168.921 192.676 169.106 192.647 169.289C192.619 169.473 192.586 169.656 192.548 169.838C192.51 170.02 192.468 170.202 192.421 170.382C192.374 170.563 192.322 170.742 192.266 170.921C192.21 171.099 192.149 171.277 192.084 171.453C192.018 171.629 191.949 171.803 191.874 171.977C191.8 172.15 191.721 172.322 191.638 172.492C191.555 172.662 191.468 172.831 191.376 172.997C191.284 173.164 191.188 173.329 191.088 173.492C190.988 173.655 190.884 173.815 190.775 173.974C190.667 174.133 190.555 174.289 190.438 174.443C190.322 174.598 190.202 174.75 190.078 174.899C189.953 175.048 189.825 175.195 189.694 175.34C189.562 175.484 189.427 175.626 189.288 175.765L136.216 228.836C136.077 228.975 135.935 229.111 135.791 229.242C135.647 229.374 135.5 229.502 135.35 229.626C135.201 229.75 135.049 229.871 134.895 229.987C134.741 230.104 134.584 230.216 134.425 230.324C134.267 230.433 134.106 230.537 133.943 230.637C133.78 230.737 133.615 230.833 133.449 230.925C133.282 231.017 133.113 231.104 132.943 231.187C132.773 231.27 132.601 231.349 132.428 231.423C132.255 231.497 132.08 231.567 131.904 231.632C131.728 231.698 131.551 231.759 131.372 231.815C131.194 231.871 131.014 231.923 130.833 231.97C130.653 232.017 130.471 232.059 130.289 232.097C130.107 232.135 129.924 232.168 129.74 232.196C129.557 232.225 129.373 232.248 129.188 232.267C129.004 232.286 128.819 232.3 128.634 232.31C128.449 232.319 128.264 232.324 128.078 232.324C127.893 232.324 127.708 232.319 127.523 232.31C127.338 232.3 127.153 232.286 126.968 232.267C126.784 232.248 126.6 232.224 126.416 232.196C126.233 232.168 126.05 232.135 125.867 232.097C125.685 232.059 125.504 232.017 125.323 231.97C125.143 231.923 124.963 231.871 124.784 231.815C124.606 231.759 124.429 231.698 124.253 231.632C124.077 231.567 123.902 231.497 123.729 231.423C123.555 231.349 123.383 231.27 123.213 231.187C123.043 231.104 122.875 231.017 122.708 230.925C122.541 230.833 122.377 230.737 122.214 230.637C122.051 230.537 121.89 230.433 121.731 230.324C121.572 230.216 121.416 230.103 121.262 229.987C121.108 229.871 120.956 229.75 120.806 229.626C120.657 229.502 120.51 229.374 120.366 229.242C120.221 229.111 120.08 228.975 119.941 228.836C119.802 228.698 119.666 228.556 119.535 228.412C119.403 228.267 119.275 228.12 119.151 227.971C119.027 227.821 118.906 227.67 118.79 227.515C118.674 227.361 118.561 227.205 118.453 227.046C118.344 226.887 118.24 226.726 118.14 226.563C118.04 226.401 117.944 226.236 117.852 226.069C117.761 225.902 117.673 225.734 117.59 225.564C117.507 225.394 117.428 225.222 117.354 225.049C117.28 224.875 117.21 224.701 117.145 224.524C117.079 224.348 117.019 224.171 116.962 223.993C116.906 223.814 116.854 223.634 116.807 223.454C116.76 223.273 116.718 223.092 116.68 222.91C116.642 222.727 116.609 222.544 116.581 222.361C116.553 222.177 116.529 221.993 116.51 221.809C116.491 221.624 116.477 221.439 116.467 221.254C116.458 221.069 116.453 220.884 116.453 220.699C116.453 220.514 116.458 220.328 116.467 220.143C116.477 219.958 116.491 219.773 116.51 219.589C116.529 219.404 116.553 219.22 116.581 219.037C116.609 218.853 116.642 218.67 116.68 218.488C116.718 218.306 116.76 218.124 116.807 217.944C116.854 217.763 116.906 217.584 116.962 217.405C117.019 217.227 117.079 217.049 117.145 216.873C117.21 216.697 117.28 216.522 117.354 216.349C117.428 216.176 117.507 216.004 117.59 215.834C117.673 215.664 117.761 215.495 117.852 215.328C117.944 215.162 118.04 214.997 118.14 214.834C118.24 214.671 118.344 214.51 118.453 214.352C118.561 214.193 118.674 214.037 118.79 213.882C118.906 213.728 119.027 213.576 119.151 213.427C119.275 213.277 119.403 213.13 119.535 212.986C119.666 212.842 119.802 212.7 119.941 212.561Z" fill="#F9A825"/>
<path id="lower 2" d="M83.1442 159.515L136.216 212.587C136.355 212.726 136.49 212.868 136.622 213.012C136.754 213.156 136.882 213.303 137.006 213.453C137.13 213.602 137.25 213.754 137.367 213.908C137.483 214.062 137.595 214.219 137.704 214.378C137.812 214.536 137.916 214.697 138.017 214.86C138.117 215.023 138.213 215.188 138.304 215.354C138.396 215.521 138.483 215.689 138.566 215.86C138.65 216.03 138.728 216.202 138.803 216.375C138.877 216.548 138.947 216.723 139.012 216.899C139.077 217.075 139.138 217.252 139.194 217.431C139.251 217.609 139.302 217.789 139.349 217.969C139.396 218.15 139.439 218.331 139.476 218.514C139.514 218.696 139.547 218.879 139.576 219.063C139.604 219.246 139.628 219.43 139.647 219.615C139.666 219.799 139.68 219.984 139.689 220.169C139.699 220.354 139.704 220.539 139.704 220.725C139.704 220.91 139.699 221.095 139.689 221.28C139.68 221.465 139.666 221.65 139.647 221.835C139.628 222.019 139.604 222.203 139.576 222.387C139.547 222.57 139.514 222.753 139.476 222.935C139.439 223.118 139.396 223.299 139.349 223.48C139.302 223.66 139.251 223.84 139.194 224.018C139.138 224.197 139.077 224.374 139.012 224.55C138.947 224.726 138.877 224.901 138.803 225.074C138.728 225.248 138.65 225.419 138.567 225.59C138.483 225.76 138.396 225.928 138.304 226.095C138.213 226.262 138.117 226.426 138.017 226.589C137.916 226.752 137.812 226.913 137.704 227.072C137.595 227.23 137.483 227.387 137.367 227.541C137.25 227.695 137.13 227.847 137.006 227.997C136.882 228.146 136.754 228.293 136.622 228.437C136.49 228.582 136.355 228.723 136.216 228.862C136.077 229.001 135.935 229.137 135.791 229.268C135.647 229.4 135.5 229.528 135.35 229.652C135.201 229.776 135.049 229.897 134.895 230.013C134.74 230.129 134.584 230.242 134.425 230.35C134.267 230.458 134.106 230.563 133.943 230.663C133.78 230.763 133.615 230.859 133.449 230.951C133.282 231.042 133.113 231.13 132.943 231.213C132.773 231.296 132.601 231.375 132.428 231.449C132.255 231.523 132.08 231.593 131.904 231.658C131.728 231.724 131.551 231.784 131.372 231.841C131.194 231.897 131.014 231.949 130.833 231.996C130.653 232.043 130.471 232.085 130.289 232.123C130.107 232.161 129.924 232.194 129.74 232.222C129.557 232.25 129.373 232.274 129.188 232.293C129.004 232.312 128.819 232.326 128.634 232.336C128.449 232.345 128.264 232.35 128.078 232.35C127.893 232.35 127.708 232.345 127.523 232.336C127.338 232.326 127.153 232.312 126.968 232.293C126.784 232.274 126.6 232.25 126.416 232.222C126.233 232.194 126.05 232.16 125.867 232.123C125.685 232.085 125.504 232.043 125.323 231.996C125.143 231.949 124.963 231.897 124.785 231.841C124.606 231.784 124.429 231.724 124.253 231.658C124.077 231.593 123.902 231.523 123.729 231.449C123.555 231.375 123.384 231.296 123.213 231.213C123.043 231.13 122.875 231.042 122.708 230.951C122.541 230.859 122.376 230.763 122.214 230.663C122.051 230.563 121.89 230.458 121.731 230.35C121.572 230.242 121.416 230.129 121.262 230.013C121.108 229.897 120.956 229.776 120.806 229.652C120.657 229.528 120.51 229.4 120.365 229.268C120.221 229.137 120.08 229.001 119.941 228.862L66.8688 175.791C66.7298 175.652 66.5945 175.51 66.4628 175.366C66.3312 175.221 66.2032 175.074 66.079 174.925C65.9549 174.775 65.8346 174.624 65.7181 174.469C65.6018 174.315 65.4893 174.159 65.3809 174C65.2726 173.841 65.1683 173.68 65.0682 173.518C64.968 173.355 64.8722 173.19 64.7805 173.023C64.6887 172.856 64.6013 172.688 64.5183 172.518C64.4352 172.348 64.3565 172.176 64.2822 172.003C64.2079 171.829 64.1381 171.655 64.0728 171.479C64.0075 171.302 63.9467 171.125 63.8905 170.947C63.8342 170.768 63.7826 170.589 63.7355 170.408C63.6885 170.227 63.6461 170.046 63.6083 169.864C63.5706 169.681 63.5375 169.499 63.5091 169.315C63.4807 169.131 63.457 168.947 63.4381 168.763C63.4192 168.578 63.4049 168.394 63.3955 168.208C63.3859 168.023 63.3812 167.838 63.3812 167.653C63.3813 167.468 63.386 167.282 63.3954 167.097C63.4049 166.912 63.4191 166.727 63.4382 166.543C63.4571 166.358 63.4807 166.174 63.5091 165.991C63.5375 165.807 63.5706 165.624 63.6084 165.442C63.6461 165.26 63.6885 165.078 63.7356 164.898C63.7826 164.717 63.8342 164.538 63.8905 164.359C63.9467 164.181 64.0075 164.003 64.0729 163.827C64.1381 163.651 64.2079 163.476 64.2822 163.303C64.3565 163.13 64.4352 162.958 64.5183 162.788C64.6013 162.618 64.6887 162.449 64.7805 162.283C64.8721 162.116 64.9681 161.951 65.0682 161.788C65.1684 161.625 65.2726 161.465 65.381 161.306C65.4894 161.147 65.6017 160.991 65.7182 160.836C65.8346 160.682 65.9548 160.53 66.079 160.381C66.2032 160.231 66.3311 160.085 66.4628 159.94C66.5945 159.796 66.7298 159.654 66.8688 159.515C67.0078 159.376 67.1495 159.241 67.2938 159.109C67.4381 158.978 67.5851 158.85 67.7344 158.725C67.8839 158.601 68.0358 158.481 68.19 158.365C68.3443 158.248 68.5007 158.136 68.6595 158.027C68.8182 157.919 68.979 157.815 69.1418 157.715C69.3047 157.614 69.4695 157.518 69.6362 157.427C69.8029 157.335 69.9713 157.248 70.1415 157.165C70.3117 157.082 70.4834 157.003 70.6567 156.929C70.83 156.854 71.0047 156.785 71.1808 156.719C71.3569 156.654 71.5342 156.593 71.7127 156.537C71.8913 156.481 72.0708 156.429 72.2514 156.382C72.432 156.335 72.6134 156.292 72.7956 156.255C72.9779 156.217 73.1608 156.184 73.3444 156.156C73.528 156.127 73.712 156.103 73.8965 156.084C74.0811 156.066 74.2659 156.051 74.451 156.042C74.636 156.032 74.8212 156.028 75.0065 156.028C75.1918 156.028 75.377 156.032 75.5621 156.042C75.7471 156.051 75.932 156.066 76.1165 156.084C76.301 156.103 76.485 156.127 76.6686 156.156C76.8522 156.184 77.0351 156.217 77.2174 156.255C77.3996 156.292 77.5811 156.335 77.7616 156.382C77.9422 156.429 78.1218 156.481 78.3003 156.537C78.4788 156.593 78.6561 156.654 78.8322 156.719C79.0083 156.785 79.183 156.854 79.3563 156.929C79.5296 157.003 79.7013 157.082 79.8715 157.165C80.0417 157.248 80.2101 157.335 80.3768 157.427C80.5435 157.518 80.7083 157.614 80.8712 157.715C81.034 157.815 81.1948 157.919 81.3536 158.027C81.5123 158.136 81.6688 158.248 81.823 158.365C81.9773 158.481 82.1291 158.601 82.2785 158.725C82.428 158.85 82.5749 158.978 82.7193 159.109C82.8636 159.241 83.0052 159.376 83.1442 159.515Z" fill="#F9A825"/>
<path id="lower 1" d="M74.5391 154.94H181.618C181.815 154.94 182.01 154.944 182.205 154.953C182.401 154.962 182.595 154.976 182.789 154.994C182.982 155.012 183.175 155.034 183.366 155.061C183.557 155.087 183.747 155.119 183.936 155.154C184.125 155.19 184.312 155.23 184.498 155.274C184.684 155.318 184.868 155.367 185.051 155.42C185.234 155.473 185.415 155.53 185.594 155.592C185.773 155.654 185.95 155.719 186.125 155.789C186.3 155.859 186.473 155.934 186.643 156.012C186.814 156.09 186.983 156.173 187.149 156.259C187.315 156.346 187.478 156.436 187.639 156.53C187.8 156.625 187.958 156.723 188.114 156.825C188.27 156.928 188.423 157.034 188.573 157.143C188.722 157.253 188.869 157.366 189.013 157.483C189.157 157.601 189.297 157.721 189.435 157.845C189.573 157.97 189.707 158.097 189.838 158.228C189.969 158.359 190.097 158.493 190.221 158.631C190.345 158.769 190.465 158.909 190.582 159.053C190.7 159.197 190.813 159.344 190.922 159.494C191.033 159.644 191.139 159.796 191.241 159.952C191.343 160.108 191.441 160.266 191.536 160.427C191.63 160.588 191.72 160.751 191.807 160.917C191.893 161.083 191.976 161.252 192.054 161.422C192.132 161.593 192.206 161.766 192.276 161.941C192.347 162.116 192.412 162.293 192.474 162.472C192.536 162.651 192.593 162.832 192.646 163.015C192.699 163.198 192.748 163.382 192.792 163.568C192.837 163.754 192.877 163.941 192.912 164.13C192.947 164.319 192.979 164.509 193.006 164.701C193.033 164.892 193.055 165.084 193.072 165.278C193.09 165.471 193.104 165.666 193.113 165.861C193.122 166.056 193.126 166.252 193.126 166.448C193.126 166.645 193.122 166.841 193.113 167.036C193.104 167.231 193.09 167.426 193.072 167.619C193.055 167.812 193.033 168.005 193.006 168.196C192.979 168.388 192.947 168.578 192.912 168.767C192.877 168.956 192.837 169.143 192.792 169.329C192.748 169.515 192.699 169.699 192.646 169.882C192.593 170.065 192.536 170.246 192.474 170.425C192.412 170.604 192.347 170.781 192.276 170.956C192.206 171.131 192.132 171.304 192.054 171.475C191.976 171.645 191.893 171.814 191.807 171.98C191.72 172.146 191.63 172.309 191.536 172.47C191.441 172.631 191.343 172.789 191.241 172.945C191.139 173.1 191.033 173.253 190.922 173.403C190.813 173.553 190.7 173.7 190.582 173.844C190.465 173.988 190.345 174.128 190.221 174.266C190.097 174.403 189.969 174.538 189.838 174.669C189.707 174.8 189.573 174.927 189.435 175.052C189.297 175.176 189.157 175.296 189.013 175.413C188.869 175.53 188.722 175.644 188.573 175.754C188.423 175.863 188.27 175.969 188.114 176.071C187.958 176.174 187.8 176.272 187.639 176.366C187.478 176.461 187.315 176.551 187.149 176.638C186.983 176.724 186.814 176.807 186.643 176.885C186.473 176.963 186.3 177.037 186.125 177.107C185.95 177.177 185.773 177.243 185.594 177.305C185.415 177.366 185.234 177.424 185.051 177.477C184.868 177.53 184.684 177.578 184.498 177.623C184.312 177.667 184.125 177.707 183.936 177.743C183.747 177.778 183.557 177.81 183.366 177.836C183.175 177.863 182.982 177.885 182.789 177.903C182.595 177.921 182.401 177.935 182.205 177.943C182.01 177.952 181.815 177.957 181.618 177.957H74.5391C74.3426 177.957 74.1467 177.952 73.9516 177.943C73.7564 177.935 73.562 177.921 73.3686 177.903C73.1751 177.885 72.9827 177.863 72.7913 177.836C72.5999 177.81 72.4098 177.778 72.2209 177.743C72.032 177.707 71.8446 177.667 71.6586 177.623C71.4726 177.578 71.2883 177.53 71.1056 177.477C70.9229 177.424 70.742 177.366 70.5629 177.305C70.3838 177.243 70.2067 177.177 70.0317 177.107C69.8566 177.037 69.6837 176.963 69.513 176.885C69.3423 176.807 69.1739 176.724 69.0079 176.638C68.8419 176.551 68.6785 176.461 68.5175 176.366C68.3566 176.272 68.1983 176.174 68.0427 176.071C67.8872 175.969 67.7344 175.863 67.5846 175.754C67.4347 175.644 67.2878 175.53 67.1439 175.413C67 175.296 66.8593 175.176 66.7217 175.052C66.5841 174.927 66.4498 174.8 66.3188 174.669C66.1878 174.538 66.0602 174.403 65.936 174.266C65.8119 174.128 65.6913 173.988 65.5742 173.844C65.4571 173.7 65.3437 173.553 65.234 173.403C65.1242 173.253 65.0183 173.1 64.9161 172.945C64.8139 172.789 64.7156 172.631 64.6212 172.47C64.5268 172.309 64.4363 172.146 64.3499 171.98C64.2634 171.814 64.181 171.645 64.1027 171.475C64.0244 171.304 63.9502 171.131 63.8802 170.956C63.8101 170.781 63.7443 170.604 63.6827 170.425C63.6212 170.246 63.5638 170.065 63.5108 169.882C63.4578 169.699 63.4091 169.515 63.3647 169.329C63.3204 169.143 63.2804 168.956 63.2448 168.767C63.2092 168.578 63.178 168.388 63.1513 168.196C63.1245 168.005 63.1022 167.812 63.0843 167.619C63.0665 167.426 63.0531 167.231 63.0441 167.036C63.0352 166.841 63.0307 166.645 63.0307 166.448C63.0307 166.252 63.0352 166.056 63.0441 165.861C63.0531 165.666 63.0665 165.471 63.0843 165.278C63.1022 165.084 63.1245 164.892 63.1513 164.701C63.178 164.509 63.2092 164.319 63.2448 164.13C63.2804 163.941 63.3204 163.754 63.3647 163.568C63.4091 163.382 63.4578 163.198 63.5108 163.015C63.5638 162.832 63.6212 162.651 63.6827 162.472C63.7443 162.293 63.8101 162.116 63.8802 161.941C63.9502 161.766 64.0244 161.593 64.1027 161.422C64.181 161.252 64.2634 161.083 64.3499 160.917C64.4363 160.751 64.5268 160.588 64.6212 160.427C64.7156 160.266 64.8139 160.108 64.9161 159.952C65.0183 159.796 65.1242 159.644 65.234 159.494C65.3437 159.344 65.4571 159.197 65.5742 159.053C65.6913 158.909 65.8119 158.769 65.936 158.631C66.0602 158.493 66.1878 158.359 66.3188 158.228C66.4498 158.097 66.5841 157.97 66.7217 157.845C66.8593 157.721 67 157.601 67.1439 157.483C67.2878 157.366 67.4347 157.253 67.5846 157.143C67.7344 157.034 67.8872 156.928 68.0427 156.825C68.1983 156.723 68.3566 156.625 68.5175 156.53C68.6785 156.436 68.8419 156.346 69.0079 156.259C69.1739 156.173 69.3423 156.09 69.513 156.012C69.6837 155.934 69.8566 155.859 70.0317 155.789C70.2067 155.719 70.3838 155.654 70.5629 155.592C70.742 155.53 70.9229 155.473 71.1056 155.42C71.2883 155.367 71.4726 155.318 71.6586 155.274C71.8446 155.23 72.032 155.19 72.2209 155.154C72.4098 155.119 72.5999 155.087 72.7913 155.061C72.9827 155.034 73.1751 155.012 73.3686 154.994C73.562 154.976 73.7564 154.962 73.9516 154.953C74.1467 154.944 74.3426 154.94 74.5391 154.94Z" fill="#F9A825"/>
</g>
</svg>
