<?xml version="1.0" encoding="utf-8"?>
<svg width="255px" height="255px" viewBox="0 0 255 255" version="1.1" xmlns:xlink="http://www.w3.org/1999/xlink" xmlns="http://www.w3.org/2000/svg">
  <desc>Created with Lunacy</desc>
  <path d="M127.5 0L127.5 0Q130.766 0 134.01 0.148633Q137.253 0.297266 140.469 0.594229Q143.684 0.891192 146.864 1.33588Q150.045 1.78057 153.183 2.37207Q156.322 2.96357 159.413 3.70069Q162.503 4.4378 165.54 5.31902Q168.576 6.20024 171.552 7.22377Q174.528 8.2473 177.437 9.41105Q180.347 10.5748 183.184 11.8764Q186.021 13.178 188.779 14.6148Q191.538 16.0516 194.212 17.6206Q196.887 19.1897 199.473 20.8878Q202.058 22.5859 204.549 24.4096Q207.039 26.2333 209.43 28.1789Q211.821 30.1244 214.108 32.1879Q216.394 34.2514 218.571 36.4286Q220.749 38.6058 222.812 40.8922Q224.876 43.1786 226.821 45.5696Q228.767 47.9607 230.59 50.4514Q232.414 52.9421 234.112 55.5275Q235.81 58.1128 237.379 60.7876Q238.948 63.4623 240.385 66.2209Q241.822 68.9795 243.124 71.8164Q244.425 74.6533 245.589 77.5627Q246.753 80.4721 247.776 83.448Q248.8 86.4239 249.681 89.4603Q250.562 92.4967 251.299 95.5874Q252.036 98.6781 252.628 101.817Q253.219 104.955 253.664 108.136Q254.109 111.316 254.406 114.531Q254.703 117.747 254.851 120.99Q255 124.234 255 127.5L255 127.5Q255 130.766 254.851 134.01Q254.703 137.253 254.406 140.469Q254.109 143.684 253.664 146.864Q253.219 150.045 252.628 153.183Q252.036 156.322 251.299 159.413Q250.562 162.503 249.681 165.54Q248.8 168.576 247.776 171.552Q246.753 174.528 245.589 177.437Q244.425 180.347 243.124 183.184Q241.822 186.021 240.385 188.779Q238.948 191.538 237.379 194.212Q235.81 196.887 234.112 199.473Q232.414 202.058 230.59 204.549Q228.767 207.039 226.821 209.43Q224.876 211.821 222.812 214.108Q220.749 216.394 218.571 218.571Q216.394 220.749 214.108 222.812Q211.821 224.876 209.43 226.821Q207.039 228.767 204.549 230.59Q202.058 232.414 199.473 234.112Q196.887 235.81 194.212 237.379Q191.538 238.948 188.779 240.385Q186.021 241.822 183.184 243.124Q180.347 244.425 177.437 245.589Q174.528 246.753 171.552 247.776Q168.576 248.8 165.54 249.681Q162.503 250.562 159.413 251.299Q156.322 252.036 153.183 252.628Q150.045 253.219 146.864 253.664Q143.684 254.109 140.469 254.406Q137.253 254.703 134.01 254.851Q130.766 255 127.5 255L127.5 255Q124.234 255 120.99 254.851Q117.747 254.703 114.531 254.406Q111.316 254.109 108.136 253.664Q104.955 253.219 101.817 252.628Q98.6781 252.036 95.5874 251.299Q92.4967 250.562 89.4603 249.681Q86.4239 248.8 83.448 247.776Q80.4721 246.753 77.5627 245.589Q74.6533 244.425 71.8164 243.124Q68.9795 241.822 66.2209 240.385Q63.4623 238.948 60.7876 237.379Q58.1128 235.81 55.5275 234.112Q52.9421 232.414 50.4514 230.59Q47.9607 228.767 45.5696 226.821Q43.1786 224.876 40.8922 222.812Q38.6058 220.749 36.4286 218.571Q34.2514 216.394 32.1879 214.108Q30.1244 211.821 28.1789 209.43Q26.2333 207.039 24.4096 204.549Q22.5859 202.058 20.8878 199.473Q19.1897 196.887 17.6206 194.212Q16.0516 191.538 14.6148 188.779Q13.178 186.021 11.8764 183.184Q10.5748 180.347 9.41105 177.437Q8.2473 174.528 7.22377 171.552Q6.20024 168.576 5.31902 165.54Q4.4378 162.503 3.70069 159.413Q2.96357 156.322 2.37207 153.183Q1.78057 150.045 1.33588 146.864Q0.891192 143.684 0.594229 140.469Q0.297266 137.253 0.148633 134.01Q0 130.766 0 127.5L0 127.5Q0 124.234 0.148633 120.99Q0.297266 117.747 0.594229 114.531Q0.891192 111.316 1.33588 108.136Q1.78057 104.955 2.37207 101.817Q2.96357 98.6781 3.70069 95.5874Q4.4378 92.4967 5.31902 89.4603Q6.20024 86.4239 7.22377 83.448Q8.2473 80.4721 9.41105 77.5627Q10.5748 74.6533 11.8764 71.8164Q13.178 68.9795 14.6148 66.2209Q16.0516 63.4623 17.6206 60.7876Q19.1897 58.1128 20.8878 55.5275Q22.5859 52.9421 24.4096 50.4514Q26.2333 47.9607 28.1789 45.5696Q30.1244 43.1786 32.1879 40.8922Q34.2514 38.6058 36.4286 36.4286Q38.6058 34.2514 40.8922 32.1879Q43.1786 30.1244 45.5696 28.1789Q47.9607 26.2333 50.4514 24.4096Q52.9421 22.5859 55.5275 20.8878Q58.1128 19.1897 60.7876 17.6206Q63.4623 16.0516 66.2209 14.6148Q68.9795 13.178 71.8164 11.8764Q74.6533 10.5748 77.5627 9.41105Q80.4721 8.2473 83.448 7.22377Q86.4239 6.20024 89.4603 5.31902Q92.4967 4.4378 95.5874 3.70069Q98.6781 2.96357 101.817 2.37207Q104.955 1.78057 108.136 1.33588Q111.316 0.891192 114.531 0.594229Q117.747 0.297266 120.99 0.148633Q124.234 0 127.5 0Z" id="Rectangle" fill="#F2F2F2" stroke="none" />
  <g id="app-icon" transform="translate(21 19)">
    <path d="M12.5091 0L201.647 0C201.861 0 202.074 0.00486085 202.286 0.0145826C202.498 0.0243043 202.709 0.0388769 202.919 0.0583004C203.13 0.0777239 203.339 0.101979 203.547 0.131065C203.755 0.16015 203.962 0.194037 204.167 0.232726C204.373 0.271415 204.577 0.314866 204.779 0.363078C204.981 0.411291 205.181 0.464216 205.379 0.521854C205.578 0.579492 205.775 0.641785 205.97 0.708731C206.164 0.775677 206.357 0.847209 206.547 0.923327C206.737 0.999448 206.925 1.08007 207.11 1.1652C207.296 1.25034 207.479 1.33989 207.66 1.43387C207.84 1.52784 208.017 1.62614 208.192 1.72877C208.368 1.8314 208.54 1.93825 208.709 2.04932C208.878 2.16038 209.044 2.27556 209.207 2.39485C209.37 2.51413 209.529 2.6374 209.685 2.76465C209.842 2.89191 209.995 3.02302 210.145 3.15799C210.294 3.29295 210.44 3.43164 210.583 3.57404C210.725 3.71645 210.863 3.86242 210.998 4.01197C211.134 4.16152 211.265 4.31449 211.392 4.47088C211.519 4.62727 211.642 4.78692 211.762 4.94983C211.881 5.11274 211.996 5.27875 212.107 5.44785C212.218 5.61695 212.326 5.78898 212.428 5.96393C212.53 6.13887 212.628 6.31656 212.722 6.497C212.817 6.67743 212.906 6.86042 212.992 7.04598C213.076 7.23153 213.157 7.41945 213.233 7.60974C213.309 7.80004 213.381 7.99251 213.448 8.18716C213.515 8.3818 213.577 8.57843 213.635 8.77703C213.693 8.97564 213.745 9.17601 213.793 9.37816C213.841 9.58032 213.885 9.78404 213.923 9.98933C213.962 10.1946 213.996 10.4012 214.025 10.6093C214.055 10.8173 214.079 11.0264 214.098 11.2367C214.118 11.4471 214.132 11.6583 214.142 11.8705C214.152 12.0826 214.157 12.2955 214.157 12.5091C214.157 12.5091 214.157 12.5091 214.157 12.5091C214.157 12.7228 214.152 12.9357 214.142 13.1478C214.132 13.36 214.118 13.5712 214.098 13.7816C214.079 13.9919 214.055 14.201 214.025 14.409C213.996 14.617 213.962 14.8237 213.923 15.029C213.885 15.2343 213.842 15.438 213.793 15.6401C213.745 15.8423 213.693 16.0427 213.635 16.2413C213.577 16.4399 213.515 16.6365 213.448 16.8311C213.381 17.0258 213.309 17.2182 213.233 17.4085C213.157 17.5988 213.076 17.7867 212.992 17.9723C212.906 18.1579 212.817 18.3409 212.722 18.5213C212.628 18.7017 212.53 18.8794 212.428 19.0543C212.326 19.2293 212.218 19.4013 212.107 19.5704C211.996 19.7395 211.881 19.9055 211.762 20.0685C211.642 20.2314 211.519 20.391 211.392 20.5474C211.265 20.7038 211.134 20.8568 210.998 21.0063C210.863 21.1559 210.725 21.3018 210.583 21.4443C210.44 21.5866 210.294 21.7253 210.145 21.8603C209.995 21.9952 209.842 22.1264 209.685 22.2537C209.529 22.3809 209.37 22.5041 209.207 22.6234C209.044 22.7427 208.878 22.8579 208.709 22.969C208.54 23.0801 208.368 23.1869 208.192 23.2895C208.017 23.3921 207.84 23.4904 207.66 23.5844C207.479 23.6784 207.296 23.7679 207.11 23.853C206.925 23.9382 206.737 24.0189 206.547 24.0949C206.357 24.171 206.164 24.2426 205.97 24.3096C205.775 24.3765 205.578 24.4388 205.379 24.4964C205.181 24.554 204.981 24.607 204.779 24.6552C204.577 24.7034 204.373 24.7469 204.167 24.7855C203.962 24.8242 203.755 24.8581 203.547 24.8872C203.339 24.9163 203.13 24.9405 202.919 24.9599C202.709 24.9794 202.498 24.994 202.286 25.0037C202.074 25.0134 201.861 25.0183 201.647 25.0183C201.647 25.0183 12.5091 25.0183 12.5091 25.0183C12.2955 25.0183 12.0826 25.0134 11.8705 25.0037C11.6583 24.994 11.4471 24.9794 11.2367 24.9599C11.0264 24.9405 10.8173 24.9163 10.6093 24.8872C10.4012 24.8581 10.1946 24.8242 9.98933 24.7855C9.78404 24.7469 9.58032 24.7034 9.37817 24.6552C9.17602 24.607 8.97564 24.554 8.77704 24.4964C8.57843 24.4388 8.38181 24.3765 8.18716 24.3096C7.99252 24.2426 7.80004 24.1711 7.60974 24.095C7.41945 24.0189 7.23153 23.9383 7.04598 23.8531C6.86042 23.7679 6.67743 23.6784 6.497 23.5844C6.31656 23.4904 6.13887 23.3921 5.96393 23.2895C5.78898 23.1869 5.61696 23.0801 5.44785 22.969C5.27875 22.8579 5.11274 22.7427 4.94983 22.6234C4.78692 22.5041 4.62727 22.3809 4.47088 22.2537C4.31449 22.1264 4.16152 21.9952 4.01197 21.8603C3.86242 21.7253 3.71645 21.5866 3.57404 21.4443C3.43164 21.3018 3.29295 21.1559 3.15799 21.0063C3.02302 20.8568 2.89191 20.7038 2.76465 20.5474C2.6374 20.391 2.51413 20.2314 2.39485 20.0685C2.27556 19.9055 2.16039 19.7395 2.04932 19.5704C1.93825 19.4013 1.8314 19.2293 1.72877 19.0543C1.62615 18.8794 1.52784 18.7017 1.43387 18.5213C1.33989 18.3409 1.25034 18.1579 1.1652 17.9723C1.08007 17.7867 0.999448 17.5988 0.923327 17.4085C0.847209 17.2182 0.775677 17.0258 0.708731 16.8311C0.641785 16.6365 0.579493 16.4399 0.521854 16.2413C0.464216 16.0427 0.411291 15.8423 0.363078 15.6401C0.314866 15.438 0.271415 15.2343 0.232726 15.029C0.194037 14.8237 0.16015 14.617 0.131065 14.409C0.101979 14.201 0.0777239 13.9919 0.0583004 13.7816C0.0388769 13.5712 0.0243043 13.36 0.0145826 13.1478C0.00486085 12.9357 0 12.7228 0 12.5091C0 12.5091 0 12.5091 0 12.5091C0 12.2955 0.00486085 12.0826 0.0145826 11.8705C0.0243043 11.6583 0.0388769 11.4471 0.0583004 11.2367C0.0777239 11.0264 0.101979 10.8173 0.131065 10.6093C0.16015 10.4012 0.194037 10.1946 0.232726 9.98933C0.271415 9.78404 0.314866 9.58032 0.363078 9.37816C0.411291 9.17601 0.464216 8.97564 0.521854 8.77703C0.579493 8.57843 0.641785 8.3818 0.708731 8.18716C0.775677 7.99251 0.847209 7.80004 0.923327 7.60974C0.999448 7.41945 1.08007 7.23153 1.1652 7.04598C1.25034 6.86042 1.33989 6.67743 1.43387 6.497C1.52784 6.31656 1.62615 6.13887 1.72877 5.96393C1.8314 5.78898 1.93825 5.61695 2.04932 5.44785C2.16039 5.27875 2.27556 5.11274 2.39485 4.94983C2.51413 4.78692 2.6374 4.62727 2.76465 4.47088C2.89191 4.31449 3.02302 4.16152 3.15799 4.01197C3.29295 3.86242 3.43164 3.71645 3.57404 3.57404C3.71645 3.43164 3.86242 3.29295 4.01197 3.15799C4.16152 3.02302 4.31449 2.89191 4.47088 2.76465C4.62727 2.6374 4.78692 2.51413 4.94983 2.39485C5.11274 2.27556 5.27875 2.16038 5.44785 2.04932C5.61696 1.93825 5.78898 1.8314 5.96393 1.72877C6.13887 1.62614 6.31656 1.52784 6.497 1.43387C6.67743 1.33989 6.86042 1.25034 7.04598 1.1652C7.23153 1.08007 7.41945 0.999448 7.60974 0.923327C7.80004 0.847209 7.99252 0.775677 8.18716 0.708731C8.38181 0.641785 8.57843 0.579492 8.77704 0.521854C8.97564 0.464216 9.17602 0.411291 9.37817 0.363078C9.58032 0.314866 9.78404 0.271415 9.98933 0.232726C10.1946 0.194037 10.4012 0.16015 10.6093 0.131065C10.8173 0.101979 11.0264 0.0777239 11.2367 0.0583004C11.4471 0.0388769 11.6583 0.0243043 11.8705 0.0145826C12.0826 0.00486085 12.2955 0 12.5091 0C12.5091 0 12.5091 0 12.5091 0Z" transform="translate(0 97)" id="mid" fill="#6A9BD8" stroke="none" />
    <path d="M11.5084 0L27.5201 0C27.7166 0 27.9124 0.00447197 28.1076 0.0134159C28.3028 0.0223599 28.4971 0.0357667 28.6906 0.0536364C28.8841 0.0715061 29.0765 0.0938203 29.2679 0.120579C29.4593 0.147338 29.6494 0.178514 29.8382 0.214107C30.0271 0.249701 30.2146 0.289676 30.4006 0.334032C30.5866 0.378387 30.7709 0.427078 30.9536 0.480106C31.1363 0.533133 31.3172 0.590442 31.4963 0.652032C31.6753 0.713623 31.8524 0.779432 32.0275 0.849461C32.2026 0.919489 32.3755 0.993663 32.5461 1.07198C32.7168 1.15031 32.8852 1.2327 33.0512 1.31916C33.2172 1.40562 33.3807 1.49606 33.5416 1.59047C33.7026 1.68489 33.8609 1.78319 34.0164 1.88538C34.172 1.98756 34.3247 2.09352 34.4746 2.20326C34.6245 2.313 34.7713 2.42641 34.9152 2.54348C35.0592 2.66056 35.1999 2.78118 35.3375 2.90534C35.475 3.02951 35.6093 3.1571 35.7403 3.28811C35.8714 3.41913 35.999 3.55343 36.1231 3.69101C36.2473 3.82859 36.3679 3.96933 36.485 4.11321C36.6021 4.25708 36.7155 4.40396 36.8252 4.55385C36.9349 4.70372 37.0409 4.85645 37.1431 5.01202C37.2453 5.1676 37.3436 5.32586 37.438 5.48681C37.5324 5.64776 37.6228 5.81124 37.7093 5.97724C37.7957 6.14323 37.8781 6.31159 37.9565 6.4823C38.0348 6.65301 38.109 6.8259 38.179 7.00097C38.249 7.17603 38.3148 7.35311 38.3764 7.53218C38.438 7.71126 38.4953 7.89216 38.5483 8.07487C38.6013 8.25758 38.65 8.44193 38.6944 8.62791C38.7388 8.81389 38.7787 9.00131 38.8143 9.19019C38.8499 9.37906 38.8811 9.56918 38.9079 9.76054C38.9346 9.95194 38.9569 10.1444 38.9748 10.3379C38.9927 10.5313 39.0061 10.7257 39.015 10.9209C39.024 11.116 39.0284 11.3119 39.0284 11.5084C39.0284 11.5084 39.0284 11.5084 39.0284 11.5084C39.0284 11.705 39.024 11.9008 39.015 12.0959C39.0061 12.2911 38.9927 12.4855 38.9748 12.679C38.9569 12.8724 38.9346 13.0649 38.9079 13.2563C38.8811 13.4476 38.8499 13.6377 38.8143 13.8266C38.7787 14.0155 38.7388 14.2029 38.6944 14.3889C38.65 14.5749 38.6013 14.7593 38.5483 14.9419C38.4953 15.1247 38.438 15.3056 38.3764 15.4846C38.3148 15.6637 38.249 15.8408 38.179 16.0159C38.109 16.191 38.0348 16.3638 37.9565 16.5345C37.8781 16.7052 37.7957 16.8736 37.7093 17.0396C37.6228 17.2056 37.5324 17.3691 37.438 17.53C37.3436 17.691 37.2453 17.8492 37.1431 18.0048C37.0409 18.1603 36.9349 18.3131 36.8252 18.463C36.7155 18.6128 36.6021 18.7597 36.485 18.9036C36.3679 19.0475 36.2473 19.1883 36.1231 19.3258C35.999 19.4634 35.8714 19.5977 35.7403 19.7287C35.6093 19.8597 35.475 19.9873 35.3375 20.1115C35.1999 20.2357 35.0592 20.3563 34.9152 20.4734C34.7713 20.5904 34.6245 20.7039 34.4746 20.8136C34.3247 20.9233 34.172 21.0292 34.0164 21.1314C33.8609 21.2336 33.7026 21.332 33.5416 21.4264C33.3807 21.5208 33.2172 21.6112 33.0512 21.6977C32.8852 21.7841 32.7168 21.8665 32.5461 21.9448C32.3755 22.0232 32.2026 22.0973 32.0275 22.1674C31.8524 22.2374 31.6753 22.3032 31.4963 22.3647C31.3172 22.4264 31.1363 22.4837 30.9536 22.5367C30.7709 22.5897 30.5866 22.6384 30.4006 22.6828C30.2146 22.7271 30.0271 22.7671 29.8382 22.8027C29.6494 22.8383 29.4593 22.8695 29.2679 22.8962C29.0765 22.923 28.8841 22.9453 28.6906 22.9632C28.4971 22.9811 28.3028 22.9945 28.1076 23.0034C27.9124 23.0124 27.7166 23.0168 27.5201 23.0168C27.5201 23.0168 11.5084 23.0168 11.5084 23.0168C11.3118 23.0168 11.116 23.0124 10.9209 23.0034C10.7256 22.9945 10.5313 22.9811 10.3378 22.9632C10.1444 22.9453 9.95192 22.923 9.76052 22.8962C9.56916 22.8695 9.37904 22.8383 9.19017 22.8028C9.0013 22.7671 8.81388 22.7271 8.6279 22.6828C8.44192 22.6384 8.25757 22.5897 8.07485 22.5367C7.89214 22.4837 7.71125 22.4264 7.53217 22.3647C7.35309 22.3032 7.17602 22.2374 7.00095 22.1674C6.82588 22.0973 6.653 22.0232 6.48228 21.9448C6.31157 21.8665 6.14322 21.7841 5.97723 21.6977C5.81123 21.6112 5.64775 21.5208 5.4868 21.4264C5.32585 21.332 5.16759 21.2336 5.01201 21.1314C4.85644 21.0292 4.70371 20.9233 4.55384 20.8136C4.40396 20.7039 4.25708 20.5904 4.1132 20.4734C3.96932 20.3563 3.82859 20.2357 3.691 20.1115C3.55342 19.9873 3.41912 19.8597 3.28811 19.7287C3.1571 19.5977 3.02951 19.4634 2.90534 19.3258C2.78117 19.1883 2.66055 19.0475 2.54347 18.9036C2.4264 18.7597 2.313 18.6128 2.20326 18.463C2.09352 18.3131 1.98756 18.1603 1.88537 18.0048C1.78319 17.8492 1.68488 17.691 1.59047 17.53C1.49605 17.3691 1.40562 17.2056 1.31916 17.0396C1.2327 16.8736 1.1503 16.7052 1.07198 16.5345C0.993662 16.3638 0.919487 16.191 0.849459 16.0159C0.779431 15.8408 0.713621 15.6637 0.652031 15.4846C0.590441 15.3056 0.533132 15.1247 0.480105 14.9419C0.427078 14.7593 0.378386 14.5749 0.334031 14.3889C0.289676 14.2029 0.249701 14.0155 0.214107 13.8266C0.178514 13.6377 0.147338 13.4476 0.120579 13.2563C0.0938201 13.0649 0.0715059 12.8724 0.0536363 12.679C0.0357667 12.4855 0.0223599 12.2911 0.0134159 12.0959C0.00447196 11.9008 0 11.705 0 11.5084C0 11.5084 0 11.5084 0 11.5084C0 11.3119 0.00447196 11.116 0.0134159 10.9209C0.0223599 10.7257 0.0357667 10.5313 0.0536363 10.3379C0.0715059 10.1444 0.0938201 9.95194 0.120579 9.76054C0.147338 9.56918 0.178514 9.37906 0.214107 9.19019C0.249701 9.00132 0.289676 8.8139 0.334031 8.62791C0.378386 8.44193 0.427078 8.25758 0.480105 8.07487C0.533132 7.89216 0.590441 7.71126 0.652031 7.53218C0.713621 7.35311 0.779431 7.17603 0.849459 7.00097C0.919487 6.8259 0.993662 6.65301 1.07198 6.4823C1.1503 6.31159 1.2327 6.14323 1.31916 5.97724C1.40562 5.81124 1.49605 5.64776 1.59047 5.48681C1.68488 5.32586 1.78319 5.1676 1.88537 5.01202C1.98756 4.85645 2.09352 4.70372 2.20326 4.55385C2.313 4.40396 2.4264 4.25708 2.54347 4.11321C2.66055 3.96933 2.78117 3.82859 2.90534 3.69101C3.02951 3.55343 3.1571 3.41913 3.28811 3.28811C3.41912 3.1571 3.55342 3.02951 3.691 2.90534C3.82859 2.78118 3.96932 2.66056 4.1132 2.54348C4.25708 2.42641 4.40396 2.313 4.55384 2.20326C4.70371 2.09352 4.85644 1.98756 5.01201 1.88538C5.16759 1.78319 5.32585 1.68489 5.4868 1.59047C5.64775 1.49606 5.81123 1.40562 5.97723 1.31916C6.14322 1.2327 6.31157 1.15031 6.48228 1.07198C6.653 0.993663 6.82588 0.919489 7.00095 0.849461C7.17602 0.779432 7.35309 0.713623 7.53217 0.652032C7.71125 0.590442 7.89214 0.533133 8.07485 0.480106C8.25757 0.427078 8.44192 0.378387 8.6279 0.334032C8.81387 0.289676 9.0013 0.249701 9.19017 0.214107C9.37904 0.178514 9.56916 0.147338 9.76052 0.120579C9.95192 0.0938203 10.1444 0.0715061 10.3378 0.0536364C10.5313 0.0357667 10.7256 0.0223599 10.9209 0.0134159C11.116 0.00447197 11.3118 0 11.5084 0C11.5084 0 11.5084 0 11.5084 0Z" transform="matrix(0.7071068 0.7071068 -0.7071068 0.7071068 150.4532 44.66009)" id="upper-3" fill="#E86135" stroke="none" />
    <path d="M11.5084 0L27.5201 0C27.7166 0 27.9125 0.00447197 28.1076 0.0134159C28.3028 0.0223599 28.4971 0.0357667 28.6906 0.0536364C28.8841 0.071506 29.0765 0.0938203 29.2679 0.120579C29.4593 0.147338 29.6494 0.178514 29.8383 0.214107C30.0271 0.249701 30.2146 0.289676 30.4006 0.334032C30.5866 0.378387 30.7709 0.427078 30.9536 0.480106C31.1363 0.533133 31.3172 0.590442 31.4963 0.652032C31.6753 0.713623 31.8524 0.779432 32.0275 0.849461C32.2026 0.919489 32.3755 0.993663 32.5461 1.07198C32.7169 1.15031 32.8852 1.2327 33.0512 1.31916C33.2173 1.40562 33.3807 1.49606 33.5417 1.59047C33.7026 1.68489 33.8609 1.78319 34.0164 1.88538C34.172 1.98756 34.3247 2.09352 34.4746 2.20326C34.6245 2.313 34.7713 2.42641 34.9153 2.54348C35.0592 2.66056 35.1999 2.78118 35.3375 2.90534C35.475 3.02951 35.6093 3.1571 35.7404 3.28811C35.8714 3.41913 35.999 3.55343 36.1231 3.69101C36.2473 3.82859 36.3679 3.96933 36.485 4.1132C36.6021 4.25708 36.7155 4.40396 36.8252 4.55385C36.9349 4.70372 37.0409 4.85645 37.1431 5.01202C37.2453 5.16759 37.3436 5.32586 37.438 5.48681C37.5324 5.64776 37.6228 5.81124 37.7093 5.97724C37.7958 6.14323 37.8782 6.31158 37.9565 6.4823C38.0348 6.65301 38.109 6.8259 38.179 7.00096C38.249 7.17603 38.3148 7.35311 38.3764 7.53218C38.438 7.71126 38.4953 7.89216 38.5483 8.07487C38.6013 8.25758 38.65 8.44193 38.6944 8.62791C38.7388 8.81389 38.7787 9.00131 38.8143 9.19018C38.8499 9.37906 38.8811 9.56917 38.9079 9.76054C38.9346 9.95194 38.9569 10.1444 38.9748 10.3379C38.9927 10.5313 39.0061 10.7257 39.015 10.9209C39.024 11.116 39.0285 11.3119 39.0285 11.5084C39.0285 11.5084 39.0285 11.5084 39.0285 11.5084C39.0285 11.705 39.024 11.9008 39.015 12.0959C39.0061 12.2911 38.9927 12.4855 38.9748 12.679C38.9569 12.8724 38.9346 13.0649 38.9079 13.2563C38.8811 13.4476 38.8499 13.6377 38.8143 13.8266C38.7787 14.0155 38.7388 14.2029 38.6944 14.3889C38.65 14.5749 38.6013 14.7592 38.5483 14.9419C38.4953 15.1247 38.438 15.3055 38.3764 15.4846C38.3148 15.6637 38.249 15.8408 38.179 16.0159C38.109 16.191 38.0348 16.3638 37.9565 16.5345C37.8782 16.7052 37.7958 16.8736 37.7093 17.0395C37.6228 17.2056 37.5324 17.3691 37.438 17.53C37.3436 17.691 37.2453 17.8492 37.1431 18.0048C37.0409 18.1603 36.9349 18.3131 36.8252 18.463C36.7155 18.6128 36.6021 18.7597 36.485 18.9036C36.3679 19.0475 36.2473 19.1882 36.1231 19.3258C35.999 19.4634 35.8714 19.5977 35.7404 19.7287C35.6093 19.8597 35.475 19.9873 35.3375 20.1115C35.1999 20.2357 35.0592 20.3563 34.9153 20.4734C34.7713 20.5904 34.6245 20.7039 34.4746 20.8136C34.3247 20.9233 34.172 21.0292 34.0164 21.1314C33.8609 21.2336 33.7026 21.332 33.5417 21.4264C33.3807 21.5208 33.2173 21.6112 33.0512 21.6977C32.8852 21.7841 32.7169 21.8665 32.5461 21.9448C32.3755 22.0232 32.2026 22.0973 32.0275 22.1674C31.8524 22.2374 31.6753 22.3032 31.4963 22.3647C31.3172 22.4264 31.1363 22.4837 30.9536 22.5367C30.7709 22.5897 30.5866 22.6384 30.4006 22.6828C30.2146 22.7271 30.0271 22.7671 29.8383 22.8027C29.6494 22.8383 29.4593 22.8695 29.2679 22.8962C29.0765 22.923 28.8841 22.9453 28.6906 22.9632C28.4971 22.9811 28.3028 22.9945 28.1076 23.0034C27.9125 23.0123 27.7166 23.0168 27.5201 23.0168C27.5201 23.0168 11.5084 23.0168 11.5084 23.0168C11.3118 23.0168 11.116 23.0123 10.9209 23.0034C10.7257 22.9945 10.5313 22.9811 10.3378 22.9632C10.1444 22.9453 9.95193 22.923 9.76053 22.8962C9.56916 22.8695 9.37904 22.8383 9.19017 22.8028C9.00131 22.7671 8.81388 22.7271 8.6279 22.6828C8.44192 22.6384 8.25757 22.5897 8.07486 22.5367C7.89214 22.4837 7.71125 22.4264 7.53217 22.3647C7.35309 22.3032 7.17602 22.2374 7.00095 22.1674C6.82589 22.0973 6.653 22.0232 6.48229 21.9448C6.31157 21.8665 6.14322 21.7841 5.97723 21.6977C5.81123 21.6112 5.64775 21.5208 5.4868 21.4264C5.32585 21.332 5.16759 21.2336 5.01201 21.1314C4.85644 21.0292 4.70372 20.9233 4.55384 20.8136C4.40396 20.7039 4.25708 20.5904 4.1132 20.4734C3.96932 20.3563 3.82859 20.2357 3.691 20.1115C3.55342 19.9873 3.41912 19.8597 3.28811 19.7287C3.1571 19.5977 3.02951 19.4634 2.90534 19.3258C2.78117 19.1882 2.66055 19.0475 2.54347 18.9036C2.4264 18.7597 2.313 18.6128 2.20326 18.463C2.09352 18.3131 1.98756 18.1603 1.88537 18.0048C1.78319 17.8492 1.68489 17.691 1.59047 17.53C1.49605 17.3691 1.40562 17.2056 1.31916 17.0395C1.2327 16.8736 1.15031 16.7052 1.07198 16.5345C0.993662 16.3638 0.919488 16.191 0.849459 16.0159C0.779431 15.8408 0.713622 15.6637 0.652031 15.4846C0.590441 15.3055 0.533132 15.1247 0.480105 14.9419C0.427078 14.7592 0.378387 14.5749 0.334032 14.3889C0.289676 14.2029 0.249701 14.0155 0.214107 13.8266C0.178514 13.6377 0.147338 13.4476 0.120579 13.2563C0.0938201 13.0649 0.0715059 12.8724 0.0536363 12.679C0.0357667 12.4855 0.0223599 12.2911 0.0134159 12.0959C0.00447196 11.9008 0 11.705 0 11.5084C0 11.5084 0 11.5084 0 11.5084C0 11.3119 0.00447196 11.116 0.0134159 10.9209C0.0223599 10.7257 0.0357667 10.5313 0.0536363 10.3379C0.0715059 10.1444 0.0938201 9.95194 0.120579 9.76054C0.147338 9.56917 0.178514 9.37906 0.214107 9.19018C0.249701 9.00132 0.289676 8.8139 0.334032 8.62791C0.378387 8.44193 0.427078 8.25758 0.480105 8.07487C0.533132 7.89216 0.590441 7.71126 0.652031 7.53218C0.713622 7.35311 0.779431 7.17603 0.849459 7.00096C0.919488 6.8259 0.993662 6.65301 1.07198 6.4823C1.15031 6.31158 1.2327 6.14323 1.31916 5.97724C1.40562 5.81124 1.49605 5.64776 1.59047 5.48681C1.68489 5.32586 1.78319 5.16759 1.88537 5.01202C1.98756 4.85645 2.09352 4.70372 2.20326 4.55385C2.313 4.40396 2.4264 4.25708 2.54347 4.1132C2.66055 3.96933 2.78117 3.82859 2.90534 3.69101C3.02951 3.55343 3.1571 3.41913 3.28811 3.28811C3.41912 3.1571 3.55342 3.02951 3.691 2.90534C3.82859 2.78118 3.96932 2.66056 4.1132 2.54348C4.25708 2.42641 4.40396 2.313 4.55384 2.20326C4.70372 2.09352 4.85644 1.98756 5.01201 1.88538C5.16759 1.78319 5.32585 1.68489 5.4868 1.59047C5.64775 1.49606 5.81123 1.40562 5.97723 1.31916C6.14322 1.2327 6.31157 1.15031 6.48229 1.07198C6.653 0.993663 6.82589 0.919489 7.00095 0.849461C7.17602 0.779432 7.35309 0.713623 7.53217 0.652032C7.71125 0.590442 7.89214 0.533133 8.07486 0.480106C8.25757 0.427078 8.44192 0.378387 8.6279 0.334032C8.81388 0.289676 9.0013 0.249701 9.19017 0.214107C9.37904 0.178514 9.56916 0.147338 9.76053 0.120579C9.95193 0.0938203 10.1444 0.071506 10.3378 0.0536364C10.5313 0.0357667 10.7257 0.0223599 10.9209 0.0134159C11.116 0.00447197 11.3118 0 11.5084 0C11.5084 0 11.5084 0 11.5084 0Z" transform="matrix(0.7071068 -0.7071068 0.7071068 0.7071068 35.44873 71.54983)" id="upper-2" fill="#24C981" stroke="none" />
    <path d="M11.5084 0L27.5201 0C27.7166 0 27.9124 0.00447196 28.1076 0.0134159C28.3028 0.0223599 28.4971 0.0357667 28.6906 0.0536363C28.8841 0.071506 29.0765 0.0938202 29.2679 0.120579C29.4593 0.147338 29.6494 0.178514 29.8382 0.214107C30.0271 0.249701 30.2146 0.289676 30.4006 0.334032C30.5866 0.378387 30.7709 0.427078 30.9536 0.480105C31.1363 0.533133 31.3172 0.590442 31.4963 0.652032C31.6753 0.713622 31.8524 0.779431 32.0275 0.84946C32.2026 0.919488 32.3755 0.993662 32.5461 1.07198C32.7168 1.15031 32.8852 1.2327 33.0512 1.31916C33.2172 1.40562 33.3807 1.49606 33.5416 1.59047C33.7026 1.68489 33.8609 1.78319 34.0164 1.88538C34.172 1.98756 34.3247 2.09352 34.4746 2.20326C34.6245 2.313 34.7713 2.4264 34.9152 2.54348C35.0592 2.66055 35.1999 2.78118 35.3375 2.90534C35.475 3.02951 35.6093 3.1571 35.7403 3.28811C35.8714 3.41913 35.999 3.55342 36.1231 3.691C36.2473 3.82859 36.3679 3.96932 36.485 4.1132C36.6021 4.25708 36.7155 4.40396 36.8252 4.55384C36.9349 4.70372 37.0409 4.85644 37.1431 5.01202C37.2453 5.16759 37.3436 5.32585 37.438 5.4868C37.5324 5.64775 37.6228 5.81123 37.7093 5.97723C37.7957 6.14323 37.8781 6.31158 37.9565 6.48229C38.0348 6.653 38.109 6.82589 38.179 7.00096C38.249 7.17603 38.3148 7.3531 38.3764 7.53218C38.438 7.71125 38.4953 7.89215 38.5483 8.07486C38.6013 8.25758 38.65 8.44192 38.6944 8.62791C38.7388 8.81388 38.7787 9.00131 38.8143 9.19018C38.8499 9.37905 38.8811 9.56917 38.9079 9.76053C38.9346 9.95193 38.9569 10.1444 38.9748 10.3378C38.9927 10.5313 39.0061 10.7257 39.015 10.9209C39.024 11.116 39.0284 11.3119 39.0284 11.5084C39.0284 11.5084 39.0284 11.5084 39.0284 11.5084C39.0284 11.7049 39.024 11.9008 39.015 12.0959C39.0061 12.2911 38.9927 12.4855 38.9748 12.679C38.9569 12.8724 38.9346 13.0649 38.9079 13.2563C38.8811 13.4476 38.8499 13.6377 38.8143 13.8266C38.7787 14.0155 38.7388 14.2029 38.6944 14.3889C38.65 14.5749 38.6013 14.7592 38.5483 14.9419C38.4953 15.1246 38.438 15.3055 38.3764 15.4846C38.3148 15.6637 38.249 15.8408 38.179 16.0159C38.109 16.1909 38.0348 16.3638 37.9565 16.5345C37.8781 16.7052 37.7957 16.8735 37.7093 17.0395C37.6228 17.2056 37.5324 17.3691 37.438 17.53C37.3436 17.691 37.2453 17.8492 37.1431 18.0047C37.0409 18.1603 36.9349 18.3131 36.8252 18.463C36.7155 18.6128 36.6021 18.7597 36.485 18.9036C36.3679 19.0475 36.2473 19.1882 36.1231 19.3258C35.999 19.4634 35.8714 19.5977 35.7403 19.7287C35.6093 19.8597 35.475 19.9873 35.3375 20.1115C35.1999 20.2356 35.0592 20.3563 34.9152 20.4733C34.7713 20.5904 34.6245 20.7038 34.4746 20.8136C34.3247 20.9233 34.172 21.0292 34.0164 21.1314C33.8609 21.2336 33.7026 21.3319 33.5416 21.4263C33.3807 21.5207 33.2172 21.6112 33.0512 21.6976C32.8852 21.7841 32.7168 21.8665 32.5461 21.9448C32.3755 22.0231 32.2026 22.0973 32.0275 22.1674C31.8524 22.2374 31.6753 22.3031 31.4963 22.3647C31.3172 22.4264 31.1363 22.4837 30.9536 22.5366C30.7709 22.5897 30.5866 22.6384 30.4006 22.6828C30.2146 22.7271 30.0271 22.7671 29.8382 22.8026C29.6494 22.8383 29.4593 22.8695 29.2679 22.8962C29.0765 22.923 28.8841 22.9453 28.6906 22.9632C28.4971 22.981 28.3028 22.9944 28.1076 23.0034C27.9124 23.0123 27.7166 23.0168 27.5201 23.0168C27.5201 23.0168 11.5084 23.0168 11.5084 23.0168C11.3118 23.0168 11.116 23.0123 10.9209 23.0034C10.7256 22.9944 10.5313 22.981 10.3378 22.9632C10.1444 22.9453 9.95192 22.923 9.76052 22.8962C9.56916 22.8695 9.37904 22.8383 9.19017 22.8027C9.0013 22.7671 8.81388 22.7271 8.6279 22.6828C8.44192 22.6384 8.25757 22.5897 8.07485 22.5366C7.89214 22.4837 7.71125 22.4264 7.53217 22.3647C7.35309 22.3031 7.17602 22.2374 7.00095 22.1674C6.82588 22.0973 6.653 22.0231 6.48228 21.9448C6.31157 21.8665 6.14322 21.7841 5.97723 21.6976C5.81123 21.6112 5.64775 21.5207 5.4868 21.4263C5.32585 21.3319 5.16759 21.2336 5.01201 21.1314C4.85644 21.0292 4.70371 20.9233 4.55384 20.8136C4.40396 20.7038 4.25708 20.5904 4.1132 20.4733C3.96932 20.3563 3.82859 20.2356 3.691 20.1115C3.55342 19.9873 3.41912 19.8597 3.28811 19.7287C3.1571 19.5977 3.02951 19.4634 2.90534 19.3258C2.78117 19.1882 2.66055 19.0475 2.54347 18.9036C2.4264 18.7597 2.313 18.6128 2.20326 18.463C2.09352 18.3131 1.98756 18.1603 1.88537 18.0047C1.78319 17.8492 1.68488 17.691 1.59047 17.53C1.49605 17.3691 1.40562 17.2056 1.31916 17.0395C1.2327 16.8735 1.1503 16.7052 1.07198 16.5345C0.993662 16.3638 0.919487 16.1909 0.849459 16.0159C0.779431 15.8408 0.713621 15.6637 0.652031 15.4846C0.590441 15.3055 0.533132 15.1246 0.480105 14.9419C0.427078 14.7592 0.378386 14.5749 0.334031 14.3889C0.289676 14.2029 0.249701 14.0155 0.214107 13.8266C0.178514 13.6377 0.147338 13.4476 0.120579 13.2563C0.0938201 13.0649 0.0715059 12.8724 0.0536363 12.679C0.0357667 12.4855 0.0223599 12.2911 0.0134159 12.0959C0.00447196 11.9008 0 11.7049 0 11.5084C0 11.5084 0 11.5084 0 11.5084C0 11.3119 0.00447196 11.116 0.0134159 10.9209C0.0223599 10.7257 0.0357667 10.5313 0.0536363 10.3378C0.0715059 10.1444 0.0938201 9.95193 0.120579 9.76053C0.147338 9.56917 0.178514 9.37905 0.214107 9.19018C0.249701 9.00131 0.289676 8.81389 0.334031 8.62791C0.378386 8.44192 0.427078 8.25758 0.480105 8.07486C0.533132 7.89215 0.590441 7.71125 0.652031 7.53218C0.713621 7.3531 0.779431 7.17603 0.849459 7.00096C0.919487 6.82589 0.993662 6.653 1.07198 6.48229C1.1503 6.31158 1.2327 6.14323 1.31916 5.97723C1.40562 5.81123 1.49605 5.64775 1.59047 5.4868C1.68488 5.32585 1.78319 5.16759 1.88537 5.01202C1.98756 4.85644 2.09352 4.70372 2.20326 4.55384C2.313 4.40396 2.4264 4.25708 2.54347 4.1132C2.66055 3.96932 2.78117 3.82859 2.90534 3.691C3.02951 3.55342 3.1571 3.41913 3.28811 3.28811C3.41912 3.1571 3.55342 3.02951 3.691 2.90534C3.82859 2.78118 3.96932 2.66055 4.1132 2.54348C4.25708 2.4264 4.40396 2.313 4.55384 2.20326C4.70371 2.09352 4.85644 1.98756 5.01201 1.88538C5.16759 1.78319 5.32585 1.68489 5.4868 1.59047C5.64775 1.49606 5.81123 1.40562 5.97723 1.31916C6.14322 1.2327 6.31157 1.15031 6.48228 1.07198C6.653 0.993662 6.82588 0.919488 7.00095 0.84946C7.17602 0.779431 7.35309 0.713622 7.53217 0.652032C7.71125 0.590442 7.89214 0.533133 8.07485 0.480105C8.25757 0.427078 8.44192 0.378387 8.6279 0.334032C8.81387 0.289676 9.0013 0.249701 9.19017 0.214107C9.37904 0.178514 9.56916 0.147338 9.76052 0.120579C9.95192 0.0938202 10.1444 0.071506 10.3378 0.0536363C10.5313 0.0357667 10.7256 0.0223599 10.9209 0.0134159C11.116 0.00447196 11.3118 0 11.5084 0C11.5084 0 11.5084 0 11.5084 0Z" transform="matrix(0.7071068 -0.7071068 0.7071068 0.7071068 80 27.59734)" id="upper-4" fill="#FF6584" stroke="none" />
    <path d="M11.5084 0L27.52 0C27.7166 0 27.9124 0.00447196 28.1076 0.0134159C28.3028 0.0223599 28.4971 0.0357667 28.6906 0.0536364C28.8841 0.071506 29.0765 0.0938202 29.2679 0.120579C29.4593 0.147338 29.6494 0.178514 29.8382 0.214107C30.0271 0.249701 30.2145 0.289676 30.4005 0.334032C30.5865 0.378387 30.7709 0.427078 30.9535 0.480105C31.1363 0.533133 31.3172 0.590442 31.4962 0.652032C31.6753 0.713622 31.8524 0.779432 32.0275 0.84946C32.2026 0.919489 32.3755 0.993663 32.5461 1.07198C32.7168 1.15031 32.8852 1.2327 33.0512 1.31916C33.2172 1.40562 33.3807 1.49606 33.5416 1.59047C33.7026 1.68489 33.8609 1.78319 34.0164 1.88538C34.172 1.98756 34.3247 2.09352 34.4746 2.20326C34.6245 2.313 34.7713 2.4264 34.9152 2.54348C35.0591 2.66056 35.1999 2.78118 35.3374 2.90534C35.475 3.02951 35.6093 3.1571 35.7403 3.28811C35.8714 3.41913 35.999 3.55342 36.1231 3.691C36.2473 3.82859 36.3679 3.96932 36.485 4.1132C36.6021 4.25708 36.7155 4.40396 36.8252 4.55384C36.9349 4.70372 37.0408 4.85644 37.1431 5.01202C37.2453 5.16759 37.3436 5.32585 37.438 5.4868C37.5324 5.64776 37.6228 5.81123 37.7093 5.97723C37.7957 6.14323 37.8781 6.31158 37.9564 6.48229C38.0348 6.653 38.109 6.82589 38.179 7.00096C38.249 7.17603 38.3148 7.3531 38.3764 7.53218C38.438 7.71126 38.4953 7.89215 38.5483 8.07486C38.6013 8.25758 38.65 8.44193 38.6944 8.62791C38.7388 8.81388 38.7787 9.00131 38.8143 9.19018C38.8499 9.37905 38.8811 9.56917 38.9078 9.76053C38.9346 9.95193 38.9569 10.1444 38.9748 10.3378C38.9927 10.5313 39.0061 10.7257 39.015 10.9209C39.024 11.116 39.0284 11.3119 39.0284 11.5084C39.0284 11.5084 39.0284 11.5084 39.0284 11.5084C39.0284 11.7049 39.024 11.9008 39.015 12.0959C39.0061 12.2911 38.9927 12.4855 38.9748 12.679C38.9569 12.8724 38.9346 13.0649 38.9078 13.2563C38.8811 13.4476 38.8499 13.6377 38.8143 13.8266C38.7787 14.0155 38.7388 14.2029 38.6944 14.3889C38.65 14.5749 38.6013 14.7592 38.5483 14.9419C38.4953 15.1246 38.438 15.3055 38.3764 15.4846C38.3148 15.6637 38.249 15.8408 38.179 16.0159C38.109 16.191 38.0348 16.3638 37.9564 16.5345C37.8781 16.7052 37.7957 16.8735 37.7093 17.0395C37.6228 17.2056 37.5324 17.3691 37.438 17.53C37.3436 17.691 37.2453 17.8492 37.1431 18.0047C37.0408 18.1603 36.9349 18.3131 36.8252 18.463C36.7155 18.6128 36.6021 18.7597 36.485 18.9036C36.3679 19.0475 36.2473 19.1882 36.1231 19.3258C35.999 19.4634 35.8714 19.5977 35.7403 19.7287C35.6093 19.8597 35.475 19.9873 35.3374 20.1115C35.1999 20.2356 35.0591 20.3563 34.9152 20.4733C34.7713 20.5904 34.6245 20.7038 34.4746 20.8136C34.3247 20.9233 34.172 21.0292 34.0164 21.1314C33.8609 21.2336 33.7026 21.3319 33.5416 21.4263C33.3807 21.5207 33.2172 21.6112 33.0512 21.6976C32.8852 21.7841 32.7168 21.8665 32.5461 21.9448C32.3755 22.0231 32.2026 22.0973 32.0275 22.1674C31.8524 22.2374 31.6753 22.3031 31.4962 22.3647C31.3172 22.4264 31.1363 22.4837 30.9535 22.5367C30.7709 22.5897 30.5865 22.6384 30.4005 22.6828C30.2145 22.7271 30.0271 22.7671 29.8382 22.8026C29.6494 22.8383 29.4593 22.8695 29.2679 22.8962C29.0765 22.923 28.8841 22.9453 28.6906 22.9632C28.4971 22.981 28.3028 22.9945 28.1076 23.0034C27.9124 23.0123 27.7166 23.0168 27.52 23.0168C27.52 23.0168 11.5084 23.0168 11.5084 23.0168C11.3118 23.0168 11.116 23.0123 10.9209 23.0034C10.7256 22.9945 10.5313 22.981 10.3378 22.9632C10.1444 22.9453 9.95192 22.923 9.76052 22.8962C9.56915 22.8695 9.37903 22.8383 9.19016 22.8027C9.0013 22.7671 8.81388 22.7271 8.62789 22.6828C8.44191 22.6384 8.25756 22.5897 8.07485 22.5367C7.89214 22.4837 7.71124 22.4264 7.53217 22.3647C7.35309 22.3031 7.17602 22.2374 7.00095 22.1674C6.82588 22.0973 6.65299 22.0231 6.48228 21.9448C6.31157 21.8665 6.14322 21.7841 5.97722 21.6976C5.81122 21.6112 5.64775 21.5207 5.4868 21.4263C5.32585 21.3319 5.16758 21.2336 5.01201 21.1314C4.85644 21.0292 4.70371 20.9233 4.55384 20.8136C4.40395 20.7038 4.25707 20.5904 4.1132 20.4733C3.96932 20.3563 3.82859 20.2356 3.691 20.1115C3.55342 19.9873 3.41912 19.8597 3.28811 19.7287C3.1571 19.5977 3.02951 19.4634 2.90534 19.3258C2.78117 19.1882 2.66055 19.0475 2.54347 18.9036C2.4264 18.7597 2.31299 18.6128 2.20325 18.463C2.09351 18.3131 1.98755 18.1603 1.88537 18.0047C1.78319 17.8492 1.68488 17.691 1.59047 17.53C1.49605 17.3691 1.40562 17.2056 1.31916 17.0395C1.2327 16.8735 1.1503 16.7052 1.07198 16.5345C0.993661 16.3638 0.919487 16.191 0.849459 16.0159C0.77943 15.8408 0.713621 15.6637 0.652031 15.4846C0.590441 15.3055 0.533132 15.1246 0.480105 14.9419C0.427077 14.7592 0.378386 14.5749 0.334031 14.3889C0.289676 14.2029 0.249701 14.0155 0.214107 13.8266C0.178514 13.6377 0.147338 13.4476 0.120579 13.2563C0.0938201 13.0649 0.0715059 12.8724 0.0536363 12.679C0.0357666 12.4855 0.0223599 12.2911 0.0134159 12.0959C0.00447196 11.9008 0 11.7049 0 11.5084C0 11.5084 0 11.5084 0 11.5084C0 11.3119 0.00447196 11.116 0.0134159 10.9209C0.0223599 10.7257 0.0357666 10.5313 0.0536363 10.3378C0.0715059 10.1444 0.0938201 9.95193 0.120579 9.76053C0.147338 9.56917 0.178514 9.37905 0.214107 9.19018C0.249701 9.00131 0.289676 8.81389 0.334031 8.62791C0.378386 8.44193 0.427077 8.25758 0.480105 8.07486C0.533132 7.89215 0.590441 7.71126 0.652031 7.53218C0.713621 7.3531 0.77943 7.17603 0.849459 7.00096C0.919487 6.82589 0.993661 6.653 1.07198 6.48229C1.1503 6.31158 1.2327 6.14323 1.31916 5.97723C1.40562 5.81123 1.49605 5.64776 1.59047 5.4868C1.68488 5.32585 1.78319 5.16759 1.88537 5.01202C1.98755 4.85644 2.09351 4.70372 2.20325 4.55384C2.31299 4.40396 2.4264 4.25708 2.54347 4.1132C2.66055 3.96932 2.78117 3.82859 2.90534 3.691C3.02951 3.55342 3.1571 3.41913 3.28811 3.28811C3.41912 3.1571 3.55342 3.02951 3.691 2.90534C3.82859 2.78118 3.96932 2.66056 4.1132 2.54348C4.25707 2.4264 4.40395 2.313 4.55384 2.20326C4.70371 2.09352 4.85644 1.98756 5.01201 1.88538C5.16758 1.78319 5.32585 1.68489 5.4868 1.59047C5.64775 1.49606 5.81122 1.40562 5.97722 1.31916C6.14322 1.2327 6.31157 1.15031 6.48228 1.07198C6.65299 0.993663 6.82588 0.919489 7.00095 0.84946C7.17602 0.779432 7.35309 0.713622 7.53217 0.652032C7.71124 0.590442 7.89214 0.533133 8.07485 0.480105C8.25756 0.427078 8.44191 0.378387 8.62789 0.334032C8.81387 0.289676 9.00129 0.249701 9.19016 0.214107C9.37903 0.178514 9.56915 0.147338 9.76052 0.120579C9.95192 0.0938202 10.1444 0.071506 10.3378 0.0536364C10.5313 0.0357667 10.7256 0.0223599 10.9209 0.0134159C11.116 0.00447196 11.3118 0 11.5084 0C11.5084 0 11.5084 0 11.5084 0Z" transform="matrix(0.7071068 0.7071068 -0.7071068 0.7071068 107.4429 0)" id="upper-5" fill="#FF6584" stroke="none" />
    <path d="M11.5084 0L27.52 0C27.7166 0 27.9124 0.00447196 28.1076 0.0134159C28.3028 0.0223599 28.4971 0.0357667 28.6906 0.0536364C28.8841 0.071506 29.0765 0.0938202 29.2679 0.120579C29.4592 0.147338 29.6493 0.178514 29.8382 0.214107C30.0271 0.249701 30.2145 0.289676 30.4005 0.334032C30.5865 0.378387 30.7709 0.427078 30.9535 0.480105C31.1363 0.533133 31.3172 0.590442 31.4962 0.652032C31.6753 0.713622 31.8524 0.779432 32.0275 0.84946C32.2026 0.919489 32.3754 0.993663 32.5461 1.07198C32.7168 1.15031 32.8852 1.2327 33.0511 1.31916C33.2172 1.40562 33.3807 1.49606 33.5416 1.59047C33.7026 1.68489 33.8608 1.78319 34.0163 1.88538C34.1719 1.98756 34.3247 2.09352 34.4746 2.20326C34.6244 2.313 34.7713 2.4264 34.9152 2.54348C35.0591 2.66056 35.1998 2.78118 35.3374 2.90534C35.475 3.02951 35.6093 3.1571 35.7403 3.28811C35.8713 3.41913 35.9989 3.55342 36.1231 3.691C36.2472 3.82859 36.3679 3.96932 36.4849 4.1132C36.602 4.25708 36.7154 4.40396 36.8252 4.55384C36.9349 4.70372 37.0408 4.85644 37.143 5.01202C37.2452 5.16759 37.3435 5.32585 37.4379 5.4868C37.5323 5.64776 37.6228 5.81123 37.7092 5.97723C37.7957 6.14323 37.8781 6.31158 37.9564 6.48229C38.0347 6.653 38.1089 6.82589 38.179 7.00096C38.249 7.17603 38.3147 7.3531 38.3763 7.53218C38.438 7.71126 38.4953 7.89215 38.5482 8.07486C38.6013 8.25758 38.65 8.44193 38.6944 8.62791C38.7387 8.81388 38.7787 9.00131 38.8142 9.19018C38.8499 9.37905 38.8811 9.56917 38.9078 9.76053C38.9346 9.95193 38.9569 10.1444 38.9748 10.3378C38.9926 10.5313 39.0061 10.7257 39.015 10.9209C39.0239 11.116 39.0284 11.3119 39.0284 11.5084C39.0284 11.5084 39.0284 11.5084 39.0284 11.5084C39.0284 11.7049 39.0239 11.9008 39.015 12.0959C39.0061 12.2911 38.9926 12.4855 38.9748 12.679C38.9569 12.8724 38.9346 13.0649 38.9078 13.2563C38.8811 13.4476 38.8499 13.6377 38.8142 13.8266C38.7787 14.0155 38.7387 14.2029 38.6944 14.3889C38.65 14.5749 38.6013 14.7592 38.5482 14.9419C38.4953 15.1246 38.438 15.3055 38.3763 15.4846C38.3147 15.6637 38.249 15.8408 38.179 16.0159C38.1089 16.191 38.0347 16.3638 37.9564 16.5345C37.8781 16.7052 37.7957 16.8735 37.7092 17.0395C37.6228 17.2056 37.5323 17.3691 37.4379 17.53C37.3435 17.691 37.2452 17.8492 37.143 18.0047C37.0408 18.1603 36.9349 18.3131 36.8252 18.463C36.7154 18.6128 36.602 18.7597 36.4849 18.9036C36.3679 19.0475 36.2472 19.1882 36.1231 19.3258C35.9989 19.4634 35.8713 19.5977 35.7403 19.7287C35.6093 19.8597 35.475 19.9873 35.3374 20.1115C35.1998 20.2356 35.0591 20.3563 34.9152 20.4733C34.7713 20.5904 34.6244 20.7038 34.4746 20.8136C34.3247 20.9233 34.1719 21.0292 34.0163 21.1314C33.8608 21.2336 33.7026 21.3319 33.5416 21.4263C33.3807 21.5207 33.2172 21.6112 33.0511 21.6976C32.8852 21.7841 32.7168 21.8665 32.5461 21.9448C32.3754 22.0231 32.2026 22.0973 32.0275 22.1674C31.8524 22.2374 31.6753 22.3031 31.4962 22.3647C31.3172 22.4264 31.1363 22.4837 30.9535 22.5367C30.7709 22.5897 30.5865 22.6384 30.4005 22.6828C30.2145 22.7271 30.0271 22.7671 29.8382 22.8026C29.6493 22.8383 29.4592 22.8695 29.2679 22.8962C29.0765 22.923 28.8841 22.9453 28.6906 22.9632C28.4971 22.981 28.3028 22.9945 28.1076 23.0034C27.9124 23.0123 27.7166 23.0168 27.52 23.0168C27.52 23.0168 11.5084 23.0168 11.5084 23.0168C11.3118 23.0168 11.116 23.0123 10.9208 23.0034C10.7256 22.9945 10.5313 22.981 10.3378 22.9632C10.1443 22.9453 9.95191 22.923 9.76051 22.8962C9.56915 22.8695 9.37903 22.8383 9.19016 22.8027C9.00129 22.7671 8.81387 22.7271 8.62789 22.6828C8.44191 22.6384 8.25756 22.5897 8.07485 22.5367C7.89213 22.4837 7.71124 22.4264 7.53216 22.3647C7.35308 22.3031 7.17601 22.2374 7.00094 22.1674C6.82588 22.0973 6.65299 22.0231 6.48228 21.9448C6.31157 21.8665 6.14321 21.7841 5.97722 21.6976C5.81122 21.6112 5.64774 21.5207 5.48679 21.4263C5.32584 21.3319 5.16758 21.2336 5.01201 21.1314C4.85643 21.0292 4.70371 20.9233 4.55383 20.8136C4.40395 20.7038 4.25707 20.5904 4.11319 20.4733C3.96931 20.3563 3.82858 20.2356 3.691 20.1115C3.55342 19.9873 3.41912 19.8597 3.2881 19.7287C3.15709 19.5977 3.0295 19.4634 2.90533 19.3258C2.78117 19.1882 2.66055 19.0475 2.54347 18.9036C2.4264 18.7597 2.31299 18.6128 2.20325 18.463C2.09351 18.3131 1.98755 18.1603 1.88537 18.0047C1.78318 17.8492 1.68488 17.691 1.59047 17.53C1.49605 17.3691 1.40562 17.2056 1.31916 17.0395C1.2327 16.8735 1.1503 16.7052 1.07198 16.5345C0.99366 16.3638 0.919486 16.191 0.849458 16.0159C0.77943 15.8408 0.713621 15.6637 0.65203 15.4846C0.59044 15.3055 0.533132 15.1246 0.480104 14.9419C0.427077 14.7592 0.378386 14.5749 0.334031 14.3889C0.289675 14.2029 0.249701 14.0155 0.214107 13.8266C0.178514 13.6377 0.147338 13.4476 0.120579 13.2563C0.09382 13.0649 0.0715058 12.8724 0.0536362 12.679C0.0357666 12.4855 0.0223598 12.2911 0.0134159 12.0959C0.00447195 11.9008 0 11.7049 0 11.5084C0 11.5084 0 11.5084 0 11.5084C0 11.3119 0.00447195 11.116 0.0134159 10.9209C0.0223598 10.7257 0.0357666 10.5313 0.0536362 10.3378C0.0715058 10.1444 0.09382 9.95193 0.120579 9.76053C0.147338 9.56917 0.178514 9.37905 0.214107 9.19018C0.249701 9.00131 0.289675 8.81389 0.334031 8.62791C0.378386 8.44193 0.427077 8.25758 0.480104 8.07486C0.533132 7.89215 0.59044 7.71126 0.65203 7.53218C0.713621 7.3531 0.77943 7.17603 0.849458 7.00096C0.919486 6.82589 0.99366 6.653 1.07198 6.48229C1.1503 6.31158 1.2327 6.14323 1.31916 5.97723C1.40562 5.81123 1.49605 5.64776 1.59047 5.4868C1.68488 5.32585 1.78318 5.16759 1.88537 5.01202C1.98755 4.85644 2.09351 4.70372 2.20325 4.55384C2.31299 4.40396 2.4264 4.25708 2.54347 4.1132C2.66055 3.96932 2.78117 3.82859 2.90533 3.691C3.0295 3.55342 3.15709 3.41913 3.2881 3.28811C3.41912 3.1571 3.55342 3.02951 3.691 2.90534C3.82858 2.78118 3.96931 2.66056 4.11319 2.54348C4.25707 2.4264 4.40395 2.313 4.55383 2.20326C4.70371 2.09352 4.85643 1.98756 5.01201 1.88538C5.16758 1.78319 5.32584 1.68489 5.48679 1.59047C5.64774 1.49606 5.81122 1.40562 5.97722 1.31916C6.14321 1.2327 6.31157 1.15031 6.48228 1.07198C6.65299 0.993663 6.82588 0.919489 7.00094 0.84946C7.17601 0.779432 7.35308 0.713622 7.53216 0.652032C7.71124 0.590442 7.89213 0.533133 8.07485 0.480105C8.25756 0.427078 8.44191 0.378387 8.62789 0.334032C8.81386 0.289676 9.00129 0.249701 9.19016 0.214107C9.37903 0.178514 9.56915 0.147338 9.76051 0.120579C9.95191 0.0938202 10.1443 0.071506 10.3378 0.0536364C10.5313 0.0357667 10.7256 0.0223599 10.9208 0.0134159C11.116 0.00447196 11.3118 0 11.5084 0C11.5084 0 11.5084 0 11.5084 0Z" transform="translate(87.06368 61.88589)" id="upper-1" fill="#66657A" stroke="none" />
    <path d="M11.5084 0L86.5632 0C86.7598 0 86.9556 0.00447196 87.1507 0.0134159C87.346 0.0223599 87.5403 0.0357667 87.7338 0.0536364C87.9272 0.071506 88.1197 0.0938202 88.3111 0.120579C88.5024 0.147338 88.6925 0.178514 88.8814 0.214107C89.0703 0.249701 89.2577 0.289676 89.4437 0.334032C89.6297 0.378387 89.8141 0.427078 89.9967 0.480105C90.1795 0.533133 90.3604 0.590442 90.5394 0.652032C90.7186 0.713622 90.8957 0.779432 91.0707 0.84946C91.2458 0.919489 91.4187 0.993663 91.5894 1.07198C91.76 1.15031 91.9284 1.2327 92.0944 1.31916C92.2604 1.40562 92.4239 1.49606 92.5848 1.59047C92.7458 1.68489 92.904 1.78319 93.0596 1.88538C93.2151 1.98756 93.3679 2.09352 93.5178 2.20326C93.6677 2.313 93.8146 2.4264 93.9584 2.54348C94.1023 2.66056 94.2431 2.78118 94.3806 2.90534C94.5182 3.02951 94.6525 3.1571 94.7835 3.28811C94.9145 3.41913 95.0421 3.55342 95.1663 3.691C95.2905 3.82859 95.4111 3.96932 95.5282 4.1132C95.6453 4.25708 95.7587 4.40396 95.8684 4.55384C95.9782 4.70372 96.0841 4.85644 96.1862 5.01202C96.2885 5.16759 96.3868 5.32585 96.4812 5.4868C96.5756 5.64776 96.666 5.81123 96.7525 5.97723C96.8389 6.14323 96.9213 6.31158 96.9996 6.48229C97.078 6.653 97.1522 6.82589 97.2222 7.00096C97.2922 7.17603 97.358 7.3531 97.4196 7.53218C97.4812 7.71126 97.5385 7.89215 97.5916 8.07486C97.6445 8.25758 97.6932 8.44193 97.7376 8.62791C97.7819 8.81388 97.8219 9.00131 97.8575 9.19018C97.8931 9.37905 97.9243 9.56917 97.951 9.76053C97.9778 9.95193 98.0001 10.1444 98.018 10.3378C98.0359 10.5313 98.0493 10.7257 98.0582 10.9209C98.0672 11.116 98.0716 11.3119 98.0716 11.5084C98.0716 11.5084 98.0716 11.5084 98.0716 11.5084C98.0716 11.7049 98.0672 11.9008 98.0582 12.0959C98.0493 12.2911 98.0359 12.4855 98.018 12.679C98.0001 12.8724 97.9778 13.0649 97.951 13.2563C97.9243 13.4476 97.8931 13.6377 97.8576 13.8266C97.8219 14.0155 97.7819 14.2029 97.7376 14.3889C97.6932 14.5749 97.6445 14.7592 97.5916 14.9419C97.5385 15.1246 97.4812 15.3055 97.4196 15.4846C97.358 15.6637 97.2922 15.8408 97.2222 16.0159C97.1522 16.191 97.078 16.3638 96.9996 16.5345C96.9213 16.7052 96.8389 16.8735 96.7525 17.0395C96.666 17.2056 96.5756 17.3691 96.4812 17.53C96.3868 17.691 96.2885 17.8492 96.1862 18.0047C96.0841 18.1603 95.9782 18.3131 95.8684 18.463C95.7587 18.6128 95.6453 18.7597 95.5282 18.9036C95.4111 19.0475 95.2905 19.1882 95.1663 19.3258C95.0421 19.4634 94.9145 19.5977 94.7835 19.7287C94.6525 19.8597 94.5182 19.9873 94.3806 20.1115C94.2431 20.2356 94.1023 20.3563 93.9584 20.4733C93.8146 20.5904 93.6677 20.7038 93.5178 20.8136C93.3679 20.9233 93.2151 21.0292 93.0596 21.1314C92.904 21.2336 92.7458 21.3319 92.5848 21.4263C92.4239 21.5207 92.2604 21.6112 92.0944 21.6976C91.9284 21.7841 91.76 21.8665 91.5894 21.9448C91.4187 22.0231 91.2458 22.0973 91.0707 22.1674C90.8957 22.2374 90.7186 22.3031 90.5394 22.3647C90.3604 22.4264 90.1795 22.4837 89.9967 22.5367C89.8141 22.5897 89.6297 22.6384 89.4437 22.6828C89.2577 22.7271 89.0703 22.7671 88.8814 22.8026C88.6925 22.8383 88.5024 22.8695 88.3111 22.8962C88.1197 22.923 87.9272 22.9453 87.7338 22.9632C87.5403 22.981 87.346 22.9945 87.1507 23.0034C86.9556 23.0123 86.7598 23.0168 86.5632 23.0168C86.5632 23.0168 11.5084 23.0168 11.5084 23.0168C11.3119 23.0168 11.116 23.0123 10.9209 23.0034C10.7257 22.9945 10.5313 22.981 10.3378 22.9632C10.1444 22.9453 9.95194 22.923 9.76054 22.8962C9.56917 22.8695 9.37905 22.8383 9.19018 22.8027C9.00132 22.7671 8.81389 22.7271 8.62791 22.6828C8.44193 22.6384 8.25758 22.5897 8.07487 22.5367C7.89215 22.4837 7.71126 22.4264 7.53218 22.3647C7.3531 22.3031 7.17603 22.2374 7.00096 22.1674C6.82589 22.0973 6.65301 22.0231 6.48229 21.9448C6.31158 21.8665 6.14323 21.7841 5.97723 21.6976C5.81123 21.6112 5.64776 21.5207 5.48681 21.4263C5.32586 21.3319 5.16759 21.2336 5.01202 21.1314C4.85645 21.0292 4.70372 20.9233 4.55385 20.8136C4.40396 20.7038 4.25708 20.5904 4.1132 20.4733C3.96933 20.3563 3.82859 20.2356 3.69101 20.1115C3.55342 19.9873 3.41913 19.8597 3.28811 19.7287C3.1571 19.5977 3.02951 19.4634 2.90534 19.3258C2.78118 19.1882 2.66056 19.0475 2.54348 18.9036C2.42641 18.7597 2.313 18.6128 2.20326 18.463C2.09352 18.3131 1.98756 18.1603 1.88538 18.0047C1.78319 17.8492 1.68489 17.691 1.59047 17.53C1.49606 17.3691 1.40562 17.2056 1.31916 17.0395C1.2327 16.8735 1.15031 16.7052 1.07198 16.5345C0.993663 16.3638 0.919489 16.191 0.84946 16.0159C0.779432 15.8408 0.713623 15.6637 0.652032 15.4846C0.590442 15.3055 0.533133 15.1246 0.480106 14.9419C0.427078 14.7592 0.378387 14.5749 0.334032 14.3889C0.289676 14.2029 0.249701 14.0155 0.214107 13.8266C0.178514 13.6377 0.147338 13.4476 0.120579 13.2563C0.0938203 13.0649 0.071506 12.8724 0.0536364 12.679C0.0357667 12.4855 0.0223599 12.2911 0.0134159 12.0959C0.00447197 11.9008 0 11.7049 0 11.5084C0 11.5084 0 11.5084 0 11.5084C0 11.3119 0.00447197 11.116 0.0134159 10.9209C0.0223599 10.7257 0.0357667 10.5313 0.0536364 10.3378C0.071506 10.1444 0.0938203 9.95193 0.120579 9.76053C0.147338 9.56917 0.178514 9.37905 0.214107 9.19018C0.249701 9.00131 0.289676 8.81389 0.334032 8.62791C0.378387 8.44193 0.427078 8.25758 0.480106 8.07486C0.533133 7.89215 0.590442 7.71126 0.652032 7.53218C0.713623 7.3531 0.779432 7.17603 0.84946 7.00096C0.919489 6.82589 0.993663 6.653 1.07198 6.48229C1.15031 6.31158 1.2327 6.14323 1.31916 5.97723C1.40562 5.81123 1.49606 5.64776 1.59047 5.4868C1.68489 5.32585 1.78319 5.16759 1.88538 5.01202C1.98756 4.85644 2.09352 4.70372 2.20326 4.55384C2.313 4.40396 2.42641 4.25708 2.54348 4.1132C2.66056 3.96932 2.78118 3.82859 2.90534 3.691C3.02951 3.55342 3.1571 3.41913 3.28811 3.28811C3.41913 3.1571 3.55342 3.02951 3.69101 2.90534C3.82859 2.78118 3.96933 2.66056 4.1132 2.54348C4.25708 2.4264 4.40396 2.313 4.55385 2.20326C4.70372 2.09352 4.85645 1.98756 5.01202 1.88538C5.16759 1.78319 5.32586 1.68489 5.48681 1.59047C5.64776 1.49606 5.81123 1.40562 5.97723 1.31916C6.14323 1.2327 6.31158 1.15031 6.48229 1.07198C6.65301 0.993663 6.82589 0.919489 7.00096 0.84946C7.17603 0.779432 7.3531 0.713622 7.53218 0.652032C7.71126 0.590442 7.89215 0.533133 8.07487 0.480105C8.25758 0.427078 8.44193 0.378387 8.62791 0.334032C8.81389 0.289676 9.00131 0.249701 9.19018 0.214107C9.37905 0.178514 9.56917 0.147338 9.76054 0.120579C9.95194 0.0938202 10.1444 0.071506 10.3378 0.0536364C10.5313 0.0357667 10.7257 0.0223599 10.9209 0.0134159C11.116 0.00447196 11.3119 0 11.5084 0C11.5084 0 11.5084 0 11.5084 0Z" transform="matrix(0.7071068 -0.7071068 0.7071068 0.7071068 90.80295 201.6988)" id="lower-3" fill="#F9A825" stroke="none" />
    <path d="M11.5084 0L86.5632 0C86.7598 0 86.9556 0.00447198 87.1507 0.0134159C87.346 0.0223599 87.5403 0.0357668 87.7338 0.0536365C87.9272 0.0715062 88.1197 0.0938205 88.3111 0.120579C88.5024 0.147338 88.6925 0.178514 88.8814 0.214108C89.0703 0.249702 89.2577 0.289677 89.4437 0.334033C89.6297 0.378388 89.8141 0.427079 89.9967 0.480107C90.1795 0.533134 90.3604 0.590443 90.5394 0.652034C90.7186 0.713624 90.8957 0.779434 91.0707 0.849462C91.2458 0.919491 91.4187 0.993665 91.5894 1.07199C91.76 1.15031 91.9284 1.2327 92.0944 1.31917C92.2604 1.40562 92.4239 1.49606 92.5848 1.59048C92.7458 1.68489 92.904 1.78319 93.0596 1.88538C93.2151 1.98756 93.3679 2.09352 93.5178 2.20326C93.6677 2.313 93.8146 2.42641 93.9584 2.54348C94.1023 2.66056 94.2431 2.78118 94.3806 2.90535C94.5182 3.02952 94.6525 3.15711 94.7835 3.28812C94.9145 3.41913 95.0421 3.55343 95.1663 3.69101C95.2905 3.8286 95.4111 3.96933 95.5282 4.11321C95.6453 4.25709 95.7587 4.40397 95.8684 4.55386C95.9782 4.70373 96.0841 4.85646 96.1862 5.01203C96.2885 5.16761 96.3868 5.32587 96.4812 5.48682C96.5756 5.64777 96.666 5.81125 96.7525 5.97725C96.8389 6.14324 96.9213 6.3116 96.9996 6.48231C97.078 6.65302 97.1522 6.82591 97.2222 7.00098C97.2922 7.17605 97.358 7.35312 97.4196 7.5322C97.4812 7.71128 97.5385 7.89217 97.5916 8.07489C97.6445 8.2576 97.6932 8.44195 97.7376 8.62793C97.7819 8.81391 97.8219 9.00133 97.8575 9.1902C97.8931 9.37907 97.9243 9.56919 97.951 9.76056C97.9778 9.95196 98.0001 10.1444 98.018 10.3379C98.0359 10.5313 98.0493 10.7257 98.0582 10.9209C98.0672 11.116 98.0716 11.3119 98.0716 11.5084C98.0716 11.5084 98.0716 11.5084 98.0716 11.5084C98.0716 11.705 98.0672 11.9008 98.0582 12.096C98.0493 12.2912 98.0359 12.4855 98.018 12.679C98.0001 12.8725 97.9778 13.0649 97.951 13.2563C97.9243 13.4477 97.8931 13.6378 97.8576 13.8266C97.8219 14.0155 97.7819 14.2029 97.7376 14.3889C97.6932 14.5749 97.6445 14.7593 97.5916 14.9419C97.5385 15.1247 97.4812 15.3056 97.4196 15.4846C97.358 15.6637 97.2922 15.8408 97.2222 16.0159C97.1522 16.191 97.078 16.3639 96.9996 16.5345C96.9213 16.7052 96.8389 16.8736 96.7525 17.0396C96.666 17.2056 96.5756 17.3691 96.4812 17.53C96.3868 17.691 96.2885 17.8493 96.1862 18.0048C96.0841 18.1604 95.9782 18.3131 95.8684 18.463C95.7587 18.6129 95.6453 18.7597 95.5282 18.9036C95.4111 19.0476 95.2905 19.1883 95.1663 19.3259C95.0421 19.4634 94.9145 19.5977 94.7835 19.7288C94.6525 19.8598 94.5182 19.9874 94.3806 20.1115C94.2431 20.2357 94.1023 20.3563 93.9584 20.4734C93.8146 20.5905 93.6677 20.7039 93.5178 20.8136C93.3679 20.9233 93.2151 21.0293 93.0596 21.1315C92.904 21.2337 92.7458 21.332 92.5848 21.4264C92.4239 21.5208 92.2604 21.6112 92.0944 21.6977C91.9284 21.7842 91.76 21.8666 91.5894 21.9449C91.4187 22.0232 91.2458 22.0974 91.0707 22.1674C90.8957 22.2374 90.7186 22.3032 90.5394 22.3648C90.3604 22.4264 90.1795 22.4837 89.9967 22.5367C89.8141 22.5897 89.6297 22.6385 89.4437 22.6828C89.2577 22.7272 89.0703 22.7671 88.8814 22.8027C88.6925 22.8383 88.5024 22.8695 88.3111 22.8963C88.1197 22.923 87.9272 22.9453 87.7338 22.9632C87.5403 22.9811 87.346 22.9945 87.1507 23.0035C86.9556 23.0124 86.7598 23.0169 86.5632 23.0169C86.5632 23.0169 11.5084 23.0169 11.5084 23.0169C11.3119 23.0169 11.116 23.0124 10.9209 23.0035C10.7257 22.9945 10.5313 22.9811 10.3378 22.9632C10.1444 22.9453 9.95194 22.923 9.76054 22.8963C9.56917 22.8695 9.37905 22.8384 9.19018 22.8028C9.00132 22.7672 8.81389 22.7272 8.62791 22.6828C8.44193 22.6385 8.25758 22.5897 8.07487 22.5367C7.89215 22.4837 7.71126 22.4264 7.53218 22.3648C7.3531 22.3032 7.17603 22.2374 7.00096 22.1674C6.82589 22.0974 6.65301 22.0232 6.48229 21.9449C6.31158 21.8666 6.14323 21.7842 5.97723 21.6977C5.81123 21.6112 5.64776 21.5208 5.48681 21.4264C5.32586 21.332 5.16759 21.2337 5.01202 21.1315C4.85645 21.0293 4.70372 20.9233 4.55385 20.8136C4.40396 20.7039 4.25708 20.5905 4.1132 20.4734C3.96933 20.3563 3.82859 20.2357 3.69101 20.1115C3.55342 19.9874 3.41913 19.8598 3.28811 19.7288C3.1571 19.5977 3.02951 19.4634 2.90534 19.3259C2.78118 19.1883 2.66056 19.0476 2.54348 18.9036C2.42641 18.7597 2.313 18.6129 2.20326 18.463C2.09352 18.3131 1.98756 18.1604 1.88538 18.0048C1.78319 17.8493 1.68489 17.691 1.59047 17.53C1.49606 17.3691 1.40562 17.2056 1.31916 17.0396C1.2327 16.8736 1.15031 16.7052 1.07198 16.5345C0.993663 16.3639 0.919489 16.191 0.84946 16.0159C0.779432 15.8408 0.713623 15.6637 0.652032 15.4846C0.590442 15.3056 0.533133 15.1247 0.480106 14.9419C0.427078 14.7593 0.378387 14.5749 0.334032 14.3889C0.289676 14.2029 0.249701 14.0155 0.214107 13.8266C0.178514 13.6378 0.147338 13.4477 0.120579 13.2563C0.0938203 13.0649 0.071506 12.8725 0.0536364 12.679C0.0357667 12.4855 0.0223599 12.2912 0.0134159 12.096C0.00447197 11.9008 0 11.705 0 11.5084C0 11.5084 0 11.5084 0 11.5084C0 11.3119 0.00447197 11.116 0.0134159 10.9209C0.0223599 10.7257 0.0357667 10.5313 0.0536364 10.3379C0.071506 10.1444 0.0938203 9.95196 0.120579 9.76056C0.147338 9.56919 0.178514 9.37907 0.214107 9.1902C0.249701 9.00134 0.289676 8.81391 0.334032 8.62793C0.378387 8.44195 0.427078 8.2576 0.480106 8.07489C0.533133 7.89217 0.590442 7.71128 0.652032 7.5322C0.713623 7.35312 0.779432 7.17605 0.84946 7.00098C0.919489 6.82591 0.993663 6.65302 1.07198 6.48231C1.15031 6.3116 1.2327 6.14324 1.31916 5.97725C1.40562 5.81125 1.49606 5.64777 1.59047 5.48682C1.68489 5.32587 1.78319 5.16761 1.88538 5.01203C1.98756 4.85646 2.09352 4.70373 2.20326 4.55386C2.313 4.40397 2.42641 4.25709 2.54348 4.11321C2.66056 3.96933 2.78118 3.8286 2.90534 3.69101C3.02951 3.55343 3.1571 3.41913 3.28811 3.28812C3.41913 3.15711 3.55342 3.02952 3.69101 2.90535C3.82859 2.78118 3.96933 2.66056 4.1132 2.54348C4.25708 2.42641 4.40396 2.313 4.55385 2.20326C4.70372 2.09352 4.85645 1.98756 5.01202 1.88538C5.16759 1.78319 5.32586 1.68489 5.48681 1.59048C5.64776 1.49606 5.81123 1.40562 5.97723 1.31917C6.14323 1.2327 6.31158 1.15031 6.48229 1.07199C6.65301 0.993665 6.82589 0.919491 7.00096 0.849462C7.17603 0.779434 7.3531 0.713624 7.53218 0.652034C7.71126 0.590443 7.89215 0.533134 8.07487 0.480107C8.25758 0.427079 8.44193 0.378388 8.62791 0.334033C8.81389 0.289677 9.00131 0.249702 9.19018 0.214108C9.37905 0.178514 9.56917 0.147338 9.76054 0.120579C9.95194 0.0938205 10.1444 0.0715062 10.3378 0.0536365C10.5313 0.0357668 10.7257 0.0223599 10.9209 0.0134159C11.116 0.00447198 11.3119 0 11.5084 0C11.5084 0 11.5084 0 11.5084 0Z" transform="matrix(0.7071068 0.7071068 -0.7071068 0.7071068 54.00652 132.3775)" id="lower-2" fill="#F9A825" stroke="none" />
    <path d="M11.5084 0L118.587 0C118.784 0 118.979 0.00447197 119.174 0.0134159C119.37 0.0223599 119.564 0.0357667 119.758 0.0536364C119.951 0.071506 120.144 0.0938203 120.335 0.120579C120.526 0.147338 120.716 0.178514 120.905 0.214107C121.094 0.249701 121.281 0.289676 121.467 0.334032C121.653 0.378387 121.837 0.427078 122.02 0.480106C122.203 0.533133 122.384 0.590442 122.563 0.652032C122.742 0.713623 122.919 0.779432 123.094 0.849461C123.269 0.919489 123.442 0.993663 123.612 1.07198C123.783 1.15031 123.952 1.2327 124.118 1.31916C124.284 1.40562 124.447 1.49606 124.608 1.59047C124.769 1.68489 124.927 1.78319 125.083 1.88538C125.239 1.98756 125.392 2.09352 125.542 2.20326C125.691 2.313 125.838 2.42641 125.982 2.54348C126.126 2.66056 126.266 2.78118 126.404 2.90534C126.542 3.02951 126.676 3.1571 126.807 3.28811C126.938 3.41913 127.066 3.55343 127.19 3.69101C127.314 3.82859 127.434 3.96933 127.551 4.1132C127.669 4.25708 127.782 4.40396 127.891 4.55385C128.002 4.70372 128.108 4.85645 128.21 5.01202C128.312 5.16759 128.41 5.32586 128.505 5.48681C128.599 5.64776 128.689 5.81124 128.776 5.97724C128.862 6.14323 128.945 6.31158 129.023 6.4823C129.101 6.65301 129.175 6.8259 129.245 7.00096C129.316 7.17603 129.381 7.35311 129.443 7.53218C129.505 7.71126 129.562 7.89216 129.615 8.07487C129.668 8.25758 129.717 8.44193 129.761 8.62791C129.806 8.81389 129.846 9.00131 129.881 9.19018C129.916 9.37906 129.948 9.56917 129.975 9.76054C130.002 9.95194 130.024 10.1444 130.041 10.3379C130.059 10.5313 130.073 10.7257 130.082 10.9209C130.091 11.116 130.095 11.3119 130.095 11.5084C130.095 11.5084 130.095 11.5084 130.095 11.5084C130.095 11.705 130.091 11.9008 130.082 12.0959C130.073 12.2911 130.059 12.4855 130.041 12.679C130.024 12.8724 130.002 13.0649 129.975 13.2563C129.948 13.4476 129.916 13.6377 129.881 13.8266C129.846 14.0155 129.806 14.2029 129.761 14.3889C129.717 14.5749 129.668 14.7592 129.615 14.9419C129.562 15.1247 129.505 15.3055 129.443 15.4846C129.381 15.6637 129.316 15.8408 129.245 16.0159C129.175 16.191 129.101 16.3638 129.023 16.5345C128.945 16.7052 128.862 16.8736 128.776 17.0395C128.689 17.2056 128.599 17.3691 128.505 17.53C128.41 17.691 128.312 17.8492 128.21 18.0048C128.108 18.1603 128.002 18.3131 127.891 18.463C127.782 18.6128 127.669 18.7597 127.551 18.9036C127.434 19.0475 127.314 19.1882 127.19 19.3258C127.066 19.4634 126.938 19.5977 126.807 19.7287C126.676 19.8597 126.542 19.9873 126.404 20.1115C126.266 20.2357 126.126 20.3563 125.982 20.4734C125.838 20.5904 125.691 20.7039 125.542 20.8136C125.392 20.9233 125.239 21.0292 125.083 21.1314C124.927 21.2336 124.769 21.332 124.608 21.4264C124.447 21.5208 124.284 21.6112 124.118 21.6977C123.952 21.7841 123.783 21.8665 123.612 21.9448C123.442 22.0232 123.269 22.0973 123.094 22.1674C122.919 22.2374 122.742 22.3032 122.563 22.3647C122.384 22.4264 122.203 22.4837 122.02 22.5367C121.837 22.5897 121.653 22.6384 121.467 22.6828C121.281 22.7271 121.094 22.7671 120.905 22.8027C120.716 22.8383 120.526 22.8695 120.335 22.8962C120.144 22.923 119.951 22.9453 119.758 22.9632C119.564 22.9811 119.37 22.9945 119.174 23.0034C118.979 23.0123 118.784 23.0168 118.587 23.0168C118.587 23.0168 11.5084 23.0168 11.5084 23.0168C11.3119 23.0168 11.116 23.0123 10.9209 23.0034C10.7257 22.9945 10.5313 22.9811 10.3379 22.9632C10.1444 22.9453 9.95195 22.923 9.76055 22.8962C9.56918 22.8695 9.37906 22.8383 9.19019 22.8028C9.00132 22.7671 8.8139 22.7271 8.62792 22.6828C8.44194 22.6384 8.25759 22.5897 8.07487 22.5367C7.89216 22.4837 7.71126 22.4264 7.53219 22.3647C7.35311 22.3032 7.17604 22.2374 7.00097 22.1674C6.8259 22.0973 6.65301 22.0232 6.4823 21.9448C6.31159 21.8665 6.14323 21.7841 5.97724 21.6977C5.81124 21.6112 5.64776 21.5208 5.48681 21.4264C5.32586 21.332 5.1676 21.2336 5.01202 21.1314C4.85645 21.0292 4.70373 20.9233 4.55385 20.8136C4.40397 20.7039 4.25709 20.5904 4.11321 20.4734C3.96933 20.3563 3.8286 20.2357 3.69101 20.1115C3.55343 19.9873 3.41913 19.8597 3.28811 19.7287C3.1571 19.5977 3.02951 19.4634 2.90534 19.3258C2.78118 19.1882 2.66056 19.0475 2.54348 18.9036C2.42641 18.7597 2.313 18.6128 2.20326 18.463C2.09352 18.3131 1.98756 18.1603 1.88538 18.0048C1.78319 17.8492 1.68489 17.691 1.59047 17.53C1.49606 17.3691 1.40562 17.2056 1.31916 17.0395C1.2327 16.8736 1.15031 16.7052 1.07198 16.5345C0.993664 16.3638 0.91949 16.191 0.849461 16.0159C0.779432 15.8408 0.713623 15.6637 0.652033 15.4846C0.590442 15.3055 0.533133 15.1247 0.480106 14.9419C0.427079 14.7592 0.378387 14.5749 0.334032 14.3889C0.289676 14.2029 0.249702 14.0155 0.214108 13.8266C0.178514 13.6377 0.147338 13.4476 0.120579 13.2563C0.0938203 13.0649 0.0715061 12.8724 0.0536364 12.679C0.0357667 12.4855 0.0223599 12.2911 0.0134159 12.0959C0.00447197 11.9008 0 11.705 0 11.5084C0 11.5084 0 11.5084 0 11.5084C0 11.3119 0.00447197 11.116 0.0134159 10.9209C0.0223599 10.7257 0.0357667 10.5313 0.0536364 10.3379C0.0715061 10.1444 0.0938203 9.95194 0.120579 9.76054C0.147338 9.56917 0.178514 9.37906 0.214108 9.19018C0.249702 9.00132 0.289676 8.8139 0.334032 8.62791C0.378387 8.44193 0.427079 8.25758 0.480106 8.07487C0.533133 7.89216 0.590442 7.71126 0.652033 7.53218C0.713623 7.35311 0.779432 7.17603 0.849461 7.00096C0.91949 6.8259 0.993664 6.65301 1.07198 6.4823C1.15031 6.31158 1.2327 6.14323 1.31916 5.97724C1.40562 5.81124 1.49606 5.64776 1.59047 5.48681C1.68489 5.32586 1.78319 5.16759 1.88538 5.01202C1.98756 4.85645 2.09352 4.70372 2.20326 4.55385C2.313 4.40396 2.42641 4.25708 2.54348 4.1132C2.66056 3.96933 2.78118 3.82859 2.90534 3.69101C3.02951 3.55343 3.1571 3.41913 3.28811 3.28811C3.41913 3.1571 3.55343 3.02951 3.69101 2.90534C3.8286 2.78118 3.96933 2.66056 4.11321 2.54348C4.25709 2.42641 4.40397 2.313 4.55385 2.20326C4.70373 2.09352 4.85645 1.98756 5.01202 1.88538C5.1676 1.78319 5.32586 1.68489 5.48681 1.59047C5.64776 1.49606 5.81124 1.40562 5.97724 1.31916C6.14323 1.2327 6.31159 1.15031 6.4823 1.07198C6.65301 0.993663 6.8259 0.919489 7.00097 0.849461C7.17604 0.779432 7.35311 0.713623 7.53219 0.652032C7.71126 0.590442 7.89216 0.533133 8.07487 0.480106C8.25759 0.427078 8.44194 0.378387 8.62792 0.334032C8.81389 0.289676 9.00132 0.249701 9.19019 0.214107C9.37906 0.178514 9.56918 0.147338 9.76055 0.120579C9.95195 0.0938203 10.1444 0.071506 10.3379 0.0536364C10.5313 0.0357667 10.7257 0.0223599 10.9209 0.0134159C11.116 0.00447197 11.3119 0 11.5084 0C11.5084 0 11.5084 0 11.5084 0Z" transform="translate(42.03071 135.94)" id="lower-1" fill="#F9A825" stroke="none" />
  </g>
</svg>