<?xml version="1.0" encoding="utf-8"?>
<svg width="47px" height="91px" viewBox="0 0 47 91" version="1.1" xmlns:xlink="http://www.w3.org/1999/xlink" xmlns="http://www.w3.org/2000/svg">
  <desc>Created with Lunacy</desc>
  <g id="noun_Arrow_1807380">
    <g id="Group">
      <path d="M46.0026 44.6568C45.9229 43.5417 45.4717 42.4854 44.7213 41.6568L8.72131 1.65683C7.76064 0.587956 6.44374 0.0296127 5.11203 8.1186e-06C5.11191 5.40797e-06 5.11178 2.70177e-06 5.11166 0C3.88417 -0.0271983 2.64413 0.394819 1.6589 1.28031C0.494327 2.32698 -0.0642129 3.7965 0.00682183 5.24734C0.00692603 5.24946 0.0070316 5.25159 0.00713851 5.25372C0.0627079 6.35988 0.484296 7.45479 1.28234 8.34275L34.2823 44.9991L1.28234 81.6552C0.402955 82.6328 -0.0198817 83.8617 0 85.0803C0.0218801 86.4214 0.57995 87.7501 1.65578 88.7179C2.62232 89.5873 3.83449 90.0105 5.03955 90.0007C6.39461 89.9897 7.74067 89.4313 8.71836 88.3445L44.7183 48.3445C45.6274 47.3397 46.0898 46.009 45.9996 44.657L46.0026 44.6568Z" id="Shape" fill="#F2F2F2" stroke="none" />
    </g>
  </g>
</svg>