<svg width="47" height="91" viewBox="0 0 47 91" fill="none" xmlns="http://www.w3.org/2000/svg">
<g id="arrow">
<g id="Group">
<path id="Shape" d="M46.0026 45.6568C45.9229 44.5417 45.4717 43.4854 44.7213 42.6568L8.72131 2.65684C7.76064 1.58797 6.44374 1.02963 5.11203 1.00002C5.11191 1.00002 5.11178 1.00002 5.11166 1.00001C3.88417 0.972816 2.64413 1.39483 1.6589 2.28032C0.494325 3.32699 -0.0642148 4.79651 0.00681993 6.24735C0.00692413 6.24947 0.0070297 6.2516 0.00713661 6.25373C0.062706 7.35989 0.484294 8.4548 1.28234 9.34276L34.2823 45.9991L1.28234 82.6552C0.402953 83.6328 -0.0198836 84.8617 -1.90438e-06 86.0803C0.0218782 87.4214 0.579948 88.7501 1.65578 89.7179C2.62232 90.5873 3.83449 91.0105 5.03955 91.0007C6.39461 90.9897 7.74067 90.4313 8.71836 89.3445L44.7183 49.3445C45.6274 48.3397 46.0898 47.009 45.9996 45.657L46.0026 45.6568Z" fill="black"/>
</g>
</g>
</svg>
