<?xml version="1.0" encoding="utf-8"?>
<svg width="96px" height="96px" viewBox="0 0 96 96" version="1.1" xmlns:xlink="http://www.w3.org/1999/xlink" xmlns="http://www.w3.org/2000/svg">
  <desc>Created with Lunacy</desc>
  <g id="noun_back_72157">
    <path d="M0 48C0 21.532 21.532 0 48 0C74.468 0 96 21.532 96 48C96 74.468 74.468 96 48 96C21.532 96 0 74.468 0 48ZM48 64L64.168 64C70.691 64 76 58.691 76.004 51.832C76.004 45.308 70.695 40 64.172 40L28.588 40L38.468 29.359C39.22 28.555 39.172 27.287 38.364 26.535C37.552 25.779 36.284 25.827 35.536 26.639L22.536 40.639C22.452 40.723 22.416 40.835 22.352 40.927C22.284 41.035 22.2 41.131 22.152 41.247C22.06 41.483 22.012 41.723 22.008 41.967C22.008 41.979 22.004 41.987 22.004 41.999C22.004 42.011 22.008 42.019 22.008 42.031C22.012 42.275 22.06 42.515 22.152 42.751C22.2 42.867 22.28 42.967 22.352 43.071C22.416 43.163 22.452 43.275 22.536 43.359L35.536 57.359C35.928 57.78 36.464 58 37 58C37.492 58 37.976 57.824 38.36 57.464C39.168 56.72 39.216 55.444 38.464 54.641L28.584 44L64.168 44C68.488 44 72 47.516 72 52.168C72 56.484 68.488 60 64.168 60L48 60C46.896 60 46 60.9 46 62C46 63.1 46.896 64 48 64Z" id="Shape" fill="#0C2450" fill-rule="evenodd" stroke="none" />
  </g>
</svg>