<svg width="27" height="27" viewBox="0 0 27 27" fill="none" xmlns="http://www.w3.org/2000/svg">
<g id="cross">
<g id="cross_2">
<g id="noun Close 615118">
<g id="Group">
<g id="Group_2">
<path id="Shape" d="M13.3743 16.2028L3.83368 25.7435C3.05084 26.5263 1.78101 26.5298 1 25.7487C0.213504 24.9622 0.221316 23.699 1.00525 22.915L10.5459 13.3744L1.00525 3.83368C0.222415 3.05085 0.218936 1.78104 1 0.999991C1.7865 0.213492 3.04974 0.221305 3.83368 1.00527L13.3743 10.5459L22.915 1.00527C23.6979 0.222418 24.9677 0.218939 25.7487 0.999991C26.5352 1.78649 26.5274 3.04973 25.7435 3.83368L16.2028 13.3744L25.7435 22.915C26.5263 23.6979 26.5298 24.9677 25.7487 25.7487C24.9622 26.5352 23.699 26.5274 22.915 25.7435L13.3743 16.2028Z" fill="#2A2A2A"/>
</g>
</g>
</g>
</g>
</g>
</svg>
