<?xml version="1.0" encoding="utf-8"?>
<svg width="435px" height="450px" viewBox="0 0 435 450" version="1.1" xmlns:xlink="http://www.w3.org/1999/xlink" xmlns="http://www.w3.org/2000/svg">
  <desc>Created with Lunacy</desc>
  <g id="database(1)">
    <path d="M217.41 74.0313C211.41 74.0195 205.488 72.6523 200.09 70.0313L54.2734 0L4.47266 23.9219C1.73828 25.2656 0 28.0508 0 31.1016C0 34.1523 1.73828 36.9375 4.47266 38.2813L207.012 135.672C213.594 138.781 221.227 138.781 227.809 135.672L430.348 38.3203C433.082 36.9766 434.816 34.1914 434.816 31.1406C434.816 28.0898 433.082 25.3047 430.348 23.9609L380.547 0L234.738 70.0664C229.332 72.6719 223.41 74.0313 217.41 74.0313L217.41 74.0313Z" transform="translate(0.03906393 153.3984)" id="Shape" fill="black" stroke="none" />
    <path d="M7.15256e-07 104.52C-0.0351553 107.602 1.73828 110.422 4.53516 111.719L207.051 209.039C213.617 212.219 221.281 212.219 227.848 209.039L430.352 111.719C433.113 110.383 434.867 107.586 434.867 104.52C434.867 101.453 433.113 98.6562 430.352 97.3203L227.848 0C221.281 -3.18359 213.617 -3.18359 207.051 0L4.53516 97.3203C1.73828 98.6172 -0.0351558 101.437 0 104.52L7.15256e-07 104.52Z" id="Shape" fill="black" stroke="none" />
    <path d="M4.48828 38.3203L207.051 135.672C213.633 138.781 221.266 138.781 227.848 135.672L430.375 38.3203C433.164 37.0078 434.941 34.2031 434.941 31.1211C434.941 28.0391 433.164 25.2344 430.375 23.9219L380.578 0L234.762 70.0977C223.805 75.2656 211.113 75.2656 200.16 70.0977L54.3203 0L4.51172 23.9219C1.75391 25.2578 0 28.0547 0 31.1211C0 34.1875 1.75391 36.9844 4.51172 38.3203L4.48828 38.3203Z" transform="translate(4.768372E-07 313.3984)" id="Shape" fill="black" stroke="none" />
    <path d="M227.848 135.656L430.387 38.3203C433.145 36.9844 434.898 34.1875 434.898 31.1211C434.898 28.0547 433.145 25.2578 430.387 23.9219L380.578 0L234.762 70.0977C223.805 75.2656 211.113 75.2656 200.16 70.0977L54.3203 0L4.51172 23.9219C1.75391 25.2578 0 28.0547 0 31.1211C0 34.1875 1.75391 36.9844 4.51172 38.3203L207.051 135.672C213.637 138.777 221.266 138.77 227.848 135.656L227.848 135.656Z" transform="translate(4.768372E-07 233.3984)" id="Shape" fill="black" stroke="none" />
  </g>
</svg>