<svg width="100" height="100" viewBox="0 0 100 100" fill="none" xmlns="http://www.w3.org/2000/svg">
<g id="delete">
<g id="Group">
<path id="Shape" fill-rule="evenodd" clip-rule="evenodd" d="M100 49.997C100 22.428 77.572 0 50 0C22.43 0 0 22.428 0 49.997C0 77.566 22.43 99.994 50 99.994C77.572 99.994 100 77.566 100 49.997ZM50.0002 44.0815L63.7009 30.3808C65.3339 28.7478 67.9835 28.7463 69.6165 30.3808C71.2524 32.0152 71.2495 34.6649 69.6165 36.2964L55.9158 49.9971L69.6165 63.6978C71.2495 65.3308 71.2524 67.979 69.6165 69.6149C67.9835 71.2479 65.3339 71.2464 63.7009 69.6134L50.0002 55.9127L36.2995 69.6149C34.6651 71.2479 32.0183 71.2493 30.3824 69.6134C28.7494 67.9804 28.7494 65.3322 30.3824 63.6978L44.0845 49.9971L30.3839 36.295C28.7509 34.662 28.7509 32.0123 30.3839 30.3793C32.0183 28.7449 34.6665 28.7463 36.2995 30.3793L50.0002 44.0815Z" fill="black"/>
</g>
</g>
</svg>
