<svg width="75" height="89" viewBox="0 0 75 89" fill="none" xmlns="http://www.w3.org/2000/svg">
<g id="documents">
<g id="noun Document 1212460">
<path id="Shape" fill-rule="evenodd" clip-rule="evenodd" d="M64.5 10H63C62.7 4.4 58.1 0 52.5 0H20.4C19.7 0 19.1 0.3 18.6 0.8L0.7 19C0.2 19.5 0 20.1 0 20.7V66.5C0 72.1 4.4 76.7 10 77V78.5C10 84.3 14.7 89 20.5 89H64.5C70.3 89 75 84.3 75 78.5V20.5C75 14.7 70.3 10 64.5 10ZM18 8.5L7.7 19H16.5C17.3 19 18 18.3 18 17.5V8.5ZM64.5 84C67.5 84 70 81.5 70 78.5V20.5C70 17.5 67.5 15 64.5 15H63V66.5C63 72.3 58.3 77 52.5 77H15V78.5C15 81.5 17.5 84 20.5 84H64.5ZM27.5 33C28.9 33 30 34.1 30 35.5C30 36.9 28.9 38 27.5 38H17.5C16.1 38 15 36.9 15 35.5C15 34.1 16.1 33 17.5 33H27.5ZM45.5 50C46.9 50 48 48.9 48 47.5C48 46.1 46.9 45 45.5 45H17.5C16.1 45 15 46.1 15 47.5C15 48.9 16.1 50 17.5 50H45.5ZM45.5 62C46.9 62 48 60.9 48 59.5C48 58.1 46.9 57 45.5 57H17.5C16.1 57 15 58.1 15 59.5C15 60.9 16.1 62 17.5 62H45.5Z" fill="black"/>
</g>
</g>
</svg>
