<svg width="50" height="9" viewBox="0 0 50 9" fill="none" xmlns="http://www.w3.org/2000/svg">
<g id="min">
<g id="min_2">
<path id="Rectangle" d="M4.5 0H45.5C45.6537 0 45.8063 0.00699093 45.9577 0.0209728C46.1091 0.0349547 46.2587 0.0558704 46.4065 0.0837201C46.5542 0.11157 46.6996 0.14624 46.8426 0.18773C46.9855 0.229221 47.1255 0.277362 47.2625 0.332155C47.3995 0.386948 47.5329 0.448168 47.6628 0.515816C47.7927 0.583464 47.9185 0.657264 48.0402 0.737216C48.1619 0.817167 48.2791 0.902945 48.3917 0.994548C48.5042 1.08615 48.6118 1.1832 48.7143 1.28571C48.8168 1.38822 48.9139 1.49577 49.0055 1.60834C49.0971 1.72091 49.1829 1.83806 49.2628 1.95979C49.3427 2.08152 49.4165 2.20732 49.4842 2.33721C49.5519 2.46709 49.6131 2.60052 49.6679 2.73751C49.7226 2.87449 49.7708 3.01446 49.8123 3.15742C49.8538 3.30039 49.8884 3.44576 49.9163 3.59353C49.9442 3.74131 49.9651 3.89089 49.979 4.04228C49.993 4.19367 50 4.34624 50 4.5C50 4.65376 49.993 4.80633 49.979 4.95772C49.9651 5.10911 49.9442 5.25869 49.9163 5.40647C49.8884 5.55424 49.8538 5.69961 49.8123 5.84258C49.7708 5.98554 49.7226 6.12551 49.6679 6.26249C49.6131 6.39948 49.5519 6.53291 49.4842 6.66279C49.4165 6.79268 49.3427 6.91848 49.2628 7.04021C49.1829 7.16194 49.0971 7.27909 49.0055 7.39166C48.9139 7.50423 48.8168 7.61178 48.7143 7.71429C48.6118 7.8168 48.5042 7.91385 48.3917 8.00545C48.2791 8.09706 48.1619 8.18283 48.0402 8.26278C47.9185 8.34273 47.7927 8.41653 47.6628 8.48418C47.5329 8.55183 47.3995 8.61306 47.2625 8.66785C47.1255 8.72264 46.9855 8.77078 46.8426 8.81227C46.6996 8.85376 46.5542 8.88843 46.4065 8.91628C46.2587 8.94413 46.1091 8.96504 45.9577 8.97903C45.8063 8.99301 45.6537 9 45.5 9H4.5C4.34624 9 4.19367 8.99301 4.04228 8.97903C3.89089 8.96504 3.74131 8.94413 3.59353 8.91628C3.44576 8.88843 3.30039 8.85376 3.15742 8.81227C3.01446 8.77078 2.87449 8.72264 2.73751 8.66785C2.60052 8.61306 2.46709 8.55183 2.33721 8.48418C2.20732 8.41653 2.08152 8.34273 1.95979 8.26278C1.83806 8.18283 1.72091 8.09706 1.60834 8.00545C1.49577 7.91385 1.38822 7.8168 1.28571 7.71429C1.1832 7.61178 1.08615 7.50423 0.994548 7.39166C0.902945 7.27909 0.817167 7.16194 0.737216 7.04021C0.657264 6.91848 0.583464 6.79268 0.515816 6.66279C0.448168 6.53291 0.386948 6.39948 0.332155 6.26249C0.277362 6.12551 0.229221 5.98554 0.18773 5.84258C0.14624 5.69961 0.11157 5.55424 0.0837201 5.40647C0.0558704 5.25869 0.0349547 5.10911 0.0209728 4.95772C0.00699093 4.80633 0 4.65376 0 4.5C0 4.34624 0.00699093 4.19367 0.0209728 4.04228C0.0349547 3.89089 0.0558704 3.74131 0.0837201 3.59353C0.11157 3.44576 0.14624 3.30039 0.18773 3.15742C0.229221 3.01446 0.277362 2.87449 0.332155 2.73751C0.386948 2.60052 0.448168 2.46709 0.515816 2.33721C0.583464 2.20732 0.657264 2.08152 0.737216 1.95979C0.817167 1.83806 0.902945 1.72091 0.994548 1.60834C1.08615 1.49577 1.1832 1.38822 1.28571 1.28571C1.38822 1.1832 1.49577 1.08615 1.60834 0.994548C1.72091 0.902945 1.83806 0.817167 1.95979 0.737216C2.08152 0.657264 2.20732 0.583464 2.33721 0.515816C2.46709 0.448168 2.60052 0.386948 2.73751 0.332155C2.87449 0.277362 3.01446 0.229221 3.15742 0.18773C3.30039 0.14624 3.44576 0.11157 3.59353 0.0837201C3.74131 0.0558704 3.89089 0.0349547 4.04228 0.0209728C4.19367 0.00699093 4.34624 0 4.5 0Z" fill="#2A2A2A"/>
</g>
</g>
</svg>
