<svg width="100" height="100" viewBox="0 0 100 100" fill="none" xmlns="http://www.w3.org/2000/svg">
<g id="target">
<path id="target_icon_background" fill-rule="evenodd" clip-rule="evenodd" d="M50 0C22.386 0 0 22.386 0 50C0 77.614 22.386 100 50 100C77.614 100 100 77.614 100 50C100 22.386 77.614 0 50 0ZM50 14.156C69.799 14.156 85.844 30.2 85.844 50C85.844 69.799 69.799 85.844 50 85.844C30.201 85.844 14.156 69.799 14.156 50C14.156 30.201 30.201 14.156 50 14.156ZM30.844 50C30.844 39.427 39.426 30.844 50 30.844C60.574 30.844 69.156 39.426 69.156 50C69.156 60.574 60.574 69.156 50 69.156C39.427 69.156 30.844 60.574 30.844 50Z" fill="black"/>
</g>
</svg>
