<?xml version="1.0" encoding="utf-8"?>
<svg width="135px" height="151px" viewBox="0 0 135 151" version="1.1" xmlns:xlink="http://www.w3.org/1999/xlink" xmlns="http://www.w3.org/2000/svg">
  <desc>Created with Lunacy</desc>
  <g id="database-decor1">
    <path d="M0 6.76008C0 3.02659 9.64095 0 21.5337 0C33.4264 0 43.0673 3.02659 43.0673 6.76008C43.0673 10.4936 33.4264 13.5202 21.5337 13.5202C9.64095 13.5202 0 10.4936 0 6.76008L0 6.76008Z" transform="matrix(-0.6560588 0.7547097 0.7547097 0.6560588 124.71 39.11316)" id="Ellipse" fill="#2F2E41" stroke="none" />
    <path d="M0 43.0673C0 21.5931 15.7168 3.78969 36.2749 0.532599C38.4875 0.182052 40.7562 0 43.0673 0C66.8528 0 86.1347 19.2819 86.1347 43.0673C86.1347 66.8528 66.8528 86.1347 43.0673 86.1347C19.2819 86.1347 0 66.8528 0 43.0673L0 43.0673Z" transform="matrix(-1 0 0 1 113.3169 45.15356)" id="Circle" fill="#2F2E41" stroke="none" />
    <path d="M0 0L13.0837 0L13.0837 23.4417L0 23.4417L0 0L0 0Z" transform="matrix(-1 0 0 1 63.7077 122.0206)" id="Rectangle" fill="#2F2E41" stroke="none" />
    <path d="M0 0L13.0837 0L13.0837 23.4417L0 23.4417L0 0L0 0Z" transform="matrix(-1 0 0 1 89.87515 122.0206)" id="Rectangle" fill="#2F2E41" stroke="none" />
    <path d="M0 4.08867C0 1.83056 4.88149 0 10.9031 0C16.9247 0 21.8062 1.83056 21.8062 4.08867C21.8062 6.34678 16.9247 8.17734 10.9031 8.17734C4.88149 8.17734 0 6.34678 0 4.08867L0 4.08867Z" transform="matrix(-1 0 0 1 64.19452 141.8236)" id="Ellipse" fill="#2F2E41" stroke="none" />
    <path d="M0 4.08867C0 1.83056 4.88149 0 10.9031 0C16.9247 0 21.8062 1.83056 21.8062 4.08867C21.8062 6.34678 16.9247 8.17734 10.9031 8.17734C4.88149 8.17734 0 6.34678 0 4.08867L0 4.08867Z" transform="matrix(-1 0 0 1 98.19458 141.8236)" id="Ellipse" fill="#2F2E41" stroke="none" />
    <path d="M0 14.7192C0 6.59002 6.59002 0 14.7192 0C22.8484 0 29.4384 6.59002 29.4384 14.7192C29.4384 22.8484 22.8484 29.4384 14.7192 29.4384C6.59002 29.4384 0 22.8484 0 14.7192L0 14.7192Z" transform="matrix(-1 0 0 1 86.05908 62.59863)" id="Circle" fill="#EEEEEE" stroke="none" />
    <path d="M0 4.90641C0 2.19667 2.19667 0 4.90641 0C7.61615 0 9.81282 2.19667 9.81282 4.90641C9.81282 7.61615 7.61615 9.81282 4.90641 9.81282C2.19667 9.81282 0 7.61615 0 4.90641L0 4.90641Z" transform="matrix(-1 0 0 1 76.24634 72.41144)" id="Circle" fill="#3F3D56" stroke="none" />
    <path d="M0 35.1488C-3.47748 19.575 7.63867 3.83838 24.8286 0C42.0186 -3.83838 58.7728 5.67508 62.2503 21.2489C65.7278 36.8227 54.3354 42.5665 37.1454 46.4048C19.9555 50.2432 3.47748 50.7227 0 35.1488L0 35.1488L0 35.1488Z" transform="matrix(0.9659258 0.258819 -0.258819 0.9659258 48.39746 0)" id="Shape" fill="#CFCCE0" stroke="none" />
    <path d="M0 21.5337C0 9.64095 3.02659 0 6.76008 0C10.4936 0 13.5202 21.5337 13.5202 21.5337C13.5202 21.5337 10.4936 43.0673 6.76008 43.0673C3.02659 43.0673 0 33.4264 0 21.5337L0 21.5337Z" transform="matrix(-0.544639 0.8386706 0.8386706 0.544639 7.363617 50.83997)" id="Ellipse" fill="#2F2E41" stroke="none" />
    <path d="M0 3.54352C0 7.75867 10.8533 16.0821 22.8965 16.0821C34.9398 16.0821 46.2317 4.21509 46.2317 0C46.2317 -4.21509 34.9398 0.817749 22.8965 0.817749C10.8533 0.817749 0 -0.671631 0 3.54352L0 3.54352L0 3.54352Z" transform="matrix(-1 0 0 1 95.32672 100.2144)" id="Shape" fill="#EEEEEE" stroke="none" />
  </g>
</svg>