<?xml version="1.0" encoding="utf-8"?>
<svg width="812px" height="261px" viewBox="0 0 812 261" version="1.1" xmlns:xlink="http://www.w3.org/1999/xlink" xmlns="http://www.w3.org/2000/svg">
  <desc>Created with Lunacy</desc>
  <g id="undraw_donut_love_kau1">
    <path d="M68.7227 44.1926L62.4292 19.3699C51.2701 14.6406 39.853 10.5446 28.2325 7.10114L27.4378 18.6372L24.2156 5.92792C9.80412 1.81268 0 0 0 0C0 0 13.2431 50.3594 41.0195 88.8599L73.3852 94.5451L48.2412 98.1704C51.7367 102.375 55.4933 106.356 59.4886 110.09C99.8955 147.596 144.901 164.804 160.012 148.525C175.122 132.246 154.615 88.6445 114.208 51.1383C101.682 39.511 85.9458 30.1802 70.1942 22.8367L68.7227 44.1926Z" transform="translate(0 103.1693)" id="Shape" fill="#B6B3B3" stroke="none" />
    <path d="M46.8039 73.3537L54.2473 48.8513C47.1391 39.0345 39.4828 29.6266 31.315 20.6722L24.6717 30.1369L28.4827 17.5916C18.2731 6.61951 10.8173 0 10.8173 0C10.8173 0 -3.87697 49.9551 0 97.2709L24.7677 118.868L1.36946 108.974C2.18822 114.38 3.34621 119.73 4.83656 124.991C20.0396 177.984 49.6716 215.979 71.0215 209.854C92.3714 203.729 97.3543 155.804 82.1512 102.811C77.4381 86.3822 68.7905 70.2607 59.1023 55.8322L46.8039 73.3537Z" transform="translate(97.01154 50.84052)" id="Shape" fill="#B6B3B3" stroke="none" />
    <path d="M46.3168 51.4059L60.4264 42.5367C61.1194 34.6794 61.3688 26.7894 61.1732 18.9041L53.8708 20.7228L61.095 16.1818C60.7564 6.43384 59.915 0 59.915 0C59.915 0 31.385 18.2877 13.1093 43.199L16.0722 64.3787L8.79083 49.5356C6.88733 52.5424 5.1748 55.6658 3.66339 58.8875C-11.4667 91.4205 -13.1069 122.735 0 128.831C13.1069 134.926 35.9973 113.494 51.1274 80.9614C55.8179 70.8759 58.4434 59.2631 59.8354 48.0386L46.3168 51.4059Z" transform="translate(698.0417 122.8997)" id="Shape" fill="#B6B3B3" stroke="none" />
    <path d="M79.6705 36.9767L96.3335 36.6776C100.988 30.3097 105.28 23.6844 109.188 16.8331L101.997 14.6155L110.529 14.4623C115.278 5.94263 117.883 0 117.883 0C117.883 0 84.007 0.907898 55.4855 12.7864L47.074 32.4487L48.5132 15.9786C45.3295 17.5685 42.249 19.3571 39.2898 21.3339C9.52142 41.3629 -8.06921 67.3217 0 79.3148C8.06921 91.3078 38.7426 84.7933 68.511 64.7644C77.7394 58.5552 85.9897 49.9713 92.9833 41.0822L79.6705 36.9767Z" transform="translate(693.3696 168.9922)" id="Shape" fill="#B6B3B3" stroke="none" />
    <path d="M0 0L800 0L800 2.24072L0 2.24072L0 0Z" transform="translate(1 257.9397)" id="Rectangle" fill="#3F3D56" stroke="none" />
    <path d="M0 42.0123C0 18.8096 18.8096 0 42.0123 0C65.2151 0 84.0247 18.8096 84.0247 42.0123C84.0247 65.2151 65.2151 84.0247 42.0123 84.0247C18.8096 84.0247 0 65.2151 0 42.0123Z" transform="translate(234.862 148.8322)" id="Circle" fill="#2F2E41" stroke="none" />
    <path d="M0 0L12.7632 0L12.7632 22.8675L0 22.8675L0 0Z" transform="matrix(-0.9840063 0.1781334 -0.1781334 -0.9840063 305.6599 242.3802)" id="Rectangle" fill="#2F2E41" stroke="none" />
    <path d="M0 0L12.7632 0L12.7632 22.8675L0 22.8675L0 0Z" transform="matrix(-0.9840063 0.1781334 -0.1781334 -0.9840063 280.5417 246.9272)" id="Rectangle" fill="#2F2E41" stroke="none" />
    <path d="M0 3.98851C0 1.78572 4.76191 0 10.636 0C16.5101 0 21.2721 1.78572 21.2721 3.98851C21.2721 6.1913 16.5101 7.97702 10.636 7.97702C4.76191 7.97702 0 6.1913 0 3.98851Z" transform="matrix(0.7631077 -0.6462713 0.6462713 0.7631077 261.3779 254.7228)" id="Ellipse" fill="#2F2E41" stroke="none" />
    <path d="M0 3.98851C0 1.78572 4.76191 0 10.636 0C16.5101 0 21.2721 1.78572 21.2721 3.98851C21.2721 6.1913 16.5101 7.97702 10.636 7.97702C4.76191 7.97702 0 6.1913 0 3.98851Z" transform="matrix(0.7631077 -0.6462713 0.6462713 0.7631077 285.9727 250.2704)" id="Ellipse" fill="#2F2E41" stroke="none" />
    <path d="M0 14.3587C0 6.42859 6.42859 0 14.3587 0C22.2887 0 28.7173 6.42859 28.7173 14.3587C28.7173 22.2887 22.2887 28.7173 14.3587 28.7173C6.42859 28.7173 0 22.2887 0 14.3587Z" transform="translate(259.5745 166.2094)" id="Circle" fill="#EEEEEE" stroke="none" />
    <path d="M0 4.78622C0 2.14286 2.14286 0 4.78622 0C7.42958 0 9.57244 2.14286 9.57244 4.78622C9.57244 7.42958 7.42958 9.57244 4.78622 9.57244C2.14286 9.57244 0 7.42958 0 4.78622Z" transform="translate(263.2455 170.635)" id="Circle" fill="#3F3D56" stroke="none" />
    <path d="M62.1695 29.4249C62.8013 13.8713 49.3964 0.697327 32.2287 0C15.0611 -0.697327 0.631805 11.346 0 26.8996C-0.631805 42.4532 11.3019 45.9871 28.4695 46.6844C45.6372 47.3818 61.5377 44.9785 62.1695 29.4249L62.1695 29.4249Z" transform="translate(247.8467 115.7146)" id="Shape" fill="#F9A825" stroke="none" />
    <path d="M0 21.0062C0 9.40478 2.95245 0 6.59448 0C10.2365 0 13.189 9.40478 13.189 21.0062C13.189 32.6076 10.2365 42.0123 6.59448 42.0123C2.95245 42.0123 0 32.6076 0 21.0062Z" transform="matrix(0.2234219 -0.9747218 0.9747218 0.2234219 216.1332 184.925)" id="Ellipse" fill="#2F2E41" stroke="none" />
    <path d="M0 21.0062C0 9.40478 2.95245 0 6.59448 0C10.2365 0 13.189 9.40478 13.189 21.0062C13.189 32.6076 10.2365 42.0123 6.59448 42.0123C2.95245 42.0123 0 32.6076 0 21.0062Z" transform="matrix(0.2234219 -0.9747218 0.9747218 0.2234219 298.6019 198.6395)" id="Ellipse" fill="#2F2E41" stroke="none" />
    <path d="M18.8386 4.57404C19.4516 7.94092 18.2207 11.3789 15.61 13.5915C12.9992 15.8041 9.40594 16.4547 6.18521 15.2978C2.96445 14.141 0.606262 11.3528 0 7.98474C-0.941742 2.78259 3.08038 0.941711 8.28256 0C13.4847 -0.941711 17.8969 -0.628113 18.8386 4.57404L18.8386 4.57404Z" transform="translate(269.5745 202.827)" id="Shape" fill="#EEEEEE" stroke="none" />
    <path d="M0 6.76008C0 3.02659 9.64095 0 21.5337 0C33.4264 0 43.0673 3.02659 43.0673 6.76008C43.0673 10.4936 33.4264 13.5202 21.5337 13.5202C9.64095 13.5202 0 10.4936 0 6.76008Z" transform="matrix(0.3570287 -0.9340934 0.9340934 0.3570287 495.3509 60.37914)" id="Ellipse" fill="#2F2E41" stroke="none" />
    <path d="M0 43.0673C0 19.2819 19.2819 0 43.0673 0C66.8528 0 86.1347 19.2819 86.1347 43.0673C86.1347 66.8528 66.8528 86.1347 43.0673 86.1347C19.2819 86.1347 0 66.8528 0 43.0673Z" transform="translate(441.1984 155.8833)" id="Circle" fill="#2F2E41" stroke="none" />
    <path d="M0 0L13.0837 0L13.0837 23.4417L0 23.4417L0 0Z" transform="translate(464.6401 232.7504)" id="Rectangle" fill="#2F2E41" stroke="none" />
    <path d="M0 0L13.0837 0L13.0837 23.4417L0 23.4417L0 0Z" transform="translate(490.8076 232.7504)" id="Rectangle" fill="#2F2E41" stroke="none" />
    <path d="M0 4.08867C0 1.83056 4.88149 0 10.9031 0C16.9247 0 21.8062 1.83056 21.8062 4.08867C21.8062 6.34678 16.9247 8.17734 10.9031 8.17734C4.88149 8.17734 0 6.34678 0 4.08867Z" transform="translate(464.6401 252.376)" id="Ellipse" fill="#2F2E41" stroke="none" />
    <path d="M0 4.08867C0 1.83056 4.88149 0 10.9031 0C16.9247 0 21.8062 1.83056 21.8062 4.08867C21.8062 6.34678 16.9247 8.17734 10.9031 8.17734C4.88149 8.17734 0 6.34678 0 4.08867Z" transform="translate(490.8076 251.8308)" id="Ellipse" fill="#2F2E41" stroke="none" />
    <path d="M0 14.7192C0 6.59002 6.59002 0 14.7192 0C22.8484 0 29.4384 6.59002 29.4384 14.7192C29.4384 22.8484 22.8484 29.4384 14.7192 29.4384C6.59002 29.4384 0 22.8484 0 14.7192Z" transform="translate(470.6368 173.3284)" id="Circle" fill="#EEEEEE" stroke="none" />
    <path d="M0 4.90641C0 2.19667 2.19667 0 4.90641 0C7.61615 0 9.81282 2.19667 9.81282 4.90641C9.81282 7.61615 7.61615 9.81282 4.90641 9.81282C2.19667 9.81282 0 7.61615 0 4.90641Z" transform="translate(480.4496 183.1412)" id="Circle" fill="#3F3D56" stroke="none" />
    <path d="M0 35.1488C-3.47748 19.575 7.63867 3.83838 24.8286 0C42.0186 -3.83838 58.7728 5.67511 62.2503 21.2489C65.7278 36.8227 54.3354 42.5666 37.1454 46.4049C19.9555 50.2432 3.47754 50.7227 0 35.1488L0 35.1488Z" transform="translate(442.489 123.7505)" id="Shape" fill="#FF6584" stroke="none" />
    <path d="M0 43.0673C0 19.2819 19.2819 0 43.0673 0C66.8528 0 86.1347 19.2819 86.1347 43.0673C86.1347 66.8528 66.8528 86.1347 43.0673 86.1347C19.2819 86.1347 0 66.8528 0 43.0673Z" transform="translate(426.4792 32.13286)" id="Circle" fill="#2F2E41" stroke="none" />
    <path d="M0 0L13.0837 0L13.0837 23.4417L0 23.4417L0 0Z" transform="translate(449.9208 108.9999)" id="Rectangle" fill="#2F2E41" stroke="none" />
    <path d="M0 0L13.0837 0L13.0837 23.4417L0 23.4417L0 0Z" transform="translate(476.0883 108.9999)" id="Rectangle" fill="#2F2E41" stroke="none" />
    <path d="M0 4.08867C0 1.83056 4.88149 0 10.9031 0C16.9247 0 21.8062 1.83056 21.8062 4.08867C21.8062 6.34678 16.9247 8.17734 10.9031 8.17734C4.88149 8.17734 0 6.34678 0 4.08867Z" transform="translate(449.9208 128.6255)" id="Ellipse" fill="#2F2E41" stroke="none" />
    <path d="M0 4.08867C0 1.83056 4.88149 0 10.9031 0C16.9247 0 21.8062 1.83056 21.8062 4.08867C21.8062 6.34678 16.9247 8.17734 10.9031 8.17734C4.88149 8.17734 0 6.34678 0 4.08867Z" transform="translate(476.0883 128.0804)" id="Ellipse" fill="#2F2E41" stroke="none" />
    <path d="M0 14.7192C0 6.59002 6.59002 0 14.7192 0C22.8484 0 29.4384 6.59002 29.4384 14.7192C29.4384 22.8484 22.8484 29.4384 14.7192 29.4384C6.59002 29.4384 0 22.8484 0 14.7192Z" transform="translate(455.9175 49.57793)" id="Circle" fill="#EEEEEE" stroke="none" />
    <path d="M0 4.90641C0 2.19667 2.19667 0 4.90641 0C7.61615 0 9.81282 2.19667 9.81282 4.90641C9.81282 7.61615 7.61615 9.81282 4.90641 9.81282C2.19667 9.81282 0 7.61615 0 4.90641Z" transform="translate(465.7304 59.39073)" id="Circle" fill="#3F3D56" stroke="none" />
    <path d="M0 35.1488C-3.47748 19.575 7.63867 3.83838 24.8286 0C42.0186 -3.83838 58.7728 5.67508 62.2503 21.2489C65.7278 36.8227 54.3354 42.5665 37.1454 46.4048C19.9555 50.2432 3.47748 50.7227 0 35.1488L0 35.1488Z" transform="translate(427.7697 0)" id="Shape" fill="#6A9BD8" stroke="none" />
    <path d="M0 21.5337C0 9.64095 3.02659 0 6.76008 0C10.4936 0 13.5202 9.64095 13.5202 21.5337C13.5202 33.4264 10.4936 43.0673 6.76008 43.0673C3.02659 43.0673 0 33.4264 0 21.5337Z" transform="matrix(0.4285293 -0.9035279 0.9035279 0.4285293 398.6852 52.09691)" id="Ellipse" fill="#2F2E41" stroke="none" />
    <path d="M0 3.54352C0 7.75867 10.8533 16.0821 22.8965 16.0821C34.9398 16.0821 46.2317 4.21509 46.2317 0C46.2317 -4.21509 34.9398 0.817749 22.8965 0.817749C10.8533 0.817749 0 -0.671631 0 3.54352L0 3.54352Z" transform="translate(448.3919 87.19365)" id="Shape" fill="#EEEEEE" stroke="none" />
    <path d="M0 0L12.1127 0L12.1127 21.7019L0 21.7019L0 0Z" transform="matrix(-0.26644 -0.96385 0.96385 -0.26644 548.1472 234.7978)" id="Rectangle" fill="#2F2E41" stroke="none" />
    <path d="M0 10.0939C0 4.51918 1.6947 0 3.78521 0C5.87572 0 7.57042 4.51918 7.57042 10.0939C7.57042 15.6686 5.87572 20.1878 3.78521 20.1878C1.6947 20.1878 0 15.6686 0 10.0939Z" transform="matrix(0.96385 -0.26644 0.26644 0.96385 537.3408 218.4084)" id="Ellipse" fill="#2F2E41" stroke="none" />
    <path d="M0 6.25834C0 2.80195 8.92539 0 19.9354 0C30.9454 0 39.8708 2.80195 39.8708 6.25834C39.8708 9.71473 30.9454 12.5167 19.9354 12.5167C8.92539 12.5167 0 9.71473 0 6.25834Z" transform="matrix(0.1343128 -0.990939 0.990939 0.1343128 595.867 201.0439)" id="Ellipse" fill="#2F2E41" stroke="none" />
    <path d="M0 39.8708C0 17.8508 17.8508 0 39.8708 0C61.8909 0 79.7417 17.8508 79.7417 39.8708C79.7417 61.8909 61.8909 79.7417 39.8708 79.7417C17.8508 79.7417 0 61.8909 0 39.8708Z" transform="translate(560.9726 179.5804)" id="Circle" fill="#2F2E41" stroke="none" />
    <path d="M0 0L12.1127 0L12.1127 21.7019L0 21.7019L0 0Z" transform="matrix(-0.26644 -0.96385 0.96385 -0.26644 548.1472 227.7321)" id="Rectangle" fill="#2F2E41" stroke="none" />
    <path d="M0 10.0939C0 4.51918 1.6947 0 3.78521 0C5.87572 0 7.57042 4.51918 7.57042 10.0939C7.57042 15.6686 5.87572 20.1878 3.78521 20.1878C1.6947 20.1878 0 15.6686 0 10.0939Z" transform="matrix(0.9638528 -0.2664355 0.2664355 0.9638528 537.3398 211.348)" id="Ellipse" fill="#2F2E41" stroke="none" />
    <path d="M0 13.6267C0 6.1009 6.1009 0 13.6267 0C21.1526 0 27.2535 6.1009 27.2535 13.6267C27.2535 21.1526 21.1526 27.2535 13.6267 27.2535C6.1009 27.2535 0 21.1526 0 13.6267Z" transform="translate(597.6862 182.9838)" id="Circle" fill="#EEEEEE" stroke="none" />
    <path d="M0 4.54225C0 2.03363 2.03363 0 4.54225 0C7.05087 0 9.0845 2.03363 9.0845 4.54225C9.0845 7.05087 7.05087 9.0845 4.54225 9.0845C2.03363 9.0845 0 7.05087 0 4.54225Z" transform="translate(611.1285 186.0488)" id="Circle" fill="#3F3D56" stroke="none" />
    <path d="M19.2064 58.9755C33.9609 58.2371 45.261 44.4363 44.4459 28.1507C43.6309 11.8651 31.0093 -0.738403 16.2548 0C1.50024 0.738403 -0.815003 12.3208 0 28.6064C0.815003 44.8921 4.45184 59.7139 19.2064 58.9755L19.2064 58.9755Z" transform="translate(627.6802 187.8746)" id="Shape" fill="#AE1100" stroke="none" />
    <path d="M9.77521 18.1097C4.77875 18.5071 0.40448 14.7828 0 9.78687C-0.404419 4.79095 3.31378 0.411438 8.30914 0C13.31 -0.404724 14.6738 3.56543 15.0786 8.56628C15.4834 13.5671 14.7761 17.705 9.77521 18.1097L9.77521 18.1097Z" transform="translate(574.7731 184.4719)" id="Shape" fill="#EEEEEE" stroke="none" />
    <path d="M0 6.25834C0 2.80195 8.92539 0 19.9354 0C30.9454 0 39.8708 2.80195 39.8708 6.25834C39.8708 9.71473 30.9454 12.5167 19.9354 12.5167C8.92539 12.5167 0 9.71473 0 6.25834Z" transform="matrix(0.1343128 -0.990939 0.990939 0.1343128 580.902 210.5176)" id="Ellipse" fill="#2F2E41" stroke="none" />
  </g>
</svg>