<svg width="921" height="114" viewBox="0 0 921 114" fill="none" xmlns="http://www.w3.org/2000/svg">
<g id="home-page-image-dark">
<g id="Name">
<path id="Patternscape" d="M57.098 6.62C67.658 6.62 75.938 9.14 81.938 14.18C87.938 19.14 90.938 26.06 90.938 34.94C90.938 43.74 87.938 50.66 81.938 55.7C75.938 60.66 67.658 63.14 57.098 63.14H33.098V90.62H26.978V6.62H57.098ZM57.098 57.62C66.058 57.62 72.898 55.66 77.618 51.74C82.338 47.82 84.698 42.22 84.698 34.94C84.698 27.66 82.338 22.06 77.618 18.14C72.898 14.14 66.058 12.14 57.098 12.14H33.098V57.62H57.098ZM130.201 27.5C137.961 27.5 143.921 29.5 148.081 33.5C152.241 37.42 154.321 43.22 154.321 50.9V90.62H148.561V79.46C146.561 83.14 143.641 86.02 139.801 88.1C135.961 90.1 131.361 91.1 126.001 91.1C119.041 91.1 113.521 89.46 109.441 86.18C105.441 82.9 103.441 78.58 103.441 73.22C103.441 68.02 105.281 63.82 108.961 60.62C112.721 57.34 118.681 55.7 126.841 55.7H148.321V50.66C148.321 44.82 146.721 40.38 143.521 37.34C140.401 34.3 135.801 32.78 129.721 32.78C125.561 32.78 121.561 33.5 117.721 34.94C113.961 36.38 110.761 38.3 108.121 40.7L105.121 36.38C108.241 33.58 112.001 31.42 116.401 29.9C120.801 28.3 125.401 27.5 130.201 27.5ZM126.841 86.18C132.041 86.18 136.441 84.98 140.041 82.58C143.721 80.18 146.481 76.7 148.321 72.14V60.38H126.961C120.801 60.38 116.321 61.5 113.521 63.74C110.801 65.98 109.441 69.06 109.441 72.98C109.441 77.06 110.961 80.3 114.001 82.7C117.041 85.02 121.321 86.18 126.841 86.18ZM210.122 86.66C208.602 88.1 206.682 89.22 204.362 90.02C202.122 90.74 199.762 91.1 197.282 91.1C191.842 91.1 187.642 89.62 184.682 86.66C181.722 83.62 180.242 79.42 180.242 74.06V33.14H168.722V27.98H180.242V14.3H186.242V27.98H206.162V33.14H186.242V73.46C186.242 77.54 187.202 80.66 189.122 82.82C191.122 84.9 194.042 85.94 197.882 85.94C201.802 85.94 205.042 84.78 207.602 82.46L210.122 86.66ZM256.294 86.66C254.774 88.1 252.854 89.22 250.534 90.02C248.294 90.74 245.934 91.1 243.454 91.1C238.014 91.1 233.814 89.62 230.854 86.66C227.894 83.62 226.414 79.42 226.414 74.06V33.14H214.894V27.98H226.414V14.3H232.414V27.98H252.334V33.14H232.414V73.46C232.414 77.54 233.374 80.66 235.294 82.82C237.294 84.9 240.214 85.94 244.054 85.94C247.974 85.94 251.214 84.78 253.774 82.46L256.294 86.66ZM323.72 60.74H269.84C270 65.62 271.24 69.98 273.56 73.82C275.88 77.58 279 80.5 282.92 82.58C286.92 84.66 291.4 85.7 296.36 85.7C300.44 85.7 304.2 84.98 307.64 83.54C311.16 82.02 314.08 79.82 316.4 76.94L319.88 80.9C317.16 84.18 313.72 86.7 309.56 88.46C305.48 90.22 301.04 91.1 296.24 91.1C290 91.1 284.44 89.74 279.56 87.02C274.68 84.3 270.84 80.54 268.04 75.74C265.32 70.94 263.96 65.46 263.96 59.3C263.96 53.22 265.24 47.78 267.8 42.98C270.44 38.1 274.04 34.3 278.6 31.58C283.16 28.86 288.28 27.5 293.96 27.5C299.64 27.5 304.72 28.86 309.2 31.58C313.76 34.22 317.32 37.94 319.88 42.74C322.52 47.54 323.84 52.98 323.84 59.06L323.72 60.74ZM293.96 32.78C289.56 32.78 285.6 33.78 282.08 35.78C278.56 37.7 275.72 40.46 273.56 44.06C271.48 47.58 270.28 51.58 269.96 56.06H317.96C317.72 51.58 316.52 47.58 314.36 44.06C312.2 40.54 309.36 37.78 305.84 35.78C302.32 33.78 298.36 32.78 293.96 32.78ZM348.162 41.66C350.082 37.1 353.082 33.62 357.162 31.22C361.242 28.74 366.202 27.5 372.042 27.5V33.38L370.602 33.26C363.642 33.26 358.202 35.46 354.282 39.86C350.362 44.18 348.402 50.22 348.402 57.98V90.62H342.402V27.98H348.162V41.66ZM419.174 27.5C427.014 27.5 433.214 29.78 437.774 34.34C442.334 38.9 444.614 45.46 444.614 54.02V90.62H438.614V54.5C438.614 47.46 436.814 42.1 433.214 38.42C429.694 34.74 424.734 32.9 418.334 32.9C410.974 32.9 405.174 35.1 400.934 39.5C396.694 43.9 394.574 49.82 394.574 57.26V90.62H388.574V27.98H394.334V41.54C396.494 37.14 399.694 33.7 403.934 31.22C408.254 28.74 413.334 27.5 419.174 27.5ZM485.156 91.1C480.116 91.1 475.316 90.34 470.756 88.82C466.196 87.3 462.636 85.38 460.076 83.06L462.836 78.26C465.396 80.42 468.676 82.22 472.676 83.66C476.756 85.1 480.996 85.82 485.396 85.82C491.716 85.82 496.356 84.78 499.316 82.7C502.356 80.62 503.876 77.74 503.876 74.06C503.876 71.42 503.036 69.34 501.356 67.82C499.756 66.3 497.756 65.18 495.356 64.46C492.956 63.74 489.636 62.98 485.396 62.18C480.436 61.3 476.436 60.34 473.396 59.3C470.356 58.26 467.756 56.58 465.596 54.26C463.436 51.94 462.356 48.74 462.356 44.66C462.356 39.7 464.396 35.62 468.476 32.42C472.636 29.14 478.516 27.5 486.116 27.5C490.116 27.5 494.076 28.06 497.996 29.18C501.916 30.3 505.116 31.78 507.596 33.62L504.836 38.42C502.276 36.58 499.356 35.18 496.076 34.22C492.796 33.26 489.436 32.78 485.996 32.78C480.156 32.78 475.756 33.86 472.796 36.02C469.836 38.18 468.356 41.02 468.356 44.54C468.356 47.34 469.196 49.54 470.876 51.14C472.556 52.66 474.596 53.82 476.996 54.62C479.476 55.34 482.916 56.14 487.316 57.02C492.196 57.9 496.116 58.86 499.076 59.9C502.116 60.86 504.676 62.46 506.756 64.7C508.836 66.94 509.876 70.02 509.876 73.94C509.876 79.14 507.716 83.3 503.396 86.42C499.076 89.54 492.996 91.1 485.156 91.1ZM551.461 91.1C545.381 91.1 539.941 89.74 535.141 87.02C530.341 84.3 526.581 80.54 523.861 75.74C521.141 70.86 519.781 65.38 519.781 59.3C519.781 53.14 521.141 47.66 523.861 42.86C526.581 37.98 530.341 34.22 535.141 31.58C539.941 28.86 545.381 27.5 551.461 27.5C556.501 27.5 561.061 28.5 565.141 30.5C569.301 32.42 572.661 35.26 575.221 39.02L570.781 42.26C568.541 39.14 565.741 36.82 562.381 35.3C559.101 33.7 555.461 32.9 551.461 32.9C546.581 32.9 542.181 34.02 538.261 36.26C534.421 38.42 531.381 41.5 529.141 45.5C526.981 49.5 525.901 54.1 525.901 59.3C525.901 64.5 526.981 69.1 529.141 73.1C531.381 77.1 534.421 80.22 538.261 82.46C542.181 84.62 546.581 85.7 551.461 85.7C555.461 85.7 559.101 84.94 562.381 83.42C565.741 81.82 568.541 79.46 570.781 76.34L575.221 79.58C572.661 83.34 569.301 86.22 565.141 88.22C561.061 90.14 556.501 91.1 551.461 91.1ZM614.303 27.5C622.063 27.5 628.023 29.5 632.183 33.5C636.343 37.42 638.423 43.22 638.423 50.9V90.62H632.663V79.46C630.663 83.14 627.743 86.02 623.903 88.1C620.063 90.1 615.463 91.1 610.103 91.1C603.143 91.1 597.623 89.46 593.543 86.18C589.543 82.9 587.543 78.58 587.543 73.22C587.543 68.02 589.383 63.82 593.063 60.62C596.823 57.34 602.783 55.7 610.943 55.7H632.423V50.66C632.423 44.82 630.823 40.38 627.623 37.34C624.503 34.3 619.903 32.78 613.823 32.78C609.663 32.78 605.663 33.5 601.823 34.94C598.063 36.38 594.863 38.3 592.223 40.7L589.223 36.38C592.343 33.58 596.103 31.42 600.503 29.9C604.903 28.3 609.503 27.5 614.303 27.5ZM610.943 86.18C616.143 86.18 620.543 84.98 624.143 82.58C627.823 80.18 630.583 76.7 632.423 72.14V60.38H611.063C604.903 60.38 600.423 61.5 597.623 63.74C594.903 65.98 593.543 69.06 593.543 72.98C593.543 77.06 595.063 80.3 598.103 82.7C601.143 85.02 605.423 86.18 610.943 86.18ZM694.584 27.5C700.424 27.5 705.704 28.86 710.424 31.58C715.144 34.3 718.824 38.06 721.464 42.86C724.184 47.66 725.544 53.14 725.544 59.3C725.544 65.46 724.184 70.98 721.464 75.86C718.824 80.66 715.144 84.42 710.424 87.14C705.704 89.78 700.424 91.1 694.584 91.1C689.064 91.1 684.064 89.82 679.584 87.26C675.104 84.62 671.624 80.98 669.144 76.34V113.9H663.144V27.98H668.904V42.74C671.384 37.94 674.864 34.22 679.344 31.58C683.904 28.86 688.984 27.5 694.584 27.5ZM694.224 85.7C699.024 85.7 703.344 84.58 707.184 82.34C711.024 80.1 714.024 76.98 716.184 72.98C718.424 68.98 719.544 64.42 719.544 59.3C719.544 54.18 718.424 49.62 716.184 45.62C714.024 41.62 711.024 38.5 707.184 36.26C703.344 34.02 699.024 32.9 694.224 32.9C689.424 32.9 685.104 34.02 681.264 36.26C677.504 38.5 674.504 41.62 672.264 45.62C670.104 49.62 669.024 54.18 669.024 59.3C669.024 64.42 670.104 68.98 672.264 72.98C674.504 76.98 677.504 80.1 681.264 82.34C685.104 84.58 689.424 85.7 694.224 85.7ZM797.041 60.74H743.161C743.321 65.62 744.561 69.98 746.881 73.82C749.201 77.58 752.321 80.5 756.241 82.58C760.241 84.66 764.721 85.7 769.681 85.7C773.761 85.7 777.521 84.98 780.961 83.54C784.481 82.02 787.401 79.82 789.721 76.94L793.201 80.9C790.481 84.18 787.041 86.7 782.881 88.46C778.801 90.22 774.361 91.1 769.561 91.1C763.321 91.1 757.761 89.74 752.881 87.02C748.001 84.3 744.161 80.54 741.361 75.74C738.641 70.94 737.281 65.46 737.281 59.3C737.281 53.22 738.561 47.78 741.121 42.98C743.761 38.1 747.361 34.3 751.921 31.58C756.481 28.86 761.601 27.5 767.281 27.5C772.961 27.5 778.041 28.86 782.521 31.58C787.081 34.22 790.641 37.94 793.201 42.74C795.841 47.54 797.161 52.98 797.161 59.06L797.041 60.74ZM767.281 32.78C762.881 32.78 758.921 33.78 755.401 35.78C751.881 37.7 749.041 40.46 746.881 44.06C744.801 47.58 743.601 51.58 743.281 56.06H791.281C791.041 51.58 789.841 47.58 787.681 44.06C785.521 40.54 782.681 37.78 779.161 35.78C775.641 33.78 771.681 32.78 767.281 32.78Z" fill="#F2D184"/>
</g>
<g id="app icon">
<g id="app icon_2">
<path id="mid" d="M844.254 48.2027H915.767C915.848 48.2027 915.929 48.2045 916.009 48.2079C916.089 48.2114 916.169 48.2167 916.248 48.2237C916.328 48.2306 916.407 48.2393 916.486 48.2498C916.564 48.2602 916.643 48.2724 916.72 48.2863C916.798 48.3002 916.875 48.3158 916.952 48.3332C917.028 48.3505 917.104 48.3695 917.178 48.3902C917.254 48.4109 917.328 48.4333 917.402 48.4573C917.475 48.4814 917.548 48.5071 917.62 48.5345C917.692 48.5618 917.763 48.5908 917.833 48.6214C917.903 48.6519 917.972 48.6841 918.041 48.7179C918.109 48.7516 918.176 48.787 918.242 48.8238C918.309 48.8607 918.374 48.8991 918.437 48.939C918.501 48.9789 918.564 49.0203 918.626 49.0632C918.687 49.106 918.748 49.1503 918.806 49.196C918.866 49.2417 918.924 49.2888 918.98 49.3373C919.037 49.3858 919.092 49.4357 919.146 49.4868C919.2 49.538 919.252 49.5904 919.303 49.6442C919.354 49.6979 919.404 49.7529 919.452 49.809C919.5 49.8652 919.546 49.9226 919.592 49.9811C919.637 50.0397 919.68 50.0993 919.722 50.1601C919.764 50.2208 919.805 50.2826 919.844 50.3455C919.882 50.4083 919.919 50.4722 919.955 50.537C919.991 50.6018 920.024 50.6676 920.057 50.7342C920.089 50.8009 920.119 50.8684 920.148 50.9368C920.177 51.0052 920.204 51.0743 920.229 51.1443C920.255 51.2142 920.278 51.2848 920.3 51.3562C920.322 51.4276 920.342 51.4995 920.36 51.5722C920.378 51.6448 920.395 51.718 920.409 51.7918C920.424 51.8655 920.436 51.9397 920.447 52.0145C920.459 52.0892 920.468 52.1644 920.475 52.2399C920.483 52.3155 920.488 52.3914 920.492 52.4676C920.495 52.5438 920.497 52.6203 920.497 52.6971C920.497 52.7739 920.495 52.8504 920.492 52.9266C920.488 53.0028 920.483 53.0787 920.475 53.1543C920.468 53.2298 920.459 53.305 920.447 53.3797C920.436 53.4544 920.424 53.5287 920.409 53.6025C920.395 53.6762 920.378 53.7494 920.36 53.822C920.342 53.8947 920.322 53.9667 920.3 54.038C920.278 54.1094 920.255 54.18 920.229 54.2499C920.204 54.3199 920.177 54.389 920.148 54.4574C920.119 54.5258 920.089 54.5933 920.057 54.6599C920.024 54.7266 919.991 54.7924 919.955 54.8572C919.919 54.922 919.882 54.9859 919.844 55.0487C919.805 55.1116 919.764 55.1734 919.722 55.2341C919.68 55.2949 919.637 55.3545 919.592 55.4131C919.546 55.4716 919.5 55.529 919.452 55.5852C919.404 55.6413 919.354 55.6963 919.303 55.75C919.252 55.8038 919.2 55.8562 919.146 55.9074C919.092 55.9585 919.037 56.0084 918.98 56.0569C918.924 56.1053 918.866 56.1525 918.806 56.1982C918.748 56.2439 918.687 56.2882 918.626 56.331C918.564 56.3739 918.501 56.4153 918.437 56.4552C918.374 56.4951 918.309 56.5335 918.242 56.5704C918.176 56.6072 918.109 56.6425 918.041 56.6763C917.972 56.7101 917.903 56.7422 917.833 56.7728C917.763 56.8034 917.692 56.8324 917.62 56.8597C917.548 56.8871 917.475 56.9128 917.402 56.9369C917.328 56.9609 917.254 56.9833 917.178 57.004C917.104 57.0247 917.028 57.0437 916.952 57.061C916.875 57.0784 916.798 57.094 916.72 57.1079C916.643 57.1218 916.564 57.1339 916.486 57.1444C916.407 57.1549 916.328 57.1635 916.248 57.1705C916.169 57.1775 916.089 57.1828 916.009 57.1863C915.929 57.1897 915.848 57.1915 915.767 57.1915H844.254C844.173 57.1915 844.093 57.1897 844.012 57.1863C843.932 57.1828 843.852 57.1775 843.773 57.1705C843.693 57.1635 843.614 57.1549 843.536 57.1444C843.457 57.1339 843.379 57.1218 843.301 57.1079C843.224 57.094 843.147 57.0784 843.07 57.061C842.994 57.0437 842.918 57.0247 842.843 57.004C842.768 56.9833 842.693 56.9609 842.62 56.9369C842.546 56.9128 842.473 56.8871 842.401 56.8598C842.33 56.8324 842.258 56.8035 842.188 56.7729C842.118 56.7422 842.049 56.7101 841.981 56.6763C841.913 56.6425 841.845 56.6072 841.779 56.5704C841.713 56.5335 841.648 56.4951 841.584 56.4552C841.52 56.4153 841.457 56.3739 841.396 56.331C841.334 56.2882 841.274 56.2439 841.215 56.1982C841.156 56.1525 841.098 56.1053 841.041 56.0569C840.985 56.0084 840.929 55.9585 840.876 55.9074C840.822 55.8562 840.769 55.8038 840.718 55.75C840.667 55.6963 840.618 55.6413 840.57 55.5852C840.521 55.529 840.475 55.4716 840.43 55.4131C840.385 55.3545 840.341 55.2949 840.299 55.2341C840.257 55.1734 840.217 55.1116 840.178 55.0487C840.139 54.9859 840.102 54.922 840.066 54.8572C840.031 54.7924 839.997 54.7266 839.965 54.6599C839.933 54.5933 839.902 54.5258 839.873 54.4574C839.845 54.389 839.818 54.3199 839.792 54.2499C839.767 54.18 839.743 54.1094 839.722 54.038C839.7 53.9667 839.68 53.8947 839.662 53.822C839.643 53.7494 839.627 53.6762 839.612 53.6025C839.598 53.5287 839.585 53.4544 839.574 53.3797C839.563 53.305 839.554 53.2298 839.546 53.1543C839.539 53.0787 839.533 53.0028 839.53 52.9266C839.526 52.8504 839.524 52.7739 839.524 52.6971C839.524 52.6203 839.526 52.5438 839.53 52.4676C839.533 52.3914 839.539 52.3155 839.546 52.2399C839.554 52.1644 839.563 52.0892 839.574 52.0145C839.585 51.9397 839.598 51.8655 839.612 51.7918C839.627 51.718 839.643 51.6448 839.662 51.5722C839.68 51.4995 839.7 51.4276 839.722 51.3562C839.743 51.2848 839.767 51.2142 839.792 51.1443C839.818 51.0743 839.845 51.0052 839.873 50.9368C839.902 50.8684 839.933 50.8009 839.965 50.7342C839.997 50.6676 840.031 50.6018 840.066 50.537C840.102 50.4722 840.139 50.4083 840.178 50.3455C840.217 50.2826 840.257 50.2208 840.299 50.1601C840.341 50.0993 840.385 50.0397 840.43 49.9811C840.475 49.9226 840.521 49.8652 840.57 49.809C840.618 49.7529 840.667 49.6979 840.718 49.6442C840.769 49.5904 840.822 49.538 840.876 49.4868C840.929 49.4357 840.985 49.3858 841.041 49.3373C841.098 49.2888 841.156 49.2417 841.215 49.196C841.274 49.1503 841.334 49.106 841.396 49.0632C841.457 49.0203 841.52 48.9789 841.584 48.939C841.648 48.8991 841.713 48.8607 841.779 48.8238C841.845 48.787 841.913 48.7516 841.981 48.7179C842.049 48.6841 842.118 48.6519 842.188 48.6214C842.258 48.5908 842.33 48.5618 842.401 48.5345C842.473 48.5071 842.546 48.4814 842.62 48.4573C842.693 48.4333 842.768 48.4109 842.843 48.3902C842.918 48.3695 842.994 48.3505 843.07 48.3332C843.147 48.3158 843.224 48.3002 843.301 48.2863C843.379 48.2724 843.457 48.2602 843.536 48.2498C843.614 48.2393 843.693 48.2306 843.773 48.2237C843.852 48.2167 843.932 48.2114 844.012 48.2079C844.093 48.2045 844.173 48.2027 844.254 48.2027Z" fill="#6A9BD8"/>
<path id="upper 3" d="M899.488 32.4745L903.769 36.7554C903.821 36.8079 903.872 36.8614 903.922 36.9158C903.972 36.9703 904.021 37.0257 904.068 37.0819C904.115 37.1382 904.161 37.1953 904.205 37.2533C904.25 37.3113 904.292 37.37 904.334 37.4295C904.375 37.4891 904.415 37.5494 904.454 37.6104C904.492 37.6713 904.529 37.733 904.565 37.7953C904.6 37.8576 904.634 37.9205 904.666 37.9841C904.698 38.0475 904.729 38.1116 904.758 38.1762C904.787 38.2408 904.814 38.3059 904.84 38.3714C904.866 38.437 904.89 38.5029 904.912 38.5693C904.935 38.6356 904.955 38.7023 904.974 38.7693C904.993 38.8364 905.011 38.9036 905.026 38.9712C905.042 39.0388 905.056 39.1065 905.068 39.1745C905.08 39.2424 905.091 39.3104 905.1 39.3787C905.108 39.4469 905.115 39.5152 905.12 39.5835C905.126 39.6518 905.129 39.7201 905.131 39.7884C905.133 39.8568 905.133 39.925 905.131 39.9932C905.129 40.0613 905.126 40.1293 905.12 40.1972C905.115 40.265 905.108 40.3326 905.099 40.4001C905.091 40.4675 905.08 40.5346 905.068 40.6014C905.056 40.6683 905.042 40.7348 905.026 40.8009C905.011 40.867 904.993 40.9328 904.974 40.9981C904.955 41.0633 904.934 41.1281 904.912 41.1925C904.89 41.2568 904.865 41.3205 904.84 41.3837C904.814 41.4469 904.786 41.5095 904.757 41.5714C904.728 41.6334 904.698 41.6947 904.666 41.7553C904.633 41.8159 904.599 41.8757 904.564 41.9349C904.529 41.994 904.492 42.0522 904.453 42.1098C904.415 42.1673 904.375 42.2239 904.333 42.2797C904.292 42.3354 904.249 42.3903 904.205 42.4443C904.16 42.4982 904.114 42.5511 904.067 42.6031C904.02 42.6551 903.972 42.7061 903.922 42.756C903.872 42.8059 903.821 42.8545 903.769 42.9016C903.717 42.9488 903.664 42.9947 903.61 43.039C903.556 43.0833 903.501 43.1263 903.445 43.1678C903.39 43.2093 903.333 43.2492 903.275 43.2877C903.218 43.3261 903.16 43.3631 903.101 43.3985C903.041 43.4338 902.982 43.4677 902.921 43.4999C902.86 43.5322 902.799 43.5628 902.737 43.5918C902.675 43.6208 902.613 43.6483 902.549 43.674C902.486 43.6998 902.422 43.7239 902.358 43.7463C902.294 43.7687 902.229 43.7895 902.164 43.8085C902.098 43.8275 902.033 43.8449 901.967 43.8605C901.9 43.8762 901.834 43.8902 901.767 43.9023C901.7 43.9145 901.633 43.925 901.566 43.9337C901.498 43.9424 901.431 43.9495 901.363 43.9547C901.295 43.96 901.227 43.9635 901.159 43.9653C901.091 43.967 901.022 43.967 900.954 43.9652C900.886 43.9635 900.817 43.96 900.749 43.9548C900.681 43.9496 900.613 43.9426 900.544 43.9339C900.476 43.9251 900.408 43.9147 900.34 43.9025C900.272 43.8903 900.204 43.8764 900.137 43.8607C900.069 43.8451 900.002 43.8278 899.935 43.8087C899.868 43.7897 899.801 43.7689 899.735 43.7466C899.669 43.7241 899.603 43.7 899.537 43.6743C899.472 43.6486 899.406 43.6212 899.342 43.5922C899.277 43.5631 899.213 43.5325 899.15 43.5003C899.086 43.468 899.023 43.4342 898.961 43.3989C898.899 43.3635 898.837 43.3266 898.776 43.2882C898.715 43.2497 898.655 43.2097 898.595 43.1682C898.536 43.1268 898.477 43.0839 898.419 43.0395C898.361 42.9951 898.304 42.9494 898.248 42.9022C898.191 42.855 898.136 42.8065 898.081 42.7566C898.027 42.7067 897.974 42.6554 897.921 42.6029L893.64 38.322C893.588 38.2695 893.536 38.216 893.486 38.1616C893.437 38.1071 893.388 38.0517 893.341 37.9954C893.294 37.9392 893.248 37.8821 893.203 37.8241C893.159 37.7661 893.116 37.7074 893.075 37.6479C893.033 37.5883 892.993 37.528 892.955 37.4671C892.916 37.4061 892.88 37.3444 892.844 37.2821C892.809 37.2198 892.775 37.1568 892.743 37.0933C892.711 37.0298 892.68 36.9657 892.651 36.9011C892.622 36.8365 892.594 36.7715 892.569 36.7059C892.543 36.6404 892.519 36.5744 892.496 36.5081C892.474 36.4418 892.453 36.3751 892.434 36.3081C892.415 36.241 892.398 36.1737 892.382 36.1062C892.367 36.0386 892.353 35.9709 892.341 35.9029C892.328 35.835 892.318 35.7669 892.309 35.6987C892.3 35.6305 892.293 35.5622 892.288 35.4939C892.283 35.4256 892.28 35.3572 892.278 35.2889C892.276 35.2206 892.276 35.1524 892.278 35.0842C892.28 35.0161 892.283 34.9481 892.288 34.8802C892.294 34.8124 892.301 34.7447 892.309 34.6773C892.318 34.6099 892.329 34.5427 892.341 34.4759C892.353 34.4091 892.367 34.3426 892.382 34.2765C892.398 34.2103 892.415 34.1446 892.435 34.0793C892.454 34.014 892.474 33.9492 892.497 33.8849C892.519 33.8206 892.543 33.7569 892.569 33.6937C892.595 33.6305 892.622 33.5679 892.651 33.5059C892.68 33.444 892.711 33.3827 892.743 33.3221C892.775 33.2615 892.809 33.2016 892.845 33.1425C892.88 33.0834 892.917 33.0251 892.955 32.9676C892.994 32.9101 893.034 32.8535 893.075 32.7977C893.117 32.7419 893.16 32.6871 893.204 32.6332C893.248 32.5792 893.294 32.5262 893.341 32.4743C893.389 32.4223 893.437 32.3714 893.487 32.3214C893.537 32.2715 893.588 32.2229 893.64 32.1757C893.692 32.1285 893.745 32.0827 893.799 32.0384C893.853 31.994 893.908 31.9511 893.963 31.9096C894.019 31.8681 894.076 31.8282 894.133 31.7897C894.191 31.7512 894.249 31.7143 894.308 31.6789C894.367 31.6435 894.427 31.6097 894.488 31.5775C894.548 31.5452 894.61 31.5146 894.672 31.4856C894.734 31.4565 894.796 31.4291 894.859 31.4034C894.923 31.3776 894.986 31.3535 895.051 31.3311C895.115 31.3087 895.18 31.2879 895.245 31.2689C895.31 31.2498 895.376 31.2325 895.442 31.2168C895.508 31.2012 895.575 31.1873 895.642 31.175C895.708 31.1628 895.776 31.1524 895.843 31.1436C895.91 31.1349 895.978 31.1279 896.046 31.1226C896.114 31.1174 896.182 31.1139 896.25 31.1121C896.318 31.1104 896.386 31.1104 896.455 31.1121C896.523 31.1139 896.591 31.1173 896.66 31.1226C896.728 31.1278 896.796 31.1348 896.864 31.1435C896.933 31.1523 897.001 31.1627 897.069 31.1749C897.137 31.1871 897.204 31.201 897.272 31.2166C897.339 31.2323 897.407 31.2496 897.474 31.2687C897.541 31.2877 897.607 31.3084 897.674 31.3308C897.74 31.3533 897.806 31.3773 897.872 31.4031C897.937 31.4288 898.002 31.4562 898.067 31.4852C898.131 31.5142 898.195 31.5449 898.259 31.5771C898.322 31.6093 898.385 31.6431 898.448 31.6785C898.51 31.7139 898.572 31.7508 898.633 31.7892C898.694 31.8277 898.754 31.8677 898.813 31.9091C898.873 31.9506 898.932 31.9935 898.99 32.0378C899.048 32.0822 899.105 32.128 899.161 32.1752C899.217 32.2224 899.273 32.2709 899.327 32.3208C899.382 32.3707 899.435 32.422 899.488 32.4745Z" fill="#E86135"/>
<path id="upper 2" d="M856.004 35.9819L860.285 31.7011C860.338 31.6485 860.391 31.5973 860.446 31.5474C860.5 31.4975 860.556 31.4489 860.612 31.4018C860.668 31.3546 860.725 31.3088 860.783 31.2644C860.841 31.22 860.9 31.1771 860.959 31.1357C861.019 31.0942 861.079 31.0543 861.14 31.0158C861.201 30.9774 861.263 30.9405 861.325 30.9051C861.387 30.8697 861.45 30.8359 861.514 30.8036C861.577 30.7714 861.641 30.7408 861.706 30.7118C861.771 30.6828 861.836 30.6554 861.901 30.6297C861.967 30.6039 862.033 30.5799 862.099 30.5574C862.166 30.535 862.232 30.5143 862.299 30.4953C862.366 30.4762 862.433 30.4589 862.501 30.4433C862.569 30.4276 862.636 30.4137 862.704 30.4015C862.772 30.3893 862.84 30.3788 862.909 30.3701C862.977 30.3614 863.045 30.3544 863.113 30.3492C863.182 30.344 863.25 30.3405 863.318 30.3387C863.387 30.3369 863.455 30.337 863.523 30.3387C863.591 30.3405 863.659 30.344 863.727 30.3492C863.795 30.3545 863.863 30.3614 863.93 30.3702C863.997 30.379 864.064 30.3894 864.131 30.4017C864.198 30.4138 864.265 30.4278 864.331 30.4434C864.397 30.4591 864.463 30.4764 864.528 30.4955C864.593 30.5145 864.658 30.5352 864.722 30.5577C864.787 30.5801 864.85 30.6042 864.914 30.63C864.977 30.6557 865.039 30.6831 865.101 30.7122C865.163 30.7412 865.225 30.7718 865.285 30.8041C865.346 30.8363 865.406 30.8701 865.465 30.9055C865.524 30.9409 865.582 30.9778 865.64 31.0163C865.697 31.0548 865.754 31.0947 865.81 31.1362C865.865 31.1777 865.92 31.2206 865.974 31.265C866.028 31.3093 866.081 31.3552 866.133 31.4023C866.185 31.4495 866.236 31.4981 866.286 31.548C866.336 31.5979 866.384 31.6489 866.431 31.7009C866.479 31.7529 866.525 31.8058 866.569 31.8597C866.613 31.9137 866.656 31.9685 866.698 32.0243C866.739 32.08 866.779 32.1367 866.818 32.1942C866.856 32.2517 866.893 32.31 866.928 32.3691C866.964 32.4282 866.998 32.4881 867.03 32.5487C867.062 32.6093 867.093 32.6706 867.122 32.7325C867.151 32.7945 867.178 32.8571 867.204 32.9203C867.23 32.9835 867.254 33.0472 867.276 33.1115C867.299 33.1758 867.319 33.2406 867.338 33.3059C867.357 33.3712 867.375 33.4369 867.39 33.5031C867.406 33.5692 867.42 33.6356 867.432 33.7025C867.444 33.7693 867.455 33.8365 867.464 33.9039C867.472 33.9713 867.479 34.0389 867.485 34.1068C867.49 34.1747 867.493 34.2427 867.495 34.3108C867.497 34.379 867.497 34.4472 867.495 34.5155C867.493 34.5838 867.49 34.6522 867.485 34.7205C867.479 34.7888 867.472 34.8571 867.464 34.9253C867.455 34.9935 867.445 35.0616 867.432 35.1295C867.42 35.1975 867.406 35.2652 867.391 35.3328C867.375 35.4004 867.358 35.4676 867.339 35.5347C867.32 35.6017 867.299 35.6683 867.276 35.7347C867.254 35.8011 867.23 35.867 867.204 35.9325C867.178 35.9981 867.151 36.0631 867.122 36.1278C867.093 36.1923 867.062 36.2564 867.03 36.3199C866.998 36.3834 866.964 36.4463 866.929 36.5087C866.893 36.571 866.856 36.6326 866.818 36.6936C866.78 36.7546 866.74 36.8149 866.698 36.8744C866.657 36.934 866.614 36.9927 866.569 37.0507C866.525 37.1087 866.479 37.1658 866.432 37.2221C866.385 37.2783 866.336 37.3337 866.286 37.3882C866.236 37.4426 866.185 37.4961 866.133 37.5486L861.852 41.8295C861.799 41.882 861.746 41.9332 861.691 41.9831C861.637 42.0331 861.582 42.0816 861.525 42.1288C861.469 42.176 861.412 42.2218 861.354 42.2661C861.296 42.3105 861.237 42.3534 861.178 42.3949C861.118 42.4363 861.058 42.4763 860.997 42.5147C860.936 42.5532 860.874 42.5901 860.812 42.6255C860.75 42.6609 860.687 42.6947 860.623 42.7269C860.56 42.7591 860.496 42.7898 860.431 42.8188C860.366 42.8478 860.301 42.8752 860.236 42.9009C860.17 42.9266 860.104 42.9507 860.038 42.9732C859.972 42.9956 859.905 43.0163 859.838 43.0353C859.771 43.0544 859.704 43.0717 859.636 43.0873C859.568 43.103 859.501 43.1169 859.433 43.1291C859.365 43.1413 859.297 43.1517 859.229 43.1605C859.16 43.1692 859.092 43.1762 859.024 43.1814C858.955 43.1866 858.887 43.1901 858.819 43.1919C858.75 43.1936 858.682 43.1936 858.614 43.1918C858.546 43.1901 858.478 43.1866 858.41 43.1813C858.342 43.1761 858.275 43.1691 858.207 43.1604C858.14 43.1516 858.073 43.1411 858.006 43.1289C857.939 43.1167 857.872 43.1028 857.806 43.0872C857.74 43.0715 857.674 43.0542 857.609 43.0351C857.544 43.016 857.479 42.9953 857.415 42.9729C857.35 42.9504 857.287 42.9264 857.224 42.9006C857.16 42.8748 857.098 42.8474 857.036 42.8184C856.974 42.7894 856.913 42.7588 856.852 42.7265C856.791 42.6943 856.731 42.6605 856.672 42.6251C856.613 42.5897 856.555 42.5527 856.497 42.5143C856.44 42.4758 856.383 42.4358 856.328 42.3944C856.272 42.3529 856.217 42.31 856.163 42.2656C856.109 42.2212 856.056 42.1754 856.004 42.1282C855.952 42.0811 855.901 42.0325 855.851 41.9826C855.801 41.9326 855.753 41.8817 855.706 41.8297C855.658 41.7777 855.613 41.7248 855.568 41.6708C855.524 41.6169 855.481 41.5621 855.439 41.5063C855.398 41.4505 855.358 41.3939 855.32 41.3364C855.281 41.2789 855.244 41.2206 855.209 41.1614C855.173 41.1023 855.14 41.0425 855.107 40.9819C855.075 40.9213 855.044 40.86 855.015 40.7981C854.986 40.7361 854.959 40.6735 854.933 40.6103C854.907 40.5471 854.883 40.4834 854.861 40.4191C854.839 40.3547 854.818 40.2899 854.799 40.2246C854.78 40.1594 854.762 40.0937 854.747 40.0275C854.731 39.9614 854.717 39.8949 854.705 39.8281C854.693 39.7612 854.682 39.6941 854.673 39.6267C854.665 39.5592 854.658 39.4916 854.652 39.4238C854.647 39.3559 854.644 39.2879 854.642 39.2197C854.64 39.1516 854.64 39.0834 854.642 39.015C854.644 38.9467 854.647 38.8784 854.652 38.8101C854.658 38.7418 854.665 38.6735 854.673 38.6053C854.682 38.5371 854.693 38.469 854.705 38.401C854.717 38.3331 854.731 38.2653 854.746 38.1978C854.762 38.1302 854.779 38.0629 854.798 37.9959C854.818 37.9289 854.838 37.8622 854.861 37.7959C854.883 37.7295 854.907 37.6636 854.933 37.598C854.959 37.5325 854.986 37.4674 855.015 37.4028C855.044 37.3382 855.075 37.2742 855.107 37.2107C855.139 37.1471 855.173 37.0842 855.208 37.0219C855.244 36.9596 855.281 36.8979 855.319 36.8369C855.358 36.7759 855.397 36.7157 855.439 36.6561C855.48 36.5966 855.523 36.5378 855.568 36.4799C855.612 36.4219 855.658 36.3648 855.705 36.3085C855.752 36.2523 855.801 36.1969 855.851 36.1424C855.901 36.088 855.952 36.0345 856.004 35.9819Z" fill="#24C981"/>
<path id="upper 4" d="M872.849 20.1904L877.13 15.9095C877.183 15.857 877.236 15.8058 877.291 15.7559C877.345 15.7059 877.4 15.6574 877.457 15.6102C877.513 15.563 877.57 15.5172 877.628 15.4729C877.686 15.4285 877.745 15.3856 877.804 15.3441C877.864 15.3027 877.924 15.2627 877.985 15.2242C878.046 15.1858 878.108 15.1489 878.17 15.1135C878.232 15.0781 878.295 15.0443 878.359 15.0121C878.422 14.9798 878.486 14.9492 878.551 14.9202C878.616 14.8912 878.681 14.8638 878.746 14.8381C878.812 14.8123 878.878 14.7883 878.944 14.7658C879.01 14.7434 879.077 14.7227 879.144 14.7037C879.211 14.6846 879.278 14.6673 879.346 14.6517C879.413 14.636 879.481 14.6221 879.549 14.6099C879.617 14.5977 879.685 14.5872 879.753 14.5785C879.822 14.5698 879.89 14.5628 879.958 14.5576C880.026 14.5524 880.095 14.5489 880.163 14.5471C880.231 14.5453 880.3 14.5453 880.368 14.5471C880.436 14.5489 880.504 14.5524 880.572 14.5576C880.64 14.5629 880.707 14.5698 880.775 14.5786C880.842 14.5874 880.909 14.5978 880.976 14.61C881.043 14.6222 881.11 14.6361 881.176 14.6518C881.242 14.6675 881.307 14.6848 881.373 14.7039C881.438 14.7229 881.503 14.7436 881.567 14.7661C881.631 14.7885 881.695 14.8126 881.758 14.8384C881.822 14.8641 881.884 14.8915 881.946 14.9205C882.008 14.9495 882.069 14.9802 882.13 15.0125C882.191 15.0447 882.25 15.0786 882.31 15.1139C882.369 15.1493 882.427 15.1862 882.484 15.2247C882.542 15.2632 882.599 15.3031 882.654 15.3446C882.71 15.3861 882.765 15.4291 882.819 15.4734C882.873 15.5177 882.926 15.5635 882.978 15.6108C883.03 15.6579 883.081 15.7065 883.131 15.7564C883.181 15.8063 883.229 15.8573 883.276 15.9093C883.324 15.9612 883.369 16.0142 883.414 16.0682C883.458 16.1221 883.501 16.177 883.542 16.2327C883.584 16.2885 883.624 16.3451 883.662 16.4026C883.701 16.4601 883.738 16.5184 883.773 16.5775C883.809 16.6367 883.842 16.6965 883.875 16.7571C883.907 16.8177 883.938 16.8789 883.967 16.9409C883.996 17.0029 884.023 17.0655 884.049 17.1287C884.074 17.1918 884.099 17.2556 884.121 17.3199C884.143 17.3842 884.164 17.449 884.183 17.5143C884.202 17.5796 884.22 17.6454 884.235 17.7114C884.251 17.7776 884.265 17.8441 884.277 17.9109C884.289 17.9778 884.3 18.0449 884.308 18.1123C884.317 18.1797 884.324 18.2473 884.329 18.3152C884.335 18.3831 884.338 18.4511 884.34 18.5192C884.342 18.5873 884.342 18.6556 884.34 18.724C884.338 18.7922 884.335 18.8606 884.329 18.9289C884.324 18.9972 884.317 19.0655 884.309 19.1337C884.3 19.2019 884.289 19.27 884.277 19.3379C884.265 19.4059 884.251 19.4736 884.235 19.5412C884.22 19.6088 884.202 19.676 884.183 19.7431C884.164 19.81 884.144 19.8767 884.121 19.9431C884.099 20.0095 884.075 20.0754 884.049 20.1409C884.023 20.2065 883.996 20.2715 883.967 20.3362C883.938 20.4008 883.907 20.4648 883.875 20.5283C883.843 20.5918 883.809 20.6547 883.774 20.717C883.738 20.7794 883.701 20.8411 883.663 20.9021C883.624 20.963 883.584 21.0233 883.543 21.0828C883.502 21.1424 883.459 21.2011 883.414 21.2591C883.37 21.3171 883.324 21.3742 883.277 21.4305C883.23 21.4867 883.181 21.5421 883.131 21.5966C883.081 21.651 883.03 21.7045 882.978 21.757L878.697 26.0379C878.644 26.0904 878.591 26.1416 878.536 26.1915C878.482 26.2415 878.426 26.29 878.37 26.3372C878.314 26.3844 878.257 26.4302 878.199 26.4746C878.141 26.5189 878.082 26.5618 878.023 26.6033C877.963 26.6447 877.903 26.6847 877.842 26.7232C877.781 26.7616 877.719 26.7985 877.657 26.8339C877.594 26.8693 877.532 26.9031 877.468 26.9353C877.404 26.9675 877.34 26.9982 877.276 27.0272C877.211 27.0562 877.146 27.0836 877.081 27.1093C877.015 27.1351 876.949 27.1591 876.883 27.1815C876.816 27.204 876.75 27.2247 876.683 27.2437C876.616 27.2628 876.548 27.2801 876.481 27.2957C876.413 27.3114 876.346 27.3253 876.278 27.3375C876.21 27.3497 876.142 27.3601 876.073 27.3689C876.005 27.3776 875.937 27.3846 875.869 27.3898C875.8 27.3951 875.732 27.3985 875.664 27.4003C875.595 27.402 875.527 27.402 875.459 27.4003C875.391 27.3985 875.323 27.395 875.255 27.3897C875.187 27.3845 875.119 27.3775 875.052 27.3688C874.985 27.36 874.917 27.3495 874.851 27.3373C874.784 27.3251 874.717 27.3112 874.651 27.2956C874.585 27.2799 874.519 27.2626 874.454 27.2435C874.389 27.2244 874.324 27.2037 874.26 27.1813C874.195 27.1589 874.132 27.1348 874.068 27.109C874.005 27.0833 873.943 27.0559 873.881 27.0268C873.819 26.9978 873.757 26.9672 873.697 26.9349C873.636 26.9027 873.576 26.8689 873.517 26.8335C873.458 26.7981 873.4 26.7612 873.342 26.7227C873.285 26.6842 873.228 26.6443 873.172 26.6028C873.117 26.5613 873.062 26.5184 873.008 26.474C872.954 26.4297 872.901 26.3839 872.849 26.3367C872.797 26.2895 872.746 26.2409 872.696 26.191C872.646 26.1411 872.598 26.0901 872.55 26.0381C872.503 25.9862 872.457 25.9332 872.413 25.8792C872.369 25.8253 872.326 25.7705 872.284 25.7147C872.243 25.6589 872.203 25.6023 872.164 25.5448C872.126 25.4873 872.089 25.429 872.054 25.3699C872.018 25.3108 871.984 25.2509 871.952 25.1903C871.92 25.1297 871.889 25.0684 871.86 25.0065C871.831 24.9445 871.804 24.8819 871.778 24.8187C871.752 24.7555 871.728 24.6918 871.706 24.6275C871.683 24.5632 871.663 24.4984 871.644 24.4331C871.625 24.3678 871.607 24.3021 871.592 24.2359C871.576 24.1698 871.562 24.1033 871.55 24.0365C871.538 23.9696 871.527 23.9025 871.518 23.8351C871.51 23.7677 871.503 23.7 871.497 23.6322C871.492 23.5643 871.489 23.4963 871.487 23.4282C871.485 23.36 871.485 23.2918 871.487 23.2235C871.489 23.1552 871.492 23.0868 871.497 23.0185C871.503 22.9502 871.509 22.8819 871.518 22.8137C871.527 22.7455 871.537 22.6774 871.55 22.6095C871.562 22.5415 871.576 22.4738 871.591 22.4062C871.607 22.3387 871.624 22.2714 871.643 22.2043C871.662 22.1373 871.683 22.0707 871.706 22.0043C871.728 21.938 871.752 21.872 871.778 21.8065C871.804 21.7409 871.831 21.6759 871.86 21.6113C871.889 21.5467 871.92 21.4826 871.952 21.4191C871.984 21.3556 872.018 21.2926 872.053 21.2303C872.089 21.168 872.125 21.1063 872.164 21.0453C872.202 20.9844 872.242 20.9241 872.284 20.8646C872.325 20.805 872.368 20.7463 872.413 20.6883C872.457 20.6303 872.503 20.5732 872.55 20.517C872.597 20.4607 872.646 20.4053 872.696 20.3508C872.745 20.2964 872.797 20.2429 872.849 20.1904Z" fill="#FF6584"/>
<path id="upper 5" d="M883.477 15.8537L887.757 20.1345C887.81 20.1871 887.861 20.2406 887.911 20.2951C887.961 20.3495 888.01 20.4049 888.057 20.4611C888.104 20.5174 888.15 20.5745 888.194 20.6325C888.238 20.6905 888.281 20.7492 888.323 20.8087C888.364 20.8682 888.404 20.9285 888.443 20.9895C888.481 21.0505 888.518 21.1122 888.553 21.1745C888.589 21.2368 888.623 21.2997 888.655 21.3632C888.687 21.4268 888.718 21.4909 888.747 21.5555C888.776 21.6201 888.803 21.6851 888.829 21.7507C888.854 21.8162 888.879 21.8821 888.901 21.9485C888.923 22.0148 888.944 22.0815 888.963 22.1485C888.982 22.2156 889 22.2828 889.015 22.3504C889.031 22.4179 889.045 22.4857 889.057 22.5536C889.069 22.6216 889.08 22.6896 889.088 22.7579C889.097 22.8261 889.104 22.8944 889.109 22.9627C889.114 23.031 889.118 23.0994 889.12 23.1676C889.121 23.236 889.121 23.3042 889.12 23.3723C889.118 23.4405 889.114 23.5085 889.109 23.5764C889.104 23.6443 889.097 23.7118 889.088 23.7793C889.079 23.8467 889.069 23.9138 889.057 23.9807C889.045 24.0475 889.031 24.114 889.015 24.1801C888.999 24.2463 888.982 24.312 888.963 24.3773C888.944 24.4426 888.923 24.5073 888.901 24.5716C888.878 24.636 888.854 24.6997 888.828 24.7629C888.803 24.8261 888.775 24.8887 888.746 24.9507C888.717 25.0126 888.687 25.0739 888.654 25.1345C888.622 25.1951 888.588 25.255 888.553 25.3141C888.518 25.3731 888.481 25.4314 888.442 25.489C888.404 25.5464 888.364 25.6031 888.322 25.6588C888.281 25.7147 888.238 25.7695 888.193 25.8235C888.149 25.8774 888.103 25.9303 888.056 25.9823C888.009 26.0343 887.96 26.0852 887.91 26.1351C887.86 26.1851 887.81 26.2337 887.758 26.2809C887.706 26.328 887.653 26.3738 887.599 26.4183C887.545 26.4626 887.49 26.5055 887.434 26.547C887.378 26.5884 887.322 26.6284 887.264 26.6669C887.207 26.7053 887.148 26.7423 887.089 26.7777C887.03 26.8131 886.97 26.8469 886.91 26.8791C886.849 26.9114 886.788 26.942 886.726 26.971C886.664 27 886.601 27.0274 886.538 27.0532C886.475 27.079 886.411 27.1031 886.347 27.1255C886.283 27.1479 886.218 27.1687 886.153 27.1877C886.087 27.2068 886.021 27.2241 885.955 27.2398C885.889 27.2554 885.823 27.2693 885.756 27.2815C885.689 27.2937 885.622 27.3042 885.555 27.313C885.487 27.3217 885.42 27.3287 885.352 27.334C885.284 27.3392 885.216 27.3427 885.148 27.3444C885.079 27.3462 885.011 27.3463 884.943 27.3445C884.875 27.3428 884.806 27.3393 884.738 27.334C884.67 27.3288 884.601 27.3218 884.533 27.313C884.465 27.3043 884.397 27.2939 884.329 27.2817C884.261 27.2695 884.193 27.2556 884.126 27.2399C884.058 27.2243 883.991 27.207 883.924 27.1879C883.857 27.1689 883.79 27.1482 883.724 27.1258C883.657 27.1033 883.591 27.0792 883.526 27.0535C883.46 27.0278 883.395 27.0004 883.331 26.9714C883.266 26.9424 883.202 26.9117 883.139 26.8795C883.075 26.8473 883.012 26.8135 882.95 26.7781C882.887 26.7427 882.826 26.7058 882.765 26.6673C882.704 26.6289 882.643 26.5889 882.584 26.5474C882.524 26.506 882.466 26.4632 882.408 26.4188C882.35 26.3744 882.293 26.3286 882.236 26.2814C882.18 26.2343 882.125 26.1857 882.07 26.1358C882.016 26.0859 881.962 26.0346 881.91 25.9821L877.629 21.7013C877.576 21.6487 877.525 21.5952 877.475 21.5408C877.425 21.4863 877.377 21.4309 877.33 21.3747C877.282 21.3184 877.237 21.2613 877.192 21.2033C877.148 21.1454 877.105 21.0866 877.064 21.0271C877.022 20.9675 876.982 20.9073 876.944 20.8463C876.905 20.7853 876.868 20.7236 876.833 20.6613C876.798 20.599 876.764 20.5361 876.732 20.4725C876.699 20.409 876.669 20.345 876.64 20.2804C876.611 20.2158 876.583 20.1507 876.558 20.0852C876.532 20.0196 876.508 19.9537 876.485 19.8873C876.463 19.821 876.442 19.7543 876.423 19.6873C876.404 19.6203 876.387 19.553 876.371 19.4854C876.355 19.4179 876.342 19.3501 876.329 19.2822C876.317 19.2142 876.307 19.1461 876.298 19.0779C876.289 19.0097 876.282 18.9414 876.277 18.8731C876.272 18.8048 876.268 18.7365 876.267 18.6682C876.265 18.5998 876.265 18.5316 876.267 18.4635C876.268 18.3953 876.272 18.3273 876.277 18.2595C876.282 18.1916 876.289 18.124 876.298 18.0566C876.307 17.9891 876.317 17.922 876.33 17.8551C876.342 17.7883 876.356 17.7218 876.371 17.6557C876.387 17.5896 876.404 17.5238 876.423 17.4585C876.442 17.3932 876.463 17.3285 876.486 17.2642C876.508 17.1998 876.532 17.1361 876.558 17.0729C876.584 17.0097 876.611 16.9471 876.64 16.8851C876.669 16.8232 876.7 16.7619 876.732 16.7013C876.764 16.6407 876.798 16.5809 876.833 16.5218C876.869 16.4626 876.906 16.4043 876.944 16.3468C876.983 16.2893 877.023 16.2327 877.064 16.1769C877.106 16.1212 877.148 16.0663 877.193 16.0124C877.237 15.9584 877.283 15.9055 877.33 15.8535C877.377 15.8015 877.426 15.7506 877.476 15.7006C877.526 15.6507 877.577 15.6021 877.629 15.555C877.681 15.5078 877.734 15.462 877.788 15.4176C877.842 15.3732 877.896 15.3303 877.952 15.2888C878.008 15.2474 878.065 15.2074 878.122 15.1689C878.18 15.1305 878.238 15.0935 878.297 15.0581C878.356 15.0228 878.416 14.9889 878.477 14.9567C878.537 14.9244 878.598 14.8938 878.66 14.8648C878.722 14.8357 878.785 14.8083 878.848 14.7826C878.911 14.7568 878.975 14.7327 879.039 14.7103C879.104 14.6879 879.169 14.6671 879.234 14.6481C879.299 14.629 879.365 14.6117 879.431 14.596C879.497 14.5804 879.564 14.5664 879.63 14.5542C879.697 14.542 879.764 14.5316 879.832 14.5228C879.899 14.5141 879.967 14.5071 880.035 14.5018C880.103 14.4966 880.171 14.4931 880.239 14.4913C880.307 14.4896 880.375 14.4896 880.443 14.4913C880.512 14.493 880.58 14.4965 880.648 14.5018C880.717 14.507 880.785 14.514 880.853 14.5227C880.921 14.5314 880.989 14.5419 881.057 14.5541C881.125 14.5663 881.193 14.5802 881.261 14.5958C881.328 14.6115 881.396 14.6288 881.463 14.6478C881.53 14.6669 881.596 14.6876 881.663 14.71C881.729 14.7324 881.795 14.7565 881.86 14.7823C881.926 14.808 881.991 14.8354 882.056 14.8644C882.12 14.8934 882.184 14.924 882.248 14.9563C882.311 14.9885 882.374 15.0223 882.437 15.0577C882.499 15.0931 882.561 15.13 882.622 15.1685C882.683 15.2069 882.743 15.2469 882.802 15.2883C882.862 15.3298 882.921 15.3727 882.979 15.417C883.037 15.4614 883.094 15.5072 883.15 15.5544C883.206 15.6016 883.262 15.6501 883.316 15.7001C883.37 15.7499 883.424 15.8012 883.477 15.8537Z" fill="#FF6584"/>
<path id="upper 1" d="M876.795 35.5867H882.849C882.923 35.5867 882.997 35.5883 883.071 35.5915C883.144 35.5947 883.218 35.5995 883.291 35.606C883.364 35.6124 883.437 35.6204 883.509 35.63C883.582 35.6396 883.654 35.6508 883.725 35.6636C883.796 35.6764 883.867 35.6908 883.938 35.7067C884.008 35.7226 884.078 35.7401 884.147 35.7592C884.216 35.7782 884.284 35.7988 884.352 35.8209C884.42 35.8431 884.487 35.8667 884.553 35.8919C884.619 35.917 884.684 35.9437 884.749 35.9718C884.813 36 884.877 36.0296 884.94 36.0606C885.003 36.0917 885.064 36.1242 885.125 36.1581C885.186 36.192 885.246 36.2274 885.305 36.2641C885.364 36.3008 885.421 36.3389 885.478 36.3783C885.535 36.4177 885.59 36.4585 885.645 36.5005C885.699 36.5426 885.752 36.5859 885.804 36.6305C885.856 36.6752 885.907 36.721 885.957 36.7681C886.006 36.8151 886.054 36.8634 886.101 36.9128C886.148 36.9623 886.194 37.0128 886.238 37.0645C886.282 37.1162 886.325 37.169 886.367 37.2228C886.408 37.2767 886.448 37.3315 886.487 37.3874C886.526 37.4433 886.563 37.5002 886.598 37.558C886.634 37.6159 886.668 37.6746 886.701 37.7342C886.734 37.7939 886.765 37.8544 886.795 37.9157C886.824 37.977 886.852 38.0391 886.879 38.102C886.905 38.1649 886.93 38.2286 886.953 38.2929C886.977 38.3573 886.998 38.4222 887.018 38.4879C887.038 38.5535 887.057 38.6198 887.074 38.6866C887.09 38.7534 887.105 38.8208 887.119 38.8886C887.132 38.9565 887.144 39.0248 887.154 39.0935C887.164 39.1623 887.173 39.2315 887.18 39.3009C887.186 39.3705 887.191 39.4403 887.195 39.5104C887.198 39.5805 887.2 39.6509 887.2 39.7215C887.2 39.7921 887.198 39.8625 887.195 39.9326C887.191 40.0027 887.186 40.0726 887.18 40.1421C887.173 40.2116 887.164 40.2808 887.154 40.3495C887.144 40.4183 887.132 40.4866 887.119 40.5544C887.105 40.6223 887.09 40.6896 887.074 40.7565C887.057 40.8233 887.038 40.8895 887.018 40.9551C886.998 41.0208 886.977 41.0858 886.953 41.1501C886.93 41.2145 886.905 41.2781 886.879 41.341C886.852 41.4039 886.824 41.466 886.795 41.5273C886.765 41.5887 886.734 41.6491 886.701 41.7088C886.668 41.7685 886.634 41.8272 886.598 41.885C886.563 41.9429 886.526 41.9997 886.487 42.0556C886.448 42.1115 886.408 42.1664 886.367 42.2202C886.325 42.274 886.282 42.3268 886.238 42.3785C886.194 42.4302 886.148 42.4808 886.101 42.5302C886.054 42.5797 886.006 42.6279 885.957 42.675C885.907 42.722 885.856 42.7679 885.804 42.8125C885.752 42.8571 885.699 42.9005 885.645 42.9425C885.59 42.9846 885.535 43.0253 885.478 43.0648C885.421 43.1042 885.364 43.1422 885.305 43.179C885.246 43.2157 885.186 43.251 885.125 43.2849C885.064 43.3188 885.003 43.3513 884.94 43.3824C884.877 43.4135 884.813 43.4431 884.749 43.4712C884.684 43.4993 884.619 43.526 884.553 43.5512C884.487 43.5763 884.42 43.5999 884.352 43.6221C884.284 43.6442 884.216 43.6648 884.147 43.6839C884.078 43.7029 884.008 43.7204 883.938 43.7364C883.867 43.7523 883.796 43.7666 883.725 43.7794C883.654 43.7922 883.582 43.8034 883.509 43.813C883.437 43.8227 883.364 43.8307 883.291 43.8371C883.218 43.8435 883.144 43.8483 883.071 43.8515C882.997 43.8547 882.923 43.8564 882.849 43.8564H876.795C876.72 43.8564 876.646 43.8547 876.572 43.8515C876.499 43.8483 876.425 43.8435 876.352 43.8371C876.279 43.8307 876.206 43.8227 876.134 43.813C876.061 43.8034 875.989 43.7922 875.918 43.7794C875.847 43.7666 875.776 43.7523 875.705 43.7364C875.635 43.7204 875.565 43.7029 875.496 43.6839C875.427 43.6648 875.359 43.6442 875.291 43.6221C875.223 43.5999 875.156 43.5763 875.09 43.5512C875.024 43.526 874.959 43.4993 874.894 43.4712C874.83 43.4431 874.766 43.4135 874.703 43.3824C874.64 43.3513 874.579 43.3188 874.518 43.2849C874.457 43.251 874.397 43.2157 874.338 43.179C874.279 43.1422 874.222 43.1042 874.165 43.0648C874.108 43.0253 874.053 42.9846 873.998 42.9425C873.944 42.9005 873.891 42.8571 873.839 42.8125C873.787 42.7679 873.736 42.722 873.686 42.675C873.637 42.6279 873.589 42.5797 873.542 42.5302C873.495 42.4808 873.449 42.4302 873.405 42.3785C873.361 42.3268 873.318 42.274 873.276 42.2202C873.235 42.1664 873.195 42.1115 873.156 42.0556C873.117 41.9997 873.08 41.9429 873.045 41.885C873.009 41.8272 872.975 41.7685 872.942 41.7088C872.909 41.6491 872.878 41.5887 872.848 41.5273C872.819 41.466 872.791 41.4039 872.764 41.341C872.738 41.2781 872.713 41.2145 872.69 41.1501C872.666 41.0858 872.645 41.0208 872.625 40.9551C872.605 40.8895 872.586 40.8233 872.569 40.7565C872.553 40.6896 872.538 40.6223 872.524 40.5544C872.511 40.4866 872.499 40.4183 872.489 40.3495C872.479 40.2808 872.47 40.2116 872.463 40.1421C872.457 40.0726 872.452 40.0027 872.448 39.9326C872.445 39.8625 872.443 39.7921 872.443 39.7215C872.443 39.6509 872.445 39.5805 872.448 39.5104C872.452 39.4403 872.457 39.3705 872.463 39.3009C872.47 39.2315 872.479 39.1623 872.489 39.0935C872.499 39.0248 872.511 38.9565 872.524 38.8886C872.538 38.8208 872.553 38.7534 872.569 38.6866C872.586 38.6198 872.605 38.5535 872.625 38.4879C872.645 38.4222 872.666 38.3573 872.69 38.2929C872.713 38.2286 872.738 38.1649 872.764 38.102C872.791 38.0391 872.819 37.977 872.848 37.9157C872.878 37.8544 872.909 37.7939 872.942 37.7342C872.975 37.6746 873.009 37.6159 873.045 37.558C873.08 37.5002 873.117 37.4433 873.156 37.3874C873.195 37.3315 873.235 37.2767 873.276 37.2228C873.318 37.169 873.361 37.1162 873.405 37.0645C873.449 37.0128 873.495 36.9623 873.542 36.9128C873.589 36.8634 873.637 36.8151 873.686 36.7681C873.736 36.721 873.787 36.6752 873.839 36.6305C873.891 36.5859 873.944 36.5426 873.998 36.5005C874.053 36.4585 874.108 36.4177 874.165 36.3783C874.222 36.3389 874.279 36.3008 874.338 36.2641C874.397 36.2274 874.457 36.192 874.518 36.1581C874.579 36.1242 874.64 36.0917 874.703 36.0606C874.766 36.0296 874.83 36 874.894 35.9718C874.959 35.9437 875.024 35.917 875.09 35.8919C875.156 35.8667 875.223 35.8431 875.291 35.8209C875.359 35.7988 875.427 35.7782 875.496 35.7592C875.565 35.7401 875.635 35.7226 875.705 35.7067C875.776 35.6908 875.847 35.6764 875.918 35.6636C875.989 35.6508 876.061 35.6396 876.134 35.63C876.206 35.6204 876.279 35.6124 876.352 35.606C876.425 35.5995 876.499 35.5947 876.572 35.5915C876.646 35.5883 876.72 35.5867 876.795 35.5867Z" fill="#66657A"/>
<path id="lower 3" d="M878.069 84.1078L898.136 64.0412C898.188 63.9887 898.242 63.9375 898.296 63.8876C898.351 63.8376 898.406 63.7891 898.463 63.7419C898.519 63.6948 898.576 63.649 898.634 63.6046C898.692 63.5602 898.751 63.5173 898.81 63.4759C898.87 63.4344 898.93 63.3944 898.991 63.356C899.052 63.3176 899.114 63.2806 899.176 63.2453C899.238 63.2099 899.301 63.1761 899.365 63.1438C899.428 63.1116 899.492 63.081 899.557 63.0519C899.621 63.0229 899.687 62.9955 899.752 62.9698C899.818 62.9441 899.884 62.92 899.95 62.8976C900.016 62.8752 900.083 62.8544 900.15 62.8354C900.217 62.8164 900.284 62.799 900.352 62.7834C900.419 62.7677 900.487 62.7538 900.555 62.7417C900.623 62.7294 900.691 62.719 900.759 62.7103C900.827 62.7016 900.896 62.6945 900.964 62.6893C901.032 62.6841 901.101 62.6806 901.169 62.6788C901.237 62.6771 901.306 62.6771 901.374 62.6789C901.442 62.6806 901.51 62.6841 901.578 62.6893C901.646 62.6946 901.713 62.7016 901.781 62.7103C901.848 62.7191 901.915 62.7295 901.982 62.7418C902.049 62.754 902.115 62.7679 902.182 62.7835C902.248 62.7992 902.313 62.8165 902.379 62.8356C902.444 62.8547 902.509 62.8754 902.573 62.8978C902.637 62.9203 902.701 62.9443 902.764 62.9701C902.827 62.9959 902.89 63.0233 902.952 63.0523C903.014 63.0813 903.075 63.1119 903.136 63.1442C903.196 63.1765 903.256 63.2102 903.315 63.2457C903.375 63.281 903.433 63.318 903.49 63.3564C903.548 63.3949 903.604 63.4349 903.66 63.4763C903.716 63.5177 903.771 63.5607 903.825 63.605C903.879 63.6495 903.932 63.6952 903.984 63.7424C904.036 63.7896 904.087 63.8382 904.137 63.8881C904.186 63.9381 904.235 63.989 904.282 64.0409C904.329 64.0929 904.375 64.1459 904.42 64.1998C904.464 64.2538 904.507 64.3086 904.548 64.3644C904.59 64.4202 904.63 64.4768 904.668 64.5343C904.707 64.5918 904.744 64.6501 904.779 64.7092C904.814 64.7683 904.848 64.8282 904.88 64.8888C904.913 64.9493 904.943 65.0106 904.972 65.0726C905.001 65.1346 905.029 65.1972 905.055 65.2603C905.08 65.3236 905.104 65.3873 905.127 65.4516C905.149 65.5159 905.17 65.5807 905.189 65.646C905.208 65.7113 905.225 65.777 905.241 65.8431C905.257 65.9093 905.271 65.9758 905.283 66.0426C905.295 66.1094 905.306 66.1766 905.314 66.244C905.323 66.3114 905.33 66.379 905.335 66.4469C905.341 66.5147 905.344 66.5827 905.346 66.6509C905.348 66.719 905.348 66.7873 905.346 66.8556C905.344 66.9239 905.341 66.9922 905.335 67.0605C905.33 67.1288 905.323 67.1972 905.314 67.2654C905.306 67.3336 905.295 67.4016 905.283 67.4696C905.271 67.5375 905.257 67.6053 905.241 67.6728C905.226 67.7404 905.208 67.8077 905.189 67.8747C905.17 67.9417 905.149 68.0084 905.127 68.0748C905.105 68.1411 905.081 68.2071 905.055 68.2726C905.029 68.3381 905.002 68.4032 904.973 68.4678C904.944 68.5324 904.913 68.5965 904.881 68.66C904.849 68.7235 904.815 68.7864 904.779 68.8488C904.744 68.911 904.707 68.9727 904.669 69.0337C904.63 69.0947 904.59 69.155 904.549 69.2145C904.507 69.2741 904.464 69.3328 904.42 69.3907C904.376 69.4487 904.33 69.5059 904.283 69.5621C904.236 69.6184 904.187 69.6737 904.137 69.7282C904.087 69.7827 904.036 69.8362 903.983 69.8887L883.917 89.9552C883.864 90.0078 883.811 90.059 883.756 90.1089C883.702 90.1588 883.647 90.2074 883.59 90.2546C883.534 90.3017 883.477 90.3475 883.419 90.3919C883.361 90.4363 883.302 90.4792 883.243 90.5206C883.183 90.5621 883.123 90.602 883.062 90.6405C883.001 90.6789 882.939 90.7159 882.877 90.7512C882.815 90.7866 882.752 90.8204 882.688 90.8526C882.625 90.8849 882.561 90.9155 882.496 90.9445C882.431 90.9735 882.366 91.0009 882.301 91.0267C882.235 91.0524 882.169 91.0765 882.103 91.0989C882.037 91.1213 881.97 91.142 881.903 91.1611C881.836 91.1801 881.769 91.1975 881.701 91.2131C881.633 91.2287 881.566 91.2427 881.498 91.2549C881.43 91.267 881.362 91.2775 881.294 91.2862C881.225 91.295 881.157 91.3019 881.089 91.3072C881.02 91.3124 880.952 91.3159 880.884 91.3176C880.815 91.3194 880.747 91.3194 880.679 91.3176C880.611 91.3159 880.543 91.3124 880.475 91.3071C880.407 91.3019 880.34 91.2949 880.272 91.2861C880.205 91.2774 880.138 91.2669 880.071 91.2547C880.004 91.2425 879.937 91.2286 879.871 91.2129C879.805 91.1973 879.739 91.1799 879.674 91.1609C879.609 91.1418 879.544 91.1211 879.48 91.0987C879.415 91.0762 879.352 91.0522 879.289 91.0264C879.225 91.0006 879.163 90.9732 879.101 90.9442C879.039 90.9152 878.978 90.8845 878.917 90.8523C878.856 90.8201 878.796 90.7863 878.737 90.7509C878.678 90.7155 878.62 90.6785 878.562 90.6401C878.505 90.6016 878.448 90.5616 878.393 90.5202C878.337 90.4787 878.282 90.4358 878.228 90.3914C878.174 90.347 878.121 90.3012 878.069 90.254C878.017 90.2069 877.966 90.1583 877.916 90.1084C877.866 90.0584 877.818 90.0075 877.771 89.9555C877.723 89.9035 877.678 89.8506 877.633 89.7966C877.589 89.7427 877.546 89.6879 877.504 89.6321C877.463 89.5763 877.423 89.5197 877.385 89.4622C877.346 89.4047 877.309 89.3464 877.274 89.2873C877.238 89.2282 877.205 89.1683 877.172 89.1077C877.14 89.0471 877.109 88.9858 877.08 88.9239C877.051 88.8619 877.024 88.7993 876.998 88.7361C876.973 88.6729 876.948 88.6092 876.926 88.5449C876.904 88.4806 876.883 88.4158 876.864 88.3505C876.845 88.2852 876.827 88.2195 876.812 88.1533C876.796 88.0872 876.782 88.0207 876.77 87.9539C876.758 87.887 876.747 87.8199 876.739 87.7525C876.73 87.6851 876.723 87.6174 876.718 87.5496C876.712 87.4817 876.709 87.4137 876.707 87.3456C876.705 87.2774 876.705 87.2092 876.707 87.1409C876.709 87.0726 876.712 87.0043 876.717 86.9359C876.723 86.8676 876.73 86.7993 876.738 86.7311C876.747 86.6629 876.758 86.5948 876.77 86.5269C876.782 86.4589 876.796 86.3912 876.812 86.3236C876.827 86.2561 876.845 86.1888 876.864 86.1218C876.883 86.0547 876.903 85.9881 876.926 85.9217C876.948 85.8554 876.972 85.7894 876.998 85.7239C877.024 85.6584 877.051 85.5933 877.08 85.5287C877.109 85.4641 877.14 85.4 877.172 85.3365C877.204 85.273 877.238 85.2101 877.273 85.1477C877.309 85.0854 877.346 85.0238 877.384 84.9628C877.423 84.9018 877.463 84.8415 877.504 84.782C877.545 84.7224 877.588 84.6637 877.633 84.6057C877.677 84.5477 877.723 84.4906 877.77 84.4344C877.817 84.3781 877.866 84.3227 877.916 84.2683C877.966 84.2138 878.017 84.1603 878.069 84.1078Z" fill="#F9A825"/>
<path id="lower 2" d="M863.021 63.9903L883.088 84.0568C883.14 84.1093 883.191 84.1628 883.241 84.2173C883.291 84.2717 883.34 84.3271 883.387 84.3834C883.434 84.4396 883.48 84.4968 883.524 84.5547C883.569 84.6127 883.612 84.6714 883.653 84.731C883.694 84.7905 883.734 84.8508 883.773 84.9118C883.811 84.9728 883.848 85.0344 883.884 85.0967C883.919 85.1591 883.953 85.222 883.985 85.2855C884.017 85.349 884.048 85.4131 884.077 85.4777C884.106 85.5423 884.133 85.6074 884.159 85.6729C884.185 85.7384 884.209 85.8043 884.231 85.8707C884.254 85.9371 884.274 86.0038 884.293 86.0707C884.312 86.1378 884.33 86.205 884.345 86.2727C884.361 86.3402 884.375 86.4079 884.387 86.4759C884.399 86.5439 884.41 86.6119 884.419 86.6801C884.427 86.7483 884.434 86.8166 884.439 86.8849C884.445 86.9533 884.448 87.0216 884.45 87.0899C884.452 87.1582 884.452 87.2264 884.45 87.2946C884.448 87.3628 884.445 87.4308 884.439 87.4986C884.434 87.5665 884.427 87.6341 884.418 87.7015C884.41 87.769 884.399 87.8361 884.387 87.9029C884.375 87.9698 884.361 88.0363 884.345 88.1024C884.33 88.1685 884.312 88.2342 884.293 88.2995C884.274 88.3648 884.253 88.4296 884.231 88.4939C884.209 88.5582 884.184 88.622 884.159 88.6852C884.133 88.7484 884.106 88.811 884.077 88.8729C884.048 88.9349 884.017 88.9961 883.985 89.0568C883.952 89.1173 883.919 89.1772 883.883 89.2363C883.848 89.2954 883.811 89.3537 883.772 89.4112C883.734 89.4687 883.694 89.5254 883.652 89.5811C883.611 89.6369 883.568 89.6918 883.524 89.7457C883.479 89.7996 883.434 89.8526 883.386 89.9045C883.339 89.9565 883.291 90.0075 883.241 90.0574C883.191 90.1074 883.14 90.1559 883.088 90.2031C883.036 90.2503 882.983 90.2961 882.929 90.3405C882.875 90.3849 882.82 90.4277 882.764 90.4692C882.709 90.5107 882.652 90.5507 882.595 90.5892C882.537 90.6276 882.479 90.6645 882.42 90.6999C882.36 90.7353 882.301 90.7691 882.24 90.8014C882.179 90.8336 882.118 90.8643 882.056 90.8933C881.994 90.9223 881.932 90.9497 881.868 90.9754C881.805 91.0013 881.741 91.0253 881.677 91.0477C881.613 91.0702 881.548 91.0909 881.483 91.1099C881.417 91.129 881.352 91.1464 881.286 91.1621C881.22 91.1777 881.153 91.1916 881.086 91.2038C881.019 91.216 880.952 91.2265 880.885 91.2352C880.817 91.244 880.75 91.2509 880.682 91.2562C880.614 91.2615 880.546 91.265 880.478 91.2667C880.41 91.2684 880.341 91.2685 880.273 91.2668C880.205 91.265 880.137 91.2615 880.068 91.2562C880 91.251 879.932 91.244 879.863 91.2353C879.795 91.2266 879.727 91.2162 879.659 91.204C879.591 91.1917 879.523 91.1779 879.456 91.1623C879.388 91.1466 879.321 91.1293 879.254 91.1102C879.187 91.0912 879.12 91.0704 879.054 91.048C878.988 91.0256 878.922 91.0015 878.856 90.9758C878.791 90.95 878.726 90.9227 878.661 90.8937C878.596 90.8647 878.532 90.834 878.469 90.8018C878.405 90.7696 878.342 90.7357 878.28 90.7003C878.218 90.665 878.156 90.6281 878.095 90.5896C878.034 90.5512 877.974 90.5112 877.914 90.4697C877.855 90.4283 877.796 90.3854 877.738 90.341C877.68 90.2967 877.623 90.2508 877.567 90.2037C877.51 90.1565 877.455 90.1079 877.4 90.058C877.346 90.0081 877.293 89.9569 877.24 89.9044L857.173 69.8378C857.121 69.7853 857.07 69.7318 857.02 69.6774C856.97 69.6229 856.921 69.5675 856.874 69.5112C856.827 69.455 856.781 69.3979 856.737 69.3399C856.692 69.2819 856.65 69.2232 856.608 69.1637C856.567 69.1041 856.527 69.0438 856.488 68.9828C856.45 68.9219 856.413 68.8602 856.378 68.7979C856.342 68.7356 856.308 68.6726 856.276 68.6091C856.244 68.5456 856.213 68.4815 856.184 68.4169C856.155 68.3523 856.128 68.2873 856.102 68.2217C856.076 68.1562 856.052 68.0902 856.03 68.0239C856.007 67.9575 855.987 67.8909 855.968 67.8239C855.949 67.7568 855.931 67.6896 855.916 67.622C855.9 67.5544 855.886 67.4867 855.874 67.4187C855.862 67.3508 855.851 67.2827 855.843 67.2145C855.834 67.1463 855.827 67.078 855.822 67.0097C855.816 66.9414 855.813 66.873 855.811 66.8047C855.809 66.7364 855.809 66.6682 855.811 66.6C855.813 66.5319 855.816 66.4639 855.822 66.396C855.827 66.3281 855.834 66.2605 855.843 66.1931C855.851 66.1257 855.862 66.0586 855.874 65.9917C855.886 65.9249 855.9 65.8584 855.916 65.7922C855.931 65.7261 855.949 65.6604 855.968 65.5951C855.987 65.5298 856.008 65.465 856.03 65.4007C856.053 65.3364 856.077 65.2727 856.102 65.2094C856.128 65.1462 856.156 65.0837 856.185 65.0217C856.214 64.9597 856.244 64.8985 856.276 64.8378C856.309 64.7773 856.343 64.7174 856.378 64.6583C856.413 64.5992 856.45 64.5409 856.489 64.4834C856.527 64.4259 856.567 64.3693 856.609 64.3135C856.65 64.2577 856.693 64.2029 856.737 64.1489C856.782 64.095 856.828 64.042 856.875 63.9901C856.922 63.9381 856.97 63.8871 857.02 63.8372C857.07 63.7873 857.121 63.7387 857.173 63.6915C857.225 63.6443 857.278 63.5985 857.332 63.5541C857.386 63.5098 857.441 63.4668 857.497 63.4254C857.552 63.3839 857.609 63.3439 857.667 63.3055C857.724 63.267 857.782 63.2301 857.842 63.1947C857.901 63.1593 857.961 63.1255 858.021 63.0932C858.082 63.061 858.143 63.0304 858.205 63.0013C858.267 62.9723 858.329 62.9449 858.393 62.9192C858.456 62.8934 858.52 62.8693 858.584 62.8469C858.648 62.8244 858.713 62.8037 858.778 62.7846C858.844 62.7656 858.909 62.7482 858.975 62.7326C859.042 62.7169 859.108 62.703 859.175 62.6908C859.242 62.6786 859.309 62.6681 859.376 62.6594C859.444 62.6507 859.511 62.6437 859.579 62.6384C859.647 62.6332 859.715 62.6297 859.783 62.6279C859.851 62.6261 859.92 62.6261 859.988 62.6279C860.056 62.6296 860.125 62.6331 860.193 62.6383C860.261 62.6436 860.33 62.6506 860.398 62.6593C860.466 62.668 860.534 62.6785 860.602 62.6907C860.67 62.7028 860.738 62.7168 860.805 62.7324C860.873 62.748 860.94 62.7654 861.007 62.7844C861.074 62.8035 861.141 62.8242 861.207 62.8466C861.273 62.869 861.339 62.8931 861.405 62.9188C861.471 62.9446 861.536 62.972 861.6 63.001C861.665 63.03 861.729 63.0606 861.792 63.0928C861.856 63.1251 861.919 63.1589 861.981 63.1943C862.043 63.2296 862.105 63.2665 862.166 63.305C862.227 63.3435 862.287 63.3834 862.347 63.4249C862.406 63.4663 862.465 63.5092 862.523 63.5536C862.581 63.598 862.638 63.6438 862.694 63.6909C862.751 63.7381 862.806 63.7867 862.861 63.8366C862.915 63.8865 862.969 63.9377 863.021 63.9903Z" fill="#F9A825"/>
<path id="lower 1" d="M859.767 62.1934H900.254C900.329 62.1934 900.402 62.195 900.476 62.1982C900.55 62.2014 900.623 62.2062 900.697 62.2126C900.77 62.2191 900.843 62.2271 900.915 62.2367C900.987 62.2463 901.059 62.2575 901.131 62.2703C901.202 62.2831 901.273 62.2974 901.343 62.3134C901.413 62.3293 901.483 62.3468 901.552 62.3659C901.621 62.3849 901.69 62.4055 901.757 62.4276C901.825 62.4498 901.892 62.4734 901.958 62.4986C902.024 62.5237 902.09 62.5504 902.154 62.5785C902.219 62.6067 902.283 62.6363 902.345 62.6673C902.408 62.6984 902.47 62.7309 902.531 62.7648C902.591 62.7987 902.651 62.8341 902.71 62.8708C902.769 62.9075 902.827 62.9455 902.884 62.985C902.94 63.0244 902.996 63.0652 903.05 63.1072C903.105 63.1493 903.158 63.1926 903.21 63.2372C903.262 63.2818 903.313 63.3277 903.362 63.3748C903.412 63.4218 903.46 63.4701 903.507 63.5195C903.554 63.5689 903.599 63.6195 903.643 63.6712C903.688 63.7229 903.731 63.7757 903.772 63.8295C903.814 63.8834 903.854 63.9382 903.893 63.9941C903.931 64.05 903.968 64.1069 904.004 64.1647C904.04 64.2225 904.074 64.2813 904.107 64.3409C904.139 64.4006 904.17 64.4611 904.2 64.5224C904.229 64.5837 904.257 64.6458 904.284 64.7087C904.311 64.7716 904.335 64.8353 904.359 64.8996C904.382 64.9639 904.404 65.0289 904.424 65.0946C904.444 65.1602 904.462 65.2265 904.479 65.2933C904.496 65.3601 904.511 65.4274 904.524 65.4953C904.538 65.5632 904.55 65.6315 904.56 65.7002C904.57 65.769 904.578 65.8381 904.585 65.9077C904.592 65.9771 904.597 66.047 904.6 66.1171C904.604 66.1872 904.605 66.2576 904.605 66.3282C904.605 66.3988 904.604 66.4692 904.6 66.5393C904.597 66.6094 904.592 66.6793 904.585 66.7488C904.578 66.8183 904.57 66.8874 904.56 66.9562C904.55 67.0249 904.538 67.0932 904.524 67.1611C904.511 67.229 904.496 67.2963 904.479 67.3631C904.462 67.43 904.444 67.4962 904.424 67.5618C904.404 67.6275 904.382 67.6925 904.359 67.7568C904.335 67.8212 904.311 67.8848 904.284 67.9477C904.257 68.0106 904.229 68.0727 904.2 68.134C904.17 68.1954 904.139 68.2559 904.107 68.3155C904.074 68.3751 904.04 68.4339 904.004 68.4917C903.968 68.5495 903.931 68.6064 903.893 68.6623C903.854 68.7182 903.814 68.7731 903.772 68.8269C903.731 68.8807 903.688 68.9335 903.643 68.9852C903.599 69.0369 903.554 69.0875 903.507 69.1369C903.46 69.1863 903.412 69.2346 903.362 69.2817C903.313 69.3287 903.262 69.3746 903.21 69.4192C903.158 69.4638 903.105 69.5072 903.05 69.5492C902.996 69.5913 902.94 69.632 902.884 69.6715C902.827 69.7109 902.769 69.7489 902.71 69.7856C902.651 69.8224 902.591 69.8577 902.531 69.8916C902.47 69.9255 902.408 69.958 902.345 69.9891C902.283 70.0201 902.219 70.0498 902.154 70.0779C902.09 70.1061 902.024 70.1327 901.958 70.1579C901.892 70.183 901.825 70.2067 901.757 70.2288C901.69 70.2509 901.621 70.2715 901.552 70.2905C901.483 70.3096 901.413 70.3271 901.343 70.343C901.273 70.359 901.202 70.3733 901.131 70.3861C901.059 70.3989 900.987 70.4101 900.915 70.4197C900.843 70.4293 900.77 70.4374 900.697 70.4438C900.623 70.4502 900.55 70.455 900.476 70.4582C900.402 70.4614 900.329 70.463 900.254 70.463H859.767C859.693 70.463 859.619 70.4614 859.545 70.4582C859.472 70.455 859.398 70.4502 859.325 70.4438C859.252 70.4374 859.179 70.4293 859.107 70.4197C859.034 70.4101 858.962 70.3989 858.891 70.3862C858.82 70.3733 858.749 70.359 858.678 70.343C858.608 70.3271 858.538 70.3096 858.469 70.2905C858.4 70.2715 858.332 70.2509 858.264 70.2288C858.196 70.2067 858.129 70.183 858.063 70.1579C857.997 70.1327 857.932 70.1061 857.867 70.0779C857.803 70.0498 857.739 70.0201 857.676 69.9891C857.613 69.958 857.552 69.9255 857.491 69.8916C857.43 69.8577 857.37 69.8224 857.311 69.7856C857.252 69.7489 857.195 69.7109 857.138 69.6715C857.081 69.632 857.026 69.5913 856.971 69.5492C856.917 69.5072 856.864 69.4638 856.812 69.4192C856.76 69.3746 856.709 69.3287 856.659 69.2817C856.61 69.2346 856.562 69.1863 856.515 69.1369C856.468 69.0875 856.422 69.0369 856.378 68.9852C856.334 68.9335 856.291 68.8807 856.249 68.8269C856.208 68.7731 856.168 68.7182 856.129 68.6623C856.09 68.6064 856.053 68.5495 856.017 68.4917C855.982 68.4339 855.948 68.3751 855.915 68.3155C855.882 68.2559 855.851 68.1954 855.821 68.134C855.792 68.0727 855.764 68.0106 855.737 67.9477C855.711 67.8848 855.686 67.8212 855.663 67.7568C855.639 67.6925 855.618 67.6275 855.598 67.5618C855.578 67.4962 855.559 67.43 855.542 67.3631C855.526 67.2963 855.511 67.229 855.497 67.1611C855.484 67.0932 855.472 67.0249 855.462 66.9562C855.452 66.8874 855.443 66.8183 855.436 66.7488C855.43 66.6793 855.425 66.6094 855.421 66.5393C855.418 66.4692 855.416 66.3988 855.416 66.3282C855.416 66.2576 855.418 66.1872 855.421 66.1171C855.425 66.047 855.43 65.9771 855.436 65.9077C855.443 65.8381 855.452 65.769 855.462 65.7002C855.472 65.6315 855.484 65.5632 855.497 65.4953C855.511 65.4274 855.526 65.3601 855.542 65.2933C855.559 65.2265 855.578 65.1602 855.598 65.0946C855.618 65.0289 855.639 64.9639 855.663 64.8996C855.686 64.8353 855.711 64.7716 855.737 64.7087C855.764 64.6458 855.792 64.5837 855.821 64.5224C855.851 64.4611 855.882 64.4006 855.915 64.3409C855.948 64.2813 855.982 64.2225 856.017 64.1647C856.053 64.1069 856.09 64.05 856.129 63.9941C856.168 63.9382 856.208 63.8834 856.249 63.8295C856.291 63.7757 856.334 63.7229 856.378 63.6712C856.422 63.6195 856.468 63.5689 856.515 63.5195C856.562 63.4701 856.61 63.4218 856.659 63.3748C856.709 63.3277 856.76 63.2818 856.812 63.2372C856.864 63.1926 856.917 63.1493 856.971 63.1072C857.026 63.0652 857.081 63.0244 857.138 62.985C857.195 62.9455 857.252 62.9075 857.311 62.8708C857.37 62.8341 857.43 62.7987 857.491 62.7648C857.552 62.7309 857.613 62.6984 857.676 62.6673C857.739 62.6363 857.803 62.6067 857.867 62.5785C857.932 62.5504 857.997 62.5237 858.063 62.4986C858.129 62.4734 858.196 62.4498 858.264 62.4276C858.332 62.4055 858.4 62.3849 858.469 62.3659C858.538 62.3468 858.608 62.3293 858.678 62.3134C858.749 62.2974 858.82 62.2831 858.891 62.2703C858.962 62.2575 859.034 62.2463 859.107 62.2367C859.179 62.2271 859.252 62.2191 859.325 62.2126C859.398 62.2062 859.472 62.2014 859.545 62.1982C859.619 62.195 859.693 62.1934 859.767 62.1934Z" fill="#F9A825"/>
</g>
</g>
</g>
</svg>
