<?xml version="1.0" encoding="utf-8"?>
<svg width="75px" height="89px" viewBox="0 0 75 89" version="1.1" xmlns:xlink="http://www.w3.org/1999/xlink" xmlns="http://www.w3.org/2000/svg">
  <desc>Created with Lunacy</desc>
  <g id="documents">
    <g id="noun_Document_1212460">
      <path d="M64.5 10L63 10C62.7 4.4 58.1 0 52.5 0L20.4 0C19.7 0 19.1 0.3 18.6 0.8L0.7 19C0.2 19.5 0 20.1 0 20.7L0 66.5C0 72.1 4.4 76.7 10 77L10 78.5C10 84.3 14.7 89 20.5 89L64.5 89C70.3 89 75 84.3 75 78.5L75 20.5C75 14.7 70.3 10 64.5 10ZM18 8.5L7.7 19L16.5 19C17.3 19 18 18.3 18 17.5L18 8.5ZM64.5 84C67.5 84 70 81.5 70 78.5L70 20.5C70 17.5 67.5 15 64.5 15L63 15L63 66.5C63 72.3 58.3 77 52.5 77L15 77L15 78.5C15 81.5 17.5 84 20.5 84L64.5 84ZM27.5 33C28.9 33 30 34.1 30 35.5C30 36.9 28.9 38 27.5 38L17.5 38C16.1 38 15 36.9 15 35.5C15 34.1 16.1 33 17.5 33L27.5 33ZM45.5 50C46.9 50 48 48.9 48 47.5C48 46.1 46.9 45 45.5 45L17.5 45C16.1 45 15 46.1 15 47.5C15 48.9 16.1 50 17.5 50L45.5 50ZM45.5 62C46.9 62 48 60.9 48 59.5C48 58.1 46.9 57 45.5 57L17.5 57C16.1 57 15 58.1 15 59.5C15 60.9 16.1 62 17.5 62L45.5 62Z" id="Shape" fill="#66657A" fill-rule="evenodd" stroke="none" />
    </g>
  </g>
</svg>