<?xml version="1.0" encoding="utf-8"?>
<svg width="55px" height="74px" viewBox="0 0 55 74" version="1.1" xmlns:xlink="http://www.w3.org/1999/xlink" xmlns="http://www.w3.org/2000/svg">
  <desc>Created with Lunacy</desc>
  <g id="process-user">
    <g id="process-user">
      <g id="noun_people_2196504">
        <path d="M27.19 0C12.19 0 0 12.69 0 28.35C-0.00227165 30.2469 0.178392 32.1424 0.53949 34.0074L53.85 34.0074C54.2064 32.1417 54.3872 30.2468 54.39 28.3474C54.39 12.69 42.21 0 27.19 0L27.19 0L27.19 0L27.19 0Z" transform="translate(0 39.36621)" id="Shape" fill="#66657A" stroke="none" />
        <path d="M0 15.55C0 6.96197 6.96197 0 15.55 0C24.138 0 31.1 6.96197 31.1 15.55C31.1 24.138 24.138 31.1 15.55 31.1C6.96197 31.1 0 24.138 0 15.55L0 15.55L0 15.55Z" transform="matrix(0.8662871 -0.4995465 0.4995465 0.8662871 5.961029 15.5359)" id="Circle" fill="#66657A" stroke="none" />
      </g>
    </g>
  </g>
</svg>