<?xml version="1.0" encoding="utf-8"?>
<svg width="90px" height="74px" viewBox="0 0 90 74" version="1.1" xmlns:xlink="http://www.w3.org/1999/xlink" xmlns="http://www.w3.org/2000/svg">
  <desc>Created with Lunacy</desc>
  <g id="process-multiuser">
    <g id="process-multiuser">
      <g id="noun_people_2196504">
        <path d="M27.19 0C12.19 0 0 12.69 0 28.35C-0.00227165 30.2469 0.178392 32.1424 0.53949 34.0074L53.85 34.0074C54.2064 32.1417 54.3872 30.2468 54.39 28.3474C54.39 12.69 42.21 0 27.19 0L27.19 0L27.19 0L27.19 0Z" transform="translate(17.54 39.36621)" id="Shape" fill="#66657A" stroke="none" />
        <path d="M0 15.55C0 6.96197 6.96197 0 15.55 0C24.138 0 31.1 6.96197 31.1 15.55C31.1 24.138 24.138 31.1 15.55 31.1C6.96197 31.1 0 24.138 0 15.55L0 15.55L0 15.55Z" transform="matrix(0.8662871 -0.4995465 0.4995465 0.8662871 23.50103 15.5359)" id="Circle" fill="#66657A" stroke="none" />
        <path d="M2.11001 19.3387C7.45686 23.2243 14.9262 22.1408 18.9487 16.8962C22.9712 11.6516 22.0813 4.15678 16.9425 0C11.8036 -4.15678 4.28827 -3.46094 0 1.5687C3.78626 6.72507 4.58736 13.4907 2.11 19.3887L2.11001 19.3387L2.11001 19.3387L2.11001 19.3387Z" transform="translate(59.42999 8.967502)" id="Shape" fill="#66657A" stroke="none" />
        <path d="M14.14 0C8.89165 0.010376 3.84105 2.00347 0 5.58C0.630001 5.81 1.25 6.05 1.86 6.32C5.43082 7.91166 8.65495 10.1879 11.35 13.02C15.0404 16.8455 17.6761 21.5622 19 26.71L35 26.71C35.2941 25.2412 35.4481 23.7479 35.46 22.25C35.46 9.98 25.91 0 14.14 0L14.14 0L14.14 0L14.14 0Z" transform="translate(54.54 32.82619)" id="Shape" fill="#66657A" stroke="none" />
        <path d="M33.07 6.34001C33.81 6.01001 34.55 5.71001 35.31 5.45001C31.4858 1.95177 26.4929 0.00808716 21.31 0C9.55 7.62939e-06 0 9.98001 0 22.25C0.00200081 23.7463 0.145939 25.2396 0.429876 26.7094L15.92 26.7094C17.2466 21.5597 19.8818 16.8404 23.57 13.0094C26.2723 10.189 29.4994 7.92348 33.07 6.34001L33.07 6.34001L33.07 6.34001L33.07 6.34001Z" transform="translate(0 32.82619)" id="Shape" fill="#66657A" stroke="none" />
        <path d="M11.8171 22.8846C14.2118 22.8973 16.5569 22.2015 18.5571 20.8846C15.8798 14.7982 16.7348 7.73625 20.7871 2.46459C17.0096 -1.63519 10.9322 -2.65001 6.02763 0C1.12303 2.65001 -1.35891 8.28954 0 13.6961C1.35891 19.1027 6.21238 22.8985 11.7871 22.9146L11.8171 22.8846L11.8171 22.8846L11.8171 22.8846Z" transform="translate(9.502922 7.731601)" id="Shape" fill="#66657A" stroke="none" />
      </g>
    </g>
  </g>
</svg>