<?xml version="1.0" encoding="utf-8"?>
<svg width="301px" height="301px" viewBox="0 0 301 301" version="1.1" xmlns:xlink="http://www.w3.org/1999/xlink" xmlns="http://www.w3.org/2000/svg">
  <desc>Created with Lunacy</desc>
  <g id="process">
    <g id="noun_Data_2994666">
      <path d="M266.2 116.2C248.9 116.2 234.7 129.2 232.7 146L198.5 146C197.7 135.6 193.5 126 187.1 118.5L235.4 70.2C244 76.1 255.8 75.3 263.4 67.6C272 59 272 45.1 263.4 36.5C254.8 27.9 240.9 27.9 232.3 36.5C224.7 44.1 223.8 55.9 229.7 64.5L181.4 112.8C173.9 106.4 164.3 102.3 153.9 101.4L153.9 67.3C170.7 65.3 183.7 51.1 183.7 33.8C183.8 15.1 168.6 0 150 0C131.4 0 116.2 15.1 116.2 33.8C116.2 51.1 129.2 65.3 146 67.3L146 101.5C135.6 102.3 126 106.5 118.5 112.9L110 104.4C115.9 95.8 115.1 84 107.4 76.4C98.8 67.8 84.9 67.8 76.3 76.4C67.7 85 67.7 98.9 76.3 107.5C83.9 115.1 95.7 116 104.3 110.1L112.8 118.6C106.4 126.1 102.3 135.7 101.4 146.1L67.3 146.1C65.3 129.3 51.1 116.3 33.8 116.3C15.1 116.2 0 131.4 0 150C0 168.6 15.1 183.8 33.8 183.8C51.1 183.8 65.3 170.8 67.3 154L101.5 154C102.3 164.4 106.5 174 112.9 181.5L104.4 190C95.8 184.1 84 184.9 76.4 192.6C67.8 201.2 67.8 215.1 76.4 223.7C85 232.3 98.9 232.3 107.5 223.7C115.1 216.1 116 204.3 110.1 195.7L118.6 187.2C126.1 193.6 135.7 197.7 146.1 198.6L146.1 232.8C129.3 234.8 116.3 249 116.3 266.3C116.3 284.9 131.4 300.1 150.1 300.1C168.8 300.1 183.9 285 183.9 266.3C183.9 249 170.9 234.8 154.1 232.8L154.1 198.6C164.5 197.8 174.1 193.6 181.6 187.2L190.1 195.7C184.2 204.3 185 216.1 192.7 223.7C201.3 232.3 215.2 232.3 223.8 223.7C232.4 215.1 232.4 201.2 223.8 192.6C216.2 185 204.4 184.1 195.8 190L187.3 181.5C193.7 174 197.8 164.4 198.7 154L232.9 154C234.9 170.8 249.1 183.8 266.4 183.8C285 183.8 300.2 168.7 300.2 150C300.2 131.3 284.9 116.2 266.2 116.2L266.2 116.2L266.2 116.2Z" id="Shape" fill="#F9A825" stroke="none" />
    </g>
  </g>
</svg>