<?xml version="1.0" encoding="utf-8"?>
<svg width="25px" height="25px" viewBox="0 0 25 25" version="1.1" xmlns:xlink="http://www.w3.org/1999/xlink" xmlns="http://www.w3.org/2000/svg">
  <desc>Created with Lunacy</desc>
  <g id="cross">
    <g id="cross">
      <g id="noun_Close_615118">
        <g id="Group">
          <g id="Group">
            <path d="M12.3743 15.2028L2.83368 24.7435C2.05084 25.5263 0.781006 25.5298 0 24.7487C-0.786499 23.9622 -0.778687 22.699 0.00524902 21.915L9.5459 12.3744L0.00524902 2.83369C-0.777588 2.05086 -0.781067 0.781052 0 0C0.786499 -0.786499 2.04974 -0.778686 2.83368 0.00527954L12.3743 9.54594L21.915 0.00527954C22.6979 -0.777573 23.9677 -0.781052 24.7487 0C25.5352 0.786499 25.5274 2.04974 24.7435 2.83369L15.2028 12.3744L24.7435 21.915C25.5263 22.6979 25.5298 23.9677 24.7487 24.7487C23.9622 25.5352 22.699 25.5274 21.915 24.7435L12.3743 15.2028L12.3743 15.2028L12.3743 15.2028L12.3743 15.2028L12.3743 15.2028Z" id="Shape" fill="#686868" stroke="none" />
          </g>
        </g>
      </g>
    </g>
  </g>
</svg>