<svg width="100" height="100" viewBox="0 0 100 100" fill="none" xmlns="http://www.w3.org/2000/svg">
<g id="dark_mode1">
<path id="dark_mode_background" d="M50 90C72.0914 90 90 72.0914 90 50C90 27.9086 72.0914 10 50 10C27.9086 10 10 27.9086 10 50C10 72.0914 27.9086 90 50 90Z" fill="#6A9BD8"/>
<path id="Vector" d="M50 0C22.386 0 0 22.386 0 50C0 77.614 22.386 100 50 100C77.614 100 100 77.614 100 50C100 22.386 77.614 0 50 0ZM77.243 44.154C78.129 43.2 78.757 39.017 78.757 39.017C78.757 39.017 79.447 43.123 80.384 44.1C81.383 45.144 85.57 45.835 85.57 45.835C85.57 45.835 81.383 46.55 80.384 47.562C79.398 48.556 78.757 52.647 78.757 52.647C78.757 52.647 78.121 48.495 77.131 47.509C76.145 46.519 71.939 45.835 71.939 45.835C71.939 45.835 76.23 45.239 77.243 44.154ZM59.908 34.887C60.426 34.33 60.791 31.889 60.791 31.889C60.791 31.889 61.195 34.286 61.742 34.856C62.324 35.465 64.767 35.868 64.767 35.868C64.767 35.868 62.323 36.287 61.742 36.877C61.167 37.457 60.791 39.844 60.791 39.844C60.791 39.844 60.421 37.42 59.843 36.846C59.268 36.268 56.813 35.868 56.813 35.868C56.813 35.868 59.318 35.519 59.908 34.887ZM51.354 88.447C30.121 88.447 12.909 71.232 12.909 50C12.909 28.767 30.122 11.553 51.354 11.553C53.141 11.553 54.886 11.718 56.609 11.952C48.72 17.43 43.545 26.538 43.545 36.865C43.545 53.613 57.119 67.184 73.864 67.184C78.611 67.184 83.089 66.064 87.09 64.119C81.459 78.356 67.599 88.447 51.354 88.447Z" fill="black"/>
</g>
</svg>
