<?xml version="1.0" encoding="utf-8"?>
<svg width="511px" height="500px" viewBox="0 0 511 500" version="1.1" xmlns:xlink="http://www.w3.org/1999/xlink" xmlns="http://www.w3.org/2000/svg">
  <desc>Created with Lunacy</desc>
  <g id="home">
    <g id="home-run">
      <g id="Group" transform="translate(1.799042 19.56599)">
        <g id="Group">
          <path d="M501.603 209.319L271.885 0.000999451C261.802 -9.188 246.597 -9.187 236.518 0L6.799 209.32C-1.278 216.68 -3.946 228.02 0 238.209C3.947 248.398 13.557 254.981 24.484 254.981L61.174 254.981L61.174 464.702C61.174 473.017 67.916 479.759 76.231 479.759L202.145 479.759C210.46 479.759 217.202 473.018 217.202 464.702L217.202 337.366L291.204 337.366L291.204 464.703C291.204 473.018 297.946 479.76 306.261 479.76L432.169 479.76C440.484 479.76 447.226 473.019 447.226 464.703L447.226 254.981L483.923 254.981C494.849 254.981 504.46 248.397 508.407 238.209C512.348 228.019 509.68 216.68 501.603 209.319L501.603 209.319L501.603 209.319Z" id="Shape" fill="black" stroke="none" />
        </g>
      </g>
      <g id="Group" transform="translate(343.973 42.73)">
        <g id="Group">
          <path d="M101.119 0L0 0L116.176 105.636L116.176 15.056C116.176 6.741 109.435 0 101.119 0L101.119 0L101.119 0Z" id="Shape" fill="black" stroke="none" />
        </g>
      </g>
      <g id="Group" />
      <g id="Group" />
      <g id="Group" />
      <g id="Group" />
      <g id="Group" />
      <g id="Group" />
      <g id="Group" />
      <g id="Group" />
      <g id="Group" />
      <g id="Group" />
      <g id="Group" />
      <g id="Group" />
      <g id="Group" />
      <g id="Group" />
      <g id="Group" />
    </g>
  </g>
</svg>