<svg width="73" height="80" viewBox="0 0 73 80" fill="none" xmlns="http://www.w3.org/2000/svg">
<g id="light_mode">
<path id="light_mode_background" d="M36.5 59C42.1543 59 49.6066 54.0924 53 47C55.7384 41.2766 55 34.558 55 31.2821C55 23.9466 46.7173 18 36.5 18C26.2827 18 18 23.9466 18 31.2821C18 34.5574 18.1315 43.831 21 49.5C20.8808 49.2603 22.3602 49.5 21 49.5C24.3865 56.3102 31.037 59 36.5 59Z" fill="#F9A825"/>
<path id="Vector" d="M36.5 9.4167C37.75 9.4167 38.75 8.4167 38.75 7.1667V2.9167C38.75 1.6667 37.75 0.666702 36.5 0.666702C35.25 0.666702 34.25 1.6667 34.25 2.9167V7.1667C34.25 8.4167 35.25 9.4167 36.5 9.4167Z" fill="black"/>
<path id="Vector_2" d="M19.9167 12.25C20.3333 13 21.0833 13.4167 21.9167 13.4167C22.3333 13.4167 22.6667 13.3333 23.0833 13.0833C24.1667 12.4167 24.5833 11.0833 23.9167 10L21.8333 6.3333C21.1667 5.25 19.8333 4.8333 18.75 5.5C17.6667 6.1667 17.25 7.5 17.9167 8.5833L19.9167 12.25Z" fill="black"/>
<path id="Vector_3" d="M12.3333 19.75L8.66669 17.6667C7.58329 17 6.16669 17.4167 5.58329 18.5C4.91669 19.5833 5.33329 21 6.41669 21.5833L10.0833 23.6667C10.4167 23.8333 10.8333 24 11.25 24C12 24 12.8333 23.5833 13.25 22.8333C13.8333 21.8333 13.4167 20.4167 12.3333 19.75Z" fill="black"/>
<path id="Vector_4" d="M9.58331 36.3333C9.58331 35.0833 8.58331 34.0833 7.33331 34.0833H3.08331C1.83331 34.0833 0.833313 35.0833 0.833313 36.3333C0.833313 37.5833 1.83331 38.5833 3.08331 38.5833H7.33331C8.58331 38.6667 9.58331 37.5833 9.58331 36.3333Z" fill="black"/>
<path id="Vector_5" d="M10.0833 49L6.41669 51.0833C5.33329 51.75 4.91669 53.0833 5.58329 54.1667C5.99999 54.9167 6.74999 55.3333 7.58329 55.3333C7.99999 55.3333 8.33329 55.25 8.74999 55L12.4167 52.9167C13.5 52.25 13.9167 50.9167 13.25 49.8333C12.5833 48.75 11.1667 48.3333 10.0833 49Z" fill="black"/>
<path id="Vector_6" d="M66.5833 51.0833L62.9167 49C61.8333 48.3333 60.4167 48.75 59.8333 49.8333C59.1667 50.9167 59.5833 52.3333 60.6667 52.9167L64.3333 55C64.6667 55.1667 65.0833 55.3333 65.5 55.3333C66.25 55.3333 67.0833 54.9167 67.5 54.1667C68 53.0833 67.6667 51.75 66.5833 51.0833Z" fill="black"/>
<path id="Vector_7" d="M69.9167 34.0833H65.6667C64.4167 34.0833 63.4167 35.0833 63.4167 36.3333C63.4167 37.5833 64.4167 38.5833 65.6667 38.5833H69.9167C71.1667 38.5833 72.1667 37.5833 72.1667 36.3333C72.1667 35.0833 71.1667 34.0833 69.9167 34.0833Z" fill="black"/>
<path id="Vector_8" d="M61.75 24C62.1667 24 62.5 23.9167 62.9167 23.6667L66.5833 21.5833C67.6667 20.9167 68.0833 19.5833 67.4167 18.5C66.75 17.4167 65.4167 17 64.3333 17.6667L60.6667 19.75C59.5833 20.4167 59.1667 21.75 59.8333 22.8333C60.25 23.6667 61 24 61.75 24Z" fill="black"/>
<path id="Vector_9" d="M49.9167 13.0833C50.25 13.25 50.6667 13.4167 51.0833 13.4167C51.8333 13.4167 52.6667 13 53.0833 12.25L55.1667 8.5833C55.8333 7.5 55.4167 6.0833 54.3333 5.5C53.25 4.8333 51.8333 5.25 51.25 6.3333L49.1667 10C48.5 11 48.8333 12.4167 49.9167 13.0833Z" fill="black"/>
<rect id="Rectangle" x="29" y="59" width="15" height="17" fill="#636161"/>
<path id="Vector_10" d="M37.5 14.5833C31.4167 14.3333 25.75 16.4167 21.3333 20.5833C17 24.75 14.5833 30.4167 14.5833 36.4167C14.5833 41.4167 16.1667 46.0833 19.25 50C21.9167 53.4167 23.8333 56.75 24.9167 60.0833L25 60.3333V69.0833C25 70.25 25.8333 71.1667 26.9167 71.3333C27.5 76.0833 31.5 79.75 36.4167 79.75C41.3333 79.75 45.3333 76.0833 45.9167 71.3333C47 71.1667 47.8333 70.25 47.8333 69.0833V60.3333L47.9167 60.0833C49.0833 56.6667 50.9167 53.4167 53.5833 50C56.8333 45.9167 58.5 40.75 58.25 35.5C57.9167 24.25 48.75 15.0833 37.5 14.5833ZM36.5 75.25C34.1667 75.25 32.1667 73.5833 31.6667 71.4167H41.4167C40.8333 73.5833 38.8333 75.25 36.5 75.25ZM43.3333 66.8333H29.6667V61.25H43.4167V66.8333H43.3333ZM50.0833 47.1667C47.5833 50.3333 45.75 53.5 44.4167 56.6667H28.5833C27.25 53.4167 25.4167 50.3333 22.9167 47.0833C20.5 44 19.1667 40.3333 19.1667 36.3333C19.1667 31.5833 21.0833 27.0833 24.5 23.8333C27.9167 20.5 32.5 18.8333 37.25 19.0833C46.0833 19.5 53.3333 26.75 53.75 35.5833C54 39.8333 52.6667 43.9167 50.0833 47.1667Z" fill="black"/>
<path id="Vector_11" d="M37.0833 23.75C35.8333 23.6667 34.75 24.6667 34.6667 25.9167C34.5833 27.1667 35.5833 28.25 36.8333 28.3333C40.9167 28.5 44.4167 32 44.5833 36.0833C44.6667 37.3333 45.6667 38.25 46.8333 38.25H46.9167C48.1667 38.1667 49.1667 37.1667 49.0833 35.8333C49 29.5 43.5 24 37.0833 23.75Z" fill="black"/>
</g>
</svg>
