<?xml version="1.0" encoding="utf-8"?>
<svg width="231px" height="264px" viewBox="0 0 231 264" version="1.1" xmlns:xlink="http://www.w3.org/1999/xlink" xmlns="http://www.w3.org/2000/svg">
  <desc>Created with Lunacy</desc>
  <path d="M0 79C0 35.3695 35.3695 0 79 0C122.63 0 158 35.3695 158 79C158 122.63 122.63 158 79 158C35.3695 158 0 122.63 0 79Z" transform="translate(31.40796 58.9425)" id="Circle" fill="#2F2E41" stroke="none" />
  <path d="M0 0L24 0L24 43L0 43L0 0Z" transform="matrix(-1 8.742278E-08 -8.742278E-08 -1 146.4078 242.9426)" id="Rectangle" fill="#2F2E41" stroke="none" />
  <path d="M0 0L24 0L24 43L0 43L0 0Z" transform="matrix(-1 8.742278E-08 -8.742278E-08 -1 98.40784 242.9426)" id="Rectangle" fill="#2F2E41" stroke="none" />
  <path d="M0 7.5C0 3.35786 8.9543 0 20 0C31.0457 0 40 3.35786 40 7.5C40 11.6421 31.0457 15 20 15C8.9543 15 0 11.6421 0 7.5Z" transform="matrix(0.8660254 -0.5 0.5 0.8660254 60.33746 250.9473)" id="Ellipse" fill="#2F2E41" stroke="none" />
  <path d="M0 7.5C0 3.35786 8.9543 0 20 0C31.0457 0 40 3.35786 40 7.5C40 11.6421 31.0457 15 20 15C8.9543 15 0 11.6421 0 7.5Z" transform="matrix(0.8660254 -0.5 0.5 0.8660254 107.3375 250.9473)" id="Ellipse" fill="#2F2E41" stroke="none" />
  <path d="M0 27C0 12.0883 12.0883 0 27 0C41.9117 0 54 12.0883 54 27C54 41.9117 41.9117 54 27 54C12.0883 54 0 41.9117 0 27Z" transform="translate(81.40796 90.9425)" id="Circle" fill="#EEEEEE" stroke="none" />
  <path d="M0 9C0 4.02944 4.02944 0 9 0C13.9706 0 18 4.02944 18 9C18 13.9706 13.9706 18 9 18C4.02944 18 0 13.9706 0 9Z" transform="translate(90.21252 97.4425)" id="Circle" fill="#3F3D56" stroke="none" />
  <path d="M114.188 64.4748C120.567 35.9072 100.176 7.04083 68.644 0C37.1118 -7.04083 6.37891 10.41 0 38.9776C-6.37891 67.5452 14.5186 78.0814 46.0507 85.1222C77.5828 92.1631 107.809 93.0424 114.188 64.4748L114.188 64.4748Z" transform="translate(72.85266 0)" id="Shape" fill="#6C63FF" stroke="none" />
  <path d="M0 39.5C0 17.6848 5.55179 0 12.4003 0C19.2488 0 24.8005 17.6848 24.8005 39.5C24.8005 61.3152 19.2488 79 12.4003 79C5.55179 79 0 61.3152 0 39.5Z" transform="matrix(0.3934791 -0.9193336 0.9193336 0.3934791 0 106.6437)" id="Ellipse" fill="#2F2E41" stroke="none" />
  <path d="M0 39.5C0 17.6848 5.55179 0 12.4003 0C19.2488 0 24.8005 17.6848 24.8005 39.5C24.8005 61.3152 19.2488 79 12.4003 79C5.55179 79 0 61.3152 0 39.5Z" transform="matrix(0.3934791 -0.9193336 0.9193336 0.3934791 147.9999 159.6437)" id="Ellipse" fill="#2F2E41" stroke="none" />
  <path d="M36 12C36 21.9411 27.9411 30 18 30C8.0589 30 0 21.9411 0 12C0 2.0589 8.0589 0 18 0C27.9411 0 36 2.0589 36 12L36 12Z" transform="translate(90.21252 160.4425)" id="Shape" fill="#EEEEEE" stroke="none" />
</svg>