<svg width="928" height="97" viewBox="0 0 928 97" fill="none" xmlns="http://www.w3.org/2000/svg">
<g id="home page image">
<g id="Ongoing  Project">
<path id="Shape" fill-rule="evenodd" clip-rule="evenodd" d="M277.813 10.7692C276.81 10.7692 275.954 10.3836 275.246 9.61225C274.538 8.84092 274.184 7.88514 274.184 6.74492C274.184 5.60469 274.538 4.63216 275.246 3.8273C275.954 3.02243 276.81 2.62 277.813 2.62C278.816 2.62 279.672 3.00566 280.38 3.77699C281.088 4.54832 281.442 5.50409 281.442 6.64432C281.442 7.78454 281.088 8.75707 280.38 9.56193C279.672 10.3668 278.816 10.7692 277.813 10.7692ZM652.98 10.7692C651.977 10.7692 651.122 10.3836 650.414 9.61225C649.706 8.84092 649.352 7.88514 649.352 6.74492C649.352 5.60469 649.706 4.63216 650.414 3.8273C651.122 3.02243 651.977 2.62 652.98 2.62C653.983 2.62 654.839 3.00566 655.547 3.77699C656.255 4.54831 656.609 5.50409 656.609 6.64432C656.609 7.78454 656.255 8.75707 655.547 9.56193C654.839 10.3668 653.983 10.7692 652.98 10.7692ZM32.2153 76.5666C26.1381 76.5666 20.6509 75.0072 15.7537 71.8883C10.8565 68.7695 7.00654 64.4937 4.20392 59.0609C1.40131 53.628 0 47.558 0 40.8509C0 34.1437 1.40131 28.0737 4.20392 22.6409C7.00654 17.2081 10.8565 12.9323 15.7537 9.81344C20.6509 6.6946 26.1381 5.13519 32.2153 5.13519C38.2926 5.13519 43.7798 6.67783 48.677 9.76313C53.5742 12.8484 57.4241 17.1075 60.2267 22.5403C63.0294 27.9731 64.4307 34.0766 64.4307 40.8509C64.4307 47.6252 63.0294 53.7287 60.2267 59.1615C57.4241 64.5943 53.5742 68.8533 48.677 71.9386C43.7798 75.0239 38.2926 76.5666 32.2153 76.5666ZM522.659 11.9262C518.234 7.73422 512.127 5.63823 504.339 5.63823H482.124V76.0635H486.638V53.0244H504.339C512.127 53.0244 518.234 50.9284 522.659 46.7364C527.084 42.5445 529.297 36.7595 529.297 29.3816C529.297 21.9367 527.084 16.1182 522.659 11.9262ZM32.2154 71.838C37.4077 71.838 42.0984 70.4966 46.2876 67.8137C50.4768 65.1308 53.7809 61.4251 56.2 56.6966C58.6191 51.968 59.8287 46.6861 59.8287 40.8509C59.8287 35.0156 58.6191 29.7337 56.2 25.0052C53.7809 20.2766 50.4768 16.5709 46.2876 13.888C42.0984 11.2052 37.4077 9.86374 32.2154 9.86374C27.0232 9.86374 22.3177 11.2052 18.099 13.888C13.8803 16.5709 10.5615 20.2766 8.14235 25.0052C5.72324 29.7337 4.51369 35.0156 4.51369 40.8509C4.51369 46.6861 5.72324 51.968 8.14235 56.6966C10.5615 61.4251 13.8803 65.1308 18.099 67.8137C22.3177 70.4966 27.0232 71.838 32.2154 71.838ZM519.473 43.4667C515.992 46.7532 510.947 48.3964 504.339 48.3964H486.638V10.2662H504.339C510.947 10.2662 515.992 11.9262 519.473 15.2462C522.954 18.5663 524.694 23.2781 524.694 29.3816C524.694 35.4851 522.954 40.1802 519.473 43.4667ZM815.341 72.7435C814.22 73.9508 812.818 74.873 811.137 75.5102C809.455 76.1474 807.7 76.466 805.871 76.466C801.859 76.466 798.761 75.2084 796.578 72.6932C794.395 70.178 793.303 66.6735 793.303 62.1797V27.8725H784.807V23.5464H793.303V12.0771H797.728V23.5464H812.42V27.8725H797.728V61.6767C797.728 65.0973 798.451 67.6963 799.897 69.4737C801.342 71.2511 803.481 72.1398 806.313 72.1398C809.204 72.1398 811.594 71.1673 813.482 69.2222L815.341 72.7435ZM120.498 28.8786C117.135 25.0555 112.562 23.1439 106.78 23.1439C102.473 23.1439 98.7407 24.1835 95.584 26.2628C92.4274 28.342 90.0526 31.2261 88.4595 34.915V23.5464H84.2113V76.0636H88.6365V48.0946C88.6365 41.8569 90.2001 36.8936 93.3272 33.2047C96.4543 29.5158 100.732 27.6713 106.16 27.6713C110.88 27.6713 114.553 29.2139 117.179 32.2992C119.805 35.3845 121.117 39.8783 121.117 45.7807V76.0636H125.542V45.3782C125.542 38.2015 123.861 32.7017 120.498 28.8786ZM190.903 70.4295V23.5464H186.655V35.4181C184.826 31.5279 182.2 28.5097 178.778 26.3634C175.356 24.2171 171.521 23.1439 167.272 23.1439C162.965 23.1439 159.056 24.2171 155.545 26.3634C152.035 28.5097 149.276 31.5279 147.27 35.4181C145.264 39.3082 144.261 43.7014 144.261 48.5976C144.261 53.4939 145.264 57.8871 147.27 61.7772C149.276 65.6674 152.035 68.7024 155.545 70.8822C159.056 73.062 162.965 74.152 167.272 74.152C171.462 74.152 175.238 73.1124 178.601 71.0331C181.964 68.9539 184.59 66.0028 186.478 62.1797V71.0331C186.478 78.0086 185.003 83.1563 182.053 86.4764C179.102 89.7964 174.559 91.4565 168.423 91.4565C164.765 91.4565 161.313 90.7857 158.068 89.4443C154.823 88.1029 152.05 86.2249 149.748 83.8103L147.359 87.6334C149.66 90.2492 152.699 92.2949 156.475 93.7704C160.251 95.246 164.263 95.9838 168.511 95.9838C176.005 95.9838 181.61 93.9046 185.327 89.7461C189.044 85.5877 190.903 79.1488 190.903 70.4295ZM221.436 73.0453C224.947 75.3258 228.885 76.466 233.252 76.466C237.618 76.466 241.556 75.3258 245.067 73.0453C248.578 70.7649 251.336 67.5957 253.342 63.5379C255.348 59.4801 256.351 54.9024 256.351 49.805C256.351 44.7075 255.348 40.1299 253.342 36.072C251.336 32.0142 248.578 28.845 245.067 26.5646C241.556 24.2842 237.618 23.1439 233.252 23.1439C228.885 23.1439 224.947 24.2841 221.436 26.5646C217.926 28.845 215.167 32.0142 213.161 36.072C211.155 40.1299 210.152 44.7075 210.152 49.805C210.152 54.9024 211.155 59.4801 213.161 63.5379C215.167 67.5957 217.926 70.7649 221.436 73.0453ZM326.8 23.1439C332.582 23.1439 337.155 25.0555 340.518 28.8786C343.881 32.7017 345.563 38.2015 345.563 45.3782V76.0636H341.138V45.7807C341.138 39.8783 339.825 35.3845 337.199 32.2992C334.574 29.2139 330.901 27.6713 326.18 27.6713C320.752 27.6713 316.474 29.5158 313.347 33.2047C310.22 36.8936 308.657 41.857 308.657 48.0946V76.0636H304.231V23.5464H308.48V34.915C310.073 31.2261 312.448 28.342 315.604 26.2628C318.761 24.1835 322.493 23.1439 326.8 23.1439ZM410.923 23.5464V70.4295C410.923 79.1488 409.064 85.5877 405.347 89.7461C401.63 93.9046 396.025 95.9838 388.531 95.9838C384.283 95.9838 380.271 95.246 376.495 93.7704C372.719 92.2949 369.68 90.2492 367.379 87.6334L369.769 83.8103C372.07 86.2249 374.843 88.1029 378.088 89.4443C381.333 90.7857 384.785 91.4565 388.443 91.4565C394.579 91.4565 399.122 89.7964 402.072 86.4764C405.023 83.1563 406.498 78.0086 406.498 71.0331V62.1797C404.609 66.0028 401.984 68.9539 398.621 71.0331C395.258 73.1124 391.481 74.152 387.292 74.152C382.985 74.152 379.076 73.062 375.566 70.8822C372.055 68.7024 369.297 65.6674 367.29 61.7772C365.284 57.8871 364.281 53.4939 364.281 48.5976C364.281 43.7014 365.284 39.3082 367.29 35.4181C369.297 31.5279 372.055 28.5097 375.566 26.3634C379.076 24.2171 382.985 23.1439 387.292 23.1439C391.54 23.1439 395.376 24.2171 398.798 26.3634C402.22 28.5097 404.846 31.5279 406.675 35.4181V23.5464H410.923ZM560.405 26.2125C557.396 28.2582 555.184 31.1925 553.768 35.0156V23.5464H549.52V76.0636H553.945V48.6983C553.945 42.1923 555.39 37.1116 558.281 33.4562C561.172 29.8008 565.185 27.9731 570.318 27.9731L571.38 28.0737V23.1439C567.073 23.1439 563.414 24.1668 560.405 26.2125ZM596.161 73.0453C599.672 75.3258 603.61 76.466 607.977 76.466C612.343 76.466 616.281 75.3258 619.792 73.0453C623.303 70.7649 626.061 67.5957 628.067 63.5379C630.073 59.4801 631.077 54.9024 631.077 49.805C631.077 44.7075 630.074 40.1299 628.067 36.072C626.061 32.0142 623.303 28.845 619.792 26.5646C616.281 24.2842 612.343 23.1439 607.977 23.1439C603.61 23.1439 599.672 24.2842 596.161 26.5646C592.65 28.845 589.892 32.0142 587.886 36.072C585.88 40.1299 584.876 44.7075 584.876 49.805C584.876 54.9024 585.88 59.4801 587.886 63.5379C589.892 67.5957 592.65 70.7649 596.161 73.0453ZM718.429 51.0122H678.691C678.809 55.1036 679.723 58.7423 681.434 61.9282C683.145 65.1141 685.461 67.579 688.382 69.3228C691.302 71.0667 694.592 71.9386 698.25 71.9386C701.259 71.9386 704.047 71.3182 706.613 70.0774C709.18 68.8366 711.319 67.0089 713.03 64.5943L715.596 67.9143C713.59 70.6643 711.068 72.777 708.029 74.2526C704.991 75.7282 701.701 76.466 698.161 76.466C693.559 76.466 689.458 75.3258 685.859 73.0453C682.26 70.7649 679.443 67.6125 677.407 63.5882C675.372 59.5639 674.354 54.9695 674.354 49.805C674.354 44.7075 675.313 40.1299 677.23 36.072C679.148 32.0142 681.788 28.845 685.151 26.5646C688.514 24.2842 692.291 23.1439 696.48 23.1439C700.669 23.1439 704.43 24.2674 707.764 26.5143C711.098 28.7612 713.723 31.8968 715.641 35.9211C717.558 39.9454 718.517 44.5063 718.517 49.6037L718.429 51.0122ZM756.087 76.466C751.603 76.466 747.591 75.3258 744.05 73.0453C740.51 70.7649 737.737 67.5957 735.731 63.5379C733.725 59.4801 732.722 54.9024 732.722 49.805C732.722 44.6405 733.725 40.0293 735.731 35.9714C737.737 31.9135 740.51 28.7612 744.05 26.5143C747.591 24.2674 751.603 23.1439 756.087 23.1439C759.804 23.1439 763.182 23.9655 766.221 25.6088C769.26 27.2521 771.723 29.6499 773.611 32.8023L770.336 35.5187C768.684 32.9029 766.634 30.941 764.185 29.6331C761.736 28.3252 759.037 27.6713 756.087 27.6713C752.488 27.6713 749.257 28.5935 746.396 30.438C743.534 32.2825 741.292 34.8815 739.669 38.2351C738.046 41.5887 737.235 45.4453 737.235 49.805C737.235 54.1646 738.046 58.0212 739.669 61.3748C741.292 64.7284 743.534 67.3274 746.396 69.1719C749.257 71.0164 752.488 71.9386 756.087 71.9386C759.037 71.9386 761.736 71.2847 764.185 69.9768C766.634 68.6689 768.684 66.707 770.336 64.0912L773.611 66.8076C771.723 69.96 769.26 72.3578 766.221 74.0011C763.182 75.6443 759.804 76.466 756.087 76.466ZM280.026 23.5464H275.601V76.0636H280.026V23.5464ZM642.714 95.9838C640.767 95.9838 638.953 95.682 637.271 95.0784C635.59 94.4747 634.218 93.6028 633.156 92.4626L634.926 88.7401C636.814 90.6852 639.322 91.6577 642.449 91.6577C645.163 91.6577 647.228 90.7522 648.644 88.9413C650.06 87.1304 650.768 84.5146 650.768 81.0939V23.5464H655.192V81.2951C655.192 85.7889 654.101 89.3605 651.918 92.0098C649.735 94.6592 646.667 95.9838 642.714 95.9838ZM696.48 27.5707C693.235 27.5707 690.314 28.3923 687.718 30.0356C685.122 31.6788 683.042 33.9928 681.478 36.9775C679.915 39.9622 679.015 43.3325 678.779 47.0885H714.181C714.004 43.3325 713.119 39.9789 711.526 37.0278C709.933 34.0766 707.838 31.7626 705.242 30.0859C702.646 28.4091 699.725 27.5707 696.48 27.5707ZM167.626 69.6246C171.225 69.6246 174.47 68.7359 177.361 66.9585C180.252 65.1811 182.509 62.6995 184.132 59.5136C185.754 56.3277 186.565 52.689 186.565 48.5977C186.565 44.5063 185.754 40.8844 184.132 37.732C182.509 34.5797 180.252 32.1148 177.361 30.3374C174.47 28.56 171.225 27.6713 167.626 27.6713C164.027 27.6713 160.796 28.56 157.935 30.3374C155.073 32.1148 152.831 34.5797 151.209 37.732C149.586 40.8844 148.775 44.5063 148.775 48.5977C148.775 52.689 149.586 56.3277 151.209 59.5136C152.831 62.6995 155.073 65.1811 157.935 66.9585C160.796 68.7359 164.027 69.6246 167.626 69.6246ZM233.252 71.9386C236.792 71.9386 239.963 70.9996 242.766 69.1216C245.568 67.2436 247.781 64.6278 249.404 61.2742C251.026 57.9206 251.837 54.0975 251.837 49.8049C251.837 45.5124 251.026 41.6893 249.404 38.3357C247.781 34.9821 245.568 32.3663 242.766 30.4883C239.963 28.6103 236.792 27.6713 233.252 27.6713C229.711 27.6713 226.54 28.6103 223.737 30.4883C220.935 32.3663 218.722 34.9821 217.1 38.3357C215.477 41.6893 214.666 45.5124 214.666 49.8049C214.666 54.0975 215.477 57.9206 217.1 61.2742C218.722 64.6278 220.935 67.2436 223.737 69.1216C226.54 70.9996 229.711 71.9386 233.252 71.9386ZM387.646 69.6246C391.246 69.6246 394.491 68.7359 397.382 66.9585C400.273 65.1811 402.53 62.6995 404.152 59.5136C405.775 56.3277 406.586 52.689 406.586 48.5977C406.586 44.5063 405.775 40.8844 404.152 37.732C402.529 34.5797 400.273 32.1148 397.382 30.3374C394.491 28.56 391.246 27.6713 387.646 27.6713C384.047 27.6713 380.817 28.56 377.955 30.3374C375.094 32.1148 372.852 34.5797 371.229 37.732C369.606 40.8844 368.795 44.5063 368.795 48.5977C368.795 52.689 369.606 56.3277 371.229 59.5136C372.852 62.6995 375.094 65.1811 377.955 66.9585C380.817 68.7359 384.047 69.6246 387.646 69.6246ZM607.977 71.9386C611.517 71.9386 614.688 70.9996 617.491 69.1216C620.294 67.2436 622.506 64.6278 624.129 61.2742C625.752 57.9206 626.563 54.0975 626.563 49.8049C626.563 45.5124 625.752 41.6893 624.129 38.3357C622.506 34.9821 620.294 32.3663 617.491 30.4883C614.688 28.6103 611.517 27.6713 607.977 27.6713C604.437 27.6713 601.265 28.6103 598.463 30.4883C595.66 32.3663 593.447 34.9821 591.825 38.3357C590.202 41.6893 589.391 45.5124 589.391 49.8049C589.391 54.0975 590.202 57.9206 591.825 61.2742C593.447 64.6278 595.66 67.2436 598.463 69.1216C601.265 70.9996 604.437 71.9386 607.977 71.9386Z" fill="#F2D184"/>
</g>
<g id="app icon">
<g id="app icon_2">
<path id="mid" d="M844.254 43.2022H915.767C915.848 43.2022 915.929 43.204 916.009 43.2074C916.089 43.2109 916.169 43.2162 916.248 43.2232C916.328 43.2301 916.407 43.2388 916.486 43.2493C916.564 43.2597 916.643 43.2719 916.72 43.2858C916.798 43.2997 916.875 43.3153 916.952 43.3327C917.028 43.35 917.104 43.369 917.178 43.3897C917.254 43.4104 917.328 43.4328 917.402 43.4568C917.475 43.4809 917.548 43.5066 917.62 43.534C917.692 43.5613 917.763 43.5903 917.833 43.6209C917.903 43.6514 917.972 43.6836 918.041 43.7174C918.109 43.7511 918.176 43.7865 918.242 43.8233C918.309 43.8602 918.374 43.8986 918.437 43.9385C918.501 43.9784 918.564 44.0198 918.626 44.0627C918.687 44.1055 918.748 44.1498 918.806 44.1955C918.866 44.2412 918.924 44.2883 918.98 44.3368C919.037 44.3853 919.092 44.4352 919.146 44.4863C919.2 44.5375 919.252 44.5899 919.303 44.6437C919.354 44.6974 919.404 44.7524 919.452 44.8085C919.5 44.8647 919.546 44.9221 919.592 44.9806C919.637 45.0392 919.68 45.0988 919.722 45.1596C919.764 45.2203 919.805 45.2821 919.844 45.345C919.882 45.4078 919.919 45.4717 919.955 45.5365C919.991 45.6013 920.024 45.6671 920.057 45.7337C920.089 45.8004 920.119 45.8679 920.148 45.9363C920.177 46.0047 920.204 46.0738 920.229 46.1438C920.255 46.2137 920.278 46.2843 920.3 46.3557C920.322 46.4271 920.342 46.499 920.36 46.5717C920.378 46.6443 920.395 46.7175 920.409 46.7913C920.424 46.865 920.436 46.9392 920.447 47.014C920.459 47.0887 920.468 47.1639 920.475 47.2394C920.483 47.315 920.488 47.3909 920.492 47.4671C920.495 47.5433 920.497 47.6198 920.497 47.6966C920.497 47.7734 920.495 47.8499 920.492 47.9261C920.488 48.0023 920.483 48.0782 920.475 48.1538C920.468 48.2293 920.459 48.3045 920.447 48.3792C920.436 48.4539 920.424 48.5282 920.409 48.602C920.395 48.6757 920.378 48.7489 920.36 48.8215C920.342 48.8942 920.322 48.9662 920.3 49.0375C920.278 49.1089 920.255 49.1795 920.229 49.2494C920.204 49.3194 920.177 49.3885 920.148 49.4569C920.119 49.5253 920.089 49.5928 920.057 49.6594C920.024 49.7261 919.991 49.7919 919.955 49.8567C919.919 49.9215 919.882 49.9854 919.844 50.0482C919.805 50.1111 919.764 50.1729 919.722 50.2336C919.68 50.2944 919.637 50.354 919.592 50.4126C919.546 50.4711 919.5 50.5285 919.452 50.5847C919.404 50.6408 919.354 50.6958 919.303 50.7495C919.252 50.8033 919.2 50.8557 919.146 50.9069C919.092 50.958 919.037 51.0079 918.98 51.0564C918.924 51.1048 918.866 51.152 918.806 51.1977C918.748 51.2434 918.687 51.2877 918.626 51.3305C918.564 51.3734 918.501 51.4148 918.437 51.4547C918.374 51.4946 918.309 51.533 918.242 51.5699C918.176 51.6067 918.109 51.642 918.041 51.6758C917.972 51.7096 917.903 51.7417 917.833 51.7723C917.763 51.8029 917.692 51.8319 917.62 51.8592C917.548 51.8866 917.475 51.9123 917.402 51.9364C917.328 51.9604 917.254 51.9828 917.178 52.0035C917.104 52.0242 917.028 52.0432 916.952 52.0605C916.875 52.0779 916.798 52.0935 916.72 52.1074C916.643 52.1213 916.564 52.1334 916.486 52.1439C916.407 52.1544 916.328 52.163 916.248 52.17C916.169 52.177 916.089 52.1823 916.009 52.1858C915.929 52.1892 915.848 52.191 915.767 52.191H844.254C844.173 52.191 844.093 52.1892 844.012 52.1858C843.932 52.1823 843.852 52.177 843.773 52.17C843.693 52.163 843.614 52.1544 843.536 52.1439C843.457 52.1334 843.379 52.1213 843.301 52.1074C843.224 52.0935 843.147 52.0779 843.07 52.0605C842.994 52.0432 842.918 52.0242 842.843 52.0035C842.768 51.9828 842.693 51.9604 842.62 51.9364C842.546 51.9123 842.473 51.8866 842.401 51.8593C842.33 51.8319 842.258 51.803 842.188 51.7724C842.118 51.7417 842.049 51.7096 841.981 51.6758C841.913 51.642 841.845 51.6067 841.779 51.5699C841.713 51.533 841.648 51.4946 841.584 51.4547C841.52 51.4148 841.457 51.3734 841.396 51.3305C841.334 51.2877 841.274 51.2434 841.215 51.1977C841.156 51.152 841.098 51.1048 841.041 51.0564C840.985 51.0079 840.929 50.958 840.876 50.9069C840.822 50.8557 840.769 50.8033 840.718 50.7495C840.667 50.6958 840.618 50.6408 840.57 50.5847C840.521 50.5285 840.475 50.4711 840.43 50.4126C840.385 50.354 840.341 50.2944 840.299 50.2336C840.257 50.1729 840.217 50.1111 840.178 50.0482C840.139 49.9854 840.102 49.9215 840.066 49.8567C840.031 49.7919 839.997 49.7261 839.965 49.6594C839.933 49.5928 839.902 49.5253 839.873 49.4569C839.845 49.3885 839.818 49.3194 839.792 49.2494C839.767 49.1795 839.743 49.1089 839.722 49.0375C839.7 48.9662 839.68 48.8942 839.662 48.8215C839.643 48.7489 839.627 48.6757 839.612 48.602C839.598 48.5282 839.585 48.4539 839.574 48.3792C839.563 48.3045 839.554 48.2293 839.546 48.1538C839.539 48.0782 839.533 48.0023 839.53 47.9261C839.526 47.8499 839.524 47.7734 839.524 47.6966C839.524 47.6198 839.526 47.5433 839.53 47.4671C839.533 47.3909 839.539 47.315 839.546 47.2394C839.554 47.1639 839.563 47.0887 839.574 47.014C839.585 46.9392 839.598 46.865 839.612 46.7913C839.627 46.7175 839.643 46.6443 839.662 46.5717C839.68 46.499 839.7 46.4271 839.722 46.3557C839.743 46.2843 839.767 46.2137 839.792 46.1438C839.818 46.0738 839.845 46.0047 839.873 45.9363C839.902 45.8679 839.933 45.8004 839.965 45.7337C839.997 45.6671 840.031 45.6013 840.066 45.5365C840.102 45.4717 840.139 45.4078 840.178 45.345C840.217 45.2821 840.257 45.2203 840.299 45.1596C840.341 45.0988 840.385 45.0392 840.43 44.9806C840.475 44.9221 840.521 44.8647 840.57 44.8085C840.618 44.7524 840.667 44.6974 840.718 44.6437C840.769 44.5899 840.822 44.5375 840.876 44.4863C840.929 44.4352 840.985 44.3853 841.041 44.3368C841.098 44.2883 841.156 44.2412 841.215 44.1955C841.274 44.1498 841.334 44.1055 841.396 44.0627C841.457 44.0198 841.52 43.9784 841.584 43.9385C841.648 43.8986 841.713 43.8602 841.779 43.8233C841.845 43.7865 841.913 43.7511 841.981 43.7174C842.049 43.6836 842.118 43.6514 842.188 43.6209C842.258 43.5903 842.33 43.5613 842.401 43.534C842.473 43.5066 842.546 43.4809 842.62 43.4568C842.693 43.4328 842.768 43.4104 842.843 43.3897C842.918 43.369 842.994 43.35 843.07 43.3327C843.147 43.3153 843.224 43.2997 843.301 43.2858C843.379 43.2719 843.457 43.2597 843.536 43.2493C843.614 43.2388 843.693 43.2301 843.773 43.2232C843.852 43.2162 843.932 43.2109 844.012 43.2074C844.093 43.204 844.173 43.2022 844.254 43.2022Z" fill="#6A9BD8"/>
<path id="upper 3" d="M899.488 27.474L903.769 31.7549C903.821 31.8074 903.872 31.8609 903.922 31.9153C903.972 31.9698 904.021 32.0252 904.068 32.0814C904.115 32.1377 904.161 32.1948 904.205 32.2528C904.25 32.3108 904.292 32.3695 904.334 32.429C904.375 32.4886 904.415 32.5489 904.454 32.6099C904.492 32.6708 904.529 32.7325 904.565 32.7948C904.6 32.8571 904.634 32.92 904.666 32.9836C904.698 33.047 904.729 33.1111 904.758 33.1757C904.787 33.2403 904.814 33.3054 904.84 33.3709C904.866 33.4365 904.89 33.5024 904.912 33.5688C904.935 33.6351 904.955 33.7018 904.974 33.7688C904.993 33.8359 905.011 33.9031 905.026 33.9707C905.042 34.0383 905.056 34.106 905.068 34.174C905.08 34.2419 905.091 34.3099 905.1 34.3782C905.108 34.4464 905.115 34.5147 905.12 34.583C905.126 34.6513 905.129 34.7196 905.131 34.7879C905.133 34.8563 905.133 34.9245 905.131 34.9927C905.129 35.0608 905.126 35.1288 905.12 35.1967C905.115 35.2645 905.108 35.3321 905.099 35.3996C905.091 35.467 905.08 35.5341 905.068 35.6009C905.056 35.6678 905.042 35.7343 905.026 35.8004C905.011 35.8665 904.993 35.9323 904.974 35.9976C904.955 36.0628 904.934 36.1276 904.912 36.192C904.89 36.2563 904.865 36.32 904.84 36.3832C904.814 36.4464 904.786 36.509 904.757 36.5709C904.728 36.6329 904.698 36.6942 904.666 36.7548C904.633 36.8154 904.599 36.8752 904.564 36.9344C904.529 36.9935 904.492 37.0517 904.453 37.1093C904.415 37.1668 904.375 37.2234 904.333 37.2792C904.292 37.3349 904.249 37.3898 904.205 37.4438C904.16 37.4977 904.114 37.5506 904.067 37.6026C904.02 37.6546 903.972 37.7056 903.922 37.7555C903.872 37.8054 903.821 37.854 903.769 37.9011C903.717 37.9483 903.664 37.9942 903.61 38.0385C903.556 38.0828 903.501 38.1258 903.445 38.1673C903.39 38.2088 903.333 38.2487 903.275 38.2872C903.218 38.3256 903.16 38.3626 903.101 38.398C903.041 38.4333 902.982 38.4672 902.921 38.4994C902.86 38.5317 902.799 38.5623 902.737 38.5913C902.675 38.6203 902.613 38.6478 902.549 38.6735C902.486 38.6993 902.422 38.7234 902.358 38.7458C902.294 38.7682 902.229 38.789 902.164 38.808C902.098 38.827 902.033 38.8444 901.967 38.86C901.9 38.8757 901.834 38.8897 901.767 38.9018C901.7 38.914 901.633 38.9245 901.566 38.9332C901.498 38.9419 901.431 38.949 901.363 38.9542C901.295 38.9595 901.227 38.963 901.159 38.9648C901.091 38.9665 901.022 38.9665 900.954 38.9647C900.886 38.963 900.817 38.9595 900.749 38.9543C900.681 38.9491 900.613 38.9421 900.544 38.9334C900.476 38.9246 900.408 38.9142 900.34 38.902C900.272 38.8898 900.204 38.8759 900.137 38.8602C900.069 38.8446 900.002 38.8273 899.935 38.8082C899.868 38.7892 899.801 38.7684 899.735 38.7461C899.669 38.7236 899.603 38.6995 899.537 38.6738C899.472 38.6481 899.406 38.6207 899.342 38.5917C899.277 38.5626 899.213 38.532 899.15 38.4998C899.086 38.4675 899.023 38.4337 898.961 38.3984C898.899 38.363 898.837 38.3261 898.776 38.2877C898.715 38.2492 898.655 38.2092 898.595 38.1677C898.536 38.1263 898.477 38.0834 898.419 38.039C898.361 37.9946 898.304 37.9489 898.248 37.9017C898.191 37.8545 898.136 37.806 898.081 37.7561C898.027 37.7062 897.974 37.6549 897.921 37.6024L893.64 33.3215C893.588 33.269 893.536 33.2155 893.486 33.1611C893.437 33.1066 893.388 33.0512 893.341 32.9949C893.294 32.9387 893.248 32.8816 893.203 32.8236C893.159 32.7656 893.116 32.7069 893.075 32.6474C893.033 32.5878 892.993 32.5275 892.955 32.4666C892.916 32.4056 892.88 32.3439 892.844 32.2816C892.809 32.2193 892.775 32.1563 892.743 32.0928C892.711 32.0293 892.68 31.9652 892.651 31.9006C892.622 31.836 892.594 31.771 892.569 31.7054C892.543 31.6399 892.519 31.5739 892.496 31.5076C892.474 31.4413 892.453 31.3746 892.434 31.3076C892.415 31.2405 892.398 31.1732 892.382 31.1057C892.367 31.0381 892.353 30.9704 892.341 30.9024C892.328 30.8345 892.318 30.7664 892.309 30.6982C892.3 30.63 892.293 30.5617 892.288 30.4934C892.283 30.4251 892.28 30.3567 892.278 30.2884C892.276 30.2201 892.276 30.1519 892.278 30.0837C892.28 30.0156 892.283 29.9476 892.288 29.8797C892.294 29.8119 892.301 29.7442 892.309 29.6768C892.318 29.6094 892.329 29.5422 892.341 29.4754C892.353 29.4086 892.367 29.3421 892.382 29.276C892.398 29.2098 892.415 29.1441 892.435 29.0788C892.454 29.0135 892.474 28.9487 892.497 28.8844C892.519 28.8201 892.543 28.7564 892.569 28.6932C892.595 28.63 892.622 28.5674 892.651 28.5054C892.68 28.4435 892.711 28.3822 892.743 28.3216C892.775 28.261 892.809 28.2011 892.845 28.142C892.88 28.0829 892.917 28.0246 892.955 27.9671C892.994 27.9096 893.034 27.853 893.075 27.7972C893.117 27.7414 893.16 27.6866 893.204 27.6327C893.248 27.5787 893.294 27.5257 893.341 27.4738C893.389 27.4218 893.437 27.3709 893.487 27.3209C893.537 27.271 893.588 27.2224 893.64 27.1752C893.692 27.128 893.745 27.0822 893.799 27.0379C893.853 26.9935 893.908 26.9506 893.963 26.9091C894.019 26.8676 894.076 26.8277 894.133 26.7892C894.191 26.7507 894.249 26.7138 894.308 26.6784C894.367 26.643 894.427 26.6092 894.488 26.577C894.548 26.5447 894.61 26.5141 894.672 26.4851C894.734 26.456 894.796 26.4286 894.859 26.4029C894.923 26.3771 894.986 26.353 895.051 26.3306C895.115 26.3082 895.18 26.2874 895.245 26.2684C895.31 26.2493 895.376 26.232 895.442 26.2163C895.508 26.2007 895.575 26.1868 895.642 26.1745C895.708 26.1623 895.776 26.1519 895.843 26.1431C895.91 26.1344 895.978 26.1274 896.046 26.1221C896.114 26.1169 896.182 26.1134 896.25 26.1116C896.318 26.1099 896.386 26.1099 896.455 26.1116C896.523 26.1134 896.591 26.1168 896.66 26.1221C896.728 26.1273 896.796 26.1343 896.864 26.143C896.933 26.1518 897.001 26.1622 897.069 26.1744C897.137 26.1866 897.204 26.2005 897.272 26.2161C897.339 26.2318 897.407 26.2491 897.474 26.2682C897.541 26.2872 897.607 26.3079 897.674 26.3303C897.74 26.3528 897.806 26.3768 897.872 26.4026C897.937 26.4283 898.002 26.4557 898.067 26.4847C898.131 26.5137 898.195 26.5444 898.259 26.5766C898.322 26.6088 898.385 26.6426 898.448 26.678C898.51 26.7134 898.572 26.7503 898.633 26.7887C898.694 26.8272 898.754 26.8672 898.813 26.9086C898.873 26.9501 898.932 26.993 898.99 27.0373C899.048 27.0817 899.105 27.1275 899.161 27.1747C899.217 27.2219 899.273 27.2704 899.327 27.3203C899.382 27.3702 899.435 27.4215 899.488 27.474Z" fill="#E86135"/>
<path id="upper 2" d="M856.004 30.9814L860.285 26.7006C860.338 26.648 860.391 26.5968 860.446 26.5469C860.5 26.497 860.556 26.4484 860.612 26.4013C860.668 26.3541 860.725 26.3083 860.783 26.2639C860.841 26.2195 860.9 26.1766 860.959 26.1352C861.019 26.0937 861.079 26.0538 861.14 26.0153C861.201 25.9769 861.263 25.94 861.325 25.9046C861.387 25.8692 861.45 25.8354 861.514 25.8031C861.577 25.7709 861.641 25.7403 861.706 25.7113C861.771 25.6823 861.836 25.6549 861.901 25.6292C861.967 25.6034 862.033 25.5794 862.099 25.5569C862.166 25.5345 862.232 25.5138 862.299 25.4948C862.366 25.4757 862.433 25.4584 862.501 25.4428C862.569 25.4271 862.636 25.4132 862.704 25.401C862.772 25.3888 862.84 25.3783 862.909 25.3696C862.977 25.3609 863.045 25.3539 863.113 25.3487C863.182 25.3435 863.25 25.34 863.318 25.3382C863.387 25.3364 863.455 25.3365 863.523 25.3382C863.591 25.34 863.659 25.3435 863.727 25.3487C863.795 25.354 863.863 25.3609 863.93 25.3697C863.997 25.3785 864.064 25.3889 864.131 25.4012C864.198 25.4133 864.265 25.4273 864.331 25.4429C864.397 25.4586 864.463 25.4759 864.528 25.495C864.593 25.514 864.658 25.5347 864.722 25.5572C864.787 25.5796 864.85 25.6037 864.914 25.6295C864.977 25.6552 865.039 25.6826 865.101 25.7117C865.163 25.7407 865.225 25.7713 865.285 25.8036C865.346 25.8358 865.406 25.8696 865.465 25.905C865.524 25.9404 865.582 25.9773 865.64 26.0158C865.697 26.0543 865.754 26.0942 865.81 26.1357C865.865 26.1772 865.92 26.2201 865.974 26.2645C866.028 26.3088 866.081 26.3547 866.133 26.4018C866.185 26.449 866.236 26.4976 866.286 26.5475C866.336 26.5974 866.384 26.6484 866.431 26.7004C866.479 26.7524 866.525 26.8053 866.569 26.8592C866.613 26.9132 866.656 26.968 866.698 27.0238C866.739 27.0795 866.779 27.1362 866.818 27.1937C866.856 27.2512 866.893 27.3095 866.928 27.3686C866.964 27.4277 866.998 27.4876 867.03 27.5482C867.062 27.6088 867.093 27.6701 867.122 27.732C867.151 27.794 867.178 27.8566 867.204 27.9198C867.23 27.983 867.254 28.0467 867.276 28.111C867.299 28.1753 867.319 28.2401 867.338 28.3054C867.357 28.3707 867.375 28.4364 867.39 28.5026C867.406 28.5687 867.42 28.6351 867.432 28.702C867.444 28.7688 867.455 28.836 867.464 28.9034C867.472 28.9708 867.479 29.0384 867.485 29.1063C867.49 29.1742 867.493 29.2422 867.495 29.3103C867.497 29.3785 867.497 29.4467 867.495 29.515C867.493 29.5833 867.49 29.6517 867.485 29.72C867.479 29.7883 867.472 29.8566 867.464 29.9248C867.455 29.993 867.445 30.0611 867.432 30.129C867.42 30.197 867.406 30.2647 867.391 30.3323C867.375 30.3999 867.358 30.4671 867.339 30.5342C867.32 30.6012 867.299 30.6678 867.276 30.7342C867.254 30.8006 867.23 30.8665 867.204 30.932C867.178 30.9976 867.151 31.0626 867.122 31.1273C867.093 31.1918 867.062 31.2559 867.03 31.3194C866.998 31.3829 866.964 31.4458 866.929 31.5082C866.893 31.5705 866.856 31.6321 866.818 31.6931C866.78 31.7541 866.74 31.8144 866.698 31.8739C866.657 31.9335 866.614 31.9922 866.569 32.0502C866.525 32.1082 866.479 32.1653 866.432 32.2216C866.385 32.2778 866.336 32.3332 866.286 32.3877C866.236 32.4421 866.185 32.4956 866.133 32.5481L861.852 36.829C861.799 36.8815 861.746 36.9327 861.691 36.9826C861.637 37.0326 861.582 37.0811 861.525 37.1283C861.469 37.1755 861.412 37.2213 861.354 37.2656C861.296 37.31 861.237 37.3529 861.178 37.3944C861.118 37.4358 861.058 37.4758 860.997 37.5142C860.936 37.5527 860.874 37.5896 860.812 37.625C860.75 37.6604 860.687 37.6942 860.623 37.7264C860.56 37.7586 860.496 37.7893 860.431 37.8183C860.366 37.8473 860.301 37.8747 860.236 37.9004C860.17 37.9261 860.104 37.9502 860.038 37.9727C859.972 37.9951 859.905 38.0158 859.838 38.0348C859.771 38.0539 859.704 38.0712 859.636 38.0868C859.568 38.1025 859.501 38.1164 859.433 38.1286C859.365 38.1408 859.297 38.1512 859.229 38.16C859.16 38.1687 859.092 38.1757 859.024 38.1809C858.955 38.1861 858.887 38.1896 858.819 38.1914C858.75 38.1931 858.682 38.1931 858.614 38.1913C858.546 38.1896 858.478 38.1861 858.41 38.1808C858.342 38.1756 858.275 38.1686 858.207 38.1599C858.14 38.1511 858.073 38.1406 858.006 38.1284C857.939 38.1162 857.872 38.1023 857.806 38.0867C857.74 38.071 857.674 38.0537 857.609 38.0346C857.544 38.0155 857.479 37.9948 857.415 37.9724C857.35 37.9499 857.287 37.9259 857.224 37.9001C857.16 37.8743 857.098 37.8469 857.036 37.8179C856.974 37.7889 856.913 37.7583 856.852 37.726C856.791 37.6938 856.731 37.66 856.672 37.6246C856.613 37.5892 856.555 37.5522 856.497 37.5138C856.44 37.4753 856.383 37.4353 856.328 37.3939C856.272 37.3524 856.217 37.3095 856.163 37.2651C856.109 37.2207 856.056 37.1749 856.004 37.1277C855.952 37.0806 855.901 37.032 855.851 36.9821C855.801 36.9321 855.753 36.8812 855.706 36.8292C855.658 36.7772 855.613 36.7243 855.568 36.6703C855.524 36.6164 855.481 36.5616 855.439 36.5058C855.398 36.45 855.358 36.3934 855.32 36.3359C855.281 36.2784 855.244 36.2201 855.209 36.1609C855.173 36.1018 855.14 36.042 855.107 35.9814C855.075 35.9208 855.044 35.8595 855.015 35.7976C854.986 35.7356 854.959 35.673 854.933 35.6098C854.907 35.5466 854.883 35.4829 854.861 35.4186C854.839 35.3542 854.818 35.2894 854.799 35.2241C854.78 35.1589 854.762 35.0932 854.747 35.027C854.731 34.9609 854.717 34.8944 854.705 34.8276C854.693 34.7607 854.682 34.6936 854.673 34.6262C854.665 34.5587 854.658 34.4911 854.652 34.4233C854.647 34.3554 854.644 34.2874 854.642 34.2192C854.64 34.1511 854.64 34.0829 854.642 34.0145C854.644 33.9462 854.647 33.8779 854.652 33.8096C854.658 33.7413 854.665 33.673 854.673 33.6048C854.682 33.5366 854.693 33.4685 854.705 33.4005C854.717 33.3326 854.731 33.2648 854.746 33.1973C854.762 33.1297 854.779 33.0624 854.798 32.9954C854.818 32.9284 854.838 32.8617 854.861 32.7954C854.883 32.729 854.907 32.6631 854.933 32.5975C854.959 32.532 854.986 32.4669 855.015 32.4023C855.044 32.3377 855.075 32.2737 855.107 32.2102C855.139 32.1466 855.173 32.0837 855.208 32.0214C855.244 31.9591 855.281 31.8974 855.319 31.8364C855.358 31.7754 855.397 31.7152 855.439 31.6556C855.48 31.5961 855.523 31.5373 855.568 31.4794C855.612 31.4214 855.658 31.3643 855.705 31.308C855.752 31.2518 855.801 31.1964 855.851 31.1419C855.901 31.0875 855.952 31.034 856.004 30.9814Z" fill="#24C981"/>
<path id="upper 4" d="M872.849 15.1899L877.13 10.909C877.183 10.8565 877.236 10.8053 877.291 10.7554C877.345 10.7054 877.4 10.6569 877.457 10.6097C877.513 10.5625 877.57 10.5167 877.628 10.4724C877.686 10.428 877.745 10.3851 877.804 10.3436C877.864 10.3022 877.924 10.2622 877.985 10.2237C878.046 10.1853 878.108 10.1484 878.17 10.113C878.232 10.0776 878.295 10.0438 878.359 10.0116C878.422 9.97936 878.486 9.94877 878.551 9.91975C878.616 9.89073 878.681 9.86333 878.746 9.83762C878.812 9.81184 878.878 9.7878 878.944 9.76536C879.01 9.74292 879.077 9.7222 879.144 9.70319C879.211 9.68411 879.278 9.6668 879.346 9.65119C879.413 9.6355 879.481 9.62162 879.549 9.6094C879.617 9.59719 879.685 9.58676 879.753 9.57803C879.822 9.56931 879.89 9.56234 879.958 9.55711C880.026 9.55189 880.095 9.54839 880.163 9.54667C880.231 9.54488 880.3 9.54484 880.368 9.54663C880.436 9.54842 880.504 9.55194 880.572 9.55716C880.64 9.56239 880.707 9.56937 880.775 9.57811C880.842 9.58691 880.909 9.59735 880.976 9.60958C881.043 9.62174 881.11 9.63564 881.176 9.65129C881.242 9.667 881.307 9.68436 881.373 9.70341C881.438 9.72245 881.503 9.74317 881.567 9.7656C881.631 9.78805 881.695 9.81209 881.758 9.8379C881.822 9.86364 881.884 9.89102 881.946 9.92004C882.008 9.94906 882.069 9.97975 882.13 10.012C882.191 10.0442 882.25 10.0781 882.31 10.1134C882.369 10.1488 882.427 10.1857 882.484 10.2242C882.542 10.2627 882.599 10.3026 882.654 10.3441C882.71 10.3856 882.765 10.4286 882.819 10.4729C882.873 10.5172 882.926 10.563 882.978 10.6103C883.03 10.6574 883.081 10.706 883.131 10.7559C883.181 10.8058 883.229 10.8568 883.276 10.9088C883.324 10.9607 883.369 11.0137 883.414 11.0677C883.458 11.1216 883.501 11.1765 883.542 11.2322C883.584 11.288 883.624 11.3446 883.662 11.4021C883.701 11.4596 883.738 11.5179 883.773 11.577C883.809 11.6362 883.842 11.696 883.875 11.7566C883.907 11.8172 883.938 11.8784 883.967 11.9404C883.996 12.0024 884.023 12.065 884.049 12.1282C884.074 12.1913 884.099 12.2551 884.121 12.3194C884.143 12.3837 884.164 12.4485 884.183 12.5138C884.202 12.5791 884.22 12.6449 884.235 12.7109C884.251 12.7771 884.265 12.8436 884.277 12.9104C884.289 12.9773 884.3 13.0444 884.308 13.1118C884.317 13.1792 884.324 13.2468 884.329 13.3147C884.335 13.3826 884.338 13.4506 884.34 13.5187C884.342 13.5868 884.342 13.6551 884.34 13.7235C884.338 13.7917 884.335 13.8601 884.329 13.9284C884.324 13.9967 884.317 14.065 884.309 14.1332C884.3 14.2014 884.289 14.2695 884.277 14.3374C884.265 14.4054 884.251 14.4731 884.235 14.5407C884.22 14.6083 884.202 14.6755 884.183 14.7426C884.164 14.8095 884.144 14.8762 884.121 14.9426C884.099 15.009 884.075 15.0749 884.049 15.1404C884.023 15.206 883.996 15.271 883.967 15.3357C883.938 15.4003 883.907 15.4643 883.875 15.5278C883.843 15.5913 883.809 15.6542 883.774 15.7165C883.738 15.7789 883.701 15.8406 883.663 15.9016C883.624 15.9625 883.584 16.0228 883.543 16.0823C883.502 16.1419 883.459 16.2006 883.414 16.2586C883.37 16.3166 883.324 16.3737 883.277 16.43C883.23 16.4862 883.181 16.5416 883.131 16.5961C883.081 16.6505 883.03 16.704 882.978 16.7565L878.697 21.0374C878.644 21.0899 878.591 21.1411 878.536 21.191C878.482 21.241 878.426 21.2895 878.37 21.3367C878.314 21.3839 878.257 21.4297 878.199 21.4741C878.141 21.5184 878.082 21.5613 878.023 21.6028C877.963 21.6442 877.903 21.6842 877.842 21.7227C877.781 21.7611 877.719 21.798 877.657 21.8334C877.594 21.8688 877.532 21.9026 877.468 21.9348C877.404 21.967 877.34 21.9977 877.276 22.0267C877.211 22.0557 877.146 22.0831 877.081 22.1088C877.015 22.1346 876.949 22.1586 876.883 22.181C876.816 22.2035 876.75 22.2242 876.683 22.2432C876.616 22.2623 876.548 22.2796 876.481 22.2952C876.413 22.3109 876.346 22.3248 876.278 22.337C876.21 22.3492 876.142 22.3596 876.073 22.3684C876.005 22.3771 875.937 22.3841 875.869 22.3893C875.8 22.3946 875.732 22.398 875.664 22.3998C875.595 22.4015 875.527 22.4015 875.459 22.3998C875.391 22.398 875.323 22.3945 875.255 22.3892C875.187 22.384 875.119 22.377 875.052 22.3683C874.985 22.3595 874.917 22.349 874.851 22.3368C874.784 22.3246 874.717 22.3107 874.651 22.2951C874.585 22.2794 874.519 22.2621 874.454 22.243C874.389 22.2239 874.324 22.2032 874.26 22.1808C874.195 22.1584 874.132 22.1343 874.068 22.1085C874.005 22.0828 873.943 22.0554 873.881 22.0263C873.819 21.9973 873.757 21.9667 873.697 21.9344C873.636 21.9022 873.576 21.8684 873.517 21.833C873.458 21.7976 873.4 21.7607 873.342 21.7222C873.285 21.6837 873.228 21.6438 873.172 21.6023C873.117 21.5608 873.062 21.5179 873.008 21.4735C872.954 21.4292 872.901 21.3834 872.849 21.3362C872.797 21.289 872.746 21.2404 872.696 21.1905C872.646 21.1406 872.598 21.0896 872.55 21.0376C872.503 20.9857 872.457 20.9327 872.413 20.8787C872.369 20.8248 872.326 20.77 872.284 20.7142C872.243 20.6584 872.203 20.6018 872.164 20.5443C872.126 20.4868 872.089 20.4285 872.054 20.3694C872.018 20.3103 871.984 20.2504 871.952 20.1898C871.92 20.1292 871.889 20.0679 871.86 20.006C871.831 19.944 871.804 19.8814 871.778 19.8182C871.752 19.755 871.728 19.6913 871.706 19.627C871.683 19.5627 871.663 19.4979 871.644 19.4326C871.625 19.3673 871.607 19.3016 871.592 19.2354C871.576 19.1693 871.562 19.1028 871.55 19.036C871.538 18.9691 871.527 18.902 871.518 18.8346C871.51 18.7672 871.503 18.6995 871.497 18.6317C871.492 18.5638 871.489 18.4958 871.487 18.4277C871.485 18.3595 871.485 18.2913 871.487 18.223C871.489 18.1547 871.492 18.0863 871.497 18.018C871.503 17.9497 871.509 17.8814 871.518 17.8132C871.527 17.745 871.537 17.6769 871.55 17.609C871.562 17.541 871.576 17.4733 871.591 17.4057C871.607 17.3382 871.624 17.2709 871.643 17.2038C871.662 17.1368 871.683 17.0702 871.706 17.0038C871.728 16.9375 871.752 16.8715 871.778 16.806C871.804 16.7404 871.831 16.6754 871.86 16.6108C871.889 16.5462 871.92 16.4821 871.952 16.4186C871.984 16.3551 872.018 16.2921 872.053 16.2298C872.089 16.1675 872.125 16.1058 872.164 16.0448C872.202 15.9839 872.242 15.9236 872.284 15.8641C872.325 15.8045 872.368 15.7458 872.413 15.6878C872.457 15.6298 872.503 15.5727 872.55 15.5165C872.597 15.4602 872.646 15.4048 872.696 15.3503C872.745 15.2959 872.797 15.2424 872.849 15.1899Z" fill="#FF6584"/>
<path id="upper 5" d="M883.477 10.8532L887.757 15.134C887.81 15.1866 887.861 15.2401 887.911 15.2946C887.961 15.349 888.01 15.4044 888.057 15.4606C888.104 15.5169 888.15 15.574 888.194 15.632C888.238 15.69 888.281 15.7487 888.323 15.8082C888.364 15.8677 888.404 15.928 888.443 15.989C888.481 16.05 888.518 16.1117 888.553 16.174C888.589 16.2363 888.623 16.2992 888.655 16.3627C888.687 16.4263 888.718 16.4904 888.747 16.555C888.776 16.6196 888.803 16.6846 888.829 16.7502C888.854 16.8157 888.879 16.8816 888.901 16.948C888.923 17.0143 888.944 17.081 888.963 17.148C888.982 17.2151 889 17.2823 889.015 17.3499C889.031 17.4174 889.045 17.4852 889.057 17.5531C889.069 17.6211 889.08 17.6891 889.088 17.7574C889.097 17.8256 889.104 17.8939 889.109 17.9622C889.114 18.0305 889.118 18.0989 889.12 18.1671C889.121 18.2355 889.121 18.3037 889.12 18.3718C889.118 18.44 889.114 18.508 889.109 18.5759C889.104 18.6438 889.097 18.7113 889.088 18.7788C889.079 18.8462 889.069 18.9133 889.057 18.9802C889.045 19.047 889.031 19.1135 889.015 19.1796C888.999 19.2458 888.982 19.3115 888.963 19.3768C888.944 19.4421 888.923 19.5068 888.901 19.5711C888.878 19.6355 888.854 19.6992 888.828 19.7624C888.803 19.8256 888.775 19.8882 888.746 19.9502C888.717 20.0121 888.687 20.0734 888.654 20.134C888.622 20.1946 888.588 20.2545 888.553 20.3136C888.518 20.3726 888.481 20.4309 888.442 20.4885C888.404 20.5459 888.364 20.6026 888.322 20.6583C888.281 20.7142 888.238 20.769 888.193 20.823C888.149 20.8769 888.103 20.9298 888.056 20.9818C888.009 21.0338 887.96 21.0847 887.91 21.1346C887.86 21.1846 887.81 21.2332 887.758 21.2804C887.706 21.3275 887.653 21.3733 887.599 21.4178C887.545 21.4621 887.49 21.505 887.434 21.5465C887.378 21.5879 887.322 21.6279 887.264 21.6664C887.207 21.7048 887.148 21.7418 887.089 21.7772C887.03 21.8126 886.97 21.8464 886.91 21.8786C886.849 21.9109 886.788 21.9415 886.726 21.9705C886.664 21.9995 886.601 22.0269 886.538 22.0527C886.475 22.0785 886.411 22.1026 886.347 22.125C886.283 22.1474 886.218 22.1682 886.153 22.1872C886.087 22.2063 886.021 22.2236 885.955 22.2393C885.889 22.2549 885.823 22.2688 885.756 22.281C885.689 22.2932 885.622 22.3037 885.555 22.3125C885.487 22.3212 885.42 22.3282 885.352 22.3335C885.284 22.3387 885.216 22.3422 885.148 22.3439C885.079 22.3457 885.011 22.3458 884.943 22.344C884.875 22.3423 884.806 22.3388 884.738 22.3335C884.67 22.3283 884.601 22.3213 884.533 22.3125C884.465 22.3038 884.397 22.2934 884.329 22.2812C884.261 22.269 884.193 22.2551 884.126 22.2394C884.058 22.2238 883.991 22.2065 883.924 22.1874C883.857 22.1684 883.79 22.1477 883.724 22.1253C883.657 22.1028 883.591 22.0787 883.526 22.053C883.46 22.0273 883.395 21.9999 883.331 21.9709C883.266 21.9419 883.202 21.9112 883.139 21.879C883.075 21.8468 883.012 21.813 882.95 21.7776C882.887 21.7422 882.826 21.7053 882.765 21.6668C882.704 21.6284 882.643 21.5884 882.584 21.5469C882.524 21.5055 882.466 21.4627 882.408 21.4183C882.35 21.3739 882.293 21.3281 882.236 21.2809C882.18 21.2338 882.125 21.1852 882.07 21.1353C882.016 21.0854 881.962 21.0341 881.91 20.9816L877.629 16.7008C877.576 16.6482 877.525 16.5947 877.475 16.5403C877.425 16.4858 877.377 16.4304 877.33 16.3742C877.282 16.3179 877.237 16.2608 877.192 16.2028C877.148 16.1449 877.105 16.0861 877.064 16.0266C877.022 15.967 876.982 15.9068 876.944 15.8458C876.905 15.7848 876.868 15.7231 876.833 15.6608C876.798 15.5985 876.764 15.5356 876.732 15.472C876.699 15.4085 876.669 15.3445 876.64 15.2799C876.611 15.2153 876.583 15.1502 876.558 15.0847C876.532 15.0191 876.508 14.9532 876.485 14.8868C876.463 14.8205 876.442 14.7538 876.423 14.6868C876.404 14.6198 876.387 14.5525 876.371 14.4849C876.355 14.4174 876.342 14.3496 876.329 14.2817C876.317 14.2137 876.307 14.1456 876.298 14.0774C876.289 14.0092 876.282 13.9409 876.277 13.8726C876.272 13.8043 876.268 13.736 876.267 13.6677C876.265 13.5993 876.265 13.5311 876.267 13.463C876.268 13.3948 876.272 13.3268 876.277 13.259C876.282 13.1911 876.289 13.1235 876.298 13.0561C876.307 12.9886 876.317 12.9215 876.33 12.8546C876.342 12.7878 876.356 12.7213 876.371 12.6552C876.387 12.5891 876.404 12.5233 876.423 12.458C876.442 12.3927 876.463 12.328 876.486 12.2637C876.508 12.1993 876.532 12.1356 876.558 12.0724C876.584 12.0092 876.611 11.9466 876.64 11.8846C876.669 11.8227 876.7 11.7614 876.732 11.7008C876.764 11.6402 876.798 11.5804 876.833 11.5213C876.869 11.4621 876.906 11.4038 876.944 11.3463C876.983 11.2888 877.023 11.2322 877.064 11.1764C877.106 11.1207 877.148 11.0658 877.193 11.0119C877.237 10.9579 877.283 10.905 877.33 10.853C877.377 10.801 877.426 10.7501 877.476 10.7001C877.526 10.6502 877.577 10.6016 877.629 10.5545C877.681 10.5073 877.734 10.4615 877.788 10.4171C877.842 10.3727 877.896 10.3298 877.952 10.2883C878.008 10.2469 878.065 10.2069 878.122 10.1684C878.18 10.13 878.238 10.093 878.297 10.0576C878.356 10.0223 878.416 9.98844 878.477 9.95619C878.537 9.92395 878.598 9.89331 878.66 9.86429C878.722 9.83526 878.785 9.80787 878.848 9.78211C878.911 9.75636 878.975 9.73226 879.039 9.70983C879.104 9.6874 879.169 9.66666 879.234 9.6476C879.299 9.62855 879.365 9.61119 879.431 9.59555C879.497 9.57989 879.564 9.56597 879.63 9.55376C879.697 9.54156 879.764 9.53109 879.832 9.52235C879.899 9.51361 879.967 9.50662 880.035 9.50137C880.103 9.49611 880.171 9.49261 880.239 9.49085C880.307 9.48909 880.375 9.48909 880.443 9.49083C880.512 9.49257 880.58 9.49607 880.648 9.5013C880.717 9.50654 880.785 9.51352 880.853 9.52225C880.921 9.53097 880.989 9.54142 881.057 9.55362C881.125 9.56581 881.193 9.57972 881.261 9.59535C881.328 9.61098 881.396 9.62832 881.463 9.64737C881.53 9.66641 881.596 9.68714 881.663 9.70956C881.729 9.73197 881.795 9.75605 881.86 9.78179C881.926 9.80754 881.991 9.83492 882.056 9.86393C882.12 9.89294 882.184 9.92357 882.248 9.9558C882.311 9.98803 882.374 10.0218 882.437 10.0572C882.499 10.0926 882.561 10.1295 882.622 10.168C882.683 10.2064 882.743 10.2464 882.802 10.2878C882.862 10.3293 882.921 10.3722 882.979 10.4165C883.037 10.4609 883.094 10.5067 883.15 10.5539C883.206 10.6011 883.262 10.6496 883.316 10.6996C883.37 10.7494 883.424 10.8007 883.477 10.8532Z" fill="#FF6584"/>
<path id="upper 1" d="M876.795 30.5862H882.849C882.923 30.5862 882.997 30.5878 883.071 30.591C883.144 30.5942 883.218 30.599 883.291 30.6055C883.364 30.6119 883.437 30.6199 883.509 30.6295C883.582 30.6391 883.654 30.6503 883.725 30.6631C883.796 30.6759 883.867 30.6903 883.938 30.7062C884.008 30.7221 884.078 30.7396 884.147 30.7587C884.216 30.7777 884.284 30.7983 884.352 30.8204C884.42 30.8426 884.487 30.8662 884.553 30.8914C884.619 30.9165 884.684 30.9432 884.749 30.9713C884.813 30.9995 884.877 31.0291 884.94 31.0601C885.003 31.0912 885.064 31.1237 885.125 31.1576C885.186 31.1915 885.246 31.2269 885.305 31.2636C885.364 31.3003 885.421 31.3384 885.478 31.3778C885.535 31.4172 885.59 31.458 885.645 31.5C885.699 31.5421 885.752 31.5854 885.804 31.63C885.856 31.6747 885.907 31.7205 885.957 31.7676C886.006 31.8146 886.054 31.8629 886.101 31.9123C886.148 31.9618 886.194 32.0123 886.238 32.064C886.282 32.1157 886.325 32.1685 886.367 32.2223C886.408 32.2762 886.448 32.331 886.487 32.3869C886.526 32.4428 886.563 32.4997 886.598 32.5575C886.634 32.6154 886.668 32.6741 886.701 32.7337C886.734 32.7934 886.765 32.8539 886.795 32.9152C886.824 32.9765 886.852 33.0386 886.879 33.1015C886.905 33.1644 886.93 33.2281 886.953 33.2924C886.977 33.3568 886.998 33.4217 887.018 33.4874C887.038 33.553 887.057 33.6193 887.074 33.6861C887.09 33.7529 887.105 33.8203 887.119 33.8881C887.132 33.956 887.144 34.0243 887.154 34.093C887.164 34.1618 887.173 34.231 887.18 34.3004C887.186 34.37 887.191 34.4398 887.195 34.5099C887.198 34.58 887.2 34.6504 887.2 34.721C887.2 34.7916 887.198 34.862 887.195 34.9321C887.191 35.0022 887.186 35.0721 887.18 35.1416C887.173 35.2111 887.164 35.2803 887.154 35.349C887.144 35.4178 887.132 35.4861 887.119 35.5539C887.105 35.6218 887.09 35.6891 887.074 35.756C887.057 35.8228 887.038 35.889 887.018 35.9546C886.998 36.0203 886.977 36.0853 886.953 36.1496C886.93 36.214 886.905 36.2776 886.879 36.3405C886.852 36.4034 886.824 36.4655 886.795 36.5268C886.765 36.5882 886.734 36.6486 886.701 36.7083C886.668 36.768 886.634 36.8267 886.598 36.8845C886.563 36.9424 886.526 36.9992 886.487 37.0551C886.448 37.111 886.408 37.1659 886.367 37.2197C886.325 37.2735 886.282 37.3263 886.238 37.378C886.194 37.4297 886.148 37.4803 886.101 37.5297C886.054 37.5792 886.006 37.6274 885.957 37.6745C885.907 37.7215 885.856 37.7674 885.804 37.812C885.752 37.8566 885.699 37.9 885.645 37.942C885.59 37.9841 885.535 38.0248 885.478 38.0643C885.421 38.1037 885.364 38.1417 885.305 38.1785C885.246 38.2152 885.186 38.2505 885.125 38.2844C885.064 38.3183 885.003 38.3508 884.94 38.3819C884.877 38.413 884.813 38.4426 884.749 38.4707C884.684 38.4988 884.619 38.5255 884.553 38.5507C884.487 38.5758 884.42 38.5994 884.352 38.6216C884.284 38.6437 884.216 38.6643 884.147 38.6834C884.078 38.7024 884.008 38.7199 883.938 38.7359C883.867 38.7518 883.796 38.7661 883.725 38.7789C883.654 38.7917 883.582 38.8029 883.509 38.8125C883.437 38.8222 883.364 38.8302 883.291 38.8366C883.218 38.843 883.144 38.8478 883.071 38.851C882.997 38.8542 882.923 38.8559 882.849 38.8559H876.795C876.72 38.8559 876.646 38.8542 876.572 38.851C876.499 38.8478 876.425 38.843 876.352 38.8366C876.279 38.8302 876.206 38.8222 876.134 38.8125C876.061 38.8029 875.989 38.7917 875.918 38.7789C875.847 38.7661 875.776 38.7518 875.705 38.7359C875.635 38.7199 875.565 38.7024 875.496 38.6834C875.427 38.6643 875.359 38.6437 875.291 38.6216C875.223 38.5994 875.156 38.5758 875.09 38.5507C875.024 38.5255 874.959 38.4988 874.894 38.4707C874.83 38.4426 874.766 38.413 874.703 38.3819C874.64 38.3508 874.579 38.3183 874.518 38.2844C874.457 38.2505 874.397 38.2152 874.338 38.1785C874.279 38.1417 874.222 38.1037 874.165 38.0643C874.108 38.0248 874.053 37.9841 873.998 37.942C873.944 37.9 873.891 37.8566 873.839 37.812C873.787 37.7674 873.736 37.7215 873.686 37.6745C873.637 37.6274 873.589 37.5792 873.542 37.5297C873.495 37.4803 873.449 37.4297 873.405 37.378C873.361 37.3263 873.318 37.2735 873.276 37.2197C873.235 37.1659 873.195 37.111 873.156 37.0551C873.117 36.9992 873.08 36.9424 873.045 36.8845C873.009 36.8267 872.975 36.768 872.942 36.7083C872.909 36.6486 872.878 36.5882 872.848 36.5268C872.819 36.4655 872.791 36.4034 872.764 36.3405C872.738 36.2776 872.713 36.214 872.69 36.1496C872.666 36.0853 872.645 36.0203 872.625 35.9546C872.605 35.889 872.586 35.8228 872.569 35.756C872.553 35.6891 872.538 35.6218 872.524 35.5539C872.511 35.4861 872.499 35.4178 872.489 35.349C872.479 35.2803 872.47 35.2111 872.463 35.1416C872.457 35.0721 872.452 35.0022 872.448 34.9321C872.445 34.862 872.443 34.7916 872.443 34.721C872.443 34.6504 872.445 34.58 872.448 34.5099C872.452 34.4398 872.457 34.37 872.463 34.3004C872.47 34.231 872.479 34.1618 872.489 34.093C872.499 34.0243 872.511 33.956 872.524 33.8881C872.538 33.8203 872.553 33.7529 872.569 33.6861C872.586 33.6193 872.605 33.553 872.625 33.4874C872.645 33.4217 872.666 33.3568 872.69 33.2924C872.713 33.2281 872.738 33.1644 872.764 33.1015C872.791 33.0386 872.819 32.9765 872.848 32.9152C872.878 32.8539 872.909 32.7934 872.942 32.7337C872.975 32.6741 873.009 32.6154 873.045 32.5575C873.08 32.4997 873.117 32.4428 873.156 32.3869C873.195 32.331 873.235 32.2762 873.276 32.2223C873.318 32.1685 873.361 32.1157 873.405 32.064C873.449 32.0123 873.495 31.9618 873.542 31.9123C873.589 31.8629 873.637 31.8146 873.686 31.7676C873.736 31.7205 873.787 31.6747 873.839 31.63C873.891 31.5854 873.944 31.5421 873.998 31.5C874.053 31.458 874.108 31.4172 874.165 31.3778C874.222 31.3384 874.279 31.3003 874.338 31.2636C874.397 31.2269 874.457 31.1915 874.518 31.1576C874.579 31.1237 874.64 31.0912 874.703 31.0601C874.766 31.0291 874.83 30.9995 874.894 30.9713C874.959 30.9432 875.024 30.9165 875.09 30.8914C875.156 30.8662 875.223 30.8426 875.291 30.8204C875.359 30.7983 875.427 30.7777 875.496 30.7587C875.565 30.7396 875.635 30.7221 875.705 30.7062C875.776 30.6903 875.847 30.6759 875.918 30.6631C875.989 30.6503 876.061 30.6391 876.134 30.6295C876.206 30.6199 876.279 30.6119 876.352 30.6055C876.425 30.599 876.499 30.5942 876.572 30.591C876.646 30.5878 876.72 30.5862 876.795 30.5862Z" fill="#66657A"/>
<path id="lower 3" d="M878.069 79.1073L898.136 59.0407C898.188 58.9882 898.242 58.937 898.296 58.8871C898.351 58.8371 898.406 58.7886 898.463 58.7414C898.519 58.6943 898.576 58.6485 898.634 58.6041C898.692 58.5597 898.751 58.5168 898.81 58.4754C898.87 58.4339 898.93 58.3939 898.991 58.3555C899.052 58.3171 899.114 58.2801 899.176 58.2448C899.238 58.2094 899.301 58.1756 899.365 58.1433C899.428 58.1111 899.492 58.0805 899.557 58.0514C899.621 58.0224 899.687 57.995 899.752 57.9693C899.818 57.9436 899.884 57.9195 899.95 57.8971C900.016 57.8747 900.083 57.8539 900.15 57.8349C900.217 57.8159 900.284 57.7985 900.352 57.7829C900.419 57.7672 900.487 57.7533 900.555 57.7412C900.623 57.7289 900.691 57.7185 900.759 57.7098C900.827 57.7011 900.896 57.694 900.964 57.6888C901.032 57.6836 901.101 57.6801 901.169 57.6783C901.237 57.6766 901.306 57.6766 901.374 57.6784C901.442 57.6801 901.51 57.6836 901.578 57.6888C901.646 57.6941 901.713 57.7011 901.781 57.7098C901.848 57.7186 901.915 57.729 901.982 57.7413C902.049 57.7535 902.115 57.7674 902.182 57.783C902.248 57.7987 902.313 57.816 902.379 57.8351C902.444 57.8542 902.509 57.8749 902.573 57.8973C902.637 57.9198 902.701 57.9438 902.764 57.9696C902.827 57.9954 902.89 58.0228 902.952 58.0518C903.014 58.0808 903.075 58.1114 903.136 58.1437C903.196 58.176 903.256 58.2097 903.315 58.2452C903.375 58.2805 903.433 58.3175 903.49 58.3559C903.548 58.3944 903.604 58.4344 903.66 58.4758C903.716 58.5172 903.771 58.5602 903.825 58.6045C903.879 58.649 903.932 58.6947 903.984 58.7419C904.036 58.7891 904.087 58.8377 904.137 58.8876C904.186 58.9376 904.235 58.9885 904.282 59.0404C904.329 59.0924 904.375 59.1454 904.42 59.1993C904.464 59.2533 904.507 59.3081 904.548 59.3639C904.59 59.4197 904.63 59.4763 904.668 59.5338C904.707 59.5913 904.744 59.6496 904.779 59.7087C904.814 59.7678 904.848 59.8277 904.88 59.8883C904.913 59.9488 904.943 60.0101 904.972 60.0721C905.001 60.1341 905.029 60.1967 905.055 60.2598C905.08 60.3231 905.104 60.3868 905.127 60.4511C905.149 60.5154 905.17 60.5802 905.189 60.6455C905.208 60.7108 905.225 60.7765 905.241 60.8426C905.257 60.9088 905.271 60.9753 905.283 61.0421C905.295 61.1089 905.306 61.1761 905.314 61.2435C905.323 61.3109 905.33 61.3785 905.335 61.4464C905.341 61.5142 905.344 61.5822 905.346 61.6504C905.348 61.7185 905.348 61.7868 905.346 61.8551C905.344 61.9234 905.341 61.9917 905.335 62.06C905.33 62.1283 905.323 62.1967 905.314 62.2649C905.306 62.3331 905.295 62.4011 905.283 62.4691C905.271 62.537 905.257 62.6048 905.241 62.6723C905.226 62.7399 905.208 62.8072 905.189 62.8742C905.17 62.9412 905.149 63.0079 905.127 63.0743C905.105 63.1406 905.081 63.2066 905.055 63.2721C905.029 63.3376 905.002 63.4027 904.973 63.4673C904.944 63.5319 904.913 63.596 904.881 63.6595C904.849 63.723 904.815 63.7859 904.779 63.8483C904.744 63.9105 904.707 63.9722 904.669 64.0332C904.63 64.0942 904.59 64.1545 904.549 64.214C904.507 64.2736 904.464 64.3323 904.42 64.3902C904.376 64.4482 904.33 64.5054 904.283 64.5616C904.236 64.6179 904.187 64.6732 904.137 64.7277C904.087 64.7822 904.036 64.8357 903.983 64.8882L883.917 84.9547C883.864 85.0073 883.811 85.0585 883.756 85.1084C883.702 85.1583 883.647 85.2069 883.59 85.2541C883.534 85.3012 883.477 85.347 883.419 85.3914C883.361 85.4358 883.302 85.4787 883.243 85.5201C883.183 85.5616 883.123 85.6015 883.062 85.64C883.001 85.6784 882.939 85.7154 882.877 85.7507C882.815 85.7861 882.752 85.8199 882.688 85.8521C882.625 85.8844 882.561 85.915 882.496 85.944C882.431 85.973 882.366 86.0004 882.301 86.0262C882.235 86.0519 882.169 86.076 882.103 86.0984C882.037 86.1208 881.97 86.1415 881.903 86.1606C881.836 86.1796 881.769 86.197 881.701 86.2126C881.633 86.2282 881.566 86.2422 881.498 86.2544C881.43 86.2665 881.362 86.277 881.294 86.2857C881.225 86.2945 881.157 86.3014 881.089 86.3067C881.02 86.3119 880.952 86.3154 880.884 86.3171C880.815 86.3189 880.747 86.3189 880.679 86.3171C880.611 86.3154 880.543 86.3119 880.475 86.3066C880.407 86.3014 880.34 86.2944 880.272 86.2856C880.205 86.2769 880.138 86.2664 880.071 86.2542C880.004 86.242 879.937 86.2281 879.871 86.2124C879.805 86.1968 879.739 86.1794 879.674 86.1604C879.609 86.1413 879.544 86.1206 879.48 86.0982C879.415 86.0757 879.352 86.0517 879.289 86.0259C879.225 86.0001 879.163 85.9727 879.101 85.9437C879.039 85.9147 878.978 85.884 878.917 85.8518C878.856 85.8196 878.796 85.7858 878.737 85.7504C878.678 85.715 878.62 85.678 878.562 85.6396C878.505 85.6011 878.448 85.5611 878.393 85.5197C878.337 85.4782 878.282 85.4353 878.228 85.3909C878.174 85.3465 878.121 85.3007 878.069 85.2535C878.017 85.2064 877.966 85.1578 877.916 85.1079C877.866 85.0579 877.818 85.007 877.771 84.955C877.723 84.903 877.678 84.8501 877.633 84.7961C877.589 84.7422 877.546 84.6874 877.504 84.6316C877.463 84.5758 877.423 84.5192 877.385 84.4617C877.346 84.4042 877.309 84.3459 877.274 84.2868C877.238 84.2277 877.205 84.1678 877.172 84.1072C877.14 84.0466 877.109 83.9853 877.08 83.9234C877.051 83.8614 877.024 83.7988 876.998 83.7356C876.973 83.6724 876.948 83.6087 876.926 83.5444C876.904 83.4801 876.883 83.4153 876.864 83.35C876.845 83.2847 876.827 83.219 876.812 83.1528C876.796 83.0867 876.782 83.0202 876.77 82.9534C876.758 82.8865 876.747 82.8194 876.739 82.752C876.73 82.6846 876.723 82.6169 876.718 82.5491C876.712 82.4812 876.709 82.4132 876.707 82.3451C876.705 82.2769 876.705 82.2087 876.707 82.1404C876.709 82.0721 876.712 82.0038 876.717 81.9354C876.723 81.8671 876.73 81.7988 876.738 81.7306C876.747 81.6624 876.758 81.5943 876.77 81.5264C876.782 81.4584 876.796 81.3907 876.812 81.3231C876.827 81.2556 876.845 81.1883 876.864 81.1213C876.883 81.0542 876.903 80.9876 876.926 80.9212C876.948 80.8549 876.972 80.7889 876.998 80.7234C877.024 80.6579 877.051 80.5928 877.08 80.5282C877.109 80.4636 877.14 80.3995 877.172 80.336C877.204 80.2725 877.238 80.2096 877.273 80.1472C877.309 80.0849 877.346 80.0233 877.384 79.9623C877.423 79.9013 877.463 79.841 877.504 79.7815C877.545 79.7219 877.588 79.6632 877.633 79.6052C877.677 79.5472 877.723 79.4901 877.77 79.4339C877.817 79.3776 877.866 79.3222 877.916 79.2678C877.966 79.2133 878.017 79.1598 878.069 79.1073Z" fill="#F9A825"/>
<path id="lower 2" d="M863.021 58.9898L883.088 79.0563C883.14 79.1088 883.191 79.1623 883.241 79.2168C883.291 79.2712 883.34 79.3266 883.387 79.3829C883.434 79.4391 883.48 79.4963 883.524 79.5542C883.569 79.6122 883.612 79.6709 883.653 79.7305C883.694 79.79 883.734 79.8503 883.773 79.9113C883.811 79.9723 883.848 80.0339 883.884 80.0962C883.919 80.1586 883.953 80.2215 883.985 80.285C884.017 80.3485 884.048 80.4126 884.077 80.4772C884.106 80.5418 884.133 80.6069 884.159 80.6724C884.185 80.7379 884.209 80.8038 884.231 80.8702C884.254 80.9366 884.274 81.0033 884.293 81.0702C884.312 81.1373 884.33 81.2045 884.345 81.2722C884.361 81.3397 884.375 81.4074 884.387 81.4754C884.399 81.5434 884.41 81.6114 884.419 81.6796C884.427 81.7478 884.434 81.8161 884.439 81.8844C884.445 81.9528 884.448 82.0211 884.45 82.0894C884.452 82.1577 884.452 82.2259 884.45 82.2941C884.448 82.3623 884.445 82.4303 884.439 82.4981C884.434 82.566 884.427 82.6336 884.418 82.701C884.41 82.7685 884.399 82.8356 884.387 82.9024C884.375 82.9693 884.361 83.0358 884.345 83.1019C884.33 83.168 884.312 83.2337 884.293 83.299C884.274 83.3643 884.253 83.4291 884.231 83.4934C884.209 83.5577 884.184 83.6215 884.159 83.6847C884.133 83.7479 884.106 83.8105 884.077 83.8724C884.048 83.9344 884.017 83.9956 883.985 84.0563C883.952 84.1168 883.919 84.1767 883.883 84.2358C883.848 84.2949 883.811 84.3532 883.772 84.4107C883.734 84.4682 883.694 84.5249 883.652 84.5806C883.611 84.6364 883.568 84.6913 883.524 84.7452C883.479 84.7991 883.434 84.8521 883.386 84.904C883.339 84.956 883.291 85.007 883.241 85.0569C883.191 85.1069 883.14 85.1554 883.088 85.2026C883.036 85.2498 882.983 85.2956 882.929 85.34C882.875 85.3844 882.82 85.4272 882.764 85.4687C882.709 85.5102 882.652 85.5502 882.595 85.5887C882.537 85.6271 882.479 85.664 882.42 85.6994C882.36 85.7348 882.301 85.7686 882.24 85.8009C882.179 85.8331 882.118 85.8638 882.056 85.8928C881.994 85.9218 881.932 85.9492 881.868 85.9749C881.805 86.0008 881.741 86.0248 881.677 86.0472C881.613 86.0697 881.548 86.0904 881.483 86.1094C881.417 86.1285 881.352 86.1459 881.286 86.1616C881.22 86.1772 881.153 86.1911 881.086 86.2033C881.019 86.2155 880.952 86.226 880.885 86.2347C880.817 86.2435 880.75 86.2504 880.682 86.2557C880.614 86.261 880.546 86.2645 880.478 86.2662C880.41 86.2679 880.341 86.268 880.273 86.2663C880.205 86.2645 880.137 86.261 880.068 86.2557C880 86.2505 879.932 86.2435 879.863 86.2348C879.795 86.2261 879.727 86.2157 879.659 86.2035C879.591 86.1912 879.523 86.1774 879.456 86.1618C879.388 86.1461 879.321 86.1288 879.254 86.1097C879.187 86.0907 879.12 86.0699 879.054 86.0475C878.988 86.0251 878.922 86.001 878.856 85.9753C878.791 85.9495 878.726 85.9222 878.661 85.8932C878.596 85.8642 878.532 85.8335 878.469 85.8013C878.405 85.7691 878.342 85.7352 878.28 85.6998C878.218 85.6645 878.156 85.6276 878.095 85.5891C878.034 85.5507 877.974 85.5107 877.914 85.4692C877.855 85.4278 877.796 85.3849 877.738 85.3405C877.68 85.2962 877.623 85.2503 877.567 85.2032C877.51 85.156 877.455 85.1074 877.4 85.0575C877.346 85.0076 877.293 84.9564 877.24 84.9039L857.173 64.8373C857.121 64.7848 857.07 64.7313 857.02 64.6769C856.97 64.6224 856.921 64.567 856.874 64.5107C856.827 64.4545 856.781 64.3974 856.737 64.3394C856.692 64.2814 856.65 64.2227 856.608 64.1632C856.567 64.1036 856.527 64.0433 856.488 63.9823C856.45 63.9214 856.413 63.8597 856.378 63.7974C856.342 63.7351 856.308 63.6721 856.276 63.6086C856.244 63.5451 856.213 63.481 856.184 63.4164C856.155 63.3518 856.128 63.2868 856.102 63.2212C856.076 63.1557 856.052 63.0897 856.03 63.0234C856.007 62.957 855.987 62.8904 855.968 62.8234C855.949 62.7563 855.931 62.6891 855.916 62.6215C855.9 62.5539 855.886 62.4862 855.874 62.4182C855.862 62.3503 855.851 62.2822 855.843 62.214C855.834 62.1458 855.827 62.0775 855.822 62.0092C855.816 61.9409 855.813 61.8725 855.811 61.8042C855.809 61.7359 855.809 61.6677 855.811 61.5995C855.813 61.5314 855.816 61.4634 855.822 61.3955C855.827 61.3276 855.834 61.26 855.843 61.1926C855.851 61.1252 855.862 61.0581 855.874 60.9912C855.886 60.9244 855.9 60.8579 855.916 60.7917C855.931 60.7256 855.949 60.6599 855.968 60.5946C855.987 60.5293 856.008 60.4645 856.03 60.4002C856.053 60.3359 856.077 60.2722 856.102 60.2089C856.128 60.1457 856.156 60.0832 856.185 60.0212C856.214 59.9592 856.244 59.898 856.276 59.8373C856.309 59.7768 856.343 59.7169 856.378 59.6578C856.413 59.5987 856.45 59.5404 856.489 59.4829C856.527 59.4254 856.567 59.3688 856.609 59.313C856.65 59.2572 856.693 59.2024 856.737 59.1484C856.782 59.0945 856.828 59.0415 856.875 58.9896C856.922 58.9376 856.97 58.8866 857.02 58.8367C857.07 58.7868 857.121 58.7382 857.173 58.691C857.225 58.6438 857.278 58.598 857.332 58.5536C857.386 58.5093 857.441 58.4663 857.497 58.4249C857.552 58.3834 857.609 58.3434 857.667 58.305C857.724 58.2665 857.782 58.2296 857.842 58.1942C857.901 58.1588 857.961 58.125 858.021 58.0927C858.082 58.0605 858.143 58.0299 858.205 58.0008C858.267 57.9718 858.329 57.9444 858.393 57.9187C858.456 57.8929 858.52 57.8688 858.584 57.8464C858.648 57.8239 858.713 57.8032 858.778 57.7841C858.844 57.7651 858.909 57.7477 858.975 57.7321C859.042 57.7164 859.108 57.7025 859.175 57.6903C859.242 57.6781 859.309 57.6676 859.376 57.6589C859.444 57.6502 859.511 57.6432 859.579 57.6379C859.647 57.6327 859.715 57.6292 859.783 57.6274C859.851 57.6256 859.92 57.6256 859.988 57.6274C860.056 57.6291 860.125 57.6326 860.193 57.6378C860.261 57.6431 860.33 57.6501 860.398 57.6588C860.466 57.6675 860.534 57.678 860.602 57.6902C860.67 57.7023 860.738 57.7163 860.805 57.7319C860.873 57.7475 860.94 57.7649 861.007 57.7839C861.074 57.803 861.141 57.8237 861.207 57.8461C861.273 57.8685 861.339 57.8926 861.405 57.9183C861.471 57.9441 861.536 57.9715 861.6 58.0005C861.665 58.0295 861.729 58.0601 861.792 58.0923C861.856 58.1246 861.919 58.1584 861.981 58.1938C862.043 58.2291 862.105 58.266 862.166 58.3045C862.227 58.343 862.287 58.3829 862.347 58.4244C862.406 58.4658 862.465 58.5087 862.523 58.5531C862.581 58.5975 862.638 58.6433 862.694 58.6904C862.751 58.7376 862.806 58.7862 862.861 58.8361C862.915 58.886 862.969 58.9372 863.021 58.9898Z" fill="#F9A825"/>
<path id="lower 1" d="M859.767 57.1929H900.254C900.329 57.1929 900.402 57.1945 900.476 57.1977C900.55 57.2009 900.623 57.2057 900.697 57.2121C900.77 57.2186 900.843 57.2266 900.915 57.2362C900.987 57.2458 901.059 57.257 901.131 57.2698C901.202 57.2826 901.273 57.2969 901.343 57.3129C901.413 57.3288 901.483 57.3463 901.552 57.3654C901.621 57.3844 901.69 57.405 901.757 57.4271C901.825 57.4493 901.892 57.4729 901.958 57.4981C902.024 57.5232 902.09 57.5499 902.154 57.578C902.219 57.6062 902.283 57.6358 902.345 57.6668C902.408 57.6979 902.47 57.7304 902.531 57.7643C902.591 57.7982 902.651 57.8336 902.71 57.8703C902.769 57.907 902.827 57.945 902.884 57.9845C902.94 58.0239 902.996 58.0647 903.05 58.1067C903.105 58.1488 903.158 58.1921 903.21 58.2367C903.262 58.2813 903.313 58.3272 903.362 58.3743C903.412 58.4213 903.46 58.4696 903.507 58.519C903.554 58.5684 903.599 58.619 903.643 58.6707C903.688 58.7224 903.731 58.7752 903.772 58.829C903.814 58.8829 903.854 58.9377 903.893 58.9936C903.931 59.0495 903.968 59.1064 904.004 59.1642C904.04 59.222 904.074 59.2808 904.107 59.3404C904.139 59.4001 904.17 59.4606 904.2 59.5219C904.229 59.5832 904.257 59.6453 904.284 59.7082C904.311 59.7711 904.335 59.8348 904.359 59.8991C904.382 59.9634 904.404 60.0284 904.424 60.0941C904.444 60.1597 904.462 60.226 904.479 60.2928C904.496 60.3596 904.511 60.4269 904.524 60.4948C904.538 60.5627 904.55 60.631 904.56 60.6997C904.57 60.7685 904.578 60.8376 904.585 60.9072C904.592 60.9766 904.597 61.0465 904.6 61.1166C904.604 61.1867 904.605 61.2571 904.605 61.3277C904.605 61.3983 904.604 61.4687 904.6 61.5388C904.597 61.6089 904.592 61.6788 904.585 61.7483C904.578 61.8178 904.57 61.8869 904.56 61.9557C904.55 62.0244 904.538 62.0927 904.524 62.1606C904.511 62.2285 904.496 62.2958 904.479 62.3626C904.462 62.4295 904.444 62.4957 904.424 62.5613C904.404 62.627 904.382 62.692 904.359 62.7563C904.335 62.8207 904.311 62.8843 904.284 62.9472C904.257 63.0101 904.229 63.0722 904.2 63.1335C904.17 63.1949 904.139 63.2554 904.107 63.315C904.074 63.3746 904.04 63.4334 904.004 63.4912C903.968 63.549 903.931 63.6059 903.893 63.6618C903.854 63.7177 903.814 63.7726 903.772 63.8264C903.731 63.8802 903.688 63.933 903.643 63.9847C903.599 64.0364 903.554 64.087 903.507 64.1364C903.46 64.1858 903.412 64.2341 903.362 64.2812C903.313 64.3282 903.262 64.3741 903.21 64.4187C903.158 64.4633 903.105 64.5067 903.05 64.5487C902.996 64.5908 902.94 64.6315 902.884 64.671C902.827 64.7104 902.769 64.7484 902.71 64.7851C902.651 64.8219 902.591 64.8572 902.531 64.8911C902.47 64.925 902.408 64.9575 902.345 64.9886C902.283 65.0196 902.219 65.0493 902.154 65.0774C902.09 65.1056 902.024 65.1322 901.958 65.1574C901.892 65.1825 901.825 65.2062 901.757 65.2283C901.69 65.2504 901.621 65.271 901.552 65.29C901.483 65.3091 901.413 65.3266 901.343 65.3425C901.273 65.3585 901.202 65.3728 901.131 65.3856C901.059 65.3984 900.987 65.4096 900.915 65.4192C900.843 65.4288 900.77 65.4369 900.697 65.4433C900.623 65.4497 900.55 65.4545 900.476 65.4577C900.402 65.4609 900.329 65.4625 900.254 65.4625H859.767C859.693 65.4625 859.619 65.4609 859.545 65.4577C859.472 65.4545 859.398 65.4497 859.325 65.4433C859.252 65.4369 859.179 65.4288 859.107 65.4192C859.034 65.4096 858.962 65.3984 858.891 65.3857C858.82 65.3728 858.749 65.3585 858.678 65.3425C858.608 65.3266 858.538 65.3091 858.469 65.29C858.4 65.271 858.332 65.2504 858.264 65.2283C858.196 65.2062 858.129 65.1825 858.063 65.1574C857.997 65.1322 857.932 65.1056 857.867 65.0774C857.803 65.0493 857.739 65.0196 857.676 64.9886C857.613 64.9575 857.552 64.925 857.491 64.8911C857.43 64.8572 857.37 64.8219 857.311 64.7851C857.252 64.7484 857.195 64.7104 857.138 64.671C857.081 64.6315 857.026 64.5908 856.971 64.5487C856.917 64.5067 856.864 64.4633 856.812 64.4187C856.76 64.3741 856.709 64.3282 856.659 64.2812C856.61 64.2341 856.562 64.1858 856.515 64.1364C856.468 64.087 856.422 64.0364 856.378 63.9847C856.334 63.933 856.291 63.8802 856.249 63.8264C856.208 63.7726 856.168 63.7177 856.129 63.6618C856.09 63.6059 856.053 63.549 856.017 63.4912C855.982 63.4334 855.948 63.3746 855.915 63.315C855.882 63.2554 855.851 63.1949 855.821 63.1335C855.792 63.0722 855.764 63.0101 855.737 62.9472C855.711 62.8843 855.686 62.8207 855.663 62.7563C855.639 62.692 855.618 62.627 855.598 62.5613C855.578 62.4957 855.559 62.4295 855.542 62.3626C855.526 62.2958 855.511 62.2285 855.497 62.1606C855.484 62.0927 855.472 62.0244 855.462 61.9557C855.452 61.8869 855.443 61.8178 855.436 61.7483C855.43 61.6788 855.425 61.6089 855.421 61.5388C855.418 61.4687 855.416 61.3983 855.416 61.3277C855.416 61.2571 855.418 61.1867 855.421 61.1166C855.425 61.0465 855.43 60.9766 855.436 60.9072C855.443 60.8376 855.452 60.7685 855.462 60.6997C855.472 60.631 855.484 60.5627 855.497 60.4948C855.511 60.4269 855.526 60.3596 855.542 60.2928C855.559 60.226 855.578 60.1597 855.598 60.0941C855.618 60.0284 855.639 59.9634 855.663 59.8991C855.686 59.8348 855.711 59.7711 855.737 59.7082C855.764 59.6453 855.792 59.5832 855.821 59.5219C855.851 59.4606 855.882 59.4001 855.915 59.3404C855.948 59.2808 855.982 59.222 856.017 59.1642C856.053 59.1064 856.09 59.0495 856.129 58.9936C856.168 58.9377 856.208 58.8829 856.249 58.829C856.291 58.7752 856.334 58.7224 856.378 58.6707C856.422 58.619 856.468 58.5684 856.515 58.519C856.562 58.4696 856.61 58.4213 856.659 58.3743C856.709 58.3272 856.76 58.2813 856.812 58.2367C856.864 58.1921 856.917 58.1488 856.971 58.1067C857.026 58.0647 857.081 58.0239 857.138 57.9845C857.195 57.945 857.252 57.907 857.311 57.8703C857.37 57.8336 857.43 57.7982 857.491 57.7643C857.552 57.7304 857.613 57.6979 857.676 57.6668C857.739 57.6358 857.803 57.6062 857.867 57.578C857.932 57.5499 857.997 57.5232 858.063 57.4981C858.129 57.4729 858.196 57.4493 858.264 57.4271C858.332 57.405 858.4 57.3844 858.469 57.3654C858.538 57.3463 858.608 57.3288 858.678 57.3129C858.749 57.2969 858.82 57.2826 858.891 57.2698C858.962 57.257 859.034 57.2458 859.107 57.2362C859.179 57.2266 859.252 57.2186 859.325 57.2121C859.398 57.2057 859.472 57.2009 859.545 57.1977C859.619 57.1945 859.693 57.1929 859.767 57.1929Z" fill="#F9A825"/>
</g>
</g>
</g>
</svg>
