<?xml version="1.0" encoding="utf-8"?>
<svg width="689px" height="654px" viewBox="0 0 689 654" version="1.1" xmlns:xlink="http://www.w3.org/1999/xlink" xmlns="http://www.w3.org/2000/svg">
  <desc>Created with Lunacy</desc>
  <g id="home-decor2">
    <g id="undraw_inspiration_lecl" transform="matrix(9.329996E-08 -1.000001 1.000001 9.329996E-08 0 653.1489)">
      <path d="M0 31.5148C0 14.1096 14.1097 0 31.5149 0C48.9201 0 63.0298 14.1096 63.0298 31.5148C63.0298 48.9199 48.9201 63.0295 31.5149 63.0295C14.1097 63.0295 0 48.9199 0 31.5148L0 31.5148Z" transform="translate(547.9996 573.9999)" id="Circle" fill="#6C63FF" stroke="none" />
      <path d="M0 15.7574C0 7.05481 3.20671 0 7.16238 0C11.1181 0 14.3248 7.05481 14.3248 15.7574C14.3248 24.4599 11.1181 31.5147 7.16238 31.5147C3.20671 31.5147 0 24.4599 0 15.7574L0 15.7574Z" transform="translate(550.8652 589.7573)" id="Ellipse" fill="#EEEEEE" stroke="none" />
      <path d="M0 31.5142C0 14.1093 14.11 0 31.5156 0C48.921 0 63.031 14.1093 63.031 31.5142C63.031 48.919 48.921 63.0284 31.5156 63.0284C14.11 63.0284 0 48.919 0 31.5142L0 31.5142Z" transform="translate(464.0079 338.9642)" id="Circle" fill="#3F3D56" stroke="none" />
      <path d="M0 7.16225C0 3.20665 7.05495 0 15.7576 0C24.4603 0 31.5153 3.20665 31.5153 7.16225C31.5153 11.1178 24.4603 14.3245 15.7576 14.3245C7.05495 14.3245 0 11.1178 0 7.16225L0 7.16225Z" transform="matrix(0.8098519 -0.5866343 0.5866343 0.8098519 465.9548 356.5204)" id="Ellipse" fill="#EEEEEE" stroke="none" />
      <path d="M0 19.6394C0 8.79286 8.79321 0 19.6402 0C30.4872 0 39.2803 8.79286 39.2803 19.6394C39.2803 30.486 30.4872 39.2788 19.6402 39.2788C8.79321 39.2788 0 30.486 0 19.6394L0 19.6394Z" transform="translate(597.731 159.7177)" id="Circle" fill="#F9A825" stroke="none" />
      <path d="M0 4.4635C0 1.99837 4.39661 0 9.8201 0C15.2436 0 19.6402 1.99837 19.6402 4.4635C19.6402 6.92861 15.2436 8.92699 9.8201 8.92699C4.39661 8.92699 0 6.92861 0 4.4635L0 4.4635Z" transform="matrix(0.8098519 -0.5866343 0.5866343 0.8098519 598.9443 170.6582)" id="Ellipse" fill="#EEEEEE" stroke="none" />
      <path d="M0 19.6395C0 8.79291 8.79325 0 19.6403 0C30.4873 0 39.2805 8.79291 39.2805 19.6395C39.2805 30.4862 30.4873 39.279 19.6403 39.279C8.79325 39.279 0 30.4862 0 19.6395L0 19.6395Z" transform="translate(379.7279 649.7081)" id="Circle" fill="#F9A825" stroke="none" />
      <path d="M0 4.46329C0 1.99828 4.39658 0 9.82004 0C15.2435 0 19.6401 1.99828 19.6401 4.46329C19.6401 6.92829 15.2435 8.92657 9.82004 8.92657C4.39658 8.92657 0 6.92829 0 4.46329L0 4.46329Z" transform="matrix(0.8098519 -0.5866343 0.5866343 0.8098519 380.9412 660.6492)" id="Ellipse" fill="#EEEEEE" stroke="none" />
      <path d="M0 31.5142C0 14.1094 14.1099 0 31.5152 0C48.9206 0 63.0305 14.1094 63.0305 31.5142C63.0305 48.919 48.9206 63.0284 31.5152 63.0284C14.1099 63.0284 0 48.919 0 31.5142L0 31.5142Z" transform="translate(590.1179 364.2316)" id="Circle" fill="#FF6584" stroke="none" />
      <path d="M0 15.757C0 7.05464 3.20684 0 7.16268 0C11.1185 0 14.3253 7.05464 14.3253 15.757C14.3253 24.4593 11.1185 31.5139 7.16268 31.5139C3.20684 31.5139 0 24.4593 0 15.757L0 15.757Z" transform="translate(592.9816 379.9889)" id="Ellipse" fill="#EEEEEE" stroke="none" />
      <path d="M0 31.5142C0 14.1094 14.11 0 31.5155 0C48.9211 0 63.031 14.1094 63.031 31.5142C63.031 48.9191 48.9211 63.0285 31.5155 63.0285C14.11 63.0285 0 48.9191 0 31.5142L0 31.5142Z" transform="translate(488.4078 162.2532)" id="Circle" fill="#6A9BD8" stroke="none" />
      <path d="M0 7.16217C0 3.20661 7.05498 0 15.7577 0C24.4605 0 31.5154 3.20661 31.5154 7.16217C31.5154 11.1178 24.4605 14.3243 15.7577 14.3243C7.05498 14.3243 0 11.1178 0 7.16217L0 7.16217Z" transform="matrix(0.8098519 -0.5866343 0.5866343 0.8098519 490.3547 179.8097)" id="Ellipse" fill="#EEEEEE" stroke="none" />
      <path d="M0 19.6394C0 8.79289 8.79321 0 19.6402 0C30.4872 0 39.2803 8.79289 39.2803 19.6394C39.2803 30.4861 30.4872 39.2789 19.6402 39.2789C8.79321 39.2789 0 30.4861 0 19.6394L0 19.6394Z" transform="translate(613.7319 0.5806885)" id="Circle" fill="#AE1100" stroke="none" />
      <path d="M0 4.46344C0 1.99836 4.39656 0 9.82 0C15.2435 0 19.64 1.99836 19.64 4.46344C19.64 6.92854 15.2435 8.92689 9.82 8.92689C4.39656 8.92689 0 6.92854 0 4.46344L0 4.46344Z" transform="matrix(0.8098519 -0.5866343 0.5866343 0.8098519 614.9451 11.5215)" id="Ellipse" fill="#EEEEEE" stroke="none" />
      <path d="M0 19.6393C0 8.79282 8.79329 0 19.6404 0C30.4874 0 39.2808 8.79282 39.2808 19.6393C39.2808 30.4858 30.4874 39.2786 19.6404 39.2786C8.79329 39.2786 0 30.4858 0 19.6393L0 19.6393Z" transform="translate(432.9548 506.4612)" id="Circle" fill="#AE1100" stroke="none" />
      <path d="M0 4.4635C0 1.99838 4.39667 0 9.82023 0C15.2438 0 19.6405 1.99838 19.6405 4.4635C19.6405 6.92862 15.2438 8.927 9.82023 8.927C4.39667 8.927 0 6.92862 0 4.4635L0 4.4635Z" transform="matrix(0.8098519 -0.5866343 0.5866343 0.8098519 434.1678 517.4021)" id="Ellipse" fill="#EEEEEE" stroke="none" />
      <path d="M0 17.7667C0 7.95443 7.95479 0 17.7675 0C27.5803 0 35.535 7.95443 35.535 17.7667C35.535 27.579 27.5803 35.5334 17.7675 35.5334C7.95479 35.5334 0 27.579 0 17.7667L0 17.7667Z" transform="translate(0 449.1694)" id="Circle" fill="#EEEEEE" stroke="none" />
      <path d="M0 11.8445C0 5.30297 5.30324 0 11.8452 0C18.3869 0 23.6902 5.30297 23.6902 11.8445C23.6902 18.386 18.3869 23.689 11.8452 23.689C5.30324 23.689 0 18.386 0 11.8445L0 11.8445Z" transform="translate(11.06873 552.489)" id="Circle" fill="#EEEEEE" stroke="none" />
      <path d="M0 11.8445C0 5.30298 5.30323 0 11.8451 0C18.387 0 23.6901 5.30298 23.6901 11.8445C23.6901 18.3861 18.387 23.6891 11.8451 23.6891C5.30323 23.6891 0 18.3861 0 11.8445L0 11.8445Z" transform="translate(51.86047 511.8826)" id="Circle" fill="#EEEEEE" stroke="none" />
    </g>
  </g>
</svg>