<svg width="614" height="274" viewBox="0 0 614 274" fill="none" xmlns="http://www.w3.org/2000/svg">
<g id="home decor2">
<g id="undraw inspiration lecl">
<path id="Circle" d="M275.515 181.03C258.11 181.03 244 166.92 244 149.515C244 132.11 258.11 118 275.515 118C292.92 118 307.03 132.11 307.03 149.515C307.03 166.92 292.92 181.03 275.515 181.03Z" fill="#6C63FF"/>
<path id="Ellipse" d="M275.515 178.164C266.812 178.164 259.758 174.957 259.758 171.002C259.758 167.046 266.812 163.839 275.515 163.839C284.217 163.839 291.272 167.046 291.272 171.002C291.272 174.957 284.217 178.164 275.515 178.164Z" fill="#EEEEEE"/>
<path id="Circle 2" d="M489.446 160.031C472.041 160.031 457.932 145.921 457.932 128.515C457.932 111.11 472.041 97 489.446 97C506.851 97 520.96 111.11 520.96 128.515C520.96 145.921 506.851 160.031 489.446 160.031Z" fill="#3F3D56"/>
<path id="Ellipse 2" d="M481.288 153.883C478.085 156.203 471.349 152.371 466.244 145.323C461.139 138.275 459.597 130.68 462.8 128.36C466.004 126.039 472.739 129.872 477.845 136.92C482.95 143.967 484.492 151.562 481.288 153.883Z" fill="#EEEEEE"/>
<path id="Circle 3" d="M194.221 51.2804C183.374 51.2804 174.581 42.4872 174.581 31.6402C174.581 20.7932 183.374 12.0001 194.221 12.0001C205.067 12.0001 213.86 20.7932 213.86 31.6402C213.86 42.4872 205.067 51.2804 194.221 51.2804Z" fill="#F9A825"/>
<path id="Ellipse 3" d="M189.136 47.4487C187.14 48.8948 182.942 46.5065 179.761 42.1143C176.579 37.7221 175.618 32.9891 177.615 31.543C179.611 30.0969 183.809 32.4852 186.99 36.8774C190.172 41.2696 191.133 46.0026 189.136 47.4487Z" fill="#EEEEEE"/>
<path id="Circle 4" d="M594.348 273.42C583.502 273.42 574.709 264.627 574.709 253.78C574.709 242.933 583.502 234.14 594.348 234.14C605.195 234.14 613.988 242.933 613.988 253.78C613.988 264.627 605.195 273.42 594.348 273.42Z" fill="#F9A825"/>
<path id="Ellipse 4" d="M589.265 269.589C587.268 271.035 583.071 268.646 579.889 264.254C576.708 259.862 575.747 255.129 577.743 253.683C579.739 252.237 583.937 254.625 587.118 259.018C590.3 263.41 591.261 268.143 589.265 269.589Z" fill="#EEEEEE"/>
<path id="Circle 5" d="M360.514 63.0306C343.109 63.0306 329 48.9207 329 31.5154C329 14.11 343.109 3.65231e-05 360.514 3.8147e-05C377.919 3.97709e-05 392.029 14.11 392.029 31.5154C392.029 48.9207 377.919 63.0306 360.514 63.0306Z" fill="#FF6584"/>
<path id="Ellipse 5" d="M360.514 60.1669C351.812 60.1669 344.757 56.96 344.757 53.0042C344.757 49.0484 351.812 45.8416 360.514 45.8416C369.217 45.8416 376.271 49.0484 376.271 53.0042C376.271 56.96 369.217 60.1669 360.514 60.1669Z" fill="#EEEEEE"/>
<path id="Circle 6" d="M88.4457 148.031C71.0409 148.031 56.9315 133.921 56.9315 116.515C56.9315 99.1095 71.0409 84.9996 88.4458 84.9996C105.851 84.9996 119.96 99.1095 119.96 116.515C119.96 133.921 105.851 148.031 88.4457 148.031Z" fill="#6A9BD8"/>
<path id="Ellipse 6" d="M80.2883 141.882C77.0849 144.203 70.3493 140.37 65.244 133.322C60.1387 126.274 58.5969 118.68 61.8003 116.359C65.0038 114.039 71.7392 117.871 76.8446 124.919C81.9499 131.967 83.4918 139.562 80.2883 141.882Z" fill="#EEEEEE"/>
<path id="Circle 7" d="M20.2202 39.2802C9.37365 39.2802 0.580749 30.487 0.58075 19.64C0.580751 8.79301 9.37365 -0.000100194 20.2202 -9.91821e-05C31.0669 -9.81701e-05 39.8597 8.79301 39.8597 19.64C39.8597 30.487 31.0669 39.2802 20.2202 39.2802Z" fill="#AE1100"/>
<path id="Ellipse 7" d="M15.1363 35.4486C13.1399 36.8947 8.94237 34.5064 5.76079 30.1142C2.57918 25.722 1.61842 20.9892 3.61477 19.5431C5.61114 18.097 9.80865 20.4852 12.9903 24.8774C16.1718 29.2696 17.1326 34.0025 15.1363 35.4486Z" fill="#EEEEEE"/>
<path id="Circle 8" d="M429.22 262.281C418.374 262.281 409.581 253.488 409.581 242.64C409.581 231.793 418.374 223 429.22 223C440.067 223 448.86 231.793 448.86 242.64C448.86 253.488 440.067 262.281 429.22 262.281Z" fill="#AE1100"/>
<path id="Ellipse 8" d="M424.137 258.449C422.14 259.896 417.943 257.507 414.761 253.115C411.579 248.723 410.618 243.99 412.615 242.543C414.611 241.097 418.809 243.486 421.99 247.878C425.172 252.27 426.133 257.003 424.137 258.449Z" fill="#EEEEEE"/>
</g>
</g>
</svg>
