<svg width="856" height="778" xmlns="http://www.w3.org/2000/svg">
  <defs>
    <style>
      @keyframes swing{0%{transform:translate(63%,57%) rotate(12deg)}to{transform:translate(64%,60%) rotate(-10deg)}}@keyframes swing_leg2{0%{transform:translate(9%,26.5%) rotate(0deg)}to{transform:translate(8.7%,27.4%) rotate(-26deg)}}@keyframes swing_leg1{0%{transform:translate(10%,26.5%) rotate(-2deg)}to{transform:translate(10.9%,26%) rotate(35deg)}}
    </style>
  </defs>
  <g id="svg">
    <path d="M0 0h856v778H0V0z" id="Background" fill="none" stroke="none"/>
    <g id="Group" transform="translate(0 15.776)">
      <g transform="translate(540.316 443.23)" style="animation:swing ease-in-out 1.5s infinite alternate">
        <path d="M4.213 225.052h-2V6.204A5.98 5.98 0 000 1.551L1.264 0a7.973 7.973 0 012.949 6.204v218.848z" transform="translate(52.787 1.796)" id="Shape" fill="#3F3D56" stroke="none"/>
        <path d="M0 9.797S11.312-2.07 15.942.317c4.63 2.388-13.312 13-13.312 13L0 9.797z" transform="translate(78.43 162.208)" id="Shape-27" fill="#FFB9B9" stroke="none"/>
        <path d="M0 9.797S11.312-2.07 15.942.317c4.63 2.388-13.312 13-13.312 13L0 9.797z" transform="translate(78.43 162.208)" id="Shape-28" fill="#000" fill-opacity=".102" stroke="none"/>
        <path d="M3.252.493S-.907 7.946.182 15.98C1.27 24.016 11.22 49.798 14.604 49.34c3.383-.459 28.443-18.925 28.443-18.925l-4.78-6.674L19.96 34.834S17.172-4.838 3.252.493z" transform="translate(40.664 145.61)" id="Shape-29" fill="#D0CDE1" stroke="none"/>
        <path d="M37.615 14.129L9.075 29.805a1.359 1.359 0 01-1.998-.59L.086 14.602a1.824 1.824 0 01.935-2.19L24.716.197a1.383 1.383 0 011.813.347l11.836 11.15a1.758 1.758 0 01-.75 2.434z" transform="translate(74.183 150.12)" id="Shape-30" fill="#2F2E41" stroke="none"/>
        <path d="M33.875 10.021L7.12 25.314 0 12.482 22.952 0l10.923 10.021z" transform="translate(76.018 152.067)" id="Polygon" fill="#F50057" stroke="none"/>
        <path d="M0 .5a.5.5 0 111 0 .5.5 0 01-1 0z" transform="rotate(-50.158 211.654 -13.835)" id="Ellipse" fill="#F2F2F2" stroke="none"/>
        <path d="M0 .5a.5.5 0 111 0 .5.5 0 01-1 0z" transform="rotate(-50.158 230.701 -18.08)" id="Ellipse-2" fill="#F2F2F2" stroke="none"/>
        <path d="M3.252.493S-.907 7.946.182 15.98C1.27 24.016 11.22 49.798 14.604 49.34c3.383-.459 28.443-18.925 28.443-18.925l-4.78-6.674L19.96 34.834S17.172-4.838 3.252.493z" transform="translate(40.664 145.61)" id="Shape-31" fill="#000" fill-opacity=".102" stroke="none"/>
        <path d="M0 7.8S12.802-2.44 17.07.547C21.337 3.533 2.134 11.641 2.134 11.641L0 7.801z" transform="translate(70.782 166.472)" id="Shape-32" fill="#FFB9B9" stroke="none"/>
        <path d="M0 12.376C0 5.54 5.54 0 12.376 0 19.21 0 24.75 5.54 24.75 12.376c0 6.834-5.54 12.375-12.375 12.375S0 19.211 0 12.376z" transform="translate(41.337 108.554)" id="Circle" fill="#FFB9B9" stroke="none"/>
        <g transform="translate(83.098 207.132)" style="animation:swing_leg2 ease-in-out 1.5s infinite alternate" stroke="none">
          <path d="M13.289 0s13.23 1.707 12.802 9.815c-.426 8.108-10.242 41.821-10.242 41.821l-.853 13.23s.854 22.19-1.707 21.763c-2.56-.427-8.535-15.79-8.535-15.79S-2.5 66.145.914 61.879c3.413-4.267 5.974-3.84 5.12-8.535-.853-4.694-.426-24.324 2.134-30.299 2.56-5.974 4.053-9.27 4.053-9.27L3.9 13.23 13.289 0z" id="Shape-33" fill="#FFB9B9"/>
          <path d="M13.289 0s13.23 1.707 12.802 9.815c-.426 8.108-10.242 41.821-10.242 41.821l-.853 13.23s.854 22.19-1.707 21.763c-2.56-.427-8.535-15.79-8.535-15.79S-2.5 66.145.914 61.879c3.413-4.267 5.974-3.84 5.12-8.535-.853-4.694-.426-24.324 2.134-30.299 2.56-5.974 4.053-9.27 4.053-9.27L3.9 13.23 13.289 0z" id="Shape-34" fill="#000" fill-opacity=".102"/>
        </g>
        <path d="M8.962 0s12.802 2.987 14.082 11.522c1.28 8.535 7.682 33.713 7.682 33.713l6.828 15.79S48.221 80.227 43.528 79.8c-4.694-.427-11.095-9.815-13.23-9.815-2.133 0-8.534-2.56-8.107-4.267.426-1.707 3.414-6.828 3.414-6.828L15.28 40.906a43.68 43.68 0 01-4.478-11.083c-1.06-4.212-2.267-9.372-2.267-11.046C8.535 15.789 0 14.509 0 14.509L8.962 0z" transform="translate(88.279 209.265)" fill="#FFB9B9" style="animation:swing_leg1 ease-in-out 1.5s infinite alternate"/>
        <path d="M41.968 0l5.975 17.07s9.388 2.56 16.216 4.694c6.828 2.134 19.63-.854 20.91 4.267 1.28 5.121-2.56 14.083-6.4 16.217-3.841 2.134-5.975 4.267-18.35.853-12.376-3.414-41.822-4.267-41.822-4.267A21.392 21.392 0 019.11 41.82c-5.548.427-6.828.854-8.535-.427-1.707-1.28.854-1.28 1.707-4.694.854-3.414 1.28-2.134 5.121-5.974 3.84-3.841 6.828-15.363 8.962-19.204C18.497 7.682 19.778 0 19.778 0h22.19z" transform="translate(13.451 181.954)" id="Shape-36" fill="#2F2E41" stroke="none"/>
        <path d="M17.923 8.505a12.496 12.496 0 00-5.12 9.815C12.802 24.721 0 11.492 0 11.492S6.828 2.957 6.828.397c0-2.56 11.095 8.108 11.095 8.108z" transform="translate(36.643 122.666)" id="Shape-37" fill="#FFB9B9" stroke="none"/>
        <path d="M10.549 0s7.681 2.987 9.388 7.255c1.707 4.267 8.108 13.229 8.108 13.229s8.962 9.388 5.975 19.63c-2.987 10.242-5.548 12.802-5.548 14.51 0 1.706-4.267 4.693-7.681 4.267-3.414-.427-16.216-2.134-17.07-3.841-.853-1.707-5.974-26.031-2.56-34.993A207.04 207.04 0 0110.549 0z" transform="translate(27.8 128.61)" id="Shape-38" fill="#D0CDE1" stroke="none"/>
        <path d="M32.302 22.389c2.77.657 5.487-1.108 7.756-2.857 1.289-.994 2.707-2.41 2.312-4.009-.35-1.418-2.021-2.222-2.264-3.664-.17-1.001.416-1.976.464-2.991a4.226 4.226 0 00-2.485-3.624c-1.349-.727-2.88-1.03-4.266-1.68-2.116-.993-3.875-2.783-6.136-3.356-3.088-.783-6.233.884-9.408 1.1-1.922.13-3.868-.274-5.769.041A8.234 8.234 0 005.91 9.122c-.024 1.358.247 2.874-.563 3.95-.32.372-.685.702-1.086.984C1.436 16.34.154 20.155.008 23.83c-.072 1.809.307 3.958 1.912 4.727.86.294 1.768.42 2.675.371a2.794 2.794 0 012.362 1.128c.732 1.29-.364 3.195.592 4.32.719.845 2.12.565 2.959-.156.839-.72 1.362-1.756 2.157-2.526 1.547-1.498 3.841-1.77 5.961-1.998a3.025 3.025 0 001.749-.573c.385-.405.636-.918.717-1.47a9.113 9.113 0 00.01-3.862 2.146 2.146 0 01-.048-1.222c.14-.287.357-.53.626-.701 1.314-.987 3.616-2.424 5.324-2.152 1.895.301 3.386 2.219 5.298 2.672z" transform="translate(25 99.104)" id="Shape-39" fill="#2F2E41" stroke="none"/>
        <path d="M0 3c0-1.657.448-3 1-3s1 1.343 1 3-.448 3-1 3-1-1.343-1-3z" transform="rotate(-38.768 172.82 13.947)" id="Ellipse-3" fill="#F50057" stroke="none"/>
        <path d="M5.12.208S0 7.036 0 15.144s6.401 34.993 9.815 34.993c3.414 0 30.726-14.936 30.726-14.936L36.7 27.947 17.07 36.48S19.63-3.206 5.12.208z" transform="translate(34.936 143.765)" id="Shape-40" fill="#D0CDE1" stroke="none"/>
        <path d="M0 0h98v19H0V0z" transform="translate(0 221)" id="Rectangle" fill="#F50057" stroke="none"/>
        <path d="M8 241a8.01 8.01 0 01-8-8V8a8 8 0 0113.05-6.204l-1.263 1.55A6 6 0 002 8v225a6.007 6.007 0 006 6v2z" transform="translate(41)" id="Shape-41" fill="#3F3D56" stroke="none"/>
      </g>
      <path d="M0 0a17.54 17.54 0 011.15 3.68C.59 1.75.15.44 0 0z" transform="translate(393.58 108.457)" id="Shape-2" fill="#3F3D56" stroke="none"/>
      <path d="M1.49 0s0 1.38-1.49 6.36L1.49 0z" transform="translate(409.83 169.597)" id="Shape-3" fill="#3F3D56" stroke="none"/>
      <path d="M593.91 292.68c-39.33 20.5-90.78 38.2-106.19 43.33 11.75-3.06 45.95-7.18 98.94 25.88 66.58 41.53 137.77 13.84 137.77 13.84s-15.82 30.33-49.44 32.3c-33.62 1.98-121.29-53.39-150.95-37.57-29.67 15.82-43.51-3.96-55.38 35.6-11.86 39.55-33.61 147.65-8.56 208.3L485.14 675H342.76s51.42-137.11 23.07-221.48c-15.87-47.25-38.15-81.47-46.46-98.86-4.17-8.71-4.83-13.19.57-12.97 3.07.13 8.1 1.78 15.57 5.04 0 0-34.28-33.62-45.48-33.62-11.21 0-63.95-5.27-81.08-23.07 0 0-24.39-17.14-67.9 25.05-43.51 42.19-32.96 42.19-71.85 38.89C30.92 350.73.93 332.16 0 331.58c1.11.45 45.82 18.32 73.15 9.22 27.69-9.23 51.42-44.17 75.81-56.03 24.39-11.87 38.89-27.69 71.85-10.55l-21.72-51.21-5.95-14.03-.01-.02s-7.26-96.24-21.1-102.83c-13.84-6.6-5.27-23.73-30.98-27.03 0 0 31.64-3.96 37.57 17.8 5.94 21.75 46.81 139.09 46.81 139.09s25.04 50.09 52.73 38.23c27.69-11.87-10.55-78.44-10.55-78.44l-47.46-21.76s35.6-1.32 57.35 19.12c21.75 20.43 23.07 86.35 23.07 86.35s54.71 7.91 67.9 37.58c0 0 8.57-26.37-7.91-42.19-4.12-3.96-8.45-10.84-12.62-18.93a167.217 167.217 0 01-16.34-100.72c2.45-16.86 3.96-33.35 1.27-37.24-5.93-8.57-30.98-61.3-32.96-75.15C297.94 29 301.89 0 301.89 0s.66 35.59 8.57 46.8c7.91 11.21 30.32 66.58 30.32 66.58s0 69.87 18.46 104.15 54.05 72.51 52.08 97.56v14.5s39.55-37.57 36.91-50.1c-2.64-12.52-5.93-42.19-30.98-59.98-25.05-17.8-41.53-46.15-23.73-87.02 10.01-22.99 14.39-35.34 16.31-41.75l-10.38 44.39s-6.59 45.48 11.87 61.3c.05.04.09.08.14.12 18.43 15.84 42.7 44.71 42.7 44.71l-.07-1.27-5.2-93.65 1.14 2.5 8.22 18.02 7.78 17.05s36.91-47.46 80.42-63.28c43.5-15.82 70.53-71.19 70.53-71.19l36.92-29.01-30.33 36.26s-9.23 42.84-61.3 73.17c-52.08 30.32-85.69 75.14-87.67 102.83-1.98 27.69-3.96 52.08-3.96 52.08s97.56-3.3 119.31-46.15c21.76-42.84 39.56-44.82 39.56-44.82l-12.53 36.91-13.84 31.64s56.69 1.32 86.35 34.94c29.67 33.62 103.49 43.51 103.49 43.51L751.46 352s-39.56-13.18-77.13-37.57c-37.57-24.39-33.62-46.14-80.42-21.75z" transform="translate(0 85.227)" id="Shape-4" fill="#3F3D56" stroke="none"/>
      <path d="M135.29 0c-4.17 18.46-9.08 36.29-15.98 49.88C97.56 92.73 0 96.03 0 96.03s.46-5.66 1.16-14.59c24.77-2.04 92.48-10.75 110.15-45.56 1.62-3.18 3.12-6.6 4.54-10.2L135.29 0z" transform="translate(479.64 287.967)" id="Shape-5" fill="#000" fill-opacity=".102" stroke="none"/>
      <path d="M52.16 106.42S27.77 77.41 9.32 61.59C5.27 58.13 2.43 53.23.46 47.71c-.16-.44-.31-.89-.46-1.34.43.42.86.83 1.32 1.22C17.47 61.44 38.18 85.4 43.09 91.15l1.07 1.27L39.03 0l8.22 18.02 4.91 88.4z" transform="translate(411 234.067)" id="Shape-6" fill="#000" fill-opacity=".102" stroke="none"/>
      <path d="M2.25 151.596C2.106 167.825 0 177.478 0 177.478s36.899-47.441 80.393-63.272a249.586 249.586 0 017.848-4.781c52.076-30.323 61.304-73.17 61.304-73.17L179.868 0l-36.915 29.004s-27.026 55.372-70.532 71.192c-29.656 10.784-56.244 36.265-70.17 51.4z" transform="translate(475.028 105.659)" id="Shape-7" fill="#000" fill-opacity=".102" stroke="none"/>
      <path d="M.353 81.426v14.502S39.904 58.354 37.268 45.83C35.25 36.252 32.837 16.653 20.614 0c5.51 12.585 7.186 24.86 8.654 31.83C31.158 40.81 11.356 62.672 0 74.323c.398 2.345.517 4.73.353 7.103z" transform="translate(419.962 332.889)" id="Shape-8" fill="#000" fill-opacity=".102" stroke="none"/>
      <path d="M0 0c.313.668.636 1.325.979 1.961C11.087 20.734 26.327 40.69 37.729 59.02 28.513 40.867 12.476 20.11 0 0z" transform="translate(367.262 314.794)" id="Shape-9" fill="#000" fill-opacity=".102" stroke="none"/>
      <path d="M90.891 24.523C69.207 10.997 50.672 3.698 35.531 0 19.65 5.978 6.578 10.435 0 12.624c11.796-3.054 45.972-7.11 98.891 25.9 41.521 25.898 84.833 24.877 111.556 20.44a69.055 69.055 0 0018.214-20.598c4.629-8.017-71.192 27.686-137.77-13.843z" transform="translate(496.768 422.594)" id="Shape-10" fill="#000" fill-opacity=".102" stroke="none"/>
      <path d="M12.341 110.774C7.026 97.75 6.15 82.252 12.257 64.091a142.45 142.45 0 011.136-19.69L23.773 0C21.859 6.403 17.48 18.756 7.46 41.764c-12.685 29.129-7.951 51.89 4.88 69.01z" transform="translate(387.057 175.956)" id="Shape-11" fill="#000" fill-opacity=".102" stroke="none"/>
      <path d="M78.353 33.671C57.782 10.357 24.217 2.58 5.571 0L0 12.735s56.69 1.318 86.353 34.936c16.45 18.643 46.477 29.986 69.969 36.394l25.523-6.887S108.017 67.29 78.353 33.67z" transform="translate(612.139 348.845)" id="Shape-12" fill="#000" fill-opacity=".102" stroke="none"/>
      <path d="M53.267 78.922C80.953 67.057 42.72.48 42.72.48L41.674 0c9.532 20.11 23.355 56.453 3.593 64.922C26.774 72.848 9.46 53.13 0 39.16l.532 1.53s25.05 50.098 52.735 38.232z" transform="translate(233.893 294.523)" id="Shape-13" fill="#000" fill-opacity=".102" stroke="none"/>
      <path d="M68.592 50.194s8.343-25.715-7.33-41.591c3.844 13.677-.67 27.591-.67 27.591C50.394 13.247 15.35 3.32 0 0c.595 7.64.696 12.62.696 12.62s54.712 7.91 67.896 37.574z" transform="translate(308.877 366.098)" id="Shape-14" fill="#000" fill-opacity=".102" stroke="none"/>
      <path d="M0 6.356C1.485 1.386 1.486 0 1.486 0L0 6.356z" transform="translate(410.83 169.6)" id="Shape-15" fill="#000" fill-opacity=".102" stroke="none"/>
      <path d="M80.77 105.813c.133-.043.267-.082.4-.126 27.685-9.23 51.416-44.166 75.806-56.031 24.39-11.865 38.892-27.686 71.851-10.547 0 0-5.766-23.602-16.94-39.109a153.814 153.814 0 018.94 25.109c-32.959-17.139-47.461-1.319-71.851 10.547-24.39 11.865-48.121 46.802-75.806 56.03C45.484 100.916 0 82.459 0 82.459s30.323 19.116 69.215 22.412c4.448.377 8.245.71 11.555.943z" transform="translate(.984 334.336)" id="Shape-16" fill="#000" fill-opacity=".102" stroke="none"/>
      <path d="M21.4 102.99s-1.08.02-3.04.05l-5.95-14.03c.65-.01.99-.02.99-.02S8.82 28.29 0 0c.11.05.2.11.3.16 13.84 6.59 21.1 102.83 21.1 102.83z" transform="translate(180.73 205.197)" id="Shape-17" fill="#000" fill-opacity=".102" stroke="none"/>
      <path d="M12.816 267.592C24.894 230.566 53.94 128.181 31.07 60.105 21.196 30.707 12.041 11.96 4.303 0 10.09 11.322 16.417 26.297 23.07 46.105 51.416 130.481 0 267.592 0 267.592h12.816z" transform="translate(343.76 492.638)" id="Shape-18" fill="#000" fill-opacity=".102" stroke="none"/>
      <path d="M28.444 19.048a73.302 73.302 0 00-25.14-6.07c-4.17-8.71-4.83-13.19.57-12.97 1.5.27 3.01.59 4.51.96 10.6 8.8 20.06 18.08 20.06 18.08z" transform="translate(316.066 426.91)" id="Shape-19" fill="#000" fill-opacity=".102" stroke="none"/>
      <path d="M0 0a17.244 17.244 0 002.71 3.466A19.456 19.456 0 000 0z" transform="translate(166.055 184.954)" id="Shape-20" fill="#000" fill-opacity=".102" stroke="none"/>
      <path d="M65.35 33.134a32.08 32.08 0 012.857 3.08c-2.888-6.94-6.454-12.943-10.858-17.08C35.596-1.301 0 .017 0 .017l44.641 20.46A63.75 63.75 0 0165.35 33.135z" transform="translate(221.152 259.232)" id="Shape-21" fill="#000" fill-opacity=".102" stroke="none"/>
      <path d="M33.513 117.994c2.69 3.886 1.179 20.376-1.277 37.241a167.201 167.201 0 0016.346 100.714c2.1 4.155 4.445 8.181 7.023 12.058a167.364 167.364 0 01-15.37-98.772c2.457-16.865 3.968-33.355 1.278-37.241-5.933-8.569-30.982-61.304-32.96-75.147a95.934 95.934 0 01-.412-16.175C3.02 26.144 2.53 0 2.53 0S-1.424 29.004.554 42.847C2.53 56.69 27.58 109.425 33.513 117.994z" transform="translate(300.36 85.224)" id="Shape-22" fill="#000" fill-opacity=".102" stroke="none"/>
      <path d="M1.343 4.1A18.86 18.86 0 00.146.307C-.385-.91.653 1.73 1.343 4.1z" transform="translate(394.372 107.988)" id="Shape-23" fill="#000" fill-opacity=".102" stroke="none"/>
      <path d="M20.837 14.432c5.81.71 12.493 2.493 17.59 6.627a150.54 150.54 0 01-.853-2.98C31.64-3.674 0 .281 0 .281c14.299 1.833 17.992 7.95 20.837 14.15z" transform="translate(142.05 164.045)" id="Shape-24" fill="#000" fill-opacity=".102" stroke="none"/>
      <path d="M7.475 20.345C-2.356 35.42.338 54.595.338 54.595S18.97 49.329 28.8 34.252C38.632 19.175 35.94 0 35.94 0S17.306 5.268 7.475 20.345z" transform="translate(777.04 706.017)" id="Shape-25" fill="#3F3D56" stroke="none"/>
      <path d="M25.472 33.108c-.777 17.982-14.125 32.01-14.125 32.01S-.74 49.99.036 32.007C.813 14.029 14.16 0 14.16 0S26.25 15.127 25.472 33.108z" transform="translate(766.427 695.92)" id="Shape-26" fill="#F50057" stroke="none"/>
      <path d="M0 0h806v2H0V0z" transform="translate(49.316 759.23)" id="Rectangle-2" fill="#3F3D56" fill-opacity="0" stroke="none"/>
      <path d="M7.475 20.345C-2.356 35.42.338 54.595.338 54.595S18.97 49.329 28.8 34.252C38.632 19.175 35.94 0 35.94 0S17.306 5.268 7.475 20.345z" transform="translate(481.04 706.017)" id="Shape-42" fill="#3F3D56" stroke="none"/>
      <path d="M25.472 33.108c-.777 17.982-14.125 32.01-14.125 32.01S-.74 49.99.036 32.007C.813 14.029 14.16 0 14.16 0S26.25 15.127 25.472 33.108z" transform="translate(470.427 695.92)" id="Shape-43" fill="#F50057" stroke="none"/>
      <path d="M1.42 34.782c4.7 17.374 20.798 28.134 20.798 28.134s8.478-17.408 3.778-34.782C21.296 10.76 5.198 0 5.198 0s-8.479 17.409-3.779 34.782z" transform="translate(325.306 697.283)" id="Shape-44" fill="#3F3D56" stroke="none"/>
      <path d="M32.231 13.61c12.897 12.555 14.472 31.854 14.472 31.854s-19.334-1.056-32.231-13.61C1.575 19.299 0 0 0 0s19.335 1.056 32.231 13.61z" transform="translate(301.4 714.72)" id="Shape-45" fill="#F50057" stroke="none"/>
      <path d="M25.486 33.319C24.365 51.282 10.75 65.05 10.75 65.05S-1.046 49.696.075 31.733C1.196 13.769 14.811 0 14.811 0s11.796 15.355 10.675 33.319z" transform="translate(265.4 223.952)" id="Shape-46" fill="#F50057" stroke="none"/>
      <path d="M34.357 7.051c15.225 9.6 20.778 28.15 20.778 28.15s-19.132 2.986-34.357-6.613C5.553 18.99 0 .44 0 .44S19.132-2.548 34.357 7.05z" transform="translate(114.613 136.658)" id="Shape-47" fill="#F50057" stroke="none"/>
      <path d="M34.357 7.051c15.225 9.6 20.778 28.15 20.778 28.15s-19.132 2.986-34.357-6.613C5.553 18.99 0 .44 0 .44S19.132-2.548 34.357 7.05z" transform="translate(80.613 355.658)" id="Shape-48" fill="#F50057" stroke="none"/>
      <path d="M25.968 34.758C21.377 52.161 5.346 63.021 5.346 63.021s-8.587-17.355-3.995-34.758C5.942 10.86 21.973 0 21.973 0s8.587 17.355 3.995 34.758z" transform="translate(398.521 140.967)" id="Shape-49" fill="#F50057" stroke="none"/>
      <path d="M26.196 34.907C20.799 52.077 4.28 62.178 4.28 62.178s-7.77-17.736-2.373-34.906C7.304 10.103 23.823 0 23.823 0s7.77 17.736 2.373 34.907z" transform="translate(543.13 154.388)" id="Shape-50" fill="#F50057" stroke="none"/>
      <path d="M28.75 34.277C18.974 49.39.36 54.727.36 54.727S-2.402 35.56 7.373 20.448C17.148 5.337 35.761 0 35.761 0s2.764 19.165-7.011 34.277z" transform="translate(697.12 346.115)" id="Shape-51" fill="#F50057" stroke="none"/>
      <g id="No-data-recieved" transform="translate(130.276)">
        <path d="M156.024 53.424V0h-5.112v22.752c-1.584-2.448-3.612-4.308-6.084-5.58-2.472-1.272-5.244-1.908-8.316-1.908-3.552 0-6.768.804-9.648 2.412-2.88 1.608-5.136 3.876-6.768 6.804-1.632 2.928-2.448 6.264-2.448 10.008 0 3.744.816 7.08 2.448 10.008 1.632 2.928 3.888 5.208 6.768 6.84 2.88 1.632 6.096 2.448 9.648 2.448 3.168 0 6.012-.672 8.532-2.016q3.78-2.016 6.084-5.832v7.488h4.896zM416.16 6.192q1.08 1.08 2.664 1.08t2.664-1.08c.72-.72 1.08-1.608 1.08-2.664 0-.96-.36-1.788-1.08-2.484Q420.408 0 418.824 0t-2.664 1.08c-.72.72-1.08 1.56-1.08 2.52 0 1.008.36 1.872 1.08 2.592zM596.16 0v53.424h-4.896v-7.488c-1.536 2.544-3.564 4.488-6.084 5.832-2.52 1.344-5.364 2.016-8.532 2.016-3.552 0-6.768-.816-9.648-2.448-2.88-1.632-5.136-3.912-6.768-6.84-1.632-2.928-2.448-6.264-2.448-10.008 0-3.744.816-7.08 2.448-10.008 1.632-2.928 3.888-5.196 6.768-6.804 2.88-1.608 6.096-2.412 9.648-2.412 3.072 0 5.844.636 8.316 1.908 2.472 1.272 4.5 3.132 6.084 5.58V0h5.112zM42.12 53.424v-50.4h-5.256V43.92L4.392 3.024H0v50.4h5.328V12.528l32.4 40.896h4.392zm187.02-.324c1.416-.456 2.604-1.116 3.564-1.98l-1.8-3.672c-.72.624-1.572 1.104-2.556 1.44a9.404 9.404 0 01-3.06.504c-2.112 0-3.732-.588-4.86-1.764q-1.692-1.764-1.692-5.148V19.872h11.52v-4.32h-11.52v-8.28h-5.112v8.28h-6.768v4.32h6.768v22.896q0 5.256 2.88 8.136c1.92 1.92 4.656 2.88 8.208 2.88 1.536 0 3.012-.228 4.428-.684zM63.072 51.3c2.928 1.656 6.216 2.484 9.864 2.484 3.648 0 6.936-.828 9.864-2.484a17.86 17.86 0 006.876-6.876c1.656-2.928 2.484-6.24 2.484-9.936 0-3.696-.828-7.008-2.484-9.936-1.656-2.928-3.948-5.208-6.876-6.84-2.928-1.632-6.216-2.448-9.864-2.448-3.648 0-6.936.816-9.864 2.448q-4.392 2.448-6.912 6.84-2.52 4.392-2.52 9.936t2.52 9.936q2.52 4.392 6.912 6.876zm120.456-36.036c4.944 0 8.736 1.236 11.376 3.708 2.64 2.472 3.96 6.132 3.96 10.98v23.472h-4.896V47.52c-1.152 1.968-2.844 3.504-5.076 4.608-2.232 1.104-4.884 1.656-7.956 1.656-4.224 0-7.584-1.008-10.08-3.024-2.496-2.016-3.744-4.68-3.744-7.992 0-3.216 1.164-5.808 3.492-7.776 2.328-1.968 6.036-2.952 11.124-2.952h12.024v-2.304c0-3.264-.912-5.748-2.736-7.452q-2.736-2.556-7.992-2.556c-2.4 0-4.704.396-6.912 1.188-2.208.792-4.104 1.884-5.688 3.276l-2.304-3.816c1.92-1.632 4.224-2.892 6.912-3.78q4.032-1.332 8.496-1.332zm83.088 3.708q-3.96-3.708-11.376-3.708-4.464 0-8.496 1.332c-2.688.888-4.992 2.148-6.912 3.78l2.304 3.816q2.376-2.088 5.688-3.276a20.317 20.317 0 016.912-1.188c3.504 0 6.168.852 7.992 2.556 1.824 1.704 2.736 4.188 2.736 7.452v2.304H253.44c-5.088 0-8.796.984-11.124 2.952q-3.492 2.952-3.492 7.776c0 3.312 1.248 5.976 3.744 7.992 2.496 2.016 5.856 3.024 10.08 3.024 3.072 0 5.724-.552 7.956-1.656 2.232-1.104 3.924-2.64 5.076-4.608v5.904h4.896V29.952q0-7.272-3.96-10.98zm46.98-1.764c-2.376 1.296-4.164 3.216-5.364 5.76v-7.416h-4.896v37.872h5.112V34.128c0-4.416 1.128-7.848 3.384-10.296 2.256-2.448 5.376-3.672 9.36-3.672l1.224.072v-4.968q-5.256 0-8.82 1.944zm19.908 18.864h31.68l.072-1.584c0-3.744-.792-7.068-2.376-9.972-1.584-2.904-3.768-5.172-6.552-6.804-2.784-1.632-5.928-2.448-9.432-2.448-3.504 0-6.66.816-9.468 2.448-2.808 1.632-5.016 3.912-6.624 6.84-1.608 2.928-2.412 6.24-2.412 9.936 0 3.696.84 7.008 2.52 9.936q2.52 4.392 7.02 6.876c3 1.656 6.444 2.484 10.332 2.484q4.536 0 8.316-1.584c2.52-1.056 4.62-2.592 6.3-4.608L360 44.28a14.155 14.155 0 01-5.112 3.708c-1.968.84-4.128 1.26-6.48 1.26-4.176 0-7.632-1.212-10.368-3.636-2.736-2.424-4.248-5.604-4.536-9.54zm47.844 15.264c2.952 1.632 6.3 2.448 10.044 2.448 3.216 0 6.12-.636 8.712-1.908 2.592-1.272 4.632-3.132 6.12-5.58l-3.816-2.592c-1.248 1.872-2.832 3.264-4.752 4.176-1.92.912-4.008 1.368-6.264 1.368-2.736 0-5.196-.612-7.38-1.836-2.184-1.224-3.888-2.952-5.112-5.184q-1.836-3.348-1.836-7.74 0-4.32 1.836-7.704c1.224-2.256 2.928-3.996 5.112-5.22 2.184-1.224 4.644-1.836 7.38-1.836 2.256 0 4.344.468 6.264 1.404 1.92.936 3.504 2.34 4.752 4.212l3.816-2.592a14.527 14.527 0 00-6.084-5.58c-2.568-1.272-5.484-1.908-8.748-1.908q-5.616 0-10.044 2.448-4.428 2.448-6.948 6.84-2.52 4.392-2.52 9.936t2.52 9.972q2.52 4.428 6.948 6.876zm87.228-15.264h-31.68c.288 3.936 1.8 7.116 4.536 9.54q4.104 3.636 10.368 3.636c2.352 0 4.512-.42 6.48-1.26a14.155 14.155 0 005.112-3.708l2.88 3.312c-1.68 2.016-3.78 3.552-6.3 4.608-2.52 1.056-5.292 1.584-8.316 1.584-3.888 0-7.332-.828-10.332-2.484-3-1.656-5.34-3.948-7.02-6.876q-2.52-4.392-2.52-9.936c0-3.696.804-7.008 2.412-9.936q2.412-4.392 6.624-6.84c2.808-1.632 5.964-2.448 9.468-2.448 3.504 0 6.648.816 9.432 2.448 2.784 1.632 4.968 3.9 6.552 6.804q2.376 4.356 2.376 9.972l-.072 1.584zm50.832 0h31.68l.072-1.584q0-5.616-2.376-9.972c-1.584-2.904-3.768-5.172-6.552-6.804-2.784-1.632-5.928-2.448-9.432-2.448q-5.256 0-9.468 2.448c-2.808 1.632-5.016 3.912-6.624 6.84q-2.412 4.392-2.412 9.936c0 3.696.84 7.008 2.52 9.936 1.68 2.928 4.02 5.22 7.02 6.876 3 1.656 6.444 2.484 10.332 2.484 3.024 0 5.796-.528 8.316-1.584 2.52-1.056 4.62-2.592 6.3-4.608l-2.88-3.312a14.155 14.155 0 01-5.112 3.708c-1.968.84-4.128 1.26-6.48 1.26q-6.264 0-10.368-3.636c-2.736-2.424-4.248-5.604-4.536-9.54zm-98.064-20.52h-5.112v37.872h5.112V15.552zm72.72 37.872h-5.256l-16.776-37.872h5.328l14.184 32.256 14.328-32.256h5.04l-16.848 37.872zM337.716 23.148q3.708-3.492 9.18-3.492c3.696 0 6.78 1.164 9.252 3.492 2.472 2.328 3.876 5.364 4.212 9.108h-26.856c.336-3.744 1.74-6.78 4.212-9.108zm103.392 0q3.708-3.492 9.18-3.492c3.696 0 6.78 1.164 9.252 3.492q3.708 3.492 4.212 9.108h-26.856q.504-5.616 4.212-9.108zm91.692-3.492q-5.472 0-9.18 3.492c-2.472 2.328-3.876 5.364-4.212 9.108h26.856q-.504-5.616-4.212-9.108c-2.472-2.328-5.556-3.492-9.252-3.492zM72.936 49.248c2.688 0 5.1-.612 7.236-1.836q3.204-1.836 5.004-5.22c1.2-2.256 1.8-4.824 1.8-7.704s-.6-5.448-1.8-7.704q-1.8-3.384-5.004-5.22-3.204-1.836-7.236-1.836c-2.688 0-5.1.612-7.236 1.836-2.136 1.224-3.816 2.964-5.04 5.22q-1.836 3.384-1.836 7.704t1.836 7.704c1.224 2.256 2.904 3.996 5.04 5.22 2.136 1.224 4.548 1.836 7.236 1.836zm64.008 0c2.64 0 5.028-.612 7.164-1.836 2.136-1.224 3.816-2.964 5.04-5.22q1.836-3.384 1.836-7.704t-1.836-7.704c-1.224-2.256-2.904-3.996-5.04-5.22-2.136-1.224-4.524-1.836-7.164-1.836q-4.032 0-7.236 1.836c-2.136 1.224-3.816 2.964-5.04 5.22q-1.836 3.384-1.836 7.704t1.836 7.704c1.224 2.256 2.904 3.996 5.04 5.22 2.136 1.224 4.548 1.836 7.236 1.836zm440.136 0c2.64 0 5.028-.612 7.164-1.836 2.136-1.224 3.816-2.964 5.04-5.22q1.836-3.384 1.836-7.704t-1.836-7.704c-1.224-2.256-2.904-3.996-5.04-5.22q-3.204-1.836-7.164-1.836-4.032 0-7.236 1.836c-2.136 1.224-3.816 2.964-5.04 5.22q-1.836 3.384-1.836 7.704t1.836 7.704c1.224 2.256 2.904 3.996 5.04 5.22 2.136 1.224 4.548 1.836 7.236 1.836zm-387.936-1.476c-2.064 1.32-4.536 1.98-7.416 1.98-3.024 0-5.376-.636-7.056-1.908-1.68-1.272-2.52-3.012-2.52-5.22q0-6.768 9.72-6.768h11.88v6.192c-1.008 2.496-2.544 4.404-4.608 5.724zm64.296 1.98c2.88 0 5.352-.66 7.416-1.98 2.064-1.32 3.6-3.228 4.608-5.724v-6.192h-11.88c-6.48 0-9.72 2.256-9.72 6.768q0 3.312 2.52 5.22c1.68 1.272 4.032 1.908 7.056 1.908z" id="Shape" fill="#3F3D56" fill-rule="evenodd" stroke="none"/>
      </g>
    </g>
  </g>
</svg>