<?xml version="1.0" encoding="utf-8"?>
<svg width="689px" height="657px" viewBox="0 0 689 657" version="1.1" xmlns:xlink="http://www.w3.org/1999/xlink" xmlns="http://www.w3.org/2000/svg">
  <desc>Created with Lunacy</desc>
  <g id="undraw_inspiration_lecl" transform="matrix(9.329996E-08 -1.000001 1.000001 9.329996E-08 0 656.0007)">
    <path d="M0 31.5148C0 14.1096 14.1097 0 31.5149 0C48.9201 0 63.0298 14.1096 63.0298 31.5148C63.0298 48.9199 48.9201 63.0295 31.5149 63.0295C14.1097 63.0295 0 48.9199 0 31.5148Z" transform="translate(592.9702 507.2686)" id="Circle" fill="#6C63FF" stroke="none" />
    <path d="M0 15.7574C0 7.05481 3.20671 0 7.16238 0C11.1181 0 14.3248 7.05481 14.3248 15.7574C14.3248 24.4599 11.1181 31.5147 7.16238 31.5147C3.20671 31.5147 0 24.4599 0 15.7574Z" transform="translate(595.8354 523.0262)" id="Ellipse" fill="#EEEEEE" stroke="none" />
    <path d="M0 31.5148C0 14.1096 14.1098 0 31.5151 0C48.9203 0 63.0301 14.1096 63.0301 31.5148C63.0301 48.9199 48.9203 63.0295 31.5151 63.0295C14.1098 63.0295 0 48.9199 0 31.5148Z" transform="translate(491.263 305.2869)" id="Circle" fill="#3F3D56" stroke="none" />
    <path d="M0 7.16237C0 3.2067 7.05485 0 15.7574 0C24.46 0 31.5149 3.2067 31.5149 7.16237C31.5149 11.118 24.46 14.3247 15.7574 14.3247C7.05485 14.3247 0 11.118 0 7.16237Z" transform="matrix(0.8098519 -0.5866343 0.5866343 0.8098519 493.2098 322.8434)" id="Ellipse" fill="#EEEEEE" stroke="none" />
    <path d="M0 19.6398C0 8.79302 8.79307 0 19.6399 0C30.4867 0 39.2797 8.79302 39.2797 19.6398C39.2797 30.4865 30.4867 39.2795 19.6399 39.2795C8.79307 39.2795 0 30.4865 0 19.6398Z" transform="translate(583.3576 143.8299)" id="Circle" fill="#F9A825" stroke="none" />
    <path d="M0 4.46358C0 1.99841 4.39654 0 9.81995 0C15.2434 0 19.6399 1.99841 19.6399 4.46358C19.6399 6.92874 15.2434 8.92715 9.81995 8.92715C4.39654 8.92715 0 6.92874 0 4.46358Z" transform="matrix(0.8098519 -0.5866343 0.5866343 0.8098519 584.571 154.771)" id="Ellipse" fill="#EEEEEE" stroke="none" />
    <path d="M0 19.6399C0 8.79307 8.79313 0 19.64 0C30.4869 0 39.28 8.79307 39.28 19.6399C39.28 30.4867 30.4869 39.2797 19.64 39.2797C8.79313 39.2797 0 30.4867 0 19.6399Z" transform="translate(435.8108 649.5007)" id="Circle" fill="#F9A825" stroke="none" />
    <path d="M0 4.46338C0 1.99832 4.39652 0 9.8199 0C15.2433 0 19.6398 1.99832 19.6398 4.46338C19.6398 6.92843 15.2433 8.92676 9.8199 8.92676C4.39652 8.92676 0 6.92843 0 4.46338Z" transform="matrix(0.8098519 -0.5866343 0.5866343 0.8098519 437.024 660.4422)" id="Ellipse" fill="#EEEEEE" stroke="none" />
    <path d="M0 31.5148C0 14.1097 14.1097 0 31.5148 0C48.9199 0 63.0296 14.1097 63.0296 31.5148C63.0296 48.9199 48.9199 63.0296 31.5148 63.0296C14.1097 63.0296 0 48.9199 0 31.5148Z" transform="translate(590.1052 364.0191)" id="Circle" fill="#FF6584" stroke="none" />
    <path d="M0 15.7573C0 7.05477 3.20679 0 7.16257 0C11.1183 0 14.3251 7.05477 14.3251 15.7573C14.3251 24.4598 11.1183 31.5145 7.16257 31.5145C3.20679 31.5145 0 24.4598 0 15.7573Z" transform="translate(592.9702 379.7766)" id="Ellipse" fill="#EEEEEE" stroke="none" />
    <path d="M0 31.5148C0 14.1097 14.1098 0 31.515 0C48.9203 0 63.03 14.1097 63.03 31.5148C63.03 48.92 48.9203 63.0297 31.515 63.0297C14.1098 63.0297 0 48.92 0 31.5148Z" transform="translate(488.398 162.0372)" id="Circle" fill="#6A9BD8" stroke="none" />
    <path d="M0 7.16232C0 3.20668 7.05488 0 15.7575 0C24.4602 0 31.515 3.20668 31.515 7.16232C31.515 11.118 24.4602 14.3246 15.7575 14.3246C7.05488 14.3246 0 11.118 0 7.16232Z" transform="matrix(0.8098519 -0.5866343 0.5866343 0.8098519 490.3449 179.594)" id="Ellipse" fill="#EEEEEE" stroke="none" />
    <path d="M0 19.6398C0 8.79305 8.79309 0 19.6399 0C30.4868 0 39.2798 8.79305 39.2798 19.6398C39.2798 30.4866 30.4868 39.2796 19.6399 39.2796C8.79309 39.2796 0 30.4866 0 19.6398Z" transform="translate(580.4928 0.5802859)" id="Circle" fill="#AE1100" stroke="none" />
    <path d="M0 4.46356C0 1.99841 4.39651 0 9.81989 0C15.2433 0 19.6398 1.99841 19.6398 4.46356C19.6398 6.92872 15.2433 8.92713 9.81989 8.92713C4.39651 8.92713 0 6.92872 0 4.46356Z" transform="matrix(0.8098519 -0.5866343 0.5866343 0.8098519 581.706 11.52148)" id="Ellipse" fill="#EEEEEE" stroke="none" />
    <path d="M0 19.6397C0 8.79298 8.79316 0 19.6401 0C30.487 0 39.2802 8.79298 39.2802 19.6397C39.2802 30.4863 30.487 39.2793 19.6401 39.2793C8.79316 39.2793 0 30.4863 0 19.6397Z" transform="translate(432.9458 506.2513)" id="Circle" fill="#AE1100" stroke="none" />
    <path d="M0 4.46359C0 1.99842 4.3966 0 9.82008 0C15.2436 0 19.6402 1.99842 19.6402 4.46359C19.6402 6.92877 15.2436 8.92719 9.82008 8.92719C4.3966 8.92719 0 6.92877 0 4.46359Z" transform="matrix(0.8098519 -0.5866343 0.5866343 0.8098519 434.1588 517.1923)" id="Ellipse" fill="#EEEEEE" stroke="none" />
    <path d="M0 17.767C0 7.95458 7.95468 0 17.7673 0C27.5799 0 35.5345 7.95458 35.5345 17.767C35.5345 27.5795 27.5799 35.5341 17.7673 35.5341C7.95468 35.5341 0 27.5795 0 17.767Z" transform="translate(0 448.9585)" id="Circle" fill="#EEEEEE" stroke="none" />
    <path d="M0 11.8447C0 5.30305 5.30317 0 11.845 0C18.3867 0 23.6899 5.30305 23.6899 11.8447C23.6899 18.3863 18.3867 23.6894 11.845 23.6894C5.30317 23.6894 0 18.3863 0 11.8447Z" transform="translate(11.06851 552.28)" id="Circle" fill="#EEEEEE" stroke="none" />
    <path d="M0 11.8447C0 5.30307 5.30315 0 11.8449 0C18.3867 0 23.6898 5.30307 23.6898 11.8447C23.6898 18.3864 18.3867 23.6895 11.8449 23.6895C5.30315 23.6895 0 18.3864 0 11.8447Z" transform="translate(51.85668 511.6728)" id="Circle" fill="#EEEEEE" stroke="none" />
  </g>
</svg>