<?xml version="1.0" encoding="utf-8"?>
<svg width="929px" height="97px" viewBox="0 0 929 97" version="1.1" xmlns:xlink="http://www.w3.org/1999/xlink" xmlns="http://www.w3.org/2000/svg">
  <desc>Created with Lunacy</desc>
  <g id="home-page-image">
    <g id="Ongoing--Project" transform="translate(0 2.619989)">
      <path d="M277.813 8.14924Q276.308 8.14924 275.246 6.99225C274.538 6.22092 274.184 5.26514 274.184 4.12492C274.184 2.9847 274.538 2.01216 275.246 1.2073Q276.308 0 277.813 0Q279.318 0 280.38 1.15699C281.088 1.92832 281.442 2.88409 281.442 4.02432C281.442 5.16454 281.088 6.13708 280.38 6.94194Q279.318 8.14924 277.813 8.14924ZM652.98 8.14924Q651.476 8.14924 650.414 6.99225C649.706 6.22092 649.352 5.26514 649.352 4.12492C649.352 2.9847 649.706 2.01216 650.414 1.2073Q651.476 0 652.98 0C653.983 0 654.839 0.385664 655.547 1.15699Q656.609 2.31398 656.609 4.02432Q656.609 5.73465 655.547 6.94194C654.839 7.74681 653.983 8.14924 652.98 8.14924ZM32.2153 73.9466C26.1381 73.9466 20.6509 72.3872 15.7537 69.2683Q8.40785 64.5901 4.20392 56.4409Q0 48.2916 0 38.2309Q0 28.1701 4.20392 20.0209Q8.40785 11.8717 15.7537 7.19344Q23.0995 2.51519 32.2153 2.51519Q41.3312 2.51519 48.677 7.14314Q56.0228 11.7711 60.2267 19.9203Q64.4307 28.0695 64.4307 38.2309Q64.4307 48.3923 60.2267 56.5415Q56.0228 64.6907 48.677 69.3186Q41.3312 73.9466 32.2153 73.9466ZM522.659 9.3062C518.234 5.11422 512.127 3.01823 504.339 3.01823L482.124 3.01823L482.124 73.4435L486.638 73.4435L486.638 50.4044L504.339 50.4044C512.127 50.4044 518.234 48.3084 522.659 44.1164C527.084 39.9245 529.297 34.1395 529.297 26.7616C529.297 19.3167 527.084 13.4982 522.659 9.3062ZM32.2154 69.218Q40.0038 69.218 46.2876 65.1937C50.4768 62.5108 53.7809 58.8051 56.2 54.0766Q59.8287 46.9837 59.8287 38.2309Q59.8287 29.478 56.2 22.3852C53.7809 17.6566 50.4768 13.9509 46.2876 11.268Q40.0038 7.24374 32.2154 7.24374Q24.4271 7.24374 18.099 11.268Q11.771 15.2923 8.14235 22.3852Q4.51369 29.478 4.51369 38.2309Q4.51369 46.9837 8.14235 54.0766Q11.771 61.1694 18.099 65.1937Q24.4271 69.218 32.2154 69.218ZM519.473 40.8467C515.992 44.1332 510.947 45.7764 504.339 45.7764L486.638 45.7764L486.638 7.64617L504.339 7.64617C510.947 7.64617 515.992 9.3062 519.473 12.6262C522.954 15.9463 524.694 20.6581 524.694 26.7616C524.694 32.8651 522.954 37.5602 519.473 40.8467ZM815.341 70.1235C814.22 71.3308 812.818 72.253 811.137 72.8902C809.455 73.5274 807.7 73.846 805.871 73.846C801.859 73.846 798.761 72.5884 796.578 70.0732Q793.303 66.3004 793.303 59.5597L793.303 25.2525L784.807 25.2525L784.807 20.9264L793.303 20.9264L793.303 9.45711L797.728 9.45711L797.728 20.9264L812.42 20.9264L812.42 25.2525L797.728 25.2525L797.728 59.0567Q797.728 64.1876 799.897 66.8537C801.342 68.6311 803.481 69.5198 806.313 69.5198C809.204 69.5198 811.594 68.5473 813.482 66.6022L815.341 70.1235ZM120.498 26.2586C117.135 22.4355 112.562 20.5239 106.78 20.5239Q100.319 20.5239 95.584 23.6428Q90.8491 26.7616 88.4595 32.295L88.4595 20.9264L84.2113 20.9264L84.2113 73.4436L88.6365 73.4436L88.6365 45.4746Q88.6365 36.1181 93.3272 30.5847Q98.0179 25.0513 106.16 25.0513C110.88 25.0513 114.553 26.5939 117.179 29.6792C119.805 32.7645 121.117 37.2583 121.117 43.1607L121.117 73.4436L125.542 73.4436L125.542 42.7582C125.542 35.5815 123.861 30.0817 120.498 26.2586ZM190.903 67.8095L190.903 20.9264L186.655 20.9264L186.655 32.7981Q183.911 26.9628 178.778 23.7434C175.356 21.5971 171.521 20.5239 167.272 20.5239C162.965 20.5239 159.056 21.5971 155.545 23.7434C152.035 25.8897 149.276 28.9079 147.27 32.7981Q144.261 38.6333 144.261 45.9776Q144.261 53.322 147.27 59.1572C149.276 63.0474 152.035 66.0824 155.545 68.2622C159.056 70.442 162.965 71.532 167.272 71.532C171.462 71.532 175.238 70.4924 178.601 68.4131C181.964 66.3339 184.59 63.3828 186.478 59.5597L186.478 68.4131C186.478 75.3886 185.003 80.5363 182.053 83.8564C179.102 87.1764 174.559 88.8365 168.423 88.8365C164.765 88.8365 161.313 88.1657 158.068 86.8243C154.823 85.4829 152.05 83.6049 149.748 81.1903L147.359 85.0134C149.66 87.6292 152.699 89.6749 156.475 91.1504C160.251 92.626 164.263 93.3638 168.511 93.3638C176.005 93.3638 181.61 91.2846 185.327 87.1261Q190.903 80.8885 190.903 67.8095ZM221.436 70.4253C224.947 72.7058 228.885 73.846 233.252 73.846C237.618 73.846 241.556 72.7058 245.067 70.4253C248.578 68.1449 251.336 64.9757 253.342 60.9179C255.348 56.8601 256.351 52.2824 256.351 47.185Q256.351 39.5388 253.342 33.452C251.336 29.3942 248.578 26.225 245.067 23.9446C241.556 21.6642 237.618 20.5239 233.252 20.5239Q226.702 20.5239 221.436 23.9446C217.926 26.225 215.167 29.3942 213.161 33.452C211.155 37.5099 210.152 42.0875 210.152 47.185C210.152 52.2824 211.155 56.8601 213.161 60.9179C215.167 64.9757 217.926 68.1449 221.436 70.4253ZM326.8 20.5239C332.582 20.5239 337.155 22.4355 340.518 26.2586Q345.563 31.9932 345.563 42.7582L345.563 73.4436L341.138 73.4436L341.138 43.1607C341.138 37.2583 339.825 32.7645 337.199 29.6792C334.574 26.5939 330.901 25.0513 326.18 25.0513C320.752 25.0513 316.474 26.8958 313.347 30.5847C310.22 34.2736 308.657 39.237 308.657 45.4746L308.657 73.4436L304.231 73.4436L304.231 20.9264L308.48 20.9264L308.48 32.295C310.073 28.6061 312.448 25.722 315.604 23.6428Q320.339 20.5239 326.8 20.5239ZM410.923 20.9264L410.923 67.8095Q410.923 80.8885 405.347 87.1261C401.63 91.2846 396.025 93.3638 388.531 93.3638C384.283 93.3638 380.271 92.626 376.495 91.1504C372.719 89.6749 369.68 87.6292 367.379 85.0134L369.769 81.1903C372.07 83.6049 374.843 85.4829 378.088 86.8243C381.333 88.1657 384.785 88.8365 388.443 88.8365C394.579 88.8365 399.122 87.1764 402.072 83.8564Q406.498 78.8763 406.498 68.4131L406.498 59.5597Q403.665 65.2943 398.621 68.4131C395.258 70.4924 391.481 71.532 387.292 71.532C382.985 71.532 379.076 70.442 375.566 68.2622C372.055 66.0824 369.297 63.0474 367.29 59.1572C365.284 55.2671 364.281 50.8739 364.281 45.9776C364.281 41.0814 365.284 36.6882 367.29 32.7981C369.297 28.9079 372.055 25.8897 375.566 23.7434C379.076 21.5971 382.985 20.5239 387.292 20.5239C391.54 20.5239 395.376 21.5971 398.798 23.7434C402.22 25.8897 404.846 28.9079 406.675 32.7981L406.675 20.9264L410.923 20.9264ZM560.405 23.5925C557.396 25.6382 555.184 28.5725 553.768 32.3956L553.768 20.9264L549.52 20.9264L549.52 73.4436L553.945 73.4436L553.945 46.0783Q553.945 36.3193 558.281 30.8362Q562.618 25.3531 570.318 25.3531L571.38 25.4537L571.38 20.5239C567.073 20.5239 563.414 21.5468 560.405 23.5925ZM596.161 70.4253C599.672 72.7058 603.61 73.846 607.977 73.846C612.343 73.846 616.281 72.7058 619.792 70.4253C623.303 68.1449 626.061 64.9757 628.067 60.9179C630.073 56.8601 631.077 52.2824 631.077 47.185Q631.077 39.5388 628.067 33.452C626.061 29.3942 623.303 26.225 619.792 23.9446C616.281 21.6642 612.343 20.5239 607.977 20.5239C603.61 20.5239 599.672 21.6642 596.161 23.9446C592.65 26.225 589.892 29.3942 587.886 33.452C585.88 37.5099 584.876 42.0875 584.876 47.185C584.876 52.2824 585.88 56.8601 587.886 60.9179C589.892 64.9757 592.65 68.1449 596.161 70.4253ZM718.429 48.3922L678.691 48.3922C678.809 52.4836 679.723 56.1223 681.434 59.3082C683.145 62.4941 685.461 64.959 688.382 66.7028C691.302 68.4467 694.592 69.3186 698.25 69.3186C701.259 69.3186 704.047 68.6982 706.613 67.4574C709.18 66.2166 711.319 64.3889 713.03 61.9743L715.596 65.2943C713.59 68.0443 711.068 70.157 708.029 71.6326C704.991 73.1082 701.701 73.846 698.161 73.846C693.559 73.846 689.458 72.7058 685.859 70.4253C682.26 68.1449 679.443 64.9925 677.407 60.9682C675.372 56.9439 674.354 52.3495 674.354 47.185C674.354 42.0875 675.313 37.5099 677.23 33.452C679.148 29.3942 681.788 26.225 685.151 23.9446C688.514 21.6642 692.291 20.5239 696.48 20.5239C700.669 20.5239 704.43 21.6474 707.764 23.8943C711.098 26.1412 713.723 29.2768 715.641 33.3011C717.558 37.3254 718.517 41.8863 718.517 46.9837L718.429 48.3922ZM756.087 73.846C751.603 73.846 747.591 72.7058 744.05 70.4253C740.51 68.1449 737.737 64.9757 735.731 60.9179C733.725 56.8601 732.722 52.2824 732.722 47.185Q732.722 39.4382 735.731 33.3514Q738.74 27.2646 744.05 23.8943C747.591 21.6474 751.603 20.5239 756.087 20.5239Q761.663 20.5239 766.221 22.9888Q770.779 25.4537 773.611 30.1823L770.336 32.8987C768.684 30.2829 766.634 28.321 764.185 27.0131C761.736 25.7052 759.037 25.0513 756.087 25.0513C752.488 25.0513 749.257 25.9735 746.396 27.818Q742.103 30.5847 739.669 35.6151Q737.235 40.6455 737.235 47.185Q737.235 53.7244 739.669 58.7548C741.292 62.1084 743.534 64.7074 746.396 66.5519C749.257 68.3964 752.488 69.3186 756.087 69.3186C759.037 69.3186 761.736 68.6647 764.185 67.3568C766.634 66.0489 768.684 64.087 770.336 61.4712L773.611 64.1876Q770.779 68.9162 766.221 71.3811C763.182 73.0243 759.804 73.846 756.087 73.846ZM280.026 20.9264L275.601 20.9264L275.601 73.4436L280.026 73.4436L280.026 20.9264ZM642.714 93.3638C640.767 93.3638 638.953 93.062 637.271 92.4584C635.59 91.8547 634.218 90.9828 633.156 89.8426L634.926 86.1201Q637.758 89.0377 642.449 89.0377C645.163 89.0377 647.228 88.1322 648.644 86.3213C650.06 84.5104 650.768 81.8946 650.768 78.4739L650.768 20.9264L655.192 20.9264L655.192 78.6751C655.192 83.1689 654.101 86.7405 651.918 89.3898C649.735 92.0392 646.667 93.3638 642.714 93.3638ZM696.48 24.9507C693.235 24.9507 690.314 25.7723 687.718 27.4156C685.122 29.0588 683.042 31.3728 681.478 34.3575C679.915 37.3422 679.015 40.7125 678.779 44.4685L714.181 44.4685C714.004 40.7125 713.119 37.3589 711.526 34.4078C709.933 31.4566 707.838 29.1426 705.242 27.4659Q701.348 24.9507 696.48 24.9507ZM167.626 67.0046C171.225 67.0046 174.47 66.1159 177.361 64.3385C180.252 62.5611 182.509 60.0795 184.132 56.8936C185.754 53.7077 186.565 50.069 186.565 45.9777C186.565 41.8863 185.754 38.2644 184.132 35.112C182.509 31.9597 180.252 29.4948 177.361 27.7174C174.47 25.94 171.225 25.0513 167.626 25.0513C164.027 25.0513 160.796 25.94 157.935 27.7174C155.073 29.4948 152.831 31.9597 151.209 35.112C149.586 38.2644 148.775 41.8863 148.775 45.9777C148.775 50.069 149.586 53.7077 151.209 56.8936C152.831 60.0795 155.073 62.5611 157.935 64.3385C160.796 66.1159 164.027 67.0046 167.626 67.0046ZM233.252 69.3186C236.792 69.3186 239.963 68.3796 242.766 66.5016C245.568 64.6236 247.781 62.0078 249.404 58.6542C251.026 55.3006 251.837 51.4775 251.837 47.1849C251.837 42.8924 251.026 39.0693 249.404 35.7157C247.781 32.3621 245.568 29.7463 242.766 27.8683C239.963 25.9903 236.792 25.0513 233.252 25.0513C229.711 25.0513 226.54 25.9903 223.737 27.8683C220.935 29.7463 218.722 32.3621 217.1 35.7157C215.477 39.0693 214.666 42.8924 214.666 47.1849C214.666 51.4775 215.477 55.3006 217.1 58.6542C218.722 62.0078 220.935 64.6236 223.737 66.5016C226.54 68.3796 229.711 69.3186 233.252 69.3186ZM387.646 67.0046C391.246 67.0046 394.491 66.1159 397.382 64.3385C400.273 62.5611 402.53 60.0795 404.152 56.8936Q406.586 52.1147 406.586 45.9777Q406.586 39.8406 404.152 35.112Q401.718 30.3835 397.382 27.7174C394.491 25.94 391.246 25.0513 387.646 25.0513C384.047 25.0513 380.817 25.94 377.955 27.7174C375.094 29.4948 372.852 31.9597 371.229 35.112Q368.795 39.8406 368.795 45.9777Q368.795 52.1147 371.229 56.8936C372.852 60.0795 375.094 62.5611 377.955 64.3385C380.817 66.1159 384.047 67.0046 387.646 67.0046ZM607.977 69.3186C611.517 69.3186 614.688 68.3796 617.491 66.5016C620.294 64.6236 622.506 62.0078 624.129 58.6542Q626.563 53.6238 626.563 47.1849Q626.563 40.7461 624.129 35.7157Q621.695 30.6853 617.491 27.8683C614.688 25.9903 611.517 25.0513 607.977 25.0513C604.437 25.0513 601.265 25.9903 598.463 27.8683C595.66 29.7463 593.447 32.3621 591.825 35.7157Q589.391 40.7461 589.391 47.1849Q589.391 53.6238 591.825 58.6542C593.447 62.0078 595.66 64.6236 598.463 66.5016C601.265 68.3796 604.437 69.3186 607.977 69.3186Z" id="Shape" fill="#6A9BD8" fill-rule="evenodd" stroke="none" />
    </g>
    <g id="app-icon" transform="translate(831.5841 0)">
      <path d="M48.208 0L48.208 0C49.0312 0 49.8517 0.0187327 50.6694 0.0561982C51.4869 0.0936637 52.3009 0.149824 53.1116 0.224678C53.922 0.299533 54.728 0.393006 55.5295 0.505097C56.3314 0.617188 57.1278 0.747783 57.9188 0.896881C58.71 1.04598 59.4952 1.21343 60.2743 1.39923C61.0532 1.58503 61.8254 1.789 62.591 2.01112C63.3562 2.23325 64.114 2.47331 64.8641 2.73131C65.6143 2.98931 66.356 3.26498 67.0892 3.55832C67.8228 3.85166 68.5471 4.16238 69.2622 4.49047C69.9773 4.81856 70.6825 5.16369 71.3777 5.52586C72.0731 5.88803 72.7579 6.26686 73.4319 6.66236C74.1062 7.05787 74.7692 7.46965 75.4211 7.89769C76.0727 8.32572 76.7124 8.76958 77.3403 9.22928C77.968 9.68897 78.5832 10.164 79.1859 10.6545C79.7886 11.1448 80.3781 11.6501 80.9546 12.1703C81.5308 12.6904 82.0933 13.2249 82.6421 13.7737C83.1911 14.3225 83.7256 14.885 84.2456 15.4614C84.7659 16.0377 85.2712 16.6272 85.7614 17.2299C86.252 17.8326 86.727 18.4479 87.1865 19.0757C87.6463 19.7035 88.0902 20.3433 88.5182 20.995C88.9462 21.6466 89.3579 22.3096 89.7534 22.9838C90.1489 23.658 90.5278 24.3428 90.89 25.0381C91.2522 25.7335 91.5974 26.4387 91.9256 27.1538C92.2536 27.8689 92.5642 28.5931 92.8576 29.3265C93.1511 30.0598 93.4267 30.8016 93.6845 31.5517C93.9427 32.3018 94.1828 33.0596 94.4048 33.825C94.6269 34.5903 94.8308 35.3626 95.0166 36.1416C95.2024 36.9207 95.3699 37.7058 95.5191 38.497C95.6681 39.288 95.7986 40.0844 95.9108 40.8863C96.023 41.6878 96.1165 42.4938 96.1914 43.3042C96.2662 44.1149 96.3223 44.9289 96.3596 45.7464C96.3972 46.5641 96.416 47.3845 96.416 48.2078C96.416 48.2078 96.416 48.2078 96.416 48.2078C96.416 49.031 96.3972 49.8515 96.3596 50.6692C96.3223 51.4867 96.2662 52.3007 96.1914 53.1114C96.1165 53.9218 96.023 54.7278 95.9108 55.5293C95.7986 56.3312 95.6681 57.1276 95.5191 57.9185C95.3699 58.7098 95.2024 59.495 95.0166 60.2741C94.8308 61.053 94.6269 61.8252 94.4048 62.5907C94.1828 63.356 93.9427 64.1137 93.6845 64.8639C93.4267 65.614 93.1511 66.3557 92.8576 67.089C92.5642 67.8225 92.2536 68.5468 91.9256 69.2619C91.5974 69.9771 91.2522 70.6822 90.89 71.3774C90.5278 72.0729 90.1489 72.7576 89.7534 73.4316C89.3579 74.1059 88.9462 74.769 88.5182 75.4208C88.0902 76.0724 87.6463 76.7122 87.1865 77.34C86.727 77.9677 86.252 78.5829 85.7614 79.1856C85.2712 79.7883 84.7659 80.3778 84.2456 80.9543C83.7256 81.5305 83.1911 82.093 82.6421 82.6418C82.0933 83.1908 81.5308 83.7253 80.9546 84.2453C80.3781 84.7656 79.7886 85.2708 79.1859 85.7611C78.5832 86.2516 77.968 86.7266 77.3403 87.1862C76.7124 87.6459 76.0727 88.0898 75.4211 88.5178C74.7692 88.9458 74.1062 89.3576 73.4319 89.7531C72.7579 90.1486 72.0731 90.5274 71.3777 90.8897C70.6825 91.2519 69.9773 91.5971 69.2622 91.9253C68.5471 92.2532 67.8228 92.5639 67.0892 92.8573C66.356 93.1507 65.6143 93.4263 64.8641 93.6842C64.114 93.9423 63.3562 94.1824 62.591 94.4045C61.8254 94.6265 61.0532 94.8305 60.2743 95.0162C59.4952 95.202 58.71 95.3695 57.9188 95.5187C57.1278 95.6677 56.3314 95.7983 55.5295 95.9105C54.728 96.0226 53.922 96.1161 53.1116 96.191C52.3009 96.2659 51.4869 96.322 50.6694 96.3593C49.8517 96.3968 49.0312 96.4156 48.208 96.4156C48.208 96.4156 48.208 96.4156 48.208 96.4156C47.3847 96.4156 46.5642 96.3968 45.7465 96.3593C44.9291 96.322 44.115 96.2659 43.3044 96.191C42.494 96.1161 41.688 96.0226 40.8864 95.9105C40.0846 95.7983 39.2882 95.6677 38.4972 95.5187C37.706 95.3695 36.9208 95.202 36.1418 95.0162C35.3627 94.8305 34.5905 94.6265 33.8251 94.4045C33.0597 94.1824 32.302 93.9423 31.5518 93.6842C30.8017 93.4263 30.06 93.1507 29.3266 92.8573C28.5932 92.5639 27.869 92.2532 27.1539 91.9253C26.4388 91.5971 25.7336 91.2519 25.0382 90.8897C24.3429 90.5274 23.6581 90.1486 22.9839 89.7531C22.3097 89.3576 21.6467 88.9458 20.995 88.5178C20.3434 88.0898 19.7036 87.6459 19.0758 87.1862C18.4479 86.7266 17.8327 86.2516 17.2299 85.7611C16.6273 85.2708 16.0377 84.7656 15.4614 84.2453C14.8851 83.7253 14.3225 83.1908 13.7737 82.6418C13.2249 82.093 12.6904 81.5305 12.1703 80.9543C11.6502 80.3778 11.1449 79.7883 10.6545 79.1856C10.1641 78.5829 9.68901 77.9677 9.22931 77.34C8.76962 76.7122 8.32575 76.0724 7.89772 75.4208C7.46968 74.769 7.0579 74.1059 6.66238 73.4316C6.26689 72.7576 5.88805 72.0729 5.52588 71.3774C5.16371 70.6822 4.81858 69.9771 4.49049 69.2619C4.1624 68.5468 3.85168 67.8225 3.55833 67.089C3.26499 66.3557 2.98932 65.614 2.73132 64.8639C2.47332 64.1137 2.23326 63.356 2.01113 62.5907C1.789 61.8252 1.58504 61.053 1.39924 60.2741C1.21343 59.495 1.04598 58.7098 0.896884 57.9185C0.747786 57.1276 0.617191 56.3312 0.505099 55.5293C0.393007 54.7278 0.299534 53.9218 0.224679 53.1114C0.149824 52.3007 0.093664 51.4867 0.0561984 50.6692C0.0187328 49.8515 0 49.031 0 48.2078C0 48.2078 0 48.2078 0 48.2078C0 47.3845 0.0187328 46.5641 0.0561984 45.7464C0.093664 44.9289 0.149824 44.1149 0.224679 43.3042C0.299534 42.4938 0.393007 41.6878 0.505099 40.8863C0.617191 40.0844 0.747786 39.288 0.896884 38.497C1.04598 37.7058 1.21343 36.9207 1.39924 36.1416C1.58504 35.3626 1.789 34.5903 2.01113 33.825C2.23326 33.0596 2.47332 32.3018 2.73132 31.5517C2.98932 30.8016 3.26499 30.0598 3.55833 29.3265C3.85168 28.5931 4.1624 27.8689 4.49049 27.1538C4.81858 26.4387 5.16371 25.7335 5.52588 25.0381C5.88805 24.3428 6.26689 23.658 6.66238 22.9838C7.0579 22.3096 7.46968 21.6466 7.89772 20.995C8.32575 20.3433 8.76962 19.7035 9.22931 19.0757C9.68901 18.4479 10.1641 17.8326 10.6545 17.2299C11.1449 16.6272 11.6502 16.0377 12.1703 15.4614C12.6904 14.885 13.2249 14.3225 13.7737 13.7737C14.3225 13.2249 14.8851 12.6904 15.4614 12.1703C16.0377 11.6501 16.6273 11.1448 17.2299 10.6545C17.8327 10.164 18.4479 9.68897 19.0758 9.22928C19.7036 8.76958 20.3434 8.32572 20.995 7.89769C21.6467 7.46965 22.3097 7.05787 22.9839 6.66236C23.6581 6.26686 24.3429 5.88803 25.0382 5.52586C25.7336 5.16369 26.4388 4.81856 27.1539 4.49047C27.869 4.16238 28.5932 3.85166 29.3266 3.55832C30.06 3.26498 30.8017 2.98931 31.5518 2.73131C32.302 2.47331 33.0597 2.23325 33.8251 2.01112C34.5905 1.789 35.3627 1.58503 36.1418 1.39923C36.9208 1.21343 37.706 1.04598 38.4972 0.896881C39.2882 0.747783 40.0846 0.617188 40.8864 0.505097C41.688 0.393006 42.494 0.299533 43.3044 0.224678C44.115 0.149824 44.9291 0.0936637 45.7465 0.0561982C46.5642 0.0187327 47.3847 0 48.208 0C48.208 0 48.208 0 48.208 0Z" id="Rectangle" fill="#F2F2F2" stroke="none" />
      <g id="app-icon" transform="translate(7.940145 7.776382)">
        <path d="M4.72971 0L76.2431 0C76.324 0 76.4045 0.00174645 76.4847 0.00523936C76.5648 0.00873226 76.6446 0.013968 76.724 0.0209467C76.8038 0.0279253 76.8828 0.0366399 76.9614 0.0470902C77.0401 0.0575401 77.1184 0.0697153 77.1959 0.0836158C77.2738 0.0975163 77.3509 0.113128 77.4273 0.13045C77.5036 0.147772 77.5793 0.166788 77.6541 0.187496C77.7294 0.208205 77.8039 0.230586 77.8776 0.254639C77.9509 0.278692 78.0239 0.304393 78.0958 0.331741C78.1676 0.35909 78.2387 0.388057 78.3086 0.418643C78.379 0.449233 78.4482 0.481407 78.5166 0.515173C78.5846 0.548936 78.6516 0.584254 78.7177 0.621128C78.7843 0.658001 78.8493 0.696391 78.9132 0.736298C78.9771 0.7762 79.0399 0.817583 79.1015 0.860443C79.1631 0.903299 79.2233 0.947588 79.2822 0.993308C79.3416 1.03903 79.3994 1.08614 79.4562 1.13463C79.5125 1.18312 79.5677 1.23295 79.6218 1.28411C79.6755 1.33528 79.7276 1.38772 79.7787 1.44146C79.8301 1.49519 79.8796 1.55015 79.9277 1.60634C79.9757 1.66253 80.0222 1.71989 80.0676 1.77842C80.1125 1.83695 80.156 1.8966 80.198 1.95735C80.24 2.01811 80.2808 2.07992 80.3194 2.14277C80.3579 2.20563 80.395 2.26947 80.4305 2.3343C80.4665 2.39913 80.5001 2.46487 80.5326 2.53154C80.5644 2.59821 80.595 2.66572 80.6237 2.73409C80.6525 2.80247 80.6797 2.87162 80.705 2.94155C80.7304 3.01149 80.7538 3.08213 80.7757 3.15349C80.7977 3.22485 80.8173 3.29684 80.8355 3.36947C80.8536 3.4421 80.8703 3.5153 80.8846 3.58905C80.8994 3.6628 80.9122 3.73703 80.9232 3.8118C80.9345 3.88653 80.9436 3.96166 80.9508 4.03722C80.9584 4.11281 80.9637 4.1887 80.9674 4.26494C80.9712 4.34114 80.9731 4.41763 80.9731 4.49438C80.9731 4.49438 80.9731 4.49438 80.9731 4.49438C80.9731 4.57116 80.9712 4.64765 80.9674 4.72386C80.9637 4.8001 80.9584 4.87598 80.9508 4.95157C80.9436 5.02713 80.9345 5.10226 80.9232 5.17699C80.9122 5.25172 80.8994 5.32599 80.8846 5.39975C80.8703 5.47351 80.854 5.5467 80.8355 5.61931C80.8173 5.69196 80.7977 5.76396 80.7757 5.83532C80.7538 5.90667 80.7304 5.97731 80.705 6.04722C80.6797 6.11718 80.6525 6.18631 80.6237 6.25468C80.595 6.32305 80.5644 6.39056 80.5326 6.45724C80.5001 6.52393 80.4665 6.58968 80.4305 6.65449C80.395 6.71931 80.3579 6.78316 80.3194 6.846C80.2808 6.90887 80.24 6.97067 80.198 7.03142C80.156 7.09218 80.1125 7.15182 80.0676 7.21039C80.0222 7.26891 79.9757 7.32626 79.9277 7.38245C79.8796 7.43864 79.8301 7.49361 79.7787 7.54733C79.7276 7.60108 79.6755 7.6535 79.6218 7.70469C79.5677 7.75582 79.5125 7.80566 79.4562 7.85416C79.3994 7.90263 79.3416 7.94977 79.2822 7.9955C79.2233 8.0412 79.1631 8.08547 79.1015 8.12833C79.0399 8.1712 78.9771 8.21259 78.9132 8.2525C78.8493 8.29242 78.7843 8.33079 78.7177 8.36765C78.6516 8.40452 78.5846 8.43984 78.5166 8.47361C78.4482 8.50738 78.379 8.53954 78.3086 8.57011C78.2387 8.60073 78.1676 8.62972 78.0958 8.65703C78.0239 8.68437 77.9509 8.71009 77.8776 8.73417C77.8039 8.7582 77.7294 8.78059 77.6541 8.80128C77.5793 8.82198 77.5036 8.84102 77.4273 8.85834C77.3509 8.87565 77.2738 8.89128 77.1959 8.90515C77.1184 8.91905 77.0401 8.93124 76.9614 8.94169C76.8828 8.95215 76.8038 8.96084 76.724 8.96781C76.6446 8.97482 76.5648 8.98006 76.4847 8.98355C76.4045 8.98703 76.324 8.98879 76.2431 8.98879C76.2431 8.98879 4.72971 8.98879 4.72971 8.98879C4.64895 8.98879 4.56845 8.98703 4.48826 8.98355C4.40802 8.98006 4.32817 8.97482 4.24861 8.96781C4.1691 8.96084 4.09004 8.95215 4.01139 8.94169C3.93271 8.93124 3.85459 8.91905 3.77698 8.90515C3.69936 8.89128 3.62233 8.87565 3.5459 8.85834C3.46947 8.84102 3.3937 8.82198 3.31861 8.80128C3.24352 8.78059 3.16918 8.7582 3.09558 8.73417C3.02198 8.71009 2.94921 8.6844 2.87725 8.65706C2.80531 8.62972 2.73425 8.60076 2.6641 8.57015C2.59394 8.53954 2.52475 8.50738 2.45653 8.47361C2.3883 8.43984 2.32112 8.40452 2.25497 8.36765C2.18882 8.33079 2.12378 8.29242 2.05984 8.2525C1.9959 8.21259 1.93314 8.1712 1.87154 8.12833C1.80994 8.08547 1.74958 8.0412 1.69045 7.9955C1.63132 7.94977 1.57348 7.90263 1.51693 7.85416C1.46039 7.80566 1.4052 7.75582 1.35135 7.70469C1.29751 7.6535 1.24507 7.60108 1.19404 7.54733C1.14301 7.49361 1.09344 7.43864 1.04532 7.38245C0.997205 7.32626 0.950597 7.26891 0.905497 7.21039C0.860393 7.15182 0.816847 7.09218 0.774851 7.03142C0.732855 6.97067 0.692455 6.90887 0.653651 6.846C0.61485 6.78316 0.577679 6.71931 0.542149 6.65449C0.506615 6.58968 0.472756 6.52393 0.440564 6.45724C0.408376 6.39056 0.377893 6.32305 0.349111 6.25468C0.320331 6.18631 0.293285 6.11718 0.267972 6.04722C0.24266 5.97731 0.219107 5.90667 0.197314 5.83532C0.175521 5.76396 0.15551 5.69196 0.13728 5.61931C0.119051 5.5467 0.102622 5.47351 0.0879941 5.39975C0.0733657 5.32599 0.060553 5.25172 0.0495559 5.17699C0.0385584 5.10226 0.0293875 5.02713 0.0220435 4.95157C0.0146994 4.87598 0.0091895 4.8001 0.0055137 4.72386C0.0018379 4.64765 0 4.57116 0 4.49438C0 4.49438 0 4.49438 0 4.49438C0 4.41763 0.0018379 4.34114 0.0055137 4.26494C0.0091895 4.1887 0.0146994 4.11281 0.0220435 4.03722C0.0293875 3.96166 0.0385584 3.88653 0.0495559 3.8118C0.060553 3.73703 0.0733657 3.6628 0.0879941 3.58905C0.102622 3.5153 0.119051 3.4421 0.13728 3.36947C0.15551 3.29684 0.175521 3.22485 0.197314 3.15349C0.219107 3.08213 0.24266 3.01149 0.267972 2.94155C0.293285 2.87162 0.320331 2.80247 0.349111 2.73409C0.377893 2.66572 0.408376 2.59821 0.440564 2.53154C0.472756 2.46487 0.506615 2.39913 0.542149 2.3343C0.577679 2.26947 0.61485 2.20563 0.653651 2.14277C0.692455 2.07992 0.732855 2.01811 0.774851 1.95735C0.816847 1.8966 0.860393 1.83695 0.905497 1.77842C0.950597 1.71989 0.997205 1.66253 1.04532 1.60634C1.09344 1.55015 1.14301 1.49519 1.19404 1.44146C1.24507 1.38772 1.29751 1.33528 1.35135 1.28411C1.4052 1.23295 1.46039 1.18312 1.51693 1.13463C1.57348 1.08614 1.63132 1.03903 1.69045 0.993308C1.74958 0.947588 1.80994 0.903299 1.87154 0.860443C1.93314 0.817583 1.9959 0.7762 2.05984 0.736298C2.12378 0.696391 2.18882 0.658001 2.25497 0.621128C2.32112 0.584254 2.3883 0.548936 2.45653 0.515173C2.52475 0.481407 2.59394 0.449233 2.6641 0.418643C2.73425 0.388057 2.80531 0.35909 2.87725 0.331741C2.94921 0.304393 3.02198 0.278692 3.09558 0.254639C3.16918 0.230586 3.24352 0.208205 3.31861 0.187496C3.3937 0.166788 3.46947 0.147772 3.5459 0.13045C3.62233 0.113128 3.69936 0.0975163 3.77698 0.0836158C3.85459 0.0697153 3.93271 0.0575401 4.01139 0.0470902C4.09004 0.0366399 4.1691 0.0279253 4.24861 0.0209467C4.32817 0.013968 4.40802 0.00873226 4.48826 0.00523936C4.56845 0.00174645 4.64895 0 4.72971 0C4.72971 0 4.72971 0 4.72971 0L4.72971 0Z" transform="translate(0 35.42584)" id="mid" fill="#6A9BD8" stroke="none" />
        <path d="M4.35133 0L10.4054 0C10.4797 0 10.5537 0.00160672 10.6275 0.00482016C10.7013 0.00803362 10.7748 0.0128505 10.8479 0.0192709C10.9211 0.0256912 10.9938 0.0337084 11.0662 0.0433225C11.1386 0.0529366 11.2105 0.0641378 11.2818 0.0769259C11.3533 0.0897143 11.4242 0.104077 11.4945 0.120013C11.5648 0.13595 11.6345 0.153444 11.7036 0.172496C11.7726 0.191548 11.841 0.212138 11.9088 0.234267C11.9764 0.256396 12.0434 0.28004 12.1096 0.3052C12.1758 0.330361 12.2412 0.35701 12.3057 0.385149C12.3702 0.413292 12.4339 0.442893 12.4967 0.473957C12.5594 0.505021 12.6213 0.537515 12.6821 0.571435C12.743 0.605359 12.8028 0.640677 12.8616 0.677393C12.9205 0.714105 12.9782 0.752175 13.0349 0.791603C13.0915 0.831031 13.147 0.871778 13.2015 0.91384C13.2559 0.955905 13.3091 0.999242 13.3611 1.04385C13.4131 1.08846 13.4639 1.13431 13.5134 1.18138C13.563 1.22845 13.6112 1.2767 13.6582 1.32613C13.7051 1.37556 13.7507 1.42613 13.795 1.47782C13.8393 1.52951 13.8821 1.58229 13.9236 1.63614C13.9651 1.68999 14.0052 1.74486 14.0438 1.80075C14.0825 1.85665 14.1196 1.91351 14.1553 1.97134C14.191 2.02917 14.2252 2.0879 14.2579 2.14755C14.2906 2.20718 14.3217 2.26767 14.3514 2.32901C14.381 2.39034 14.409 2.45246 14.4355 2.51536C14.462 2.57826 14.4868 2.64188 14.5101 2.70622C14.5334 2.77056 14.5551 2.83555 14.5751 2.9012C14.5952 2.96684 14.6136 3.03308 14.6304 3.0999C14.6472 3.16672 14.6622 3.23406 14.6757 3.30192C14.6892 3.36978 14.701 3.43808 14.7111 3.50684C14.7212 3.5756 14.7296 3.64475 14.7364 3.71427C14.7432 3.78376 14.7482 3.85361 14.7516 3.92374C14.755 3.99384 14.7567 4.06422 14.7567 4.13482C14.7567 4.13482 14.7567 4.13482 14.7567 4.13482C14.7567 4.20546 14.755 4.2758 14.7516 4.3459C14.7482 4.41603 14.7432 4.48588 14.7364 4.5554C14.7296 4.62489 14.7212 4.69405 14.7111 4.76282C14.701 4.83155 14.6892 4.89985 14.6757 4.96772C14.6622 5.03559 14.6472 5.10292 14.6304 5.16975C14.6136 5.23657 14.5952 5.30283 14.5751 5.36843C14.5551 5.43411 14.5334 5.4991 14.5101 5.56342C14.4868 5.62777 14.462 5.6914 14.4355 5.75431C14.409 5.81722 14.381 5.8793 14.3514 5.94063C14.3217 6.00196 14.2906 6.06247 14.2579 6.12211C14.2252 6.18175 14.191 6.24049 14.1553 6.2983C14.1196 6.35615 14.0825 6.41299 14.0438 6.46889C14.0052 6.52476 13.9651 6.57966 13.9236 6.63352C13.8821 6.68734 13.8393 6.74012 13.795 6.79182C13.7507 6.84352 13.7051 6.89411 13.6582 6.94351C13.6112 6.99295 13.563 7.0412 13.5134 7.08827C13.4639 7.13533 13.4131 7.18118 13.3611 7.2258C13.3091 7.27043 13.2559 7.31376 13.2015 7.35583C13.147 7.39787 13.0915 7.43864 13.0349 7.47806C12.9782 7.51747 12.9205 7.55552 12.8616 7.59224C12.8028 7.62896 12.743 7.66431 12.6821 7.69823C12.6213 7.73215 12.5594 7.76463 12.4967 7.7957C12.4339 7.82675 12.3702 7.85635 12.3057 7.88448C12.2412 7.91265 12.1758 7.93928 12.1096 7.96446C12.0434 7.98961 11.9764 8.01325 11.9088 8.03535C11.841 8.05752 11.7726 8.0781 11.7036 8.09715C11.6345 8.11619 11.5648 8.13369 11.4945 8.14964C11.4242 8.16556 11.3533 8.17993 11.2818 8.19272C11.2105 8.20551 11.1386 8.21672 11.0662 8.22631C10.9938 8.23594 10.9211 8.24395 10.8479 8.25038C10.7748 8.25681 10.7013 8.26163 10.6275 8.26483C10.5537 8.26806 10.4797 8.26964 10.4054 8.26964C10.4054 8.26964 4.35133 8.26964 4.35133 8.26964C4.277 8.26964 4.20296 8.26806 4.1292 8.26483C4.05535 8.26163 3.98189 8.25681 3.90873 8.25038C3.8356 8.24395 3.76283 8.23594 3.69046 8.22631C3.6181 8.21672 3.54622 8.20551 3.47481 8.19275C3.4034 8.17993 3.33253 8.16556 3.26221 8.14964C3.19189 8.13369 3.12219 8.11619 3.0531 8.09715C2.98402 8.0781 2.91563 8.05752 2.84792 8.03535C2.78021 8.01325 2.71326 7.98961 2.64706 7.96446C2.58087 7.93928 2.5155 7.91265 2.45095 7.88448C2.38641 7.85635 2.32275 7.82675 2.25999 7.7957C2.19723 7.76463 2.13542 7.73215 2.07456 7.69823C2.01371 7.66431 1.95387 7.62896 1.89504 7.59224C1.83622 7.55552 1.77848 7.51747 1.72181 7.47806C1.66514 7.43864 1.6096 7.39787 1.5552 7.35583C1.5008 7.31376 1.44759 7.27043 1.39557 7.2258C1.34355 7.18118 1.29277 7.13533 1.24324 7.08827C1.1937 7.0412 1.14546 6.99295 1.09851 6.94351C1.05156 6.89411 1.00596 6.84352 0.961687 6.79182C0.917423 6.74012 0.874546 6.68734 0.833054 6.63352C0.791561 6.57966 0.751497 6.52476 0.712859 6.46889C0.674225 6.41299 0.637054 6.35615 0.601357 6.2983C0.565657 6.24049 0.531466 6.18175 0.498775 6.12211C0.466084 6.06247 0.434929 6.00196 0.405316 5.94063C0.375704 5.8793 0.347658 5.81722 0.321181 5.75431C0.294703 5.6914 0.26982 5.62777 0.246533 5.56342C0.223246 5.4991 0.201577 5.43411 0.181528 5.36843C0.161478 5.30283 0.143068 5.23657 0.126297 5.16975C0.109527 5.10292 0.0944121 5.03559 0.080954 4.96772C0.0674962 4.89985 0.0557086 4.83155 0.045591 4.76282C0.0354734 4.69405 0.0270364 4.62489 0.0202799 4.5554C0.0135234 4.48588 0.00845429 4.41603 0.00507256 4.3459C0.00169085 4.2758 0 4.20546 0 4.13482C0 4.13482 0 4.13482 0 4.13482C0 4.06422 0.00169085 3.99384 0.00507256 3.92374C0.00845429 3.85361 0.0135234 3.78376 0.0202799 3.71427C0.0270364 3.64475 0.0354734 3.5756 0.045591 3.50684C0.0557086 3.43808 0.0674962 3.36978 0.080954 3.30192C0.0944121 3.23406 0.109527 3.16672 0.126297 3.0999C0.143068 3.03308 0.161478 2.96684 0.181528 2.9012C0.201577 2.83555 0.223246 2.77056 0.246533 2.70622C0.26982 2.64188 0.294703 2.57826 0.321181 2.51536C0.347658 2.45246 0.375704 2.39034 0.405316 2.32901C0.434929 2.26767 0.466084 2.20718 0.498775 2.14755C0.531466 2.0879 0.565657 2.02917 0.601357 1.97134C0.637054 1.91351 0.674225 1.85665 0.712859 1.80075C0.751497 1.74486 0.791561 1.68999 0.833054 1.63614C0.874546 1.58229 0.917423 1.52951 0.961687 1.47782C1.00596 1.42613 1.05156 1.37556 1.09851 1.32613C1.14546 1.2767 1.1937 1.22845 1.24324 1.18138C1.29277 1.13431 1.34355 1.08846 1.39557 1.04385C1.44759 0.999242 1.5008 0.955905 1.5552 0.91384C1.6096 0.871778 1.66514 0.831031 1.72181 0.791603C1.77848 0.752175 1.83622 0.714105 1.89504 0.677393C1.95387 0.640677 2.01371 0.605359 2.07456 0.571435C2.13542 0.537515 2.19723 0.505021 2.25999 0.473957C2.32275 0.442893 2.38641 0.413292 2.45095 0.385149C2.5155 0.35701 2.58087 0.330361 2.64706 0.3052C2.71326 0.28004 2.78021 0.256396 2.84792 0.234267C2.91563 0.212138 2.98402 0.191548 3.0531 0.172496C3.12219 0.153444 3.19189 0.13595 3.26221 0.120013C3.33253 0.104077 3.4034 0.0897143 3.47481 0.0769259C3.54622 0.0641378 3.6181 0.0529366 3.69046 0.0433225C3.76283 0.0337084 3.8356 0.0256912 3.90873 0.0192709C3.98189 0.0128505 4.05535 0.00803362 4.1292 0.00482016C4.20296 0.00160672 4.277 0 4.35133 0C4.35133 0 4.35133 0 4.35133 0L4.35133 0Z" transform="matrix(0.7071068 0.7071068 -0.7071068 0.7071068 56.88662 16.62078)" id="upper-3" fill="#E86135" stroke="none" />
        <path d="M4.35133 0L10.4054 0C10.4797 0 10.5537 0.00160673 10.6275 0.00482018C10.7013 0.00803366 10.7748 0.0128506 10.8479 0.0192709C10.9211 0.0256913 10.9938 0.0337086 11.0662 0.0433226C11.1386 0.0529369 11.2105 0.064138 11.2819 0.0769262C11.3533 0.0897147 11.4242 0.104077 11.4945 0.120014C11.5648 0.13595 11.6345 0.153444 11.7036 0.172497C11.7727 0.191549 11.8411 0.212139 11.9088 0.234268C11.9765 0.256397 12.0434 0.280041 12.1096 0.305202C12.1758 0.330362 12.2412 0.357012 12.3057 0.38515C12.3703 0.413293 12.4339 0.442895 12.4967 0.473959C12.5595 0.505023 12.6213 0.537517 12.6821 0.571438C12.743 0.605362 12.8028 0.64068 12.8616 0.677395C12.9205 0.714108 12.9782 0.752178 13.0349 0.791606C13.0915 0.831034 13.1471 0.871781 13.2015 0.913843C13.2559 0.955909 13.3091 0.999246 13.3611 1.04386C13.4131 1.08847 13.4639 1.13431 13.5135 1.18138C13.563 1.22845 13.6112 1.27671 13.6582 1.32614C13.7051 1.37557 13.7507 1.42613 13.795 1.47783C13.8393 1.52952 13.8822 1.58229 13.9236 1.63615C13.9651 1.68999 14.0052 1.74487 14.0438 1.80076C14.0825 1.85666 14.1196 1.91352 14.1553 1.97135C14.191 2.02918 14.2252 2.08791 14.2579 2.14755C14.2906 2.20719 14.3218 2.26768 14.3514 2.32902C14.381 2.39035 14.409 2.45247 14.4355 2.51536C14.462 2.57827 14.4869 2.64189 14.5101 2.70623C14.5334 2.77057 14.5551 2.83556 14.5751 2.90121C14.5952 2.96685 14.6136 3.03309 14.6304 3.09991C14.6472 3.16673 14.6623 3.23407 14.6757 3.30193C14.6892 3.36979 14.701 3.43809 14.7111 3.50685C14.7212 3.57562 14.7296 3.64477 14.7364 3.71429C14.7432 3.78378 14.7482 3.85362 14.7516 3.92375C14.755 3.99385 14.7567 4.06424 14.7567 4.13484C14.7567 4.13484 14.7567 4.13484 14.7567 4.13484C14.7567 4.20547 14.755 4.27582 14.7516 4.34592C14.7482 4.41605 14.7432 4.4859 14.7364 4.55542C14.7296 4.62491 14.7212 4.69407 14.7111 4.76284C14.701 4.83157 14.6892 4.89987 14.6757 4.96774C14.6623 5.03561 14.6472 5.10294 14.6304 5.16977C14.6136 5.23659 14.5952 5.30281 14.5751 5.36845C14.5551 5.43413 14.5334 5.49909 14.5101 5.56344C14.4869 5.62779 14.462 5.69142 14.4355 5.75433C14.409 5.81724 14.381 5.87933 14.3514 5.94066C14.3218 6.00199 14.2906 6.06249 14.2579 6.1221C14.2252 6.18178 14.191 6.24052 14.1553 6.29833C14.1196 6.35617 14.0825 6.41301 14.0438 6.46892C14.0052 6.52479 13.9651 6.57969 13.9236 6.63354C13.8822 6.68737 13.8393 6.74015 13.795 6.79185C13.7507 6.84355 13.7051 6.8941 13.6582 6.94354C13.6112 6.99298 13.563 7.04123 13.5135 7.0883C13.4639 7.13536 13.4131 7.18121 13.3611 7.22583C13.3091 7.27046 13.2559 7.31379 13.2015 7.35586C13.1471 7.39789 13.0915 7.43867 13.0349 7.47809C12.9782 7.5175 12.9205 7.55555 12.8616 7.59227C12.8028 7.62899 12.743 7.66434 12.6821 7.69826C12.6213 7.73218 12.5595 7.76466 12.4967 7.79574C12.4339 7.82678 12.3703 7.85638 12.3057 7.88451C12.2412 7.91268 12.1758 7.93931 12.1096 7.96449C12.0434 7.98964 11.9765 8.01328 11.9088 8.03538C11.8411 8.05755 11.7727 8.07814 11.7036 8.09718C11.6345 8.11622 11.5648 8.13372 11.4945 8.14967C11.4242 8.16559 11.3533 8.17996 11.2819 8.19275C11.2105 8.20554 11.1386 8.21675 11.0662 8.22634C10.9938 8.23597 10.9211 8.24398 10.8479 8.25041C10.7748 8.25685 10.7013 8.26166 10.6275 8.26486C10.5537 8.26806 10.4797 8.26967 10.4054 8.26967C10.4054 8.26967 4.35133 8.26967 4.35133 8.26967C4.277 8.26967 4.20297 8.26806 4.1292 8.26486C4.05539 8.26166 3.98189 8.25685 3.90873 8.25041C3.8356 8.24398 3.76283 8.23597 3.69046 8.22634C3.61811 8.21675 3.54622 8.20554 3.47481 8.19278C3.4034 8.17996 3.33253 8.16559 3.26221 8.14967C3.1919 8.13372 3.12219 8.11622 3.05311 8.09718C2.98402 8.07814 2.91563 8.05755 2.84792 8.03538C2.78021 8.01328 2.71326 7.98964 2.64706 7.96449C2.58087 7.93931 2.5155 7.91268 2.45096 7.88451C2.38641 7.85638 2.32276 7.82678 2.25999 7.79574C2.19723 7.76466 2.13542 7.73218 2.07456 7.69826C2.01371 7.66434 1.95387 7.62899 1.89504 7.59227C1.83622 7.55555 1.77848 7.5175 1.72181 7.47809C1.66514 7.43867 1.6096 7.39789 1.5552 7.35586C1.5008 7.31379 1.44759 7.27046 1.39557 7.22583C1.34355 7.18121 1.29277 7.13536 1.24324 7.0883C1.1937 7.04123 1.14546 6.99298 1.09851 6.94354C1.05156 6.8941 1.00596 6.84355 0.961688 6.79185C0.917423 6.74015 0.874547 6.68737 0.833054 6.63354C0.791561 6.57969 0.751498 6.52479 0.71286 6.46892C0.674225 6.41301 0.637058 6.35617 0.601358 6.29833C0.565657 6.24052 0.531466 6.18178 0.498775 6.1221C0.466085 6.06249 0.434933 6.00199 0.405316 5.94066C0.375704 5.87933 0.347659 5.81724 0.321181 5.75433C0.294703 5.69142 0.269821 5.62779 0.246533 5.56344C0.223246 5.49909 0.201578 5.43413 0.181528 5.36845C0.161478 5.30281 0.143068 5.23659 0.126298 5.16977C0.109527 5.10294 0.0944121 5.03561 0.080954 4.96774C0.0674963 4.89987 0.0557086 4.83157 0.045591 4.76284C0.0354734 4.69407 0.0270364 4.62491 0.0202799 4.55542C0.0135234 4.4859 0.00845429 4.41605 0.00507256 4.34592C0.00169085 4.27582 0 4.20547 0 4.13484C0 4.13484 0 4.13484 0 4.13484C0 4.06424 0.00169085 3.99385 0.00507256 3.92375C0.00845429 3.85362 0.0135234 3.78378 0.0202799 3.71429C0.0270364 3.64477 0.0354734 3.57562 0.045591 3.50685C0.0557086 3.43809 0.0674963 3.36979 0.080954 3.30193C0.0944121 3.23407 0.109527 3.16673 0.126298 3.09991C0.143068 3.03309 0.161478 2.96685 0.181528 2.90121C0.201578 2.83556 0.223246 2.77057 0.246533 2.70623C0.269821 2.64189 0.294703 2.57827 0.321181 2.51536C0.347659 2.45247 0.375704 2.39035 0.405316 2.32902C0.434933 2.26768 0.466085 2.20719 0.498775 2.14755C0.531466 2.08791 0.565657 2.02918 0.601358 1.97135C0.637058 1.91352 0.674225 1.85666 0.71286 1.80076C0.751498 1.74487 0.791561 1.68999 0.833054 1.63615C0.874547 1.58229 0.917423 1.52952 0.961688 1.47783C1.00596 1.42613 1.05156 1.37557 1.09851 1.32614C1.14546 1.27671 1.1937 1.22845 1.24324 1.18138C1.29277 1.13431 1.34355 1.08847 1.39557 1.04386C1.44759 0.999246 1.5008 0.955909 1.5552 0.913843C1.6096 0.871781 1.66514 0.831034 1.72181 0.791606C1.77848 0.752178 1.83622 0.714108 1.89504 0.677395C1.95387 0.64068 2.01371 0.605362 2.07456 0.571438C2.13542 0.537517 2.19723 0.505023 2.25999 0.473959C2.32276 0.442895 2.38641 0.413293 2.45096 0.38515C2.5155 0.357012 2.58087 0.330362 2.64706 0.305202C2.71326 0.280041 2.78021 0.256397 2.84792 0.234268C2.91563 0.212139 2.98402 0.191549 3.05311 0.172497C3.12219 0.153444 3.1919 0.13595 3.26221 0.120014C3.33253 0.104077 3.4034 0.0897147 3.47481 0.0769262C3.54622 0.064138 3.61811 0.0529369 3.69046 0.0433226C3.76283 0.0337086 3.8356 0.0256913 3.90873 0.0192709C3.98189 0.0128506 4.05539 0.00803366 4.1292 0.00482018C4.20297 0.00160673 4.277 0 4.35133 0C4.35133 0 4.35133 0 4.35133 0L4.35133 0Z" transform="matrix(0.7071068 -0.7071068 0.7071068 0.7071068 13.40325 26.28192)" id="upper-2" fill="#24C981" stroke="none" />
        <path d="M4.35134 0L10.4054 0C10.4797 0 10.5537 0.00160672 10.6275 0.00482016C10.7013 0.00803362 10.7748 0.0128505 10.8479 0.0192708C10.9211 0.0256912 10.9939 0.0337084 11.0662 0.0433225C11.1386 0.0529366 11.2105 0.0641378 11.2819 0.0769259C11.3533 0.0897143 11.4242 0.104077 11.4945 0.120013C11.5648 0.13595 11.6345 0.153444 11.7036 0.172496C11.7727 0.191548 11.8411 0.212138 11.9088 0.234267C11.9765 0.256395 12.0434 0.280039 12.1096 0.3052C12.1758 0.33036 12.2412 0.35701 12.3057 0.385149C12.3703 0.413292 12.4339 0.442893 12.4967 0.473957C12.5595 0.505021 12.6213 0.537515 12.6821 0.571435C12.743 0.605359 12.8028 0.640677 12.8616 0.677393C12.9205 0.714105 12.9782 0.752175 13.0349 0.791603C13.0916 0.831031 13.1471 0.871774 13.2015 0.913839C13.2559 0.955901 13.3091 0.999242 13.3611 1.04385C13.4131 1.08846 13.4639 1.13431 13.5134 1.18138C13.563 1.22845 13.6113 1.2767 13.6582 1.32613C13.7051 1.37556 13.7507 1.42613 13.795 1.47782C13.8393 1.52951 13.8822 1.58229 13.9237 1.63614C13.9651 1.68999 14.0052 1.74486 14.0438 1.80075C14.0825 1.85665 14.1197 1.91351 14.1554 1.97134C14.191 2.02916 14.2252 2.0879 14.2579 2.14754C14.2906 2.20718 14.3218 2.26767 14.3514 2.329C14.381 2.39034 14.4091 2.45245 14.4355 2.51535C14.462 2.57825 14.4869 2.64187 14.5102 2.70621C14.5335 2.77055 14.5551 2.83555 14.5752 2.90119C14.5952 2.96684 14.6136 3.03307 14.6304 3.0999C14.6472 3.16671 14.6623 3.23405 14.6757 3.30191C14.6892 3.36977 14.701 3.43808 14.7111 3.50683C14.7212 3.5756 14.7296 3.64475 14.7364 3.71424C14.7432 3.78376 14.7483 3.85361 14.7516 3.92374C14.755 3.99384 14.7567 4.06422 14.7567 4.13482C14.7567 4.13482 14.7567 4.13482 14.7567 4.13482C14.7567 4.20542 14.755 4.2758 14.7516 4.3459C14.7483 4.41603 14.7432 4.48588 14.7364 4.5554C14.7296 4.62489 14.7212 4.69405 14.7111 4.76282C14.701 4.83155 14.6892 4.89985 14.6757 4.96772C14.6623 5.03559 14.6472 5.10292 14.6304 5.16975C14.6136 5.23657 14.5952 5.30279 14.5752 5.36843C14.5551 5.43407 14.5335 5.49907 14.5102 5.56342C14.4869 5.62777 14.462 5.69139 14.4355 5.75431C14.4091 5.81718 14.381 5.8793 14.3514 5.94063C14.3218 6.00196 14.2906 6.06243 14.2579 6.12207C14.2252 6.18175 14.191 6.24049 14.1554 6.2983C14.1197 6.35615 14.0825 6.41299 14.0438 6.46886C14.0052 6.52476 13.9651 6.57966 13.9237 6.63352C13.8822 6.68734 13.8393 6.74012 13.795 6.79182C13.7507 6.84352 13.7051 6.89407 13.6582 6.94351C13.6113 6.99295 13.563 7.0412 13.5134 7.08827C13.4639 7.13533 13.4131 7.18118 13.3611 7.2258C13.3091 7.27039 13.2559 7.31376 13.2015 7.35579C13.1471 7.39787 13.0916 7.43861 13.0349 7.47806C12.9782 7.51747 12.9205 7.55552 12.8616 7.59224C12.8028 7.62896 12.743 7.66428 12.6821 7.69819C12.6213 7.73211 12.5595 7.76463 12.4967 7.79567C12.4339 7.82675 12.3703 7.85635 12.3057 7.88448C12.2412 7.91262 12.1758 7.93927 12.1096 7.96446C12.0434 7.98961 11.9765 8.01322 11.9088 8.03535C11.8411 8.05752 11.7727 8.0781 11.7036 8.09711C11.6345 8.11619 11.5648 8.13368 11.4945 8.14964C11.4242 8.16555 11.3533 8.17992 11.2819 8.19268C11.2105 8.20551 11.1386 8.21672 11.0662 8.22631C10.9939 8.23594 10.9211 8.24395 10.8479 8.25038C10.7748 8.25678 10.7013 8.26159 10.6275 8.26482C10.5537 8.26802 10.4797 8.26964 10.4054 8.26964C10.4054 8.26964 4.35134 8.26964 4.35134 8.26964C4.277 8.26964 4.20297 8.26802 4.12921 8.26482C4.05536 8.26159 3.9819 8.25678 3.90873 8.25038C3.83561 8.24395 3.76283 8.23594 3.69046 8.22631C3.61811 8.21672 3.54623 8.20551 3.47481 8.19272C3.4034 8.17992 3.33254 8.16555 3.26222 8.14964C3.1919 8.13368 3.1222 8.11619 3.05311 8.09711C2.98403 8.0781 2.91563 8.05752 2.84792 8.03535C2.78021 8.01322 2.71326 7.98961 2.64707 7.96446C2.58087 7.93927 2.51551 7.91262 2.45096 7.88448C2.38641 7.85635 2.32276 7.82675 2.26 7.79567C2.19723 7.76463 2.13542 7.73211 2.07457 7.69819C2.01371 7.66428 1.95387 7.62896 1.89505 7.59224C1.83623 7.55552 1.77848 7.51747 1.72181 7.47806C1.66514 7.43861 1.60961 7.39787 1.55521 7.35579C1.5008 7.31376 1.44759 7.27039 1.39557 7.2258C1.34355 7.18118 1.29277 7.13533 1.24324 7.08827C1.1937 7.0412 1.14546 6.99295 1.09851 6.94351C1.05156 6.89407 1.00596 6.84352 0.961689 6.79182C0.917425 6.74012 0.874548 6.68734 0.833055 6.63352C0.791562 6.57966 0.751499 6.52476 0.712861 6.46886C0.674226 6.41299 0.637055 6.35615 0.601359 6.2983C0.565658 6.24049 0.531467 6.18175 0.498776 6.12207C0.466085 6.06243 0.43493 6.00196 0.405317 5.94063C0.375705 5.8793 0.347659 5.81718 0.321181 5.75431C0.294704 5.69139 0.269821 5.62777 0.246534 5.56342C0.223246 5.49907 0.201578 5.43407 0.181528 5.36843C0.161479 5.30279 0.143068 5.23657 0.126298 5.16975C0.109527 5.10292 0.0944122 5.03559 0.0809541 4.96772C0.0674964 4.89985 0.0557087 4.83155 0.0455911 4.76282C0.0354735 4.69405 0.0270365 4.62489 0.0202799 4.5554C0.0135234 4.48588 0.0084543 4.41603 0.00507257 4.3459C0.00169085 4.2758 0 4.20542 0 4.13482C0 4.13482 0 4.13482 0 4.13482C0 4.06422 0.00169085 3.99384 0.00507257 3.92374C0.0084543 3.85361 0.0135234 3.78376 0.0202799 3.71424C0.0270365 3.64475 0.0354735 3.5756 0.0455911 3.50683C0.0557087 3.43808 0.0674964 3.36977 0.0809541 3.30191C0.0944122 3.23405 0.109527 3.16672 0.126298 3.0999C0.143068 3.03307 0.161479 2.96684 0.181528 2.90119C0.201578 2.83555 0.223246 2.77055 0.246534 2.70621C0.269821 2.64187 0.294704 2.57825 0.321181 2.51535C0.347659 2.45245 0.375705 2.39034 0.405317 2.329C0.43493 2.26767 0.466085 2.20718 0.498776 2.14754C0.531467 2.0879 0.565658 2.02916 0.601359 1.97134C0.637055 1.91351 0.674226 1.85665 0.712861 1.80075C0.751499 1.74486 0.791562 1.68999 0.833055 1.63614C0.874548 1.58229 0.917425 1.52951 0.961689 1.47782C1.00596 1.42613 1.05156 1.37556 1.09851 1.32613C1.14546 1.2767 1.1937 1.22845 1.24324 1.18138C1.29277 1.13431 1.34355 1.08846 1.39557 1.04385C1.44759 0.999242 1.5008 0.955901 1.55521 0.913839C1.60961 0.871774 1.66514 0.831031 1.72181 0.791603C1.77848 0.752175 1.83623 0.714105 1.89505 0.677393C1.95387 0.640677 2.01371 0.605359 2.07457 0.571435C2.13542 0.537515 2.19723 0.505021 2.26 0.473957C2.32276 0.442893 2.38641 0.413292 2.45096 0.385149C2.51551 0.35701 2.58087 0.33036 2.64707 0.3052C2.71326 0.280039 2.78021 0.256395 2.84792 0.234267C2.91563 0.212138 2.98403 0.191548 3.05311 0.172496C3.1222 0.153444 3.1919 0.13595 3.26222 0.120013C3.33253 0.104077 3.4034 0.0897143 3.47481 0.0769259C3.54623 0.0641378 3.61811 0.0529366 3.69046 0.0433225C3.76283 0.0337084 3.83561 0.0256912 3.90873 0.0192708C3.9819 0.0128505 4.05536 0.00803362 4.12921 0.00482016C4.20297 0.00160672 4.277 0 4.35134 0C4.35134 0 4.35134 0 4.35134 0L4.35134 0Z" transform="matrix(0.7071068 -0.7071068 0.7071068 0.7071068 30.24812 10.49035)" id="upper-4" fill="#FF6584" stroke="none" />
        <path d="M4.35133 0L10.4053 0C10.4796 0 10.5537 0.00160673 10.6275 0.00482019C10.7013 0.00803367 10.7748 0.0128506 10.8479 0.019271C10.9211 0.0256913 10.9938 0.0337086 11.0662 0.0433227C11.1386 0.0529369 11.2104 0.0641381 11.2818 0.0769263C11.3532 0.0897148 11.4241 0.104077 11.4944 0.120014C11.5648 0.13595 11.6345 0.153444 11.7035 0.172496C11.7726 0.191549 11.841 0.212139 11.9087 0.234268C11.9764 0.256397 12.0434 0.280041 12.1096 0.305202C12.1758 0.330362 12.2412 0.357012 12.3057 0.385151C12.3702 0.413294 12.4339 0.442896 12.4967 0.47396C12.5594 0.505024 12.6212 0.537518 12.6821 0.571438C12.743 0.605362 12.8028 0.640681 12.8616 0.677396C12.9204 0.714109 12.9782 0.752179 13.0348 0.791607C13.0915 0.831036 13.147 0.871779 13.2014 0.913844C13.2558 0.95591 13.3091 0.999247 13.3611 1.04386C13.4131 1.08847 13.4639 1.13431 13.5134 1.18138C13.563 1.22846 13.6112 1.2767 13.6581 1.32614C13.7051 1.37557 13.7507 1.42613 13.795 1.47783C13.8393 1.52952 13.8821 1.58229 13.9236 1.63614C13.9651 1.69 14.0051 1.74487 14.0438 1.80076C14.0824 1.85666 14.1196 1.91352 14.1553 1.97135C14.191 2.02918 14.2252 2.08791 14.2579 2.14755C14.2906 2.2072 14.3217 2.26768 14.3513 2.32902C14.381 2.39035 14.409 2.45247 14.4355 2.51537C14.4619 2.57827 14.4868 2.64189 14.5101 2.70623C14.5334 2.77057 14.5551 2.83556 14.5751 2.90121C14.5952 2.96686 14.6136 3.03309 14.6304 3.09991C14.6471 3.16673 14.6622 3.23407 14.6757 3.30193C14.6891 3.36979 14.7009 3.4381 14.711 3.50685C14.7212 3.57562 14.7296 3.64477 14.7364 3.71426C14.7431 3.78378 14.7482 3.85363 14.7516 3.92376C14.755 3.99386 14.7566 4.06424 14.7566 4.13484C14.7566 4.13484 14.7566 4.13484 14.7566 4.13484C14.7566 4.20544 14.755 4.27583 14.7516 4.34592C14.7482 4.41606 14.7431 4.4859 14.7364 4.55543C14.7296 4.62491 14.7212 4.69408 14.711 4.76284C14.7009 4.83158 14.6891 4.89988 14.6757 4.96775C14.6622 5.03562 14.6471 5.10295 14.6304 5.16977C14.6136 5.2366 14.5952 5.30282 14.5751 5.36846C14.5551 5.4341 14.5334 5.4991 14.5101 5.56345C14.4868 5.6278 14.4619 5.69143 14.4355 5.75434C14.409 5.81725 14.381 5.87933 14.3513 5.94066C14.3217 6.002 14.2906 6.06246 14.2579 6.12211C14.2252 6.18178 14.191 6.24053 14.1553 6.29834C14.1196 6.35618 14.0824 6.41302 14.0438 6.46889C14.0051 6.5248 13.9651 6.5797 13.9236 6.63355C13.8821 6.68738 13.8393 6.74015 13.795 6.79186C13.7507 6.84356 13.7051 6.89411 13.6581 6.94355C13.6112 6.99299 13.563 7.04124 13.5134 7.08831C13.4639 7.13537 13.4131 7.18122 13.3611 7.22584C13.3091 7.27043 13.2558 7.3138 13.2014 7.35583C13.147 7.39791 13.0915 7.43865 13.0348 7.4781C12.9782 7.51751 12.9204 7.55556 12.8616 7.59228C12.8028 7.629 12.743 7.66432 12.6821 7.69823C12.6212 7.73215 12.5594 7.76467 12.4967 7.79571C12.4339 7.82679 12.3702 7.85639 12.3057 7.88453C12.2412 7.91266 12.1758 7.93932 12.1096 7.9645C12.0434 7.98965 11.9764 8.01326 11.9087 8.03539C11.841 8.05756 11.7726 8.07815 11.7035 8.09719C11.6345 8.11623 11.5648 8.13373 11.4944 8.14968C11.4241 8.1656 11.3532 8.17997 11.2818 8.19272C11.2104 8.20555 11.1386 8.21676 11.0662 8.22635C10.9938 8.23598 10.9211 8.24399 10.8479 8.25043C10.7748 8.25682 10.7013 8.26167 10.6275 8.26487C10.5537 8.26807 10.4796 8.26968 10.4053 8.26968C10.4053 8.26968 4.35133 8.26968 4.35133 8.26968C4.27699 8.26968 4.20296 8.26807 4.12919 8.26487C4.05535 8.26167 3.98188 8.25682 3.90872 8.25043C3.8356 8.24399 3.76282 8.23598 3.69045 8.22635C3.6181 8.21676 3.54621 8.20555 3.4748 8.19276C3.40339 8.17997 3.33253 8.1656 3.26221 8.14968C3.19189 8.13373 3.12218 8.11623 3.0531 8.09719C2.98402 8.07815 2.91562 8.05756 2.84791 8.03539C2.7802 8.01326 2.71325 7.98965 2.64706 7.9645C2.58087 7.93932 2.5155 7.91266 2.45095 7.88453C2.3864 7.85639 2.32275 7.82679 2.25999 7.79571C2.19722 7.76467 2.13541 7.73215 2.07456 7.69823C2.0137 7.66432 1.95386 7.629 1.89504 7.59228C1.83622 7.55556 1.77847 7.51751 1.72181 7.4781C1.66513 7.43865 1.6096 7.39791 1.5552 7.35583C1.5008 7.3138 1.44759 7.27043 1.39557 7.22584C1.34355 7.18122 1.29277 7.13537 1.24323 7.08831C1.1937 7.04124 1.14546 6.99299 1.09851 6.94355C1.05156 6.89411 1.00595 6.84356 0.961686 6.79186C0.917422 6.74015 0.874542 6.68738 0.833049 6.63355C0.791556 6.5797 0.751493 6.5248 0.712858 6.46889C0.674224 6.41302 0.637053 6.35618 0.601357 6.29834C0.565656 6.24053 0.531465 6.18178 0.498774 6.12211C0.466084 6.06246 0.434928 6.002 0.405316 5.94066C0.375703 5.87933 0.347658 5.81725 0.32118 5.75434C0.294702 5.69143 0.26982 5.6278 0.246533 5.56345C0.223246 5.4991 0.201577 5.4341 0.181528 5.36846C0.161478 5.30282 0.143068 5.2366 0.126297 5.16977C0.109527 5.10295 0.0944119 5.03562 0.0809539 4.96775C0.0674961 4.89988 0.0557085 4.83158 0.0455909 4.76284C0.0354734 4.69408 0.0270364 4.62491 0.0202799 4.55543C0.0135234 4.4859 0.00845428 4.41606 0.00507255 4.34592C0.00169085 4.27583 0 4.20544 0 4.13484C0 4.13484 0 4.13484 0 4.13484C0 4.06424 0.00169085 3.99386 0.00507255 3.92376C0.00845428 3.85363 0.0135234 3.78378 0.0202799 3.71426C0.0270364 3.64477 0.0354734 3.57562 0.0455909 3.50685C0.0557085 3.4381 0.0674961 3.36979 0.0809539 3.30193C0.0944119 3.23407 0.109527 3.16673 0.126297 3.09991C0.143068 3.03309 0.161478 2.96686 0.181528 2.90121C0.201577 2.83556 0.223246 2.77057 0.246533 2.70623C0.26982 2.64189 0.294702 2.57827 0.32118 2.51537C0.347658 2.45247 0.375703 2.39035 0.405316 2.32902C0.434928 2.26768 0.466084 2.2072 0.498774 2.14755C0.531465 2.08791 0.565656 2.02918 0.601357 1.97135C0.637053 1.91352 0.674224 1.85666 0.712858 1.80076C0.751493 1.74487 0.791556 1.69 0.833049 1.63614C0.874542 1.58229 0.917422 1.52952 0.961686 1.47783C1.00595 1.42613 1.05156 1.37557 1.09851 1.32614C1.14546 1.2767 1.1937 1.22846 1.24323 1.18138C1.29277 1.13431 1.34355 1.08847 1.39557 1.04386C1.44759 0.999247 1.5008 0.95591 1.5552 0.913844C1.6096 0.871779 1.66513 0.831036 1.72181 0.791607C1.77847 0.752179 1.83622 0.714109 1.89504 0.677396C1.95386 0.640681 2.0137 0.605362 2.07456 0.571438C2.13541 0.537518 2.19722 0.505024 2.25999 0.47396C2.32275 0.442896 2.3864 0.413294 2.45095 0.385151C2.5155 0.357012 2.58087 0.330362 2.64706 0.305202C2.71325 0.280041 2.7802 0.256397 2.84791 0.234268C2.91562 0.212139 2.98402 0.191549 3.0531 0.172496C3.12218 0.153444 3.19189 0.13595 3.26221 0.120014C3.33252 0.104077 3.40339 0.0897148 3.4748 0.0769263C3.54621 0.0641381 3.6181 0.0529369 3.69045 0.0433227C3.76282 0.0337086 3.8356 0.0256913 3.90872 0.019271C3.98188 0.0128506 4.05535 0.00803367 4.12919 0.00482019C4.20296 0.00160673 4.27699 0 4.35133 0C4.35133 0 4.35133 0 4.35133 0L4.35133 0Z" transform="matrix(0.7071068 0.7071068 -0.7071068 0.7071068 40.8754 0)" id="upper-5" fill="#FF6584" stroke="none" />
        <path d="M4.35135 0L10.4054 0C10.4797 0 10.5537 0.00160672 10.6275 0.00482018C10.7013 0.00803365 10.7748 0.0128506 10.848 0.0192709C10.9211 0.0256913 10.9939 0.0337085 11.0662 0.0433226C11.1386 0.0529368 11.2104 0.064138 11.2819 0.0769262C11.3533 0.0897147 11.4242 0.104077 11.4945 0.120014C11.5648 0.13595 11.6345 0.153444 11.7036 0.172496C11.7727 0.191549 11.8411 0.212139 11.9088 0.234268C11.9765 0.256396 12.0434 0.280041 12.1097 0.305201C12.1759 0.330362 12.2412 0.357012 12.3057 0.38515C12.3703 0.413293 12.4339 0.442895 12.4967 0.473959C12.5595 0.505023 12.6213 0.537517 12.6821 0.571437C12.743 0.605362 12.8028 0.64068 12.8616 0.677395C12.9205 0.714107 12.9782 0.752178 13.0349 0.791606C13.0915 0.831034 13.1471 0.871777 13.2015 0.913843C13.2559 0.955908 13.3091 0.999246 13.3611 1.04386C13.4132 1.08847 13.4639 1.13431 13.5135 1.18138C13.563 1.22845 13.6112 1.2767 13.6582 1.32613C13.7051 1.37557 13.7508 1.42613 13.795 1.47783C13.8393 1.52952 13.8822 1.58229 13.9237 1.63614C13.9651 1.68999 14.0052 1.74486 14.0438 1.80076C14.0825 1.85666 14.1196 1.91352 14.1553 1.97134C14.191 2.02917 14.2252 2.08791 14.2579 2.14755C14.2906 2.20719 14.3218 2.26768 14.3514 2.32901C14.381 2.39035 14.409 2.45246 14.4355 2.51536C14.462 2.57826 14.4869 2.64188 14.5101 2.70623C14.5335 2.77057 14.5551 2.83556 14.5751 2.9012C14.5952 2.96685 14.6136 3.03309 14.6304 3.09991C14.6472 3.16673 14.6623 3.23407 14.6757 3.30193C14.6892 3.36978 14.701 3.43809 14.7111 3.50685C14.7212 3.57561 14.7297 3.64477 14.7364 3.71425C14.7432 3.78377 14.7483 3.85362 14.7516 3.92375C14.755 3.99385 14.7567 4.06424 14.7567 4.13484C14.7567 4.13484 14.7567 4.13484 14.7567 4.13484C14.7567 4.20544 14.755 4.27582 14.7516 4.34592C14.7483 4.41605 14.7432 4.4859 14.7364 4.55542C14.7297 4.62491 14.7212 4.69407 14.7111 4.76284C14.701 4.83157 14.6892 4.89987 14.6757 4.96774C14.6623 5.03561 14.6472 5.10294 14.6304 5.16977C14.6136 5.23659 14.5952 5.30281 14.5751 5.36845C14.5551 5.43409 14.5335 5.49909 14.5101 5.56344C14.4869 5.62779 14.462 5.69142 14.4355 5.75433C14.409 5.81724 14.381 5.87932 14.3514 5.94065C14.3218 6.00199 14.2906 6.06245 14.2579 6.1221C14.2252 6.18177 14.191 6.24052 14.1553 6.29833C14.1196 6.35617 14.0825 6.41301 14.0438 6.46888C14.0052 6.52479 13.9651 6.57969 13.9237 6.63354C13.8822 6.68736 13.8393 6.74014 13.795 6.79185C13.7508 6.84355 13.7051 6.8941 13.6582 6.94354C13.6112 6.99297 13.563 7.04123 13.5135 7.08829C13.4639 7.13536 13.4132 7.18121 13.3611 7.22583C13.3091 7.27042 13.2559 7.31378 13.2015 7.35582C13.1471 7.39789 13.0915 7.43864 13.0349 7.47809C12.9782 7.5175 12.9205 7.55555 12.8616 7.59227C12.8028 7.62899 12.743 7.66431 12.6821 7.69822C12.6213 7.73214 12.5595 7.76465 12.4967 7.7957C12.4339 7.82678 12.3703 7.85638 12.3057 7.88451C12.2412 7.91265 12.1759 7.9393 12.1097 7.96449C12.0434 7.98964 11.9765 8.01325 11.9088 8.03538C11.8411 8.05755 11.7727 8.07813 11.7036 8.09718C11.6345 8.11622 11.5648 8.13372 11.4945 8.14967C11.4242 8.16558 11.3533 8.17996 11.2819 8.19271C11.2104 8.20554 11.1386 8.21675 11.0662 8.22634C10.9939 8.23597 10.9211 8.24398 10.848 8.25041C10.7748 8.25681 10.7013 8.26166 10.6275 8.26486C10.5537 8.26805 10.4797 8.26967 10.4054 8.26967C10.4054 8.26967 4.35135 8.26967 4.35135 8.26967C4.27701 8.26967 4.20298 8.26805 4.12917 8.26486C4.05537 8.26166 3.9819 8.25681 3.90874 8.25041C3.83558 8.24398 3.76283 8.23597 3.69046 8.22634C3.61811 8.21675 3.54623 8.20554 3.47481 8.19275C3.4034 8.17996 3.33254 8.16558 3.26222 8.14967C3.1919 8.13372 3.1222 8.11622 3.05311 8.09718C2.98403 8.07813 2.91563 8.05755 2.84792 8.03538C2.78021 8.01325 2.71326 7.98964 2.64707 7.96449C2.58088 7.9393 2.51551 7.91265 2.45096 7.88451C2.38642 7.85638 2.32276 7.82678 2.26 7.7957C2.19723 7.76465 2.13542 7.73214 2.07456 7.69822C2.01371 7.66431 1.95387 7.62899 1.89505 7.59227C1.83622 7.55555 1.77848 7.5175 1.72181 7.47809C1.66514 7.43864 1.60961 7.39789 1.5552 7.35582C1.5008 7.31378 1.44759 7.27042 1.39557 7.22583C1.34355 7.18121 1.29278 7.13536 1.24324 7.08829C1.1937 7.04123 1.14546 6.99297 1.09851 6.94354C1.05157 6.8941 1.00596 6.84355 0.96169 6.79185C0.917426 6.74014 0.874545 6.68736 0.833052 6.63354C0.79156 6.57969 0.751496 6.52479 0.712861 6.46888C0.674223 6.41301 0.637056 6.35617 0.601359 6.29833C0.565659 6.24052 0.531467 6.18177 0.498777 6.1221C0.466086 6.06245 0.43493 6.00199 0.405317 5.94065C0.375704 5.87932 0.347659 5.81724 0.321181 5.75433C0.294704 5.69142 0.269821 5.62779 0.246534 5.56344C0.223246 5.49909 0.201578 5.43409 0.181528 5.36845C0.161479 5.30281 0.143068 5.23659 0.126298 5.16977C0.109527 5.10294 0.0944124 5.03561 0.0809542 4.96774C0.0674964 4.89987 0.0557087 4.83157 0.0455911 4.76284C0.0354735 4.69407 0.0270365 4.62491 0.0202799 4.55542C0.0135234 4.4859 0.00845428 4.41605 0.00507257 4.34592C0.00169085 4.27582 0 4.20544 0 4.13484C0 4.13484 0 4.13484 0 4.13484C0 4.06424 0.00169085 3.99385 0.00507257 3.92375C0.00845428 3.85362 0.0135234 3.78377 0.0202799 3.71425C0.0270365 3.64477 0.0354735 3.57561 0.0455911 3.50685C0.0557087 3.43809 0.0674964 3.36978 0.0809542 3.30193C0.0944124 3.23407 0.109527 3.16673 0.126298 3.09991C0.143068 3.03309 0.161479 2.96685 0.181528 2.9012C0.201578 2.83556 0.223246 2.77057 0.246534 2.70623C0.269821 2.64188 0.294704 2.57826 0.321181 2.51536C0.347659 2.45246 0.375704 2.39035 0.405317 2.32901C0.43493 2.26768 0.466086 2.20719 0.498777 2.14755C0.531467 2.08791 0.565659 2.02917 0.601359 1.97134C0.637056 1.91352 0.674223 1.85666 0.712861 1.80076C0.751496 1.74486 0.79156 1.68999 0.833052 1.63614C0.874545 1.58229 0.917426 1.52952 0.96169 1.47783C1.00596 1.42613 1.05157 1.37557 1.09851 1.32613C1.14546 1.2767 1.1937 1.22845 1.24324 1.18138C1.29278 1.13431 1.34355 1.08847 1.39557 1.04386C1.44759 0.999246 1.5008 0.955908 1.5552 0.913843C1.60961 0.871777 1.66514 0.831034 1.72181 0.791606C1.77848 0.752178 1.83622 0.714107 1.89505 0.677395C1.95387 0.64068 2.01371 0.605362 2.07456 0.571437C2.13542 0.537517 2.19723 0.505023 2.26 0.473959C2.32276 0.442895 2.38642 0.413293 2.45096 0.38515C2.51551 0.357012 2.58088 0.330362 2.64707 0.305201C2.71326 0.280041 2.78021 0.256396 2.84792 0.234268C2.91563 0.212139 2.98403 0.191549 3.05311 0.172496C3.1222 0.153444 3.1919 0.13595 3.26222 0.120014C3.33254 0.104077 3.4034 0.0897147 3.47481 0.0769262C3.54623 0.064138 3.61811 0.0529368 3.69046 0.0433226C3.76283 0.0337085 3.83558 0.0256913 3.90874 0.0192709C3.9819 0.0128506 4.05537 0.00803365 4.12917 0.00482018C4.20298 0.00160672 4.27701 0 4.35135 0C4.35135 0 4.35135 0 4.35135 0L4.35135 0Z" transform="translate(32.91893 22.80982)" id="upper-1" fill="#66657A" stroke="none" />
        <path d="M4.35134 0L32.7297 0C32.804 0 32.878 0.0016067 32.9518 0.00482011C33.0257 0.00803353 33.0991 0.0128504 33.1723 0.0192706C33.2454 0.0256909 33.3182 0.033708 33.3906 0.043322C33.4629 0.052936 33.5348 0.0641371 33.6062 0.076925C33.6776 0.0897133 33.7485 0.104076 33.8188 0.120012C33.8891 0.135948 33.9589 0.153442 34.0279 0.172494C34.097 0.191546 34.1654 0.212136 34.2331 0.234264C34.3008 0.256392 34.3678 0.280037 34.434 0.305197C34.5002 0.330357 34.5656 0.357006 34.6301 0.385144C34.6946 0.413287 34.7583 0.442888 34.821 0.473952C34.8838 0.505015 34.9456 0.537509 35.0065 0.571429C35.0673 0.605352 35.1272 0.64067 35.186 0.677385C35.2448 0.714097 35.3026 0.752166 35.3592 0.791594C35.4159 0.831022 35.4714 0.871764 35.5258 0.913829C35.5802 0.955894 35.6335 0.999231 35.6855 1.04384C35.7375 1.08845 35.7883 1.13429 35.8378 1.18136C35.8873 1.22844 35.9356 1.27668 35.9825 1.32611C36.0295 1.37555 36.0751 1.42611 36.1194 1.4778C36.1636 1.5295 36.2065 1.58227 36.248 1.63612C36.2895 1.68997 36.3296 1.74484 36.3682 1.80073C36.4068 1.85663 36.444 1.91349 36.4797 1.97131C36.5154 2.02914 36.5496 2.08788 36.5823 2.14752C36.6149 2.20716 36.6461 2.26764 36.6757 2.32898C36.7053 2.39031 36.7334 2.45243 36.7599 2.51533C36.7863 2.57823 36.8112 2.64184 36.8345 2.70618C36.8578 2.77053 36.8795 2.83552 36.8995 2.90116C36.9195 2.96681 36.938 3.03304 36.9547 3.09986C36.9715 3.16668 36.9866 3.23402 37.0001 3.30188C37.0135 3.36973 37.0253 3.43804 37.0354 3.50679C37.0456 3.57556 37.054 3.64471 37.0608 3.7142C37.0675 3.78372 37.0726 3.85356 37.076 3.92369C37.0794 3.99379 37.081 4.06417 37.081 4.13477C37.081 4.13477 37.081 4.13477 37.081 4.13477C37.081 4.20537 37.0794 4.27576 37.076 4.34585C37.0726 4.41598 37.0675 4.48583 37.0608 4.55535C37.054 4.62484 37.0456 4.694 37.0354 4.76276C37.0253 4.8315 37.0135 4.89979 37.0001 4.96766C36.9866 5.03553 36.9715 5.10286 36.9547 5.16969C36.938 5.23652 36.9195 5.30273 36.8995 5.36837C36.8795 5.43401 36.8578 5.49901 36.8345 5.56335C36.8112 5.6277 36.7863 5.69133 36.7599 5.75424C36.7334 5.81715 36.7053 5.87924 36.6757 5.94057C36.6461 6.0019 36.6149 6.06236 36.5823 6.122C36.5496 6.18168 36.5154 6.24042 36.4797 6.29823C36.444 6.35608 36.4068 6.41292 36.3682 6.46878C36.3296 6.52469 36.2895 6.57959 36.248 6.63344C36.2065 6.68726 36.1636 6.74004 36.1194 6.79174C36.0751 6.84344 36.0295 6.894 35.9825 6.94343C35.9356 6.99287 35.8873 7.04112 35.8378 7.08819C35.7883 7.13525 35.7375 7.1811 35.6855 7.22572C35.6335 7.27031 35.5802 7.31367 35.5258 7.35571C35.4714 7.39778 35.4159 7.43852 35.3592 7.47797C35.3026 7.51739 35.2448 7.55544 35.186 7.59215C35.1272 7.62887 35.0673 7.66419 35.0065 7.69811C34.9456 7.73202 34.8838 7.76454 34.821 7.79558C34.7583 7.82666 34.6946 7.85626 34.6301 7.88439C34.5656 7.91253 34.5002 7.93919 34.434 7.96437C34.3678 7.98952 34.3008 8.01313 34.2331 8.03526C34.1654 8.05743 34.097 8.07801 34.0279 8.09705C33.9589 8.1161 33.8891 8.13359 33.8188 8.14955C33.7485 8.16546 33.6776 8.17983 33.6062 8.19259C33.5348 8.20541 33.4629 8.21662 33.3906 8.22622C33.3182 8.23585 33.2454 8.24386 33.1723 8.25029C33.0991 8.25668 33.0257 8.26153 32.9518 8.26473C32.878 8.26793 32.804 8.26955 32.7297 8.26955C32.7297 8.26955 4.35134 8.26955 4.35134 8.26955C4.27705 8.26955 4.20298 8.26793 4.12921 8.26473C4.0554 8.26153 3.9819 8.25668 3.90874 8.25029C3.83561 8.24386 3.76284 8.23585 3.69048 8.22622C3.61812 8.21662 3.54623 8.20541 3.47482 8.19262C3.40341 8.17983 3.33255 8.16546 3.26223 8.14955C3.19191 8.13359 3.1222 8.1161 3.05312 8.09705C2.98403 8.07801 2.91564 8.05743 2.84793 8.03526C2.78022 8.01313 2.71327 7.98952 2.64707 7.96437C2.58088 7.93919 2.51551 7.91253 2.45096 7.88439C2.38642 7.85626 2.32277 7.82666 2.26 7.79558C2.19724 7.76454 2.13543 7.73202 2.07457 7.69811C2.01372 7.66419 1.95387 7.62887 1.89505 7.59215C1.83623 7.55544 1.77848 7.51739 1.72182 7.47797C1.66514 7.43852 1.60961 7.39778 1.55521 7.35571C1.50081 7.31367 1.4476 7.27031 1.39558 7.22572C1.34355 7.1811 1.29278 7.13525 1.24324 7.08819C1.1937 7.04112 1.14546 6.99287 1.09851 6.94343C1.05157 6.894 1.00596 6.84344 0.961694 6.79174C0.917429 6.74004 0.874549 6.68726 0.833056 6.63344C0.791563 6.57959 0.7515 6.52469 0.712865 6.46878C0.674227 6.41292 0.63706 6.35608 0.601359 6.29823C0.565663 6.24042 0.531467 6.18168 0.498776 6.122C0.466086 6.06236 0.434934 6.0019 0.405317 5.94057C0.375706 5.87924 0.34766 5.81715 0.321182 5.75424C0.294704 5.69133 0.269822 5.6277 0.246534 5.56335C0.223247 5.49901 0.201578 5.43401 0.181529 5.36837C0.161479 5.30273 0.143069 5.23652 0.126298 5.16969C0.109527 5.10286 0.0944123 5.03553 0.0809542 4.96766C0.0674964 4.89979 0.0557087 4.8315 0.0455911 4.76276C0.0354736 4.694 0.0270365 4.62484 0.02028 4.55535C0.0135234 4.48583 0.00845431 4.41598 0.00507257 4.34585C0.00169086 4.27576 0 4.20537 0 4.13477C0 4.13477 0 4.13477 0 4.13477C0 4.06417 0.00169086 3.99379 0.00507257 3.92369C0.00845431 3.85356 0.0135234 3.78372 0.02028 3.7142C0.0270365 3.64471 0.0354736 3.57556 0.0455911 3.50679C0.0557087 3.43804 0.0674964 3.36973 0.0809542 3.30188C0.0944123 3.23402 0.109527 3.16668 0.126298 3.09986C0.143069 3.03304 0.161479 2.96681 0.181529 2.90116C0.201578 2.83552 0.223247 2.77053 0.246534 2.70618C0.269822 2.64184 0.294704 2.57823 0.321182 2.51533C0.34766 2.45243 0.375706 2.39031 0.405317 2.32898C0.434934 2.26764 0.466086 2.20716 0.498776 2.14752C0.531467 2.08788 0.565663 2.02914 0.601359 1.97131C0.63706 1.91349 0.674227 1.85663 0.712865 1.80073C0.7515 1.74484 0.791563 1.68997 0.833056 1.63612C0.874549 1.58227 0.917429 1.5295 0.961694 1.4778C1.00596 1.42611 1.05157 1.37555 1.09851 1.32611C1.14546 1.27668 1.1937 1.22844 1.24324 1.18136C1.29278 1.13429 1.34355 1.08845 1.39558 1.04384C1.4476 0.999231 1.50081 0.955894 1.55521 0.913829C1.60961 0.871764 1.66514 0.831022 1.72182 0.791594C1.77848 0.752166 1.83623 0.714097 1.89505 0.677385C1.95387 0.64067 2.01372 0.605352 2.07457 0.571429C2.13543 0.537509 2.19724 0.505015 2.26 0.473952C2.32277 0.442888 2.38642 0.413287 2.45096 0.385144C2.51551 0.357006 2.58088 0.330357 2.64707 0.305197C2.71327 0.280037 2.78022 0.256392 2.84793 0.234264C2.91564 0.212136 2.98403 0.191546 3.05312 0.172494C3.1222 0.153442 3.19191 0.135948 3.26223 0.120012C3.33255 0.104076 3.40341 0.0897133 3.47482 0.076925C3.54623 0.0641371 3.61812 0.052936 3.69048 0.043322C3.76284 0.033708 3.83561 0.0256909 3.90874 0.0192706C3.9819 0.0128504 4.0554 0.00803353 4.12921 0.00482011C4.20298 0.0016067 4.27705 0 4.35134 0C4.35134 0 4.35134 0 4.35134 0L4.35134 0Z" transform="matrix(0.7071068 -0.7071068 0.7071068 0.7071068 35.4683 74.40777)" id="lower-3" fill="#F9A825" stroke="none" />
        <path d="M4.35134 0L32.7297 0C32.804 0 32.878 0.00160674 32.9518 0.00482019C33.0256 0.00803368 33.0991 0.0128506 33.1723 0.019271C33.2454 0.0256914 33.3182 0.0337087 33.3905 0.0433228C33.4629 0.052937 33.5348 0.0641382 33.6062 0.0769268C33.6776 0.0897153 33.7485 0.104078 33.8188 0.120015C33.8891 0.135951 33.9588 0.153445 34.0279 0.172497C34.097 0.191549 34.1654 0.21214 34.2331 0.234269C34.3008 0.256398 34.3678 0.280042 34.434 0.305203C34.5002 0.330363 34.5655 0.357013 34.6301 0.385155C34.6946 0.413294 34.7582 0.442896 34.821 0.473964C34.8838 0.505024 34.9456 0.537519 35.0064 0.571443C35.0673 0.605363 35.1271 0.640681 35.186 0.677397C35.2448 0.714109 35.3025 0.75218 35.3592 0.791608C35.4159 0.831037 35.4714 0.871784 35.5258 0.913846C35.5802 0.955911 35.6334 0.999249 35.6854 1.04386C35.7375 1.08847 35.7882 1.13432 35.8378 1.18139C35.8873 1.22846 35.9355 1.27671 35.9825 1.32614C36.0295 1.37558 36.0751 1.42614 36.1193 1.47783C36.1636 1.52953 36.2065 1.5823 36.248 1.63615C36.2895 1.69 36.3295 1.74488 36.3681 1.80077C36.4068 1.85667 36.444 1.91353 36.4797 1.97136C36.5154 2.02918 36.5495 2.08792 36.5822 2.14756C36.6149 2.2072 36.6461 2.26769 36.6757 2.32903C36.7053 2.39036 36.7334 2.45248 36.7598 2.51538C36.7863 2.57828 36.8112 2.6419 36.8345 2.70624C36.8578 2.77058 36.8794 2.83557 36.8995 2.90122C36.9195 2.96687 36.9379 3.0331 36.9547 3.09992C36.9715 3.16674 36.9866 3.23408 37 3.30194C37.0135 3.3698 37.0253 3.43811 37.0354 3.50687C37.0455 3.57563 37.054 3.64478 37.0607 3.7143C37.0675 3.78379 37.0726 3.85363 37.0759 3.92376C37.0793 3.99386 37.081 4.06425 37.081 4.13485C37.081 4.13485 37.081 4.13485 37.081 4.13485C37.081 4.20548 37.0793 4.27583 37.0759 4.34597C37.0726 4.4161 37.0675 4.48591 37.0607 4.55543C37.054 4.62495 37.0455 4.69408 37.0354 4.76285C37.0253 4.83162 37.0135 4.89992 37.0001 4.96775C36.9866 5.03562 36.9715 5.10295 36.9547 5.16978C36.9379 5.23661 36.9195 5.30286 36.8995 5.36847C36.8794 5.43415 36.8578 5.49914 36.8345 5.56345C36.8112 5.6278 36.7863 5.69143 36.7598 5.75434C36.7334 5.81726 36.7053 5.87938 36.6757 5.94067C36.6461 6.002 36.6149 6.06251 36.5822 6.12215C36.5495 6.18179 36.5154 6.24054 36.4797 6.29835C36.444 6.35619 36.4068 6.41307 36.3681 6.46894C36.3295 6.52484 36.2895 6.5797 36.248 6.63356C36.2065 6.68742 36.1636 6.74016 36.1193 6.79186C36.0751 6.8436 36.0295 6.89415 35.9825 6.94359C35.9355 6.99299 35.8873 7.04125 35.8378 7.08835C35.7882 7.13542 35.7375 7.18126 35.6854 7.22585C35.6334 7.27047 35.5802 7.3138 35.5258 7.35588C35.4714 7.39795 35.4159 7.43869 35.3592 7.47811C35.3025 7.51752 35.2448 7.55561 35.186 7.59233C35.1271 7.62905 35.0673 7.66436 35.0064 7.69828C34.9456 7.7322 34.8838 7.76468 34.821 7.79576C34.7582 7.82683 34.6946 7.85644 34.6301 7.88457C34.5655 7.9127 34.5002 7.93936 34.434 7.96451C34.3678 7.98966 34.3008 8.01331 34.2331 8.03544C34.1654 8.05757 34.097 8.07816 34.0279 8.0972C33.9588 8.11624 33.8891 8.13377 33.8188 8.14969C33.7485 8.16564 33.6776 8.17998 33.6062 8.19277C33.5348 8.20556 33.4629 8.21677 33.3905 8.2264C33.3182 8.23599 33.2454 8.244 33.1723 8.25044C33.0991 8.25687 33.0256 8.26168 32.9518 8.26492C32.878 8.26811 32.804 8.26973 32.7297 8.26973C32.7297 8.26973 4.35134 8.26973 4.35134 8.26973C4.27704 8.26973 4.20297 8.26811 4.12921 8.26492C4.0554 8.26168 3.9819 8.25687 3.90874 8.25044C3.83561 8.244 3.76284 8.23599 3.69047 8.2264C3.61812 8.21677 3.54623 8.2056 3.47482 8.19281C3.40341 8.18002 3.33254 8.16564 3.26222 8.14969C3.1919 8.13377 3.1222 8.11624 3.05312 8.0972C2.98403 8.07816 2.91564 8.05757 2.84793 8.03544C2.78022 8.01331 2.71327 7.98966 2.64707 7.96451C2.58088 7.93936 2.51551 7.9127 2.45096 7.88457C2.38642 7.85644 2.32276 7.82683 2.26 7.79576C2.19723 7.76468 2.13543 7.7322 2.07457 7.69828C2.01371 7.66436 1.95387 7.62905 1.89505 7.59233C1.83623 7.55561 1.77848 7.51752 1.72182 7.47811C1.66514 7.43869 1.60961 7.39795 1.55521 7.35588C1.50081 7.3138 1.44759 7.27047 1.39558 7.22585C1.34355 7.18126 1.29278 7.13542 1.24324 7.08835C1.1937 7.04125 1.14546 6.99299 1.09851 6.94359C1.05157 6.89415 1.00596 6.8436 0.961693 6.79186C0.917429 6.74016 0.874548 6.68742 0.833055 6.63356C0.791563 6.5797 0.751499 6.52484 0.712865 6.46894C0.674227 6.41307 0.637059 6.35619 0.601359 6.29835C0.565662 6.24054 0.531467 6.18179 0.498776 6.12215C0.466085 6.06251 0.434934 6.002 0.405317 5.94067C0.375705 5.87938 0.34766 5.81726 0.321182 5.75434C0.294704 5.69143 0.269822 5.6278 0.246534 5.56345C0.223247 5.49914 0.201578 5.43415 0.181529 5.36847C0.161479 5.30286 0.143069 5.23661 0.126298 5.16978C0.109527 5.10295 0.0944123 5.03562 0.0809541 4.96775C0.0674964 4.89992 0.0557087 4.83162 0.0455911 4.76285C0.0354736 4.69408 0.0270365 4.62495 0.02028 4.55543C0.0135234 4.48591 0.00845431 4.4161 0.00507257 4.34597C0.00169086 4.27583 0 4.20548 0 4.13485C0 4.13485 0 4.13485 0 4.13485C0 4.06425 0.00169086 3.99386 0.00507257 3.92376C0.00845431 3.85363 0.0135234 3.78379 0.02028 3.7143C0.0270365 3.64478 0.0354736 3.57563 0.0455911 3.50687C0.0557087 3.43811 0.0674964 3.3698 0.0809541 3.30194C0.0944123 3.23409 0.109527 3.16674 0.126298 3.09992C0.143069 3.0331 0.161479 2.96687 0.181529 2.90122C0.201578 2.83557 0.223247 2.77058 0.246534 2.70624C0.269822 2.6419 0.294704 2.57828 0.321182 2.51538C0.34766 2.45248 0.375705 2.39036 0.405317 2.32903C0.434934 2.26769 0.466085 2.2072 0.498776 2.14756C0.531467 2.08792 0.565662 2.02918 0.601359 1.97136C0.637059 1.91353 0.674227 1.85667 0.712865 1.80077C0.751499 1.74488 0.791563 1.69 0.833055 1.63615C0.874548 1.5823 0.917429 1.52953 0.961693 1.47783C1.00596 1.42614 1.05157 1.37558 1.09851 1.32614C1.14546 1.27671 1.1937 1.22846 1.24324 1.18139C1.29278 1.13432 1.34355 1.08847 1.39558 1.04386C1.44759 0.999249 1.50081 0.955911 1.55521 0.913846C1.60961 0.871784 1.66514 0.831037 1.72182 0.791608C1.77848 0.75218 1.83623 0.714109 1.89505 0.677397C1.95387 0.640681 2.01371 0.605363 2.07457 0.571443C2.13543 0.537519 2.19723 0.505024 2.26 0.473964C2.32276 0.442896 2.38642 0.413294 2.45096 0.385155C2.51551 0.357013 2.58088 0.330363 2.64707 0.305203C2.71327 0.280042 2.78022 0.256398 2.84793 0.234269C2.91564 0.21214 2.98403 0.191549 3.05312 0.172497C3.1222 0.153445 3.1919 0.135951 3.26222 0.120015C3.33254 0.104078 3.40341 0.0897153 3.47482 0.0769268C3.54623 0.0641382 3.61812 0.052937 3.69047 0.0433228C3.76284 0.0337087 3.83561 0.0256914 3.90874 0.019271C3.9819 0.0128506 4.0554 0.00803368 4.12921 0.00482019C4.20297 0.00160674 4.27704 0 4.35134 0C4.35134 0 4.35134 0 4.35134 0L4.35134 0Z" transform="matrix(0.7071068 0.7071068 -0.7071068 0.7071068 20.41996 48.13654)" id="lower-2" fill="#F9A825" stroke="none" />
        <path d="M4.35134 0L44.8379 0C44.9124 0 44.9861 0.00160673 45.0599 0.00482018C45.134 0.00803365 45.2073 0.0128506 45.2807 0.0192709C45.3536 0.0256913 45.4266 0.0337085 45.4988 0.0433226C45.5711 0.0529368 45.6429 0.064138 45.7144 0.0769262C45.7858 0.0897147 45.8565 0.104077 45.9268 0.120014C45.9972 0.13595 46.0667 0.153444 46.1359 0.172496C46.2051 0.191548 46.2736 0.212139 46.3412 0.234268C46.4089 0.256396 46.4758 0.280041 46.542 0.305201C46.6082 0.330362 46.6736 0.357012 46.7379 0.38515C46.8025 0.413293 46.8664 0.442895 46.9292 0.473959C46.992 0.505023 47.0536 0.537517 47.1145 0.571437C47.1753 0.605361 47.2351 0.640679 47.2941 0.677395C47.353 0.714107 47.4109 0.752177 47.4676 0.791606C47.5239 0.831034 47.5795 0.871781 47.634 0.913843C47.6884 0.955908 47.7414 0.999246 47.7935 1.04385C47.8457 1.08847 47.8964 1.13431 47.9459 1.18138C47.9954 1.22845 48.0438 1.27671 48.0907 1.32614C48.1376 1.37557 48.183 1.42613 48.2272 1.47783C48.2718 1.52952 48.3146 1.58229 48.3558 1.63615C48.3977 1.68999 48.4378 1.74487 48.4764 1.80076C48.5149 1.85666 48.552 1.91352 48.5879 1.97135C48.6235 2.02917 48.6575 2.08791 48.6904 2.14755C48.7229 2.20719 48.7543 2.26768 48.7838 2.32902C48.8133 2.39035 48.8413 2.45247 48.8677 2.51536C48.8946 2.57826 48.9191 2.64189 48.9426 2.70622C48.966 2.77057 48.9876 2.83556 49.0076 2.90121C49.0277 2.96685 49.0462 3.03309 49.0628 3.09991C49.0798 3.16673 49.095 3.23407 49.1082 3.30192C49.1214 3.36979 49.1335 3.43809 49.1437 3.50685C49.1539 3.57562 49.1623 3.64476 49.1687 3.71429C49.1755 3.78377 49.1808 3.85362 49.1842 3.92375C49.1876 3.99385 49.1891 4.06423 49.1891 4.13483C49.1891 4.13483 49.1891 4.13483 49.1891 4.13483C49.1891 4.20547 49.1876 4.27582 49.1842 4.34592C49.1808 4.41605 49.1755 4.4859 49.1687 4.55542C49.1623 4.6249 49.1539 4.69407 49.1437 4.76283C49.1335 4.83157 49.1214 4.89987 49.1082 4.96774C49.095 5.03561 49.0798 5.10294 49.0628 5.16976C49.0462 5.23659 49.0277 5.30281 49.0076 5.36845C48.9876 5.43413 48.966 5.49909 48.9426 5.56344C48.9191 5.62779 48.8946 5.69142 48.8677 5.75433C48.8413 5.81724 48.8133 5.87932 48.7838 5.94065C48.7543 6.00198 48.7229 6.06249 48.6904 6.12209C48.6575 6.18177 48.6235 6.24052 48.5879 6.29833C48.552 6.35617 48.5149 6.41301 48.4764 6.46892C48.4378 6.52478 48.3977 6.57968 48.3558 6.63354C48.3146 6.68736 48.2718 6.74014 48.2272 6.79184C48.183 6.84355 48.1376 6.8941 48.0907 6.94354C48.0438 6.99297 47.9954 7.04123 47.9459 7.08829C47.8964 7.13536 47.8457 7.1812 47.7935 7.22583C47.7414 7.27045 47.6884 7.31378 47.634 7.35585C47.5795 7.39789 47.5239 7.43867 47.4676 7.47808C47.4109 7.5175 47.353 7.55555 47.2941 7.59227C47.2351 7.62899 47.1753 7.66434 47.1145 7.69826C47.0536 7.73217 46.992 7.76465 46.9292 7.79573C46.8664 7.82677 46.8025 7.85638 46.7379 7.88451C46.6736 7.91268 46.6082 7.9393 46.542 7.96449C46.4758 7.98964 46.4089 8.01328 46.3412 8.03538C46.2736 8.05754 46.2051 8.07813 46.1359 8.09717C46.0667 8.11622 45.9972 8.13371 45.9268 8.14967C45.8565 8.16558 45.7858 8.17995 45.7144 8.19275C45.6429 8.20554 45.5711 8.21675 45.4988 8.22634C45.4266 8.23597 45.3536 8.24398 45.2807 8.25041C45.2073 8.25684 45.134 8.26166 45.0599 8.26485C44.9861 8.26805 44.9124 8.26967 44.8379 8.26967C44.8379 8.26967 4.35134 8.26967 4.35134 8.26967C4.27705 8.26967 4.20298 8.26805 4.12921 8.26485C4.0554 8.26166 3.9819 8.25684 3.90877 8.25041C3.83561 8.24398 3.76285 8.23597 3.69048 8.22634C3.61812 8.21675 3.54624 8.20554 3.47482 8.19278C3.40341 8.17995 3.33255 8.16558 3.26223 8.14967C3.19191 8.13371 3.12221 8.11622 3.05312 8.09717C2.98404 8.07813 2.91564 8.05754 2.84793 8.03538C2.78022 8.01328 2.71327 7.98964 2.64708 7.96449C2.58088 7.9393 2.51551 7.91268 2.45097 7.88451C2.38642 7.85638 2.32276 7.82677 2.26 7.79573C2.19724 7.76465 2.13543 7.73217 2.07457 7.69826C2.01372 7.66434 1.95388 7.62899 1.89505 7.59227C1.83623 7.55555 1.77849 7.5175 1.72182 7.47808C1.66515 7.43867 1.60961 7.39789 1.55521 7.35585C1.50081 7.31378 1.4476 7.27045 1.39558 7.22583C1.34356 7.1812 1.29278 7.13536 1.24324 7.08829C1.1937 7.04123 1.14546 6.99297 1.09851 6.94354C1.05157 6.8941 1.00596 6.84355 0.961693 6.79184C0.917429 6.74014 0.874549 6.68736 0.833056 6.63354C0.791563 6.57968 0.751499 6.52478 0.712865 6.46892C0.674227 6.41301 0.637059 6.35617 0.601359 6.29833C0.565662 6.24052 0.531467 6.18177 0.498776 6.12209C0.466086 6.06249 0.434934 6.00198 0.405317 5.94065C0.375706 5.87932 0.34766 5.81724 0.321182 5.75433C0.294704 5.69142 0.269822 5.62779 0.246535 5.56344C0.223247 5.49909 0.201578 5.43413 0.181529 5.36845C0.161479 5.30281 0.143069 5.23659 0.126298 5.16976C0.109527 5.10294 0.0944127 5.03561 0.0809545 4.96774C0.0674964 4.89987 0.0557087 4.83157 0.0455911 4.76283C0.0354736 4.69407 0.0270366 4.6249 0.02028 4.55542C0.0135234 4.4859 0.00845431 4.41605 0.00507257 4.34592C0.00169086 4.27582 0 4.20547 0 4.13483C0 4.13483 0 4.13483 0 4.13483C0 4.06423 0.00169086 3.99385 0.00507257 3.92375C0.00845431 3.85362 0.0135234 3.78377 0.02028 3.71429C0.0270366 3.64476 0.0354736 3.57562 0.0455911 3.50685C0.0557087 3.43809 0.0674964 3.36979 0.0809545 3.30192C0.0944127 3.23407 0.109527 3.16673 0.126298 3.09991C0.143069 3.03309 0.161479 2.96685 0.181529 2.90121C0.201578 2.83556 0.223247 2.77057 0.246535 2.70622C0.269822 2.64189 0.294704 2.57826 0.321182 2.51536C0.34766 2.45247 0.375706 2.39035 0.405317 2.32902C0.434934 2.26768 0.466086 2.20719 0.498776 2.14755C0.531467 2.08791 0.565662 2.02917 0.601359 1.97135C0.637059 1.91352 0.674227 1.85666 0.712865 1.80076C0.751499 1.74487 0.791563 1.68999 0.833056 1.63615C0.874549 1.58229 0.917429 1.52952 0.961693 1.47783C1.00596 1.42613 1.05157 1.37557 1.09851 1.32614C1.14546 1.27671 1.1937 1.22845 1.24324 1.18138C1.29278 1.13431 1.34356 1.08847 1.39558 1.04385C1.4476 0.999246 1.50081 0.955908 1.55521 0.913843C1.60961 0.871781 1.66515 0.831034 1.72182 0.791606C1.77849 0.752177 1.83623 0.714107 1.89505 0.677395C1.95388 0.640679 2.01372 0.605361 2.07457 0.571437C2.13543 0.537517 2.19724 0.505023 2.26 0.473959C2.32276 0.442895 2.38642 0.413293 2.45097 0.38515C2.51551 0.357012 2.58088 0.330362 2.64708 0.305201C2.71327 0.280041 2.78022 0.256396 2.84793 0.234268C2.91564 0.212139 2.98404 0.191548 3.05312 0.172496C3.12221 0.153444 3.19191 0.13595 3.26223 0.120014C3.33254 0.104077 3.40341 0.0897147 3.47482 0.0769262C3.54624 0.064138 3.61812 0.0529368 3.69048 0.0433226C3.76285 0.0337085 3.83561 0.0256913 3.90877 0.0192709C3.9819 0.0128506 4.0554 0.00803365 4.12921 0.00482018C4.20298 0.00160673 4.27705 0 4.35134 0C4.35134 0 4.35134 0 4.35134 0L4.35134 0Z" transform="translate(15.89189 49.4165)" id="lower-1" fill="#F9A825" stroke="none" />
      </g>
    </g>
  </g>
</svg>