<?xml version="1.0" encoding="utf-8"?>
<svg width="593px" height="80px" viewBox="0 0 593 80" version="1.1" xmlns:xlink="http://www.w3.org/1999/xlink" xmlns="http://www.w3.org/2000/svg">
  <desc>Created with Lunacy</desc>
  <g id="Ongoing-Project">
    <path d="M453.364 20.312Q451.956 20.312 450.996 19.352Q450.036 18.392 450.036 17.048Q450.036 15.768 450.996 14.808Q451.956 13.848 453.364 13.848Q454.772 13.848 455.732 14.776Q456.692 15.704 456.692 16.984Q456.692 18.392 455.732 19.352Q454.772 20.312 453.364 20.312ZM220.084 20.376Q218.676 20.376 217.716 19.416Q216.756 18.456 216.756 17.112Q216.756 15.832 217.716 14.872Q218.676 13.912 220.084 13.912Q221.492 13.912 222.452 14.84Q223.412 15.768 223.412 17.048Q223.412 18.456 222.452 19.416Q221.492 20.376 220.084 20.376ZM45.204 58.808Q50.612 61.784 57.268 61.784Q63.924 61.784 69.268 58.84Q74.612 55.896 77.684 50.68Q80.756 45.464 80.756 39Q80.756 32.536 77.684 27.32Q74.612 22.104 69.268 19.16Q63.924 16.216 57.268 16.216Q50.612 16.216 45.204 19.192Q39.796 22.168 36.756 27.352Q33.716 32.536 33.716 39Q33.716 45.464 36.756 50.648Q39.796 55.832 45.204 58.808ZM370.164 20.696Q365.3 16.6 356.724 16.6L339.956 16.6L339.956 61.4L344.692 61.4L344.692 47.256L356.724 47.256Q365.3 47.256 370.164 43.192Q375.028 39.128 375.028 31.96Q375.028 24.792 370.164 20.696ZM557.524 61.112Q559.412 60.504 560.692 59.352L559.092 56.088Q558.132 56.92 556.82 57.368Q555.508 57.816 554.1 57.816Q551.284 57.816 549.78 56.248Q548.276 54.68 548.276 51.672L548.276 31.576L558.516 31.576L558.516 27.736L548.276 27.736L548.276 20.376L543.732 20.376L543.732 27.736L537.716 27.736L537.716 31.576L543.732 31.576L543.732 51.928Q543.732 56.6 546.292 59.16Q548.852 61.72 553.588 61.72Q555.636 61.72 557.524 61.112ZM66.868 55.16Q62.58 57.56 57.268 57.56Q51.956 57.56 47.636 55.16Q43.316 52.76 40.852 48.504Q38.388 44.248 38.388 39Q38.388 33.752 40.852 29.496Q43.316 25.24 47.636 22.84Q51.956 20.44 57.268 20.44Q62.58 20.44 66.868 22.84Q71.156 25.24 73.588 29.496Q76.02 33.752 76.02 39Q76.02 44.248 73.588 48.504Q71.156 52.76 66.868 55.16ZM366.772 40.184Q363.252 43.096 356.596 43.096L344.692 43.096L344.692 20.696L356.596 20.696Q363.252 20.696 366.772 23.608Q370.292 26.52 370.292 31.96Q370.292 37.272 366.772 40.184ZM117.652 31.16Q113.908 27.48 107.572 27.48Q103.22 27.48 99.924 29.176Q96.628 30.872 94.772 33.944L94.772 27.736L90.42 27.736L90.42 61.4L94.964 61.4L94.964 43.736Q94.964 38.04 98.132 34.808Q101.3 31.576 106.74 31.576Q111.604 31.576 114.228 34.328Q116.852 37.08 116.852 42.328L116.852 61.4L121.396 61.4L121.396 41.88Q121.396 34.84 117.652 31.16ZM164.916 27.736L164.916 57.304Q164.916 65.88 160.724 70.008Q156.532 74.136 148.084 74.136Q143.412 74.136 139.22 72.76Q135.028 71.384 132.404 68.952L134.708 65.496Q137.14 67.672 140.628 68.888Q144.116 70.104 147.956 70.104Q154.356 70.104 157.364 67.128Q160.372 64.152 160.372 57.88L160.372 53.592Q158.26 56.792 154.836 58.456Q151.412 60.12 147.252 60.12Q142.516 60.12 138.644 58.04Q134.772 55.96 132.564 52.216Q130.356 48.472 130.356 43.736Q130.356 39 132.564 35.288Q134.772 31.576 138.612 29.528Q142.452 27.48 147.252 27.48Q151.54 27.48 154.996 29.208Q158.452 30.936 160.564 34.2L160.564 27.736L164.916 27.736ZM182.644 59.512Q186.548 61.72 191.412 61.72Q196.276 61.72 200.18 59.512Q204.084 57.304 206.292 53.4Q208.5 49.496 208.5 44.568Q208.5 39.64 206.292 35.736Q204.084 31.832 200.18 29.656Q196.276 27.48 191.412 27.48Q186.548 27.48 182.644 29.656Q178.74 31.832 176.5 35.736Q174.26 39.64 174.26 44.568Q174.26 49.496 176.5 53.4Q178.74 57.304 182.644 59.512ZM262.228 31.16Q258.484 27.48 252.148 27.48Q247.796 27.48 244.5 29.176Q241.204 30.872 239.348 33.944L239.348 27.736L234.996 27.736L234.996 61.4L239.54 61.4L239.54 43.736Q239.54 38.04 242.708 34.808Q245.876 31.576 251.316 31.576Q256.18 31.576 258.804 34.328Q261.428 37.08 261.428 42.328L261.428 61.4L265.972 61.4L265.972 41.88Q265.972 34.84 262.228 31.16ZM309.492 27.736L309.492 57.304Q309.492 65.88 305.3 70.008Q301.108 74.136 292.66 74.136Q287.988 74.136 283.796 72.76Q279.604 71.384 276.98 68.952L279.284 65.496Q281.716 67.672 285.204 68.888Q288.692 70.104 292.532 70.104Q298.932 70.104 301.94 67.128Q304.948 64.152 304.948 57.88L304.948 53.592Q302.836 56.792 299.412 58.456Q295.988 60.12 291.828 60.12Q287.092 60.12 283.22 58.04Q279.348 55.96 277.14 52.216Q274.932 48.472 274.932 43.736Q274.932 39 277.14 35.288Q279.348 31.576 283.188 29.528Q287.028 27.48 291.828 27.48Q296.116 27.48 299.572 29.208Q303.028 30.936 305.14 34.2L305.14 27.736L309.492 27.736ZM389.3 34.328Q390.9 30.936 394.068 29.208Q397.236 27.48 401.908 27.48L401.908 31.896L400.82 31.832Q395.508 31.832 392.5 35.096Q389.492 38.36 389.492 44.248L389.492 61.4L384.948 61.4L384.948 27.736L389.3 27.736L389.3 34.328ZM415.604 59.512Q419.508 61.72 424.372 61.72Q429.236 61.72 433.14 59.512Q437.044 57.304 439.252 53.4Q441.46 49.496 441.46 44.568Q441.46 39.64 439.252 35.736Q437.044 31.832 433.14 29.656Q429.236 27.48 424.372 27.48Q419.508 27.48 415.604 29.656Q411.7 31.832 409.46 35.736Q407.22 39.64 407.22 44.568Q407.22 49.496 409.46 53.4Q411.7 57.304 415.604 59.512ZM469.428 45.976L497.588 45.976L497.652 44.568Q497.652 39.576 495.54 35.704Q493.428 31.832 489.716 29.656Q486.004 27.48 481.332 27.48Q476.66 27.48 472.916 29.656Q469.172 31.832 467.028 35.736Q464.884 39.64 464.884 44.568Q464.884 49.496 467.124 53.4Q469.364 57.304 473.364 59.512Q477.364 61.72 482.548 61.72Q486.58 61.72 489.94 60.312Q493.3 58.904 495.54 56.216L492.98 53.272Q491.06 55.448 488.436 56.568Q485.812 57.688 482.676 57.688Q477.108 57.688 473.46 54.456Q469.812 51.224 469.428 45.976ZM520.884 61.72Q515.892 61.72 511.956 59.544Q508.02 57.368 505.78 53.432Q503.54 49.496 503.54 44.568Q503.54 39.64 505.78 35.736Q508.02 31.832 511.956 29.656Q515.892 27.48 520.884 27.48Q525.236 27.48 528.66 29.176Q532.084 30.872 534.068 34.136L530.676 36.44Q529.012 33.944 526.452 32.696Q523.892 31.448 520.884 31.448Q517.236 31.448 514.324 33.08Q511.412 34.712 509.78 37.72Q508.148 40.728 508.148 44.568Q508.148 48.472 509.78 51.448Q511.412 54.424 514.324 56.056Q517.236 57.688 520.884 57.688Q523.892 57.688 526.452 56.472Q529.012 55.256 530.676 52.76L534.068 55.064Q532.084 58.328 528.628 60.024Q525.172 61.72 520.884 61.72ZM217.78 27.736L222.324 27.736L222.324 61.4L217.78 61.4L217.78 27.736ZM445.748 74.136Q443.636 74.136 441.748 73.592Q439.86 73.048 438.644 71.96L440.244 68.504Q442.228 70.232 445.492 70.232Q448.18 70.232 449.62 68.632Q451.06 67.032 451.06 63.896L451.06 27.736L455.604 27.736L455.604 63.896Q455.604 68.632 453.044 71.384Q450.484 74.136 445.748 74.136ZM473.172 34.488Q476.468 31.384 481.332 31.384Q486.26 31.384 489.556 34.488Q492.852 37.592 493.3 42.584L469.428 42.584Q469.876 37.592 473.172 34.488ZM147.7 56.088Q151.348 56.088 154.292 54.52Q157.236 52.952 158.868 50.136Q160.5 47.32 160.5 43.736Q160.5 40.152 158.868 37.368Q157.236 34.584 154.324 33.016Q151.412 31.448 147.7 31.448Q144.052 31.448 141.14 32.984Q138.228 34.52 136.596 37.336Q134.964 40.152 134.964 43.736Q134.964 47.32 136.596 50.136Q138.228 52.952 141.14 54.52Q144.052 56.088 147.7 56.088ZM197.844 56.056Q194.996 57.688 191.412 57.688Q187.828 57.688 184.98 56.056Q182.132 54.424 180.5 51.416Q178.868 48.408 178.868 44.568Q178.868 40.728 180.5 37.72Q182.132 34.712 184.98 33.08Q187.828 31.448 191.412 31.448Q194.996 31.448 197.844 33.08Q200.692 34.712 202.292 37.72Q203.892 40.728 203.892 44.568Q203.892 48.408 202.292 51.416Q200.692 54.424 197.844 56.056ZM292.276 56.088Q295.924 56.088 298.868 54.52Q301.812 52.952 303.444 50.136Q305.076 47.32 305.076 43.736Q305.076 40.152 303.444 37.368Q301.812 34.584 298.9 33.016Q295.988 31.448 292.276 31.448Q288.628 31.448 285.716 32.984Q282.804 34.52 281.172 37.336Q279.54 40.152 279.54 43.736Q279.54 47.32 281.172 50.136Q282.804 52.952 285.716 54.52Q288.628 56.088 292.276 56.088ZM430.804 56.056Q427.956 57.688 424.372 57.688Q420.788 57.688 417.94 56.056Q415.092 54.424 413.46 51.416Q411.828 48.408 411.828 44.568Q411.828 40.728 413.46 37.72Q415.092 34.712 417.94 33.08Q420.788 31.448 424.372 31.448Q427.956 31.448 430.804 33.08Q433.652 34.712 435.252 37.72Q436.852 40.728 436.852 44.568Q436.852 48.408 435.252 51.416Q433.652 54.424 430.804 56.056Z" />
  </g>
</svg>