<?xml version="1.0" encoding="utf-8"?>
<svg width="899px" height="117px" viewBox="0 0 899 117" version="1.1" xmlns:xlink="http://www.w3.org/1999/xlink" xmlns="http://www.w3.org/2000/svg">
  <desc>Created with Lunacy</desc>
  <g id="Ongoing--Project" fill="#6A9BD8">
    <path d="M306.624 29.796Q304.992 29.796 303.84 28.692Q302.688 27.588 302.688 25.956Q302.688 24.324 303.84 23.172Q304.992 22.02 306.624 22.02Q308.256 22.02 309.408 23.124Q310.56 24.228 310.56 25.86Q310.56 27.492 309.408 28.644Q308.256 29.796 306.624 29.796ZM713.568 29.796Q711.936 29.796 710.784 28.692Q709.632 27.588 709.632 25.956Q709.632 24.324 710.784 23.172Q711.936 22.02 713.568 22.02Q715.2 22.02 716.352 23.124Q717.504 24.228 717.504 25.86Q717.504 27.492 716.352 28.644Q715.2 29.796 713.568 29.796ZM22.368 88.116Q30.336 92.58 40.224 92.58Q50.112 92.58 58.08 88.164Q66.048 83.748 70.608 75.972Q75.168 68.196 75.168 58.5Q75.168 48.804 70.608 41.028Q66.048 33.252 58.08 28.836Q50.112 24.42 40.224 24.42Q30.336 24.42 22.368 28.884Q14.4 33.348 9.84 41.124Q5.28 48.9 5.28 58.5Q5.28 68.1 9.84 75.876Q14.4 83.652 22.368 88.116ZM572.208 30.9Q565.008 24.9 552.336 24.9L528.24 24.9L528.24 92.1L533.136 92.1L533.136 70.116L552.336 70.116Q565.008 70.116 572.208 64.116Q579.408 58.116 579.408 47.556Q579.408 36.9 572.208 30.9ZM55.488 84.228Q48.672 88.068 40.224 88.068Q31.776 88.068 24.912 84.228Q18.048 80.388 14.112 73.62Q10.176 66.852 10.176 58.5Q10.176 50.148 14.112 43.38Q18.048 36.612 24.912 32.772Q31.776 28.932 40.224 28.932Q48.672 28.932 55.488 32.772Q62.304 36.612 66.24 43.38Q70.176 50.148 70.176 58.5Q70.176 66.852 66.24 73.62Q62.304 80.388 55.488 84.228ZM568.752 60.996Q563.088 65.7 552.336 65.7L533.136 65.7L533.136 29.316L552.336 29.316Q563.088 29.316 568.752 34.068Q574.416 38.82 574.416 47.556Q574.416 56.292 568.752 60.996ZM885.12 91.572Q887.856 90.66 889.68 88.932L887.664 85.572Q884.592 88.356 879.888 88.356Q875.28 88.356 872.928 85.812Q870.576 83.268 870.576 78.372L870.576 46.116L886.512 46.116L886.512 41.988L870.576 41.988L870.576 31.044L865.776 31.044L865.776 41.988L856.56 41.988L856.56 46.116L865.776 46.116L865.776 78.852Q865.776 85.284 869.328 88.884Q872.88 92.484 879.408 92.484Q882.384 92.484 885.12 91.572ZM135.984 47.076Q130.512 41.604 121.104 41.604Q114.096 41.604 108.96 44.58Q103.824 47.556 101.232 52.836L101.232 41.988L96.624 41.988L96.624 92.1L101.424 92.1L101.424 65.412Q101.424 56.484 106.512 51.204Q111.6 45.924 120.432 45.924Q128.112 45.924 132.384 50.34Q136.656 54.756 136.656 63.204L136.656 92.1L141.456 92.1L141.456 62.82Q141.456 52.548 135.984 47.076ZM212.352 41.988L212.352 86.724Q212.352 99.204 206.304 105.156Q200.256 111.108 188.064 111.108Q181.152 111.108 175.008 108.996Q168.864 106.884 165.12 103.14L167.712 99.492Q171.456 102.948 176.736 104.868Q182.016 106.788 187.968 106.788Q197.952 106.788 202.752 102.036Q207.552 97.284 207.552 87.3L207.552 78.852Q204.48 84.324 199.008 87.3Q193.536 90.276 186.72 90.276Q179.712 90.276 174 87.156Q168.288 84.036 165.024 78.468Q161.76 72.9 161.76 65.892Q161.76 58.884 165.024 53.316Q168.288 47.748 174 44.676Q179.712 41.604 186.72 41.604Q193.632 41.604 199.2 44.676Q204.768 47.748 207.744 53.316L207.744 41.988L212.352 41.988ZM245.472 89.22Q251.184 92.484 258.288 92.484Q265.392 92.484 271.104 89.22Q276.816 85.956 280.08 80.148Q283.344 74.34 283.344 67.044Q283.344 59.748 280.08 53.94Q276.816 48.132 271.104 44.868Q265.392 41.604 258.288 41.604Q251.184 41.604 245.472 44.868Q239.76 48.132 236.496 53.94Q233.232 59.748 233.232 67.044Q233.232 74.34 236.496 80.148Q239.76 85.956 245.472 89.22ZM374.64 47.076Q369.168 41.604 359.76 41.604Q352.752 41.604 347.616 44.58Q342.48 47.556 339.888 52.836L339.888 41.988L335.28 41.988L335.28 92.1L340.08 92.1L340.08 65.412Q340.08 56.484 345.168 51.204Q350.256 45.924 359.088 45.924Q366.768 45.924 371.04 50.34Q375.312 54.756 375.312 63.204L375.312 92.1L380.112 92.1L380.112 62.82Q380.112 52.548 374.64 47.076ZM451.008 41.988L451.008 86.724Q451.008 99.204 444.96 105.156Q438.912 111.108 426.72 111.108Q419.808 111.108 413.664 108.996Q407.52 106.884 403.776 103.14L406.368 99.492Q410.112 102.948 415.392 104.868Q420.672 106.788 426.624 106.788Q436.608 106.788 441.408 102.036Q446.208 97.284 446.208 87.3L446.208 78.852Q443.136 84.324 437.664 87.3Q432.192 90.276 425.376 90.276Q418.368 90.276 412.656 87.156Q406.944 84.036 403.68 78.468Q400.416 72.9 400.416 65.892Q400.416 58.884 403.68 53.316Q406.944 47.748 412.656 44.676Q418.368 41.604 425.376 41.604Q432.288 41.604 437.856 44.676Q443.424 47.748 446.4 53.316L446.4 41.988L451.008 41.988ZM605.952 52.932Q608.256 47.46 613.152 44.532Q618.048 41.604 625.056 41.604L625.056 46.308L623.904 46.212Q615.552 46.212 610.848 51.444Q606.144 56.676 606.144 65.988L606.144 92.1L601.344 92.1L601.344 41.988L605.952 41.988L605.952 52.932ZM651.936 89.22Q657.648 92.484 664.752 92.484Q671.856 92.484 677.568 89.22Q683.28 85.956 686.544 80.148Q689.808 74.34 689.808 67.044Q689.808 59.748 686.544 53.94Q683.28 48.132 677.568 44.868Q671.856 41.604 664.752 41.604Q657.648 41.604 651.936 44.868Q646.224 48.132 642.96 53.94Q639.696 59.748 639.696 67.044Q639.696 74.34 642.96 80.148Q646.224 85.956 651.936 89.22ZM741.456 68.196L784.56 68.196L784.656 66.852Q784.656 59.556 781.536 53.796Q778.416 48.036 772.992 44.82Q767.568 41.604 760.752 41.604Q753.936 41.604 748.464 44.868Q742.992 48.132 739.872 53.94Q736.752 59.748 736.752 67.044Q736.752 74.436 740.064 80.196Q743.376 85.956 749.232 89.22Q755.088 92.484 762.576 92.484Q768.336 92.484 773.28 90.372Q778.224 88.26 781.488 84.324L778.704 81.156Q775.92 84.612 771.744 86.388Q767.568 88.164 762.672 88.164Q756.72 88.164 751.968 85.668Q747.216 83.172 744.432 78.612Q741.648 74.052 741.456 68.196ZM825.408 92.484Q818.112 92.484 812.352 89.22Q806.592 85.956 803.328 80.148Q800.064 74.34 800.064 67.044Q800.064 59.652 803.328 53.844Q806.592 48.036 812.352 44.82Q818.112 41.604 825.408 41.604Q831.456 41.604 836.4 43.956Q841.344 46.308 844.416 50.82L840.864 53.412Q838.176 49.668 834.192 47.796Q830.208 45.924 825.408 45.924Q819.552 45.924 814.896 48.564Q810.24 51.204 807.6 56.004Q804.96 60.804 804.96 67.044Q804.96 73.284 807.6 78.084Q810.24 82.884 814.896 85.524Q819.552 88.164 825.408 88.164Q830.208 88.164 834.192 86.292Q838.176 84.42 840.864 80.676L844.416 83.268Q841.344 87.78 836.4 90.132Q831.456 92.484 825.408 92.484ZM304.224 41.988L309.024 41.988L309.024 92.1L304.224 92.1L304.224 41.988ZM702.432 111.108Q699.264 111.108 696.528 110.244Q693.792 109.38 692.064 107.748L693.984 104.196Q697.056 106.98 702.144 106.98Q706.56 106.98 708.864 104.388Q711.168 101.796 711.168 96.9L711.168 41.988L715.968 41.988L715.968 97.092Q715.968 103.524 712.416 107.316Q708.864 111.108 702.432 111.108ZM751.248 48.18Q755.472 45.828 760.752 45.828Q766.032 45.828 770.256 48.228Q774.48 50.628 777.072 54.852Q779.664 59.076 779.952 64.452L741.552 64.452Q741.936 59.076 744.48 54.804Q747.024 50.532 751.248 48.18ZM187.104 85.956Q192.96 85.956 197.664 83.412Q202.368 80.868 205.008 76.308Q207.648 71.748 207.648 65.892Q207.648 60.036 205.008 55.524Q202.368 51.012 197.664 48.468Q192.96 45.924 187.104 45.924Q181.248 45.924 176.592 48.468Q171.936 51.012 169.296 55.524Q166.656 60.036 166.656 65.892Q166.656 71.748 169.296 76.308Q171.936 80.868 176.592 83.412Q181.248 85.956 187.104 85.956ZM268.608 85.476Q264.048 88.164 258.288 88.164Q252.528 88.164 247.968 85.476Q243.408 82.788 240.768 77.988Q238.128 73.188 238.128 67.044Q238.128 60.9 240.768 56.1Q243.408 51.3 247.968 48.612Q252.528 45.924 258.288 45.924Q264.048 45.924 268.608 48.612Q273.168 51.3 275.808 56.1Q278.448 60.9 278.448 67.044Q278.448 73.188 275.808 77.988Q273.168 82.788 268.608 85.476ZM425.76 85.956Q431.616 85.956 436.32 83.412Q441.024 80.868 443.664 76.308Q446.304 71.748 446.304 65.892Q446.304 60.036 443.664 55.524Q441.024 51.012 436.32 48.468Q431.616 45.924 425.76 45.924Q419.904 45.924 415.248 48.468Q410.592 51.012 407.952 55.524Q405.312 60.036 405.312 65.892Q405.312 71.748 407.952 76.308Q410.592 80.868 415.248 83.412Q419.904 85.956 425.76 85.956ZM675.072 85.476Q670.512 88.164 664.752 88.164Q658.992 88.164 654.432 85.476Q649.872 82.788 647.232 77.988Q644.592 73.188 644.592 67.044Q644.592 60.9 647.232 56.1Q649.872 51.3 654.432 48.612Q658.992 45.924 664.752 45.924Q670.512 45.924 675.072 48.612Q679.632 51.3 682.272 56.1Q684.912 60.9 684.912 67.044Q684.912 73.188 682.272 77.988Q679.632 82.788 675.072 85.476Z" />
  </g>
</svg>